<svg width="130" height="130" viewBox="0 0 130 130" fill="none" xmlns="http://www.w3.org/2000/svg">
<mask id="mask0_810_6310" style="mask-type:alpha" maskUnits="userSpaceOnUse" x="0" y="0" width="130" height="130">
<rect width="130" height="130" fill="#D9D9D9"/>
</mask>
<g mask="url(#mask0_810_6310)">
</g>
<g clip-path="url(#clip0_810_6310)">
<path fill-rule="evenodd" clip-rule="evenodd" d="M68.4277 79.4571H66.3131V71.1428C66.3129 70.6994 66.2239 70.2605 66.0515 69.851C65.879 69.4414 65.6265 69.0694 65.3081 68.7563C64.9898 68.4432 64.6119 68.1947 64.1962 68.0257C63.7805 67.8568 63.3352 67.7704 62.8856 67.7714V82.324H71.3242C71.324 81.5654 71.019 80.8379 70.4761 80.3007C69.9332 79.7634 69.1967 79.4599 68.4277 79.4571ZM53.298 67.7714C53.7475 67.7704 54.1929 67.8568 54.6086 68.0257C55.0243 68.1947 55.4021 68.4432 55.7205 68.7563C56.0388 69.0694 56.2915 69.4414 56.4639 69.851C56.6364 70.2605 56.7253 70.6994 56.7256 71.1428V82.324H53.298V67.7714ZM44.3863 74H41.7504V70.6285H48.3449C48.3449 70.2525 48.2696 69.8802 48.1234 69.5329C47.9772 69.1856 47.7631 68.8706 47.4931 68.6052C47.2231 68.3397 46.9026 68.1292 46.5501 67.9862C46.1975 67.8432 45.8198 67.7701 45.4386 67.7714H38.3228V82.324H41.7504V76.8669H47.2925C47.2917 76.1068 46.9852 75.3782 46.4403 74.8407C45.8955 74.3033 45.1568 74.0007 44.3863 74ZM121 67.7714H118.934C118.431 67.7704 117.936 67.8894 117.491 68.1183C117.045 68.3472 116.662 68.6794 116.375 69.086L114.01 72.4286L111.663 69.1144C111.369 68.6994 110.977 68.3604 110.522 68.1266C110.066 67.8929 109.56 67.771 109.047 67.7714H107.019L112.166 75.0477L107.019 82.324H110.717L114.01 77.6574L117.302 82.324H121L115.854 75.0477L121 67.7714ZM82.0221 74H79.3863V70.6285H85.9807C85.9807 69.8707 85.6755 69.1442 85.1323 68.6084C84.5891 68.0726 83.8524 67.7714 83.0841 67.7714H75.9586V82.324H79.3863V76.8669H84.9283C84.9276 76.1068 84.6212 75.3782 84.0763 74.8407C83.5314 74.3033 82.7926 74.0007 82.0221 74ZM96.8331 71.0382C97.6704 71.0385 98.4734 71.3666 99.0654 71.9506C99.6574 72.5346 99.9901 73.3266 99.9904 74.1525V75.9336C99.9904 76.7608 99.6572 77.5538 99.0642 78.1387C98.4712 78.7237 97.6669 79.0525 96.8283 79.0525C95.9896 79.0525 95.1853 78.7237 94.5923 78.1387C93.9993 77.5538 93.6662 76.7608 93.6662 75.9336V74.1525C93.6666 73.7428 93.7489 73.3371 93.9083 72.9588C94.0677 72.5805 94.3012 72.237 94.5953 71.9478C94.8894 71.6586 95.2384 71.4291 95.6224 71.273C96.0064 71.117 96.4178 71.0373 96.8331 71.0382ZM96.8331 67.7714C96.0025 67.7697 95.1797 67.9298 94.4118 68.242C93.6438 68.5542 92.9458 69.0126 92.3576 69.591C91.7693 70.1695 91.3025 70.8564 90.9837 71.613C90.6648 72.3695 90.5003 73.1807 90.4994 74V76.0856C90.4994 77.7413 91.1662 79.3294 92.3531 80.5002C93.54 81.6709 95.1497 82.3287 96.8283 82.3287C98.5068 82.3287 100.117 81.6709 101.304 80.5002C102.49 79.3294 103.157 77.7413 103.157 76.0856V74C103.157 73.1814 102.993 72.3709 102.674 71.6148C102.356 70.8588 101.89 70.1722 101.303 69.5938C100.716 69.0154 100.019 68.557 99.2518 68.2443C98.4849 67.9316 97.663 67.7707 96.8331 67.7714ZM31.2938 60.9619C30.1612 60.9688 29.0334 60.8184 27.9435 60.5146C26.7784 60.2069 25.5772 60.0527 24.3711 60.057C20.9785 60.0479 17.721 61.3683 15.3148 63.7275C12.9086 66.0866 11.5506 69.2919 11.5393 72.6384C11.5387 73.5611 11.6423 74.481 11.8482 75.3811L11.8579 75.4383C9.98395 72.4132 8.99487 68.9355 9.00002 65.3904C9.00597 62.8377 9.52167 60.3112 10.5177 57.9551C11.5138 55.5989 12.9707 53.4597 14.8051 51.659C16.6396 49.8584 18.8157 48.4317 21.2091 47.4607C23.6026 46.4898 26.1665 45.9934 28.7545 46.0001C31.4196 45.9934 34.057 46.535 36.4979 47.5905C37.307 47.9005 38.1694 48.0527 39.0373 48.0383C40.8589 48.0512 42.6117 47.3527 43.9132 46.0954C44.0526 46.8496 44.1237 47.6144 44.1255 48.381C44.1209 50.0383 43.7852 51.6783 43.1378 53.2076C42.4903 54.7368 41.5437 56.1255 40.3521 57.2938C39.1605 58.4621 37.7472 59.3876 36.1929 60.017C34.6387 60.6464 32.9739 60.9673 31.2938 60.9619ZM19.8621 62.1812L19.8524 62.2287C19.7827 62.5961 19.7472 62.969 19.7462 63.3429C19.7479 64.134 19.9076 64.9173 20.2161 65.6476C20.5247 66.3778 20.9761 67.0408 21.5446 67.5988C22.113 68.1569 22.7875 68.5991 23.5292 68.9C24.271 69.2009 25.0655 69.3546 25.8676 69.3525C26.1973 69.3515 26.5266 69.326 26.8524 69.2762C27.1669 69.228 27.4768 69.1547 27.7793 69.0572C27.7696 69.1143 27.7601 69.1621 27.7504 69.2097C27.7504 69.2383 27.7407 69.2574 27.7407 69.286C27.7407 69.3145 27.7311 69.3334 27.7214 69.3525C27.7118 69.3906 27.7117 69.4285 27.7021 69.4571C27.6984 69.4609 27.6957 69.4656 27.6941 69.4706C27.6924 69.4755 27.6918 69.4808 27.6924 69.4859C27.4938 70.3027 27.0832 71.0541 26.5008 71.6669C25.9185 72.2797 25.1846 72.7328 24.3711 72.9811C22.3081 73.5398 20.4887 74.7526 19.1939 76.4325C17.8992 78.1125 17.201 80.1659 17.2069 82.2761C17.2096 83.5167 17.4419 84.7465 17.8924 85.9047L17.9504 86.0001C16.1849 84.4684 14.8056 82.5518 13.9221 80.4025C13.0387 78.2532 12.6753 75.9306 12.8609 73.6186C13.0465 71.3067 13.7758 69.069 14.9911 67.0836C16.2064 65.0982 17.8742 63.4198 19.8621 62.1812ZM19.0993 68.2955C19.099 68.4594 19.1316 68.6216 19.1951 68.773C19.2586 68.9245 19.3518 69.0622 19.4693 69.1781C19.5868 69.294 19.7263 69.3857 19.8799 69.4483C20.0335 69.5109 20.198 69.5434 20.3642 69.5431C20.4792 69.5622 20.5967 69.5622 20.7118 69.5431C20.3762 68.8455 19.8066 68.2832 19.0993 67.9523V68.2955Z" fill="#2F52BB"/>
</g>
<defs>
<clipPath id="clip0_810_6310">
<rect width="112" height="40" fill="white" transform="translate(9 46)"/>
</clipPath>
</defs>
</svg>
