<svg width="130" height="130" viewBox="0 0 130 130" fill="none" xmlns="http://www.w3.org/2000/svg">
<mask id="mask0_787_4841" style="mask-type:alpha" maskUnits="userSpaceOnUse" x="0" y="0" width="130" height="130">
<rect width="130" height="130" fill="#D9D9D9"/>
</mask>
<g mask="url(#mask0_787_4841)">
</g>
<mask id="mask1_787_4841" style="mask-type:alpha" maskUnits="userSpaceOnUse" x="0" y="0" width="130" height="130">
<rect width="130" height="130" fill="#D9D9D9"/>
</mask>
<g mask="url(#mask1_787_4841)">
<mask id="mask2_787_4841" style="mask-type:alpha" maskUnits="userSpaceOnUse" x="19" y="19" width="92" height="92">
<rect x="19" y="19" width="92" height="92" rx="44" fill="#D9D9D9"/>
</mask>
<g mask="url(#mask2_787_4841)">
<rect x="21" y="22" width="86" height="86" rx="43" fill="#2980FE"/>
<mask id="mask3_787_4841" style="mask-type:luminance" maskUnits="userSpaceOnUse" x="33" y="44" width="64" height="42">
<path d="M96.0385 44.8047H33.4375V85.1953H96.0385V44.8047Z" fill="white"/>
</mask>
<g mask="url(#mask3_787_4841)">
<path d="M53.959 58.6958H53.9702C53.959 58.6283 53.959 58.5495 53.959 58.4819V58.6958Z" fill="#29AEFF"/>
<path d="M76.372 60.8348H63.9667V83.2253C63.9667 84.2834 64.8222 85.139 65.8803 85.139H74.4583C75.5165 85.139 76.372 84.2834 76.372 83.2253V60.8348Z" fill="white"/>
<path d="M57.9781 44.8047H57.5615H35.3512C34.293 44.8047 33.4375 45.6602 33.4375 46.7184V54.4858C33.4375 55.544 34.293 56.3995 35.3512 56.3995H40.5633H42.6346V58.696V83.2816C42.6346 84.3398 43.4901 85.1953 44.5483 85.1953H52.6985C53.7566 85.1953 54.6122 84.3398 54.6122 83.2816V58.696V58.4822V56.3995H56.6835H57.5278H57.9443C61.1413 56.3995 63.7417 53.7992 63.7417 50.6021C63.7755 47.4051 61.1751 44.8047 57.9781 44.8047Z" fill="white"/>
<path d="M76.3834 60.8348V76.4597C76.8112 76.5611 77.2502 76.6399 77.7005 76.7074C78.3309 76.7975 78.9838 76.8538 79.6368 76.865C79.6705 76.865 79.7043 76.865 79.7493 76.865V64.4371C77.8694 64.3132 76.3834 62.7485 76.3834 60.8348Z" fill="url(#paint0_linear_787_4841)"/>
<path d="M79.9968 44.8047C71.1487 44.8047 63.9667 51.9867 63.9667 60.8349C63.9667 68.4447 69.2688 74.8162 76.3833 76.4598V60.8349C76.3833 58.8423 78.0043 57.2213 79.9968 57.2213C81.9893 57.2213 83.6104 58.8423 83.6104 60.8349C83.6104 62.5122 82.4734 63.9193 80.9199 64.3245C80.6272 64.4033 80.312 64.4484 79.9968 64.4484V76.865C80.312 76.865 80.6159 76.8538 80.9199 76.8425C89.3402 76.3584 96.0269 69.379 96.0269 60.8349C96.0382 51.9867 88.8562 44.8047 79.9968 44.8047Z" fill="white"/>
<path d="M79.9968 76.8651V64.4484C79.9068 64.4484 79.828 64.4484 79.7379 64.4371V76.8651C79.828 76.8651 79.918 76.8651 79.9968 76.8651Z" fill="white"/>
</g>
</g>
</g>
<defs>
<linearGradient id="paint0_linear_787_4841" x1="80.0022" y1="68.8523" x2="76.385" y2="68.8523" gradientUnits="userSpaceOnUse">
<stop stop-color="white"/>
<stop offset="0.9667" stop-color="white" stop-opacity="0.3233"/>
<stop offset="1" stop-color="white" stop-opacity="0.3"/>
</linearGradient>
</defs>
</svg>
