<svg width="130" height="130" viewBox="0 0 130 130" fill="none" xmlns="http://www.w3.org/2000/svg">
<path d="M65 108C88.7482 108 108 88.7482 108 65C108 41.2518 88.7482 22 65 22C41.2518 22 22 41.2518 22 65C22 88.7482 41.2518 108 65 108Z" fill="url(#paint0_linear_319_440)"/>
<path d="M84.1946 57.3739C82.3862 52.584 78.6984 48.513 73.6135 46.3546C63.7407 42.1639 52.3401 46.77 48.1493 56.6427C45.9672 61.7836 46.1702 67.3388 48.2601 72.0746M56.0393 80.7639C56.7796 81.2226 57.6314 81.7647 58.4375 82.1069C68.3102 86.2976 79.7109 81.6914 83.9016 71.8187C85.3771 68.3426 86.3185 63.5503 85.3822 60.8561" stroke="black" stroke-width="13.3143"/>
<path fill-rule="evenodd" clip-rule="evenodd" d="M40.9822 77.8237C51.1922 73.9045 56.4051 71.9034 56.6212 71.8205C56.9453 71.6961 57.3606 71.722 57.7242 71.7624C57.9666 71.7893 58.2751 71.8837 58.6497 72.0457C59.5162 71.9739 60.1721 72.0164 60.6176 72.1733C61.2858 72.4086 61.5923 72.7069 61.7586 73.1403C61.8695 73.4292 61.872 73.7524 61.7659 74.1097C61.4418 73.8565 61.1476 73.7134 60.8833 73.6804C60.4868 73.6308 60.284 73.7064 59.6742 73.9404C59.2677 74.0965 58.9414 74.2898 58.6952 74.5203L52.2289 80.0859L51.0082 86.5344C50.4665 88.3238 49.7491 89.757 48.856 90.834C47.5163 92.4494 46.6082 92.8807 44.9897 93.7433C43.9107 94.3183 42.6729 94.6951 41.2763 94.8736C41.9597 94.7237 42.6833 94.1496 43.4469 93.1514C43.7456 92.7609 44.4816 91.817 44.7174 90.3176C44.9621 88.7617 45.0967 85.084 45.1214 79.2847L40.9822 77.8237Z" fill="black"/>
<path fill-rule="evenodd" clip-rule="evenodd" d="M40.161 75.7337L98.9081 52.3888L42.4853 63.1604L40.161 75.7337Z" fill="black"/>
<defs>
<linearGradient id="paint0_linear_319_440" x1="486.712" y1="8459.74" x2="8000.5" y2="22.0001" gradientUnits="userSpaceOnUse">
<stop stop-color="#1764FF"/>
<stop offset="0.483091" stop-color="#16CDE5"/>
<stop offset="1" stop-color="#ABE99E"/>
</linearGradient>
</defs>
</svg>
