<svg width="125" height="121" viewBox="0 0 125 121" fill="none" xmlns="http://www.w3.org/2000/svg">
<mask id="mask0_194_1090" style="mask-type:alpha" maskUnits="userSpaceOnUse" x="0" y="0" width="125" height="121">
<rect width="125" height="121" fill="#D9D9D9"/>
</mask>
<g mask="url(#mask0_194_1090)">
<g opacity="0.4">
<path fill-rule="evenodd" clip-rule="evenodd" d="M11.5753 49.295L7.09391 66.5748L63.3804 103.283L95.1665 43.1382L94.66 42.8705L63.1674 102.46L7.75179 66.3199L12.1297 49.4388L11.5753 49.295Z" fill="#9A9AA0"/>
<path fill-rule="evenodd" clip-rule="evenodd" d="M15.7983 39.4141L63.8431 102.993L71.9731 27.5363L71.4036 27.475L63.4285 101.494L16.2553 39.0687L15.7983 39.4141Z" fill="#9A9AA0"/>
</g>
<path d="M7.5553 66.9414C-7.81403 26.9815 20.8789 7.9205 37.1465 3.38501L15.7194 57.8666C10.6563 57.9518 8.16704 63.9519 7.5553 66.9414Z" fill="#0090FF"/>
<path d="M95.1305 43.476C88.4608 1.18509 54.0815 -0.975734 37.7256 3.23022L83.5228 39.6991C87.9501 37.2413 93.106 41.193 95.1305 43.476Z" fill="#0090FF"/>
<path d="M15.7194 57.8666C4.89862 28.5551 25.4955 9.33241 37.1465 3.38501L32.1896 48.1556C22.8259 46.4263 17.3079 53.909 15.7194 57.8666Z" fill="#ECF4FA"/>
<path d="M83.5228 39.6991C78.2381 8.90422 50.7894 2.55531 37.7256 3.23022L64.4036 39.5242C71.6482 33.3447 80.1683 37.066 83.5228 39.6991Z" fill="#ECF4FA"/>
<path d="M64.3196 39.5471C61.8957 19.429 45.7213 6.38594 37.509 2.75878C26.8682 13.6627 29.409 37.7758 32.1904 48.1561C43.692 29.3926 58.2374 34.6428 64.3196 39.5471Z" fill="#0090FF"/>
<path fill-rule="evenodd" clip-rule="evenodd" d="M43.7775 21.603L43.3881 23.3834L47.0876 23.8285L46.828 24.6631L43.1934 24.218C42.9337 24.9412 42.8039 25.7202 42.4794 26.3878C42.1549 27.1667 41.8304 27.9456 41.4409 28.6689C40.9217 29.6147 40.013 30.2824 38.7798 30.4493C38.0659 30.5606 37.287 30.5049 36.7029 30.1155C36.5082 30.0042 36.3135 29.7816 36.3135 29.6147C36.3135 29.3922 36.4433 29.114 36.638 29.0027C36.7678 28.9471 37.0923 29.0027 37.287 29.0584C37.4818 29.2253 37.6765 29.4478 37.8063 29.6704C38.1957 30.1155 38.7149 30.1711 39.2342 29.8373C39.8183 29.3922 40.1428 28.7802 40.3376 28.1682C40.727 26.8329 41.1164 25.5532 41.4409 24.218V23.9954L38.001 23.5503L38.1308 22.7158L41.7005 23.1609L42.1549 21.4361L38.4553 20.9354L38.5851 20.0452L42.4145 20.4903C42.5443 20.1565 42.6092 19.8783 42.739 19.6001C43.0635 18.5986 43.3881 17.5972 44.1669 16.707C44.9458 15.8168 45.8544 15.2604 47.2174 15.3161C47.8016 15.3161 48.3857 15.483 48.7751 15.8724C48.84 15.9281 48.9699 16.0394 48.9699 16.1506C48.9699 16.3732 48.9699 16.6514 48.7751 16.8183C48.5155 16.9852 48.191 16.9295 47.9314 16.707C47.7367 16.5401 47.6069 16.3732 47.4121 16.2063C47.0227 15.7612 46.4386 15.7055 45.9842 16.095C45.6597 16.3732 45.3352 16.7626 45.1405 17.1521C44.6862 18.3205 44.3616 19.5445 43.9073 20.7685L47.477 21.2136L47.2174 22.0481L43.7775 21.603Z" fill="white"/>
<mask id="path-9-outside-1_194_1090" maskUnits="userSpaceOnUse" x="42.8851" y="81.3318" width="41.3825" height="40.6754" fill="black">
<rect fill="white" x="42.8851" y="81.3318" width="41.3825" height="40.6754"/>
<path fill-rule="evenodd" clip-rule="evenodd" d="M81.9725 111.605C79.9458 107.157 76.1339 98.7624 76.0531 98.4605C76.0391 98.4085 75.9744 98.1341 75.871 97.696C75.206 94.8771 72.9422 85.2818 72.3307 84.5685C71.6242 83.7442 70.0669 83.3192 69.1569 84.6052C68.6584 85.3097 68.1121 87.8307 67.6423 89.9991C67.2958 91.5986 66.9908 93.0061 66.7772 93.3512C66.7398 93.4116 66.6687 93.414 66.5992 93.3996C66.058 93.2874 64.3975 93.3098 61.1891 94.1635C61.1891 94.1635 61.1891 94.1635 61.1891 94.1635V94.1635C61.1891 94.1635 61.1891 94.1635 61.1891 94.1635C61.1859 94.1643 61.1826 94.1652 61.1793 94.1661C61.1596 94.1714 61.1398 94.1766 61.1199 94.182C61.1199 94.182 61.1199 94.182 61.1199 94.182V94.182C61.1199 94.1821 61.1199 94.1821 61.1198 94.1821C57.9145 95.047 56.4653 95.8578 56.0527 96.2256C55.9997 96.2728 55.9369 96.3063 55.8743 96.2727C55.5168 96.0806 54.5489 95.0141 53.4491 93.8022C51.958 92.1593 50.2244 90.2491 49.4404 89.8882C48.0094 89.2296 46.8732 90.3763 46.6735 91.4433C46.5006 92.3669 49.3378 101.809 50.1712 104.582C50.3008 105.013 50.3819 105.283 50.3958 105.335C50.4767 105.637 51.3731 114.813 51.8415 119.678C51.8586 119.855 52.0305 119.972 52.2025 119.926L67.0278 115.954C67.0278 115.954 67.0278 115.954 67.0278 115.954V115.954C67.0278 115.954 67.0278 115.954 67.0279 115.954L81.7839 112C81.9559 111.954 82.0463 111.767 81.9725 111.605Z"/>
</mask>
<path fill-rule="evenodd" clip-rule="evenodd" d="M81.9725 111.605C79.9458 107.157 76.1339 98.7624 76.0531 98.4605C76.0391 98.4085 75.9744 98.1341 75.871 97.696C75.206 94.8771 72.9422 85.2818 72.3307 84.5685C71.6242 83.7442 70.0669 83.3192 69.1569 84.6052C68.6584 85.3097 68.1121 87.8307 67.6423 89.9991C67.2958 91.5986 66.9908 93.0061 66.7772 93.3512C66.7398 93.4116 66.6687 93.414 66.5992 93.3996C66.058 93.2874 64.3975 93.3098 61.1891 94.1635C61.1891 94.1635 61.1891 94.1635 61.1891 94.1635V94.1635C61.1891 94.1635 61.1891 94.1635 61.1891 94.1635C61.1859 94.1643 61.1826 94.1652 61.1793 94.1661C61.1596 94.1714 61.1398 94.1766 61.1199 94.182C61.1199 94.182 61.1199 94.182 61.1199 94.182V94.182C61.1199 94.1821 61.1199 94.1821 61.1198 94.1821C57.9145 95.047 56.4653 95.8578 56.0527 96.2256C55.9997 96.2728 55.9369 96.3063 55.8743 96.2727C55.5168 96.0806 54.5489 95.0141 53.4491 93.8022C51.958 92.1593 50.2244 90.2491 49.4404 89.8882C48.0094 89.2296 46.8732 90.3763 46.6735 91.4433C46.5006 92.3669 49.3378 101.809 50.1712 104.582C50.3008 105.013 50.3819 105.283 50.3958 105.335C50.4767 105.637 51.3731 114.813 51.8415 119.678C51.8586 119.855 52.0305 119.972 52.2025 119.926L67.0278 115.954C67.0278 115.954 67.0278 115.954 67.0278 115.954V115.954C67.0278 115.954 67.0278 115.954 67.0279 115.954L81.7839 112C81.9559 111.954 82.0463 111.767 81.9725 111.605Z" fill="#FFAD06"/>
<path d="M81.9725 111.605L82.7587 111.246L82.7587 111.246L81.9725 111.605ZM75.871 97.696L75.0301 97.8944L75.0301 97.8944L75.871 97.696ZM72.3307 84.5685L72.9867 84.0062L72.9867 84.0062L72.3307 84.5685ZM69.1569 84.6052L68.4516 84.1061L68.4516 84.1061L69.1569 84.6052ZM67.6423 89.9991L66.7979 89.8161L66.7979 89.8161L67.6423 89.9991ZM66.7772 93.3512L66.0426 92.8965L66.0425 92.8965L66.7772 93.3512ZM66.5992 93.3996L66.4237 94.2456L66.4237 94.2456L66.5992 93.3996ZM61.1793 94.1661L61.4017 95.001L61.4032 95.0006L61.1793 94.1661ZM56.0527 96.2256L56.6276 96.8705L56.6277 96.8705L56.0527 96.2256ZM55.8743 96.2727L56.2832 95.5116L56.2832 95.5116L55.8743 96.2727ZM53.4491 93.8022L52.8093 94.3829L52.8093 94.3829L53.4491 93.8022ZM49.4404 89.8882L49.8017 89.1034L49.4404 89.8882ZM46.6735 91.4433L45.8242 91.2844L45.8242 91.2844L46.6735 91.4433ZM50.1712 104.582L50.9987 104.334L50.9987 104.334L50.1712 104.582ZM51.8415 119.678L50.9815 119.761L50.9815 119.761L51.8415 119.678ZM81.7839 112L81.5603 111.165L81.7839 112ZM61.1199 94.182L60.8963 93.3474L61.1199 94.182ZM67.0279 115.954L67.2515 116.788L67.0279 115.954ZM61.1198 94.1821L61.3449 95.0163L61.1198 94.1821ZM61.1891 94.1635L61.4127 94.998L61.1891 94.1635ZM61.1891 94.1635L60.967 93.3285L61.1891 94.1635ZM75.2185 98.6841C75.242 98.7716 75.29 98.8857 75.3126 98.9402C75.3481 99.0257 75.3963 99.1384 75.4549 99.2735C75.5725 99.5445 75.7373 99.9175 75.9378 100.368C76.3392 101.269 76.8873 102.487 77.4957 103.834C78.7127 106.527 80.1727 109.739 81.1863 111.963L82.7587 111.246C81.7455 109.023 80.2863 105.813 79.0705 103.122C78.4624 101.776 77.9158 100.562 77.5163 99.6647C77.3165 99.2159 77.1543 98.8489 77.0401 98.5856C76.9828 98.4535 76.9388 98.3506 76.9086 98.2777C76.8655 98.174 76.8743 98.187 76.8876 98.2369L75.2185 98.6841ZM75.0301 97.8944C75.1303 98.3189 75.2001 98.6155 75.2185 98.6841L76.8876 98.2369C76.8881 98.2387 76.8872 98.2353 76.8841 98.2228C76.8813 98.2117 76.8777 98.1968 76.8731 98.1777C76.8638 98.1395 76.8515 98.088 76.8362 98.0234C76.8055 97.8943 76.7637 97.7169 76.7119 97.4976L75.0301 97.8944ZM71.6747 85.1307C71.6282 85.0764 71.6314 85.0594 71.6781 85.1616C71.7149 85.2421 71.7619 85.3591 71.8187 85.5159C71.9318 85.8283 72.0674 86.2537 72.2198 86.7691C72.5238 87.7975 72.8817 89.1395 73.2436 90.5565C73.9669 93.3881 74.6974 96.4844 75.0301 97.8944L76.7119 97.4976C76.3796 96.0888 75.6456 92.9779 74.9179 90.1288C74.5543 88.7055 74.1901 87.3388 73.8769 86.2793C73.7206 85.7508 73.5738 85.2875 73.4435 84.9276C73.3786 84.7483 73.3136 84.5832 73.2498 84.4434C73.1958 84.3252 73.1097 84.1497 72.9867 84.0062L71.6747 85.1307ZM69.8622 85.1043C70.1301 84.7257 70.4437 84.6315 70.7494 84.6566C71.1022 84.6855 71.4617 84.8823 71.6747 85.1307L72.9867 84.0062C72.4932 83.4304 71.7208 83.0025 70.8908 82.9344C70.0138 82.8624 69.0937 83.1987 68.4516 84.1061L69.8622 85.1043ZM68.4867 90.1821C68.7226 89.0932 68.9728 87.9395 69.225 86.9709C69.351 86.4866 69.4741 86.0627 69.5919 85.7245C69.7169 85.3656 69.8123 85.1747 69.8622 85.1043L68.4516 84.1061C68.2522 84.3879 68.0924 84.7763 67.9601 85.156C67.8206 85.5564 67.6842 86.0304 67.5527 86.5355C67.2897 87.5456 67.0318 88.7366 66.7979 89.8161L68.4867 90.1821ZM67.5119 93.8059C67.6289 93.6169 67.7147 93.3689 67.7786 93.1639C67.8503 92.9339 67.9241 92.6562 67.9989 92.3518C68.1487 91.7427 68.3143 90.9777 68.4867 90.1821L66.7979 89.8161C66.6238 90.6199 66.4637 91.3585 66.3209 91.9393C66.2495 92.2298 66.1853 92.4687 66.1289 92.6497C66.0647 92.8557 66.0323 92.913 66.0426 92.8965L67.5119 93.8059ZM66.4237 94.2456C66.5275 94.2671 67.155 94.3825 67.5119 93.8059L66.0425 92.8965C66.1686 92.6928 66.3642 92.5902 66.5276 92.5569C66.6607 92.5297 66.7572 92.55 66.7746 92.5536L66.4237 94.2456ZM61.4113 94.9984C62.9831 94.5802 64.1573 94.3706 64.9899 94.278C65.8437 94.1831 66.2869 94.2172 66.4237 94.2456L66.7746 92.5536C66.3703 92.4698 65.7126 92.459 64.7989 92.5606C63.8638 92.6646 62.6036 92.8931 60.967 93.3285L61.4113 94.9984ZM60.9655 93.3289C60.9622 93.3298 60.9588 93.3307 60.9555 93.3316L61.4032 95.0006C61.4064 94.9997 61.4096 94.9989 61.4127 94.998L60.9655 93.3289ZM61.3435 95.0165C61.363 95.0113 61.3824 95.0061 61.4017 95.001L60.957 93.3312C60.9368 93.3366 60.9166 93.342 60.8963 93.3474L61.3435 95.0165ZM60.8947 93.3479C59.2597 93.7891 58.0541 94.2214 57.1923 94.5988C56.3502 94.9677 55.786 95.3059 55.4778 95.5806L56.6277 96.8705C56.732 96.7775 57.0987 96.5264 57.8856 96.1817C58.6529 95.8456 59.7746 95.44 61.3449 95.0163L60.8947 93.3479ZM55.4778 95.5806C55.491 95.5688 55.5645 95.503 55.6933 95.46C55.8515 95.4071 56.0722 95.3982 56.2832 95.5116L55.4654 97.0338C56.0628 97.3547 56.5486 96.941 56.6276 96.8705L55.4778 95.5806ZM56.2832 95.5116C56.3003 95.5207 56.2436 95.4873 56.085 95.341C55.9457 95.2124 55.7707 95.0377 55.5636 94.8218C55.1495 94.3902 54.6416 93.8306 54.0889 93.2216L52.8093 94.3829C53.3564 94.9857 53.8823 95.5654 54.3166 96.018C54.5336 96.2442 54.7364 96.4479 54.9134 96.6112C55.0712 96.7567 55.2696 96.9286 55.4655 97.0338L56.2832 95.5116ZM54.0889 93.2216C53.3465 92.4036 52.5277 91.5011 51.7949 90.7578C51.4284 90.3862 51.0734 90.0439 50.7523 89.7669C50.4479 89.5041 50.1153 89.2477 49.8017 89.1034L49.0792 90.6731C49.1576 90.7092 49.3357 90.8268 49.6234 91.0751C49.8945 91.3091 50.213 91.6147 50.5643 91.971C51.2671 92.6838 52.0605 93.5579 52.8093 94.3829L54.0889 93.2216ZM49.8017 89.1034C48.7919 88.6386 47.827 88.8074 47.1035 89.3082C46.4187 89.7822 45.9638 90.539 45.8242 91.2844L47.5227 91.6023C47.5829 91.2806 47.7959 90.9305 48.087 90.729C48.3392 90.5544 48.6579 90.4792 49.0792 90.6731L49.8017 89.1034ZM45.8242 91.2844C45.7895 91.4701 45.8027 91.6652 45.815 91.7946C45.8296 91.9475 45.8559 92.123 45.8893 92.3107C45.9564 92.6876 46.0609 93.1622 46.1899 93.698C46.4484 94.7722 46.8163 96.1379 47.2131 97.5524C48.0074 100.384 48.9272 103.445 49.3438 104.831L50.9987 104.334C50.5818 102.946 49.6663 99.8995 48.8769 97.0856C48.4818 95.6775 48.1208 94.3363 47.8699 93.2937C47.7441 92.7711 47.6488 92.3349 47.5906 92.0079C47.5614 91.8436 47.5436 91.7188 47.5352 91.6307C47.5246 91.5189 47.5359 91.532 47.5227 91.6023L45.8242 91.2844ZM49.3438 104.831C49.4086 105.047 49.4611 105.221 49.4991 105.348C49.5181 105.412 49.5332 105.463 49.5443 105.5C49.5498 105.519 49.5541 105.534 49.5573 105.545C49.5609 105.557 49.5618 105.561 49.5613 105.559L51.2304 105.112C51.212 105.043 51.1242 104.751 50.9987 104.334L49.3438 104.831ZM49.5613 105.559C49.5479 105.509 49.549 105.493 49.5636 105.605C49.5738 105.683 49.5872 105.794 49.6036 105.937C49.6363 106.222 49.6794 106.621 49.7307 107.11C49.8332 108.086 49.9673 109.412 50.1136 110.881C50.4062 113.82 50.7473 117.329 50.9815 119.761L52.7016 119.595C52.4673 117.162 52.126 113.651 51.8331 110.71C51.6867 109.24 51.5522 107.911 51.4493 106.929C51.3978 106.439 51.354 106.034 51.3204 105.74C51.3036 105.594 51.289 105.472 51.277 105.381C51.2693 105.322 51.2539 105.199 51.2304 105.112L49.5613 105.559ZM50.9815 119.761C51.0508 120.481 51.7489 120.942 52.4261 120.761L51.9789 119.092C52.3122 119.002 52.6664 119.23 52.7016 119.595L50.9815 119.761ZM52.4261 120.761L67.2514 116.788L66.8042 115.119L51.9789 119.092L52.4261 120.761ZM81.5603 111.165L66.8042 115.119L67.2515 116.788L82.0075 112.834L81.5603 111.165ZM81.1863 111.963C81.0341 111.629 81.227 111.255 81.5603 111.165L82.0075 112.834C82.6848 112.653 83.0586 111.904 82.7587 111.246L81.1863 111.963ZM60.8963 93.3474C60.4354 93.4709 60.1618 93.9446 60.2853 94.4057L61.9544 93.9584C62.0779 94.4194 61.8043 94.8931 61.3435 95.0165L60.8963 93.3474ZM67.2514 116.788C67.7132 116.665 67.9857 116.19 67.8624 115.73L66.1933 116.177C66.07 115.717 66.3425 115.243 66.8042 115.119L67.2514 116.788ZM67.8624 115.73C67.9843 116.185 67.7183 116.663 67.2515 116.788L66.8042 115.119C66.3374 115.244 66.0714 115.722 66.1933 116.177L67.8624 115.73ZM60.2853 94.4057C60.1573 93.928 60.4522 93.4673 60.8947 93.3479L61.3449 95.0163C61.7875 94.8968 62.0824 94.4362 61.9544 93.9584L60.2853 94.4057ZM62.0237 93.9399C61.9002 93.4789 61.4264 93.2054 60.9655 93.3289L61.4127 94.998C60.9518 95.1215 60.4781 94.848 60.3546 94.3871L62.0237 93.9399ZM60.967 93.3285C61.41 93.2107 61.8957 93.4621 62.0237 93.9399L60.3546 94.3871C60.4826 94.8648 60.9683 95.1163 61.4113 94.9984L60.967 93.3285Z" fill="#FF5C00" mask="url(#path-9-outside-1_194_1090)"/>
<path fill-rule="evenodd" clip-rule="evenodd" d="M57.6329 118.173L56.9021 115.446C56.7415 114.846 56.6788 114.225 56.7165 113.605L56.7455 113.129C56.793 112.348 56.9991 111.584 57.3513 110.886L60.5503 104.539C60.7012 104.239 60.8956 103.964 61.1271 103.721C61.5583 103.269 62.1054 102.945 62.7087 102.783L63.7553 102.503L63.7554 102.503L64.4925 102.305C65.0958 102.144 65.7319 102.151 66.3312 102.327C66.6531 102.421 66.9592 102.563 67.2396 102.747L73.1834 106.644C73.8378 107.073 74.3979 107.63 74.8295 108.283L75.0929 108.681C75.4353 109.199 75.6917 109.769 75.8524 110.368L76.5831 113.095C76.6243 113.249 76.5331 113.407 76.3795 113.448L67.306 115.879C67.2616 115.891 67.2169 115.892 67.1747 115.884C67.1425 115.912 67.1034 115.933 67.0591 115.945L57.9856 118.377C57.832 118.418 57.6741 118.326 57.6329 118.173Z" fill="white"/>
<path fill-rule="evenodd" clip-rule="evenodd" d="M64.9374 108.417C63.7448 108.737 63.0178 109.968 63.3374 111.16V111.16C63.3374 111.16 63.3375 111.16 63.3376 111.16L67.6945 109.993C67.6946 109.993 67.6946 109.993 67.6946 109.993V109.993C67.3751 108.8 66.13 108.098 64.9374 108.417Z" fill="black"/>
<path fill-rule="evenodd" clip-rule="evenodd" d="M57.4495 100.203C57.7568 100.12 58.0726 100.303 58.1549 100.61L58.4779 101.815C58.5603 102.123 58.3779 102.438 58.0706 102.521L55.2014 103.29C55.1301 103.309 55.0559 103.269 55.0369 103.198V103.198C54.7126 101.988 55.4308 100.744 56.641 100.419L57.4495 100.203Z" fill="black"/>
<path fill-rule="evenodd" clip-rule="evenodd" d="M64.8236 107.103C65.6548 106.875 66.8206 106.007 67.0651 104.691C67.3722 103.038 66.6415 101.79 63.6043 102.604L63.6043 102.604C60.5798 103.418 60.5725 104.862 61.6636 106.138C62.5378 107.161 63.9917 107.326 64.8237 107.103L64.8236 107.103Z" fill="black"/>
<ellipse opacity="0.6" cx="63.7789" cy="103.315" rx="1.47429" ry="0.512796" transform="rotate(-15 63.7789 103.315)" fill="white"/>
<path fill-rule="evenodd" clip-rule="evenodd" d="M67.2794 97.5687C66.9721 97.6511 66.7898 97.9669 66.8721 98.2742L67.1951 99.4798C67.2775 99.7871 67.5933 99.9694 67.9006 99.8871L70.7707 99.1181C70.8421 99.0989 70.8865 99.0273 70.8674 98.9559V98.9559C70.5431 97.7457 69.2992 97.0275 68.089 97.3518L67.2794 97.5687Z" fill="black"/>
<path d="M68.3897 106.222C68.3286 106.063 68.419 105.885 68.5841 105.841L79.8913 102.811C80.0564 102.767 80.2234 102.876 80.2503 103.044L82.4151 116.638C82.4383 116.784 82.3477 116.924 82.2052 116.962L73.6553 119.253C73.5129 119.291 73.3646 119.215 73.3118 119.077L68.3897 106.222Z" fill="#0090FF"/>
<g clip-path="url(#clip0_194_1090)">
<path fill-rule="evenodd" clip-rule="evenodd" d="M77.2814 115.613C75.0997 116.197 72.8364 114.89 72.2466 112.689C71.6818 110.502 72.9687 108.244 75.1756 107.674C77.3626 107.109 79.6007 108.401 80.1959 110.623C80.7554 112.79 79.4631 115.028 77.2814 115.613Z" fill="#0090FF"/>
<path fill-rule="evenodd" clip-rule="evenodd" d="M76.5018 110.99L76.5599 111.748L77.8941 111.584L77.8946 111.946L76.5829 112.104C76.5713 112.422 76.6108 112.75 76.5705 113.051C76.5423 113.397 76.5142 113.743 76.4574 114.072C76.3797 114.504 76.1364 114.859 75.7259 115.042C75.4898 115.153 75.2131 115.203 74.9678 115.1C74.888 115.073 74.7961 115.001 74.778 114.933C74.7538 114.843 74.7687 114.718 74.8243 114.655C74.8634 114.62 74.9822 114.613 75.0559 114.617C75.1417 114.666 75.2336 114.739 75.3029 114.817C75.4866 114.961 75.6731 114.935 75.8173 114.751C75.972 114.517 76.0183 114.238 76.0195 113.972C76.0098 113.394 76.0061 112.839 75.9738 112.267L75.9496 112.177L74.7057 112.317L74.6601 111.967L75.9492 111.815L75.9197 111.073L74.5795 111.215L74.5279 110.842L75.9072 110.665C75.9161 110.518 75.9084 110.399 75.9233 110.274C75.9273 109.838 75.9313 109.402 76.1053 108.968C76.2793 108.535 76.5346 108.224 77.0144 108.12C77.2174 108.066 77.4386 108.079 77.6163 108.201C77.6449 108.217 77.7021 108.25 77.7142 108.295C77.7384 108.385 77.7686 108.498 77.719 108.584C77.6469 108.676 77.5281 108.684 77.4137 108.618C77.3279 108.568 77.2646 108.512 77.1788 108.463C76.9951 108.319 76.786 108.351 76.6704 108.551C76.5879 108.694 76.5174 108.882 76.492 109.058C76.461 109.574 76.4812 110.101 76.4563 110.639L77.7454 110.487L77.7458 110.85L76.5018 110.99Z" fill="white"/>
</g>
<path d="M75.3502 102.223C75.6503 101.918 76.0265 101.699 76.4399 101.588L78.9415 100.918C79.1976 100.849 79.4608 101.001 79.5294 101.258L79.8952 102.623L73.1897 104.419L75.3502 102.223Z" fill="#0090FF"/>
<path d="M67.8399 105.626C67.8356 105.492 67.9239 105.373 68.0532 105.338L80.1082 102.108C80.2375 102.073 80.3736 102.132 80.4367 102.25L81.0746 103.443C81.162 103.607 81.0743 103.809 80.8951 103.857L68.2463 107.246C68.0672 107.294 67.89 107.163 67.884 106.978L67.8399 105.626Z" fill="#77B6FF"/>
<rect x="78.7512" y="107.718" width="4.92243" height="6.33632" rx="2.46122" transform="rotate(-15 78.7512 107.718)" fill="#FFAD06" stroke="#FF5C00" stroke-width="0.576"/>
<path d="M79.3657 109.911L81.2372 109.409" stroke="#FF5C00" stroke-width="0.576"/>
<path d="M79.8135 111.58L81.685 111.079" stroke="#FF5C00" stroke-width="0.576"/>
</g>
<defs>
<clipPath id="clip0_194_1090">
<rect width="9.34184" height="9.34184" fill="white" transform="translate(70.4976 108.343) rotate(-15)"/>
</clipPath>
</defs>
</svg>
