<svg width="270" height="396" viewBox="0 0 270 396" fill="none" xmlns="http://www.w3.org/2000/svg">
<rect width="270" height="396" rx="24" fill="#F59A23"/>
<rect x="1.5" y="1.5" width="267" height="393" rx="22.5" fill="#191919" fill-opacity="0.8" stroke="#F59A23" stroke-width="3"/>
<rect x="14" y="15" width="242" height="367" rx="16" fill="url(#paint0_linear_199_137)"/>
<circle cx="135" cy="198" r="51" fill="#C1B59F"/>
<path d="M150.584 222L149.647 222.349L149.889 223H150.584V222ZM148.28 215.728L149.22 215.388L149.22 215.388L148.28 215.728ZM146.168 209.84L147.11 209.505L146.874 208.84H146.168V209.84ZM124.6 209.84V208.84H123.909L123.665 209.487L124.6 209.84ZM122.424 215.728L123.364 216.068L122.424 215.728ZM120.184 222V223H120.892L121.127 222.333L120.184 222ZM115.64 222L114.702 221.653L114.203 223H115.64V222ZM120.44 209.136L121.376 209.488L121.377 209.485L120.44 209.136ZM124.792 197.808L123.865 197.433L123.863 197.439L124.792 197.808ZM129.08 187.504L128.161 187.11L129.08 187.504ZM133.56 177.648V176.648H132.931L132.659 177.215L133.56 177.648ZM137.4 177.648L138.301 177.215L138.029 176.648H137.4V177.648ZM146.104 197.808L145.173 198.174L145.176 198.18L145.179 198.187L146.104 197.808ZM150.52 209.136L149.583 209.485L149.584 209.488L150.52 209.136ZM155.384 222V223H156.833L156.319 221.645L155.384 222ZM135.352 182.64L136.267 182.236L135.352 180.166L134.437 182.236L135.352 182.64ZM130.616 193.84L129.689 193.465L129.685 193.474L130.616 193.84ZM125.944 206.128L125.006 205.782L124.509 207.128H125.944V206.128ZM144.824 206.128V207.128H146.259L145.762 205.782L144.824 206.128ZM151.521 221.651C150.711 219.478 149.945 217.39 149.22 215.388L147.34 216.068C148.066 218.077 148.835 220.17 149.647 222.349L151.521 221.651ZM149.22 215.388C148.496 213.384 147.792 211.423 147.11 209.505L145.226 210.175C145.909 212.097 146.614 214.061 147.34 216.068L149.22 215.388ZM146.168 208.84H124.6V210.84H146.168V208.84ZM123.665 209.487C122.937 211.411 122.21 213.378 121.484 215.388L123.364 216.068C124.088 214.067 124.812 212.109 125.535 210.193L123.665 209.487ZM121.484 215.388C120.757 217.396 120.01 219.489 119.241 221.667L121.127 222.333C121.894 220.159 122.64 218.071 123.364 216.068L121.484 215.388ZM120.184 221H115.64V223H120.184V221ZM116.578 222.347C118.284 217.741 119.883 213.454 121.376 209.488L119.504 208.784C118.01 212.754 116.409 217.043 114.702 221.653L116.578 222.347ZM121.377 209.485C122.868 205.48 124.316 201.711 125.721 198.177L123.863 197.439C122.452 200.987 120.998 204.77 119.503 208.787L121.377 209.485ZM125.719 198.183C127.167 194.605 128.594 191.177 129.999 187.898L128.161 187.11C126.75 190.402 125.318 193.843 123.865 197.433L125.719 198.183ZM129.999 187.898C131.401 184.626 132.889 181.354 134.461 178.081L132.659 177.215C131.074 180.513 129.575 183.811 128.161 187.11L129.999 187.898ZM133.56 178.648H137.4V176.648H133.56V178.648ZM136.499 178.081C138.071 181.354 139.559 184.626 140.961 187.898L142.799 187.11C141.385 183.811 139.886 180.513 138.301 177.215L136.499 178.081ZM140.961 187.898C142.365 191.173 143.769 194.598 145.173 198.174L147.035 197.442C145.623 193.85 144.211 190.405 142.799 187.11L140.961 187.898ZM145.179 198.187C146.625 201.717 148.093 205.483 149.583 209.485L151.457 208.787C149.96 204.767 148.485 200.981 147.029 197.429L145.179 198.187ZM149.584 209.488C151.078 213.457 152.699 217.746 154.449 222.355L156.319 221.645C154.57 217.038 152.949 212.751 151.456 208.784L149.584 209.488ZM155.384 221H150.584V223H155.384V221ZM134.437 182.236C132.812 185.915 131.229 189.658 129.689 193.465L131.543 194.215C133.075 190.427 134.65 186.704 136.267 183.044L134.437 182.236ZM129.685 193.474C128.189 197.279 126.629 201.382 125.006 205.782L126.882 206.474C128.501 202.085 130.056 197.996 131.547 194.206L129.685 193.474ZM125.944 207.128H144.824V205.128H125.944V207.128ZM145.762 205.782C144.138 201.379 142.555 197.273 141.015 193.465L139.161 194.215C140.693 198.002 142.268 202.088 143.886 206.474L145.762 205.782ZM141.015 193.465C139.475 189.658 137.892 185.915 136.267 182.236L134.437 183.044C136.054 186.704 137.629 190.427 139.161 194.215L141.015 193.465Z" fill="black"/>
<circle cx="135" cy="198" r="63.5" stroke="#C1B59F"/>
<path fill-rule="evenodd" clip-rule="evenodd" d="M168.584 88C166.025 104.244 151.963 116.667 135 116.667C118.037 116.667 103.975 104.244 101.416 88C101.142 89.7376 101 91.5188 101 93.3333C101 112.111 116.222 127.333 135 127.333C153.778 127.333 169 112.111 169 93.3333C169 91.5188 168.858 89.7376 168.584 88Z" fill="#C1B59F"/>
<path fill-rule="evenodd" clip-rule="evenodd" d="M156.731 104.451C155.075 93.9402 145.976 85.9021 135 85.9021C124.024 85.9021 114.925 93.9402 113.269 104.451C113.092 103.327 113 102.174 113 101C113 88.8498 122.85 79 135 79C147.15 79 157 88.8498 157 101C157 102.174 156.908 103.327 156.731 104.451Z" fill="#C1B59F"/>
<circle cx="135" cy="70" r="6" fill="#C1B59F"/>
<path fill-rule="evenodd" clip-rule="evenodd" d="M168.584 308.333C166.025 292.089 151.963 279.667 135 279.667C118.037 279.667 103.975 292.089 101.416 308.333C101.142 306.596 101 304.814 101 303C101 284.222 116.222 269 135 269C153.778 269 169 284.222 169 303C169 304.814 168.858 306.596 168.584 308.333Z" fill="#C1B59F"/>
<path fill-rule="evenodd" clip-rule="evenodd" d="M156.731 291.882C155.075 302.393 145.976 310.431 135 310.431C124.024 310.431 114.925 302.393 113.269 291.882C113.092 293.007 113 294.159 113 295.333C113 307.483 122.85 317.333 135 317.333C147.15 317.333 157 307.483 157 295.333C157 294.159 156.908 293.007 156.731 291.882Z" fill="#C1B59F"/>
<circle cx="6" cy="6" r="6" transform="matrix(1 0 0 -1 129 332.333)" fill="#C1B59F"/>
<path fill-rule="evenodd" clip-rule="evenodd" d="M220.51 182.196C212.865 183.4 207.02 190.017 207.02 198C207.02 205.983 212.865 212.6 220.51 213.804C219.692 213.933 218.854 214 218 214C209.163 214 202 206.837 202 198C202 189.163 209.163 182 218 182C218.854 182 219.692 182.067 220.51 182.196Z" fill="#C1B59F"/>
<path fill-rule="evenodd" clip-rule="evenodd" d="M212.768 187.774C217.714 188.553 221.497 192.835 221.497 198C221.497 203.165 217.714 207.447 212.768 208.226C213.297 208.31 213.84 208.353 214.392 208.353C220.11 208.353 224.745 203.718 224.745 198C224.745 192.282 220.11 187.647 214.392 187.647C213.84 187.647 213.297 187.69 212.768 187.774Z" fill="#C1B59F"/>
<circle cx="2.82353" cy="2.82353" r="2.82353" transform="matrix(-4.37114e-08 -1 -1 4.37114e-08 231.804 200.824)" fill="#C1B59F"/>
<path fill-rule="evenodd" clip-rule="evenodd" d="M49.2939 182.196C56.9382 183.4 62.7842 190.017 62.7842 198C62.7842 205.983 56.9382 212.6 49.2939 213.804C50.1116 213.933 50.9498 214 51.8037 214C60.6403 214 67.8037 206.837 67.8037 198C67.8037 189.163 60.6403 182 51.8037 182C50.9499 182 50.1116 182.067 49.2939 182.196Z" fill="#C1B59F"/>
<path fill-rule="evenodd" clip-rule="evenodd" d="M57.0356 187.774C52.0894 188.553 48.3067 192.835 48.3067 198C48.3067 203.165 52.0894 207.447 57.0356 208.226C56.5065 208.31 55.9641 208.353 55.4116 208.353C49.6938 208.353 45.0587 203.718 45.0587 198C45.0587 192.282 49.6939 187.647 55.4116 187.647C55.9641 187.647 56.5066 187.69 57.0356 187.774Z" fill="#C1B59F"/>
<circle cx="40.8235" cy="198" r="2.82353" transform="rotate(-90 40.8235 198)" fill="#C1B59F"/>
<defs>
<linearGradient id="paint0_linear_199_137" x1="135" y1="15" x2="135" y2="382" gradientUnits="userSpaceOnUse">
<stop stop-color="#605035"/>
<stop offset="1" stop-color="#191919"/>
</linearGradient>
</defs>
</svg>
