<svg width="270" height="396" viewBox="0 0 270 396" fill="none" xmlns="http://www.w3.org/2000/svg">
<rect opacity="0.4" width="270" height="396" rx="24" fill="#5D38C6"/>
<rect x="1.5" y="1.5" width="267" height="393" rx="22.5" fill="#191919" fill-opacity="0.8" stroke="#5D38C6" stroke-width="3"/>
<rect x="14" y="15" width="242" height="367" rx="16" fill="url(#paint0_linear_199_283)"/>
<circle cx="135" cy="198" r="51" fill="#9FA2C1"/>
<path d="M154.168 209.712L155.089 210.103L155.089 210.103L154.168 209.712ZM149.112 216.752L148.459 215.995L148.451 216.001L149.112 216.752ZM141.432 220.976L141.732 221.93L141.732 221.93L141.432 220.976ZM125.944 222.064L126.052 221.07L126.041 221.069L126.031 221.068L125.944 222.064ZM120.76 221.232H119.76V222.007L120.511 222.2L120.76 221.232ZM120.76 178.48L120.485 177.518L119.76 177.726V178.48H120.76ZM125.944 177.584L126.031 178.58L126.041 178.579L126.052 178.578L125.944 177.584ZM149.112 182.896L148.451 183.647L148.459 183.653L149.112 182.896ZM154.168 189.936L155.089 189.545L155.089 189.545L154.168 189.936ZM125.112 218.16H124.112V219.007L124.948 219.146L125.112 218.16ZM127.032 218.416L126.908 219.408L126.913 219.409L127.032 218.416ZM140.472 217.328L140.808 218.27L140.816 218.267L140.823 218.264L140.472 217.328ZM146.488 213.552L145.781 212.845L145.781 212.845L146.488 213.552ZM150.136 207.664L151.079 207.996L151.081 207.991L150.136 207.664ZM146.488 186.096L147.195 185.389L147.195 185.389L146.488 186.096ZM140.472 182.384L140.121 183.32L140.128 183.323L140.136 183.326L140.472 182.384ZM127.032 181.232L126.913 180.239L126.908 180.24L127.032 181.232ZM125.112 181.488L124.948 180.502L124.112 180.641V181.488H125.112ZM154.96 199.792C154.96 203.487 154.379 206.655 153.247 209.321L155.089 210.103C156.347 207.137 156.96 203.692 156.96 199.792H154.96ZM153.247 209.321C152.109 212.006 150.511 214.224 148.459 215.995L149.765 217.509C152.065 215.525 153.838 213.05 155.089 210.103L153.247 209.321ZM148.451 216.001C146.433 217.777 143.999 219.121 141.132 220.022L141.732 221.93C144.838 220.954 147.524 219.481 149.773 217.503L148.451 216.001ZM141.132 220.022C138.255 220.926 135.073 221.384 131.576 221.384V223.384C135.247 223.384 138.635 222.903 141.732 221.93L141.132 220.022ZM131.576 221.384C129.824 221.384 127.982 221.28 126.052 221.07L125.836 223.058C127.831 223.275 129.744 223.384 131.576 223.384V221.384ZM126.031 221.068C124.109 220.901 122.437 220.631 121.009 220.264L120.511 222.2C122.07 222.601 123.854 222.886 125.857 223.06L126.031 221.068ZM121.76 221.232V178.48H119.76V221.232H121.76ZM121.035 179.442C122.453 179.036 124.116 178.747 126.031 178.58L125.857 176.588C123.847 176.763 122.054 177.07 120.485 177.518L121.035 179.442ZM126.052 178.578C127.982 178.368 129.824 178.264 131.576 178.264V176.264C129.744 176.264 127.831 176.373 125.836 176.59L126.052 178.578ZM131.576 178.264C135.073 178.264 138.255 178.722 141.132 179.626L141.732 177.718C138.635 176.745 135.247 176.264 131.576 176.264V178.264ZM141.132 179.626C143.999 180.527 146.433 181.871 148.451 183.647L149.773 182.145C147.524 180.167 144.838 178.694 141.732 177.718L141.132 179.626ZM148.459 183.653C150.511 185.424 152.109 187.642 153.247 190.327L155.089 189.545C153.838 186.598 152.065 184.123 149.765 182.139L148.459 183.653ZM153.247 190.327C154.379 192.994 154.96 196.142 154.96 199.792H156.96C156.96 195.933 156.346 192.51 155.089 189.545L153.247 190.327ZM124.948 219.146C125.228 219.193 125.891 219.281 126.908 219.408L127.156 217.424C126.125 217.295 125.508 217.212 125.276 217.174L124.948 219.146ZM126.913 219.409C128.043 219.544 129.779 219.608 132.088 219.608V217.608C129.789 217.608 128.155 217.544 127.151 217.423L126.913 219.409ZM132.088 219.608C135.374 219.608 138.287 219.17 140.808 218.27L140.136 216.386C137.878 217.192 135.202 217.608 132.088 217.608V219.608ZM140.823 218.264C143.331 217.324 145.462 215.992 147.195 214.259L145.781 212.845C144.271 214.354 142.392 215.54 140.121 216.392L140.823 218.264ZM147.195 214.259C148.929 212.525 150.222 210.432 151.079 207.996L149.193 207.332C148.428 209.504 147.29 211.336 145.781 212.845L147.195 214.259ZM151.081 207.991C151.934 205.523 152.352 202.786 152.352 199.792H150.352C150.352 202.601 149.96 205.112 149.191 207.337L151.081 207.991ZM152.352 199.792C152.352 196.798 151.934 194.081 151.079 191.652L149.193 192.316C149.96 194.495 150.352 196.983 150.352 199.792H152.352ZM151.079 191.652C150.222 189.216 148.929 187.123 147.195 185.389L145.781 186.803C147.29 188.312 148.428 190.144 149.193 192.316L151.079 191.652ZM147.195 185.389C145.458 183.652 143.322 182.34 140.808 181.442L140.136 183.326C142.401 184.135 144.275 185.297 145.781 186.803L147.195 185.389ZM140.823 181.448C138.297 180.5 135.379 180.04 132.088 180.04V182.04C135.197 182.04 137.868 182.476 140.121 183.32L140.823 181.448ZM132.088 180.04C129.779 180.04 128.043 180.104 126.913 180.239L127.151 182.225C128.155 182.104 129.789 182.04 132.088 182.04V180.04ZM126.908 180.24C125.891 180.367 125.228 180.455 124.948 180.502L125.276 182.474C125.508 182.436 126.125 182.353 127.156 182.224L126.908 180.24ZM124.112 181.488V218.16H126.112V181.488H124.112Z" fill="black"/>
<circle cx="135" cy="198" r="63.5" stroke="#C1B59F"/>
<path fill-rule="evenodd" clip-rule="evenodd" d="M168.584 88C166.025 104.244 151.963 116.667 135 116.667C118.037 116.667 103.975 104.244 101.416 88C101.142 89.7376 101 91.5188 101 93.3333C101 112.111 116.222 127.333 135 127.333C153.778 127.333 169 112.111 169 93.3333C169 91.5188 168.858 89.7376 168.584 88Z" fill="#C1B59F"/>
<path fill-rule="evenodd" clip-rule="evenodd" d="M156.731 104.451C155.075 93.9402 145.976 85.9021 135 85.9021C124.024 85.9021 114.925 93.9402 113.269 104.451C113.092 103.327 113 102.174 113 101C113 88.8498 122.85 79 135 79C147.15 79 157 88.8498 157 101C157 102.174 156.908 103.327 156.731 104.451Z" fill="#C1B59F"/>
<circle cx="135" cy="70" r="6" fill="#C1B59F"/>
<path fill-rule="evenodd" clip-rule="evenodd" d="M168.584 308.333C166.025 292.089 151.963 279.667 135 279.667C118.037 279.667 103.975 292.089 101.416 308.333C101.142 306.596 101 304.814 101 303C101 284.222 116.222 269 135 269C153.778 269 169 284.222 169 303C169 304.814 168.858 306.596 168.584 308.333Z" fill="#C1B59F"/>
<path fill-rule="evenodd" clip-rule="evenodd" d="M156.731 291.882C155.075 302.393 145.976 310.431 135 310.431C124.024 310.431 114.925 302.393 113.269 291.882C113.092 293.007 113 294.159 113 295.333C113 307.483 122.85 317.333 135 317.333C147.15 317.333 157 307.483 157 295.333C157 294.159 156.908 293.007 156.731 291.882Z" fill="#C1B59F"/>
<circle cx="6" cy="6" r="6" transform="matrix(1 0 0 -1 129 332.333)" fill="#C1B59F"/>
<path fill-rule="evenodd" clip-rule="evenodd" d="M220.51 182.196C212.865 183.4 207.02 190.017 207.02 198C207.02 205.983 212.865 212.6 220.51 213.804C219.692 213.933 218.854 214 218 214C209.163 214 202 206.837 202 198C202 189.163 209.163 182 218 182C218.854 182 219.692 182.067 220.51 182.196Z" fill="#C1B59F"/>
<path fill-rule="evenodd" clip-rule="evenodd" d="M212.768 187.774C217.714 188.553 221.497 192.835 221.497 198C221.497 203.165 217.714 207.447 212.768 208.226C213.297 208.31 213.84 208.353 214.392 208.353C220.11 208.353 224.745 203.718 224.745 198C224.745 192.282 220.11 187.647 214.392 187.647C213.84 187.647 213.297 187.69 212.768 187.774Z" fill="#C1B59F"/>
<circle cx="2.82353" cy="2.82353" r="2.82353" transform="matrix(-4.37114e-08 -1 -1 4.37114e-08 231.804 200.824)" fill="#C1B59F"/>
<path fill-rule="evenodd" clip-rule="evenodd" d="M49.2939 182.196C56.9382 183.4 62.7842 190.017 62.7842 198C62.7842 205.983 56.9382 212.6 49.2939 213.804C50.1116 213.933 50.9498 214 51.8037 214C60.6403 214 67.8037 206.837 67.8037 198C67.8037 189.163 60.6403 182 51.8037 182C50.9499 182 50.1116 182.067 49.2939 182.196Z" fill="#C1B59F"/>
<path fill-rule="evenodd" clip-rule="evenodd" d="M57.0356 187.774C52.0894 188.553 48.3067 192.835 48.3067 198C48.3067 203.165 52.0894 207.447 57.0356 208.226C56.5065 208.31 55.9641 208.353 55.4116 208.353C49.6938 208.353 45.0587 203.718 45.0587 198C45.0587 192.282 49.6939 187.647 55.4116 187.647C55.9641 187.647 56.5066 187.69 57.0356 187.774Z" fill="#C1B59F"/>
<circle cx="40.8235" cy="198" r="2.82353" transform="rotate(-90 40.8235 198)" fill="#C1B59F"/>
<defs>
<linearGradient id="paint0_linear_199_283" x1="135" y1="15" x2="135" y2="382" gradientUnits="userSpaceOnUse">
<stop stop-color="#353960"/>
<stop offset="1" stop-color="#191919"/>
</linearGradient>
</defs>
</svg>
