<svg width="270" height="396" viewBox="0 0 270 396" fill="none" xmlns="http://www.w3.org/2000/svg">
<rect x="1.5" y="1.5" width="267" height="393" rx="22.5" fill="#191919" fill-opacity="0.8" stroke="#00D1FF" stroke-width="3"/>
<rect x="14" y="15" width="242" height="367" rx="16" fill="url(#paint0_linear_199_199)"/>
<circle cx="135" cy="198" r="51" fill="#9FBBC1"/>
<path d="M128.824 222.256L128.911 221.26L128.89 221.258L128.869 221.257L128.824 222.256ZM125.88 222L126.004 221.008L125.985 221.005L125.967 221.004L125.88 222ZM123.064 221.68L122.877 222.662L122.9 222.667L122.923 222.67L123.064 221.68ZM120.76 221.168H119.76V221.936L120.502 222.134L120.76 221.168ZM120.76 178.48L120.492 177.516L119.76 177.72V178.48H120.76ZM123.32 177.968L123.455 178.959L123.477 178.956L123.499 178.952L123.32 177.968ZM126.2 177.584L126.287 178.58L126.305 178.579L126.324 178.576L126.2 177.584ZM129.144 177.328L129.101 176.329L129.099 176.329L129.144 177.328ZM138.616 177.84L138.439 178.824L138.442 178.825L138.616 177.84ZM144.312 179.76L143.828 180.635L143.828 180.635L144.312 179.76ZM148.152 183.344L147.305 183.876L147.314 183.89L147.324 183.904L148.152 183.344ZM147.768 194.928L146.958 194.341L146.956 194.345L147.768 194.928ZM142.904 198.384L142.606 197.43L139.103 198.524L142.677 199.358L142.904 198.384ZM146.424 199.664L145.963 200.551L145.963 200.551L146.424 199.664ZM149.24 201.84L148.498 202.511L148.507 202.52L148.515 202.529L149.24 201.84ZM151.096 205.04L150.147 205.356L150.154 205.376L150.161 205.395L151.096 205.04ZM146.808 219.12L147.355 219.957L147.363 219.952L146.808 219.12ZM125.112 200.752V199.752H124.112V200.752H125.112ZM125.112 218.224H124.112V219.1L124.98 219.215L125.112 218.224ZM127.992 218.544L127.892 219.539L127.909 219.541L127.925 219.542L127.992 218.544ZM137.592 218.288L137.457 217.297L137.454 217.298L137.592 218.288ZM142.52 216.88L142.084 215.98L142.084 215.98L142.52 216.88ZM145.912 214.064L145.098 213.483L145.098 213.483L145.912 214.064ZM146.296 205.232L145.408 205.692L145.412 205.699L145.416 205.706L146.296 205.232ZM143.736 202.544L143.212 203.396L143.224 203.403L143.236 203.41L143.736 202.544ZM139.64 201.136L139.48 202.123L139.484 202.124L139.64 201.136ZM125.112 197.04H124.112V198.04H125.112V197.04ZM138.04 196.72L138.19 197.709L138.204 197.707L138.219 197.704L138.04 196.72ZM141.688 195.44L142.192 196.304L142.202 196.297L141.688 195.44ZM144.184 192.944L145.048 193.448L145.052 193.44L145.057 193.433L144.184 192.944ZM144.12 185.264L143.272 185.794L143.277 185.802L143.282 185.81L144.12 185.264ZM141.368 182.768L140.882 183.642L140.889 183.646L140.896 183.649L141.368 182.768ZM137.208 181.424L137.027 182.407L137.039 182.41L137.052 182.412L137.208 181.424ZM127.8 181.104L127.723 180.107L127.72 180.107L127.8 181.104ZM125.112 181.424L124.938 180.439L124.112 180.585V181.424H125.112ZM131.384 221.384C130.696 221.384 129.873 221.343 128.911 221.26L128.737 223.252C129.738 223.339 130.622 223.384 131.384 223.384V221.384ZM128.869 221.257C127.959 221.216 127.004 221.133 126.004 221.008L125.756 222.992C126.804 223.123 127.811 223.211 128.779 223.255L128.869 221.257ZM125.967 221.004C125.002 220.92 124.082 220.815 123.205 220.69L122.923 222.67C123.838 222.801 124.795 222.909 125.793 222.996L125.967 221.004ZM123.251 220.698C122.371 220.53 121.628 220.364 121.018 220.202L120.502 222.134C121.172 222.313 121.965 222.489 122.877 222.662L123.251 220.698ZM121.76 221.168V178.48H119.76V221.168H121.76ZM121.028 179.444C121.745 179.244 122.553 179.082 123.455 178.959L123.185 176.977C122.21 177.11 121.311 177.289 120.492 177.516L121.028 179.444ZM123.499 178.952C124.406 178.787 125.335 178.663 126.287 178.58L126.113 176.588C125.102 176.676 124.111 176.808 123.141 176.984L123.499 178.952ZM126.324 178.576C127.324 178.451 128.279 178.368 129.189 178.327L129.099 176.329C128.131 176.373 127.124 176.461 126.076 176.592L126.324 178.576ZM129.187 178.327C130.157 178.285 131.038 178.264 131.832 178.264V176.264C131.004 176.264 130.093 176.286 129.101 176.329L129.187 178.327ZM131.832 178.264C134.168 178.264 136.37 178.452 138.439 178.824L138.793 176.856C136.596 176.46 134.275 176.264 131.832 176.264V178.264ZM138.442 178.825C140.53 179.193 142.32 179.802 143.828 180.635L144.796 178.885C143.061 177.926 141.054 177.255 138.79 176.855L138.442 178.825ZM143.828 180.635C145.309 181.454 146.461 182.533 147.305 183.876L148.999 182.812C147.965 181.168 146.557 179.858 144.796 178.885L143.828 180.635ZM147.324 183.904C148.169 185.153 148.624 186.759 148.624 188.784H150.624C150.624 186.457 150.098 184.436 148.98 182.784L147.324 183.904ZM148.624 188.784C148.624 190.992 148.056 192.827 146.958 194.341L148.578 195.515C149.955 193.615 150.624 191.355 150.624 188.784H148.624ZM146.956 194.345C145.894 195.824 144.457 196.851 142.606 197.43L143.202 199.338C145.447 198.637 147.253 197.36 148.58 195.511L146.956 194.345ZM142.677 199.358C143.883 199.639 144.977 200.038 145.963 200.551L146.885 198.777C145.738 198.18 144.485 197.726 143.131 197.41L142.677 199.358ZM145.963 200.551C146.923 201.051 147.767 201.703 148.498 202.511L149.982 201.169C149.091 200.185 148.058 199.387 146.885 198.777L145.963 200.551ZM148.515 202.529C149.211 203.261 149.76 204.195 150.147 205.356L152.045 204.724C151.578 203.325 150.89 202.125 149.965 201.151L148.515 202.529ZM150.161 205.395C150.576 206.489 150.8 207.855 150.8 209.52H152.8C152.8 207.686 152.555 206.066 152.031 204.685L150.161 205.395ZM150.8 209.52C150.8 213.385 149.288 216.265 146.253 218.288L147.363 219.952C150.984 217.538 152.8 214.018 152.8 209.52H150.8ZM146.261 218.283C143.177 220.299 138.272 221.384 131.384 221.384V223.384C138.405 223.384 143.783 222.293 147.355 219.957L146.261 218.283ZM124.112 200.752V218.224H126.112V200.752H124.112ZM124.98 219.215C125.637 219.303 126.61 219.411 127.892 219.539L128.092 217.549C126.814 217.421 125.867 217.316 125.244 217.233L124.98 219.215ZM127.925 219.542C129.228 219.629 130.552 219.672 131.896 219.672V217.672C130.595 217.672 129.316 217.63 128.059 217.546L127.925 219.542ZM131.896 219.672C133.902 219.672 135.847 219.541 137.73 219.278L137.454 217.298C135.668 217.547 133.815 217.672 131.896 217.672V219.672ZM137.727 219.279C139.688 219.011 141.436 218.517 142.956 217.78L142.084 215.98C140.788 216.608 139.251 217.053 137.457 217.297L137.727 219.279ZM142.956 217.78C144.505 217.029 145.769 215.985 146.726 214.645L145.098 213.483C144.349 214.532 143.351 215.366 142.084 215.98L142.956 217.78ZM146.726 214.645C147.73 213.239 148.192 211.484 148.192 209.456H146.192C146.192 211.183 145.801 212.5 145.098 213.483L146.726 214.645ZM148.192 209.456C148.192 207.64 147.875 206.055 147.176 204.758L145.416 205.706C145.912 206.627 146.192 207.859 146.192 209.456H148.192ZM147.184 204.772C146.5 203.452 145.513 202.415 144.236 201.678L143.236 203.41C144.178 203.953 144.898 204.708 145.408 205.692L147.184 204.772ZM144.26 201.692C143.013 200.925 141.515 200.42 139.796 200.148L139.484 202.124C141.008 202.364 142.24 202.798 143.212 203.396L144.26 201.692ZM139.8 200.149C138.158 199.883 136.333 199.752 134.328 199.752V201.752C136.249 201.752 137.964 201.877 139.48 202.123L139.8 200.149ZM134.328 199.752H125.112V201.752H134.328V199.752ZM125.112 198.04H133.56V196.04H125.112V198.04ZM133.56 198.04C135.183 198.04 136.727 197.93 138.19 197.709L137.89 195.731C136.537 195.936 135.094 196.04 133.56 196.04V198.04ZM138.219 197.704C139.718 197.431 141.049 196.97 142.192 196.304L141.184 194.576C140.279 195.104 139.178 195.497 137.861 195.736L138.219 197.704ZM142.202 196.297C143.406 195.575 144.361 194.625 145.048 193.448L143.32 192.44C142.812 193.311 142.103 194.025 141.174 194.583L142.202 196.297ZM145.057 193.433C145.76 192.176 146.08 190.651 146.08 188.912H144.08C144.08 190.416 143.802 191.579 143.311 192.455L145.057 193.433ZM146.08 188.912C146.08 187.314 145.726 185.896 144.958 184.718L143.282 185.81C143.794 186.594 144.08 187.609 144.08 188.912H146.08ZM144.968 184.734C144.225 183.545 143.169 182.599 141.84 181.887L140.896 183.649C141.956 184.217 142.735 184.935 143.272 185.794L144.968 184.734ZM141.854 181.894C140.578 181.185 139.074 180.706 137.364 180.436L137.052 182.412C138.585 182.654 139.854 183.071 140.882 183.642L141.854 181.894ZM137.389 180.441C135.698 180.129 133.844 179.976 131.832 179.976V181.976C133.745 181.976 135.475 182.122 137.027 182.407L137.389 180.441ZM131.832 179.976C130.237 179.976 128.866 180.019 127.723 180.107L127.877 182.101C128.952 182.018 130.269 181.976 131.832 181.976V179.976ZM127.72 180.107C126.635 180.194 125.705 180.304 124.938 180.439L125.286 182.409C125.97 182.288 126.832 182.185 127.88 182.101L127.72 180.107ZM124.112 181.424V197.04H126.112V181.424H124.112Z" fill="black"/>
<circle cx="135" cy="198" r="63.5" stroke="#C1B59F"/>
<path fill-rule="evenodd" clip-rule="evenodd" d="M168.584 88C166.025 104.244 151.963 116.667 135 116.667C118.037 116.667 103.975 104.244 101.416 88C101.142 89.7376 101 91.5188 101 93.3333C101 112.111 116.222 127.333 135 127.333C153.778 127.333 169 112.111 169 93.3333C169 91.5188 168.858 89.7376 168.584 88Z" fill="#C1B59F"/>
<path fill-rule="evenodd" clip-rule="evenodd" d="M156.731 104.451C155.075 93.9402 145.976 85.9021 135 85.9021C124.024 85.9021 114.925 93.9402 113.269 104.451C113.092 103.327 113 102.174 113 101C113 88.8498 122.85 79 135 79C147.15 79 157 88.8498 157 101C157 102.174 156.908 103.327 156.731 104.451Z" fill="#C1B59F"/>
<circle cx="135" cy="70" r="6" fill="#C1B59F"/>
<path fill-rule="evenodd" clip-rule="evenodd" d="M168.584 308.333C166.025 292.089 151.963 279.667 135 279.667C118.037 279.667 103.975 292.089 101.416 308.333C101.142 306.596 101 304.814 101 303C101 284.222 116.222 269 135 269C153.778 269 169 284.222 169 303C169 304.814 168.858 306.596 168.584 308.333Z" fill="#C1B59F"/>
<path fill-rule="evenodd" clip-rule="evenodd" d="M156.731 291.882C155.075 302.393 145.976 310.431 135 310.431C124.024 310.431 114.925 302.393 113.269 291.882C113.092 293.007 113 294.159 113 295.333C113 307.483 122.85 317.333 135 317.333C147.15 317.333 157 307.483 157 295.333C157 294.159 156.908 293.007 156.731 291.882Z" fill="#C1B59F"/>
<circle cx="6" cy="6" r="6" transform="matrix(1 0 0 -1 129 332.333)" fill="#C1B59F"/>
<path fill-rule="evenodd" clip-rule="evenodd" d="M220.51 182.196C212.865 183.4 207.02 190.017 207.02 198C207.02 205.983 212.865 212.6 220.51 213.804C219.692 213.933 218.854 214 218 214C209.163 214 202 206.837 202 198C202 189.163 209.163 182 218 182C218.854 182 219.692 182.067 220.51 182.196Z" fill="#C1B59F"/>
<path fill-rule="evenodd" clip-rule="evenodd" d="M212.768 187.774C217.714 188.553 221.497 192.835 221.497 198C221.497 203.165 217.714 207.447 212.768 208.226C213.297 208.31 213.84 208.353 214.392 208.353C220.11 208.353 224.745 203.718 224.745 198C224.745 192.282 220.11 187.647 214.392 187.647C213.84 187.647 213.297 187.69 212.768 187.774Z" fill="#C1B59F"/>
<circle cx="2.82353" cy="2.82353" r="2.82353" transform="matrix(-4.37114e-08 -1 -1 4.37114e-08 231.804 200.824)" fill="#C1B59F"/>
<path fill-rule="evenodd" clip-rule="evenodd" d="M49.2939 182.196C56.9382 183.4 62.7842 190.017 62.7842 198C62.7842 205.983 56.9382 212.6 49.2939 213.804C50.1116 213.933 50.9498 214 51.8037 214C60.6403 214 67.8037 206.837 67.8037 198C67.8037 189.163 60.6403 182 51.8037 182C50.9499 182 50.1116 182.067 49.2939 182.196Z" fill="#C1B59F"/>
<path fill-rule="evenodd" clip-rule="evenodd" d="M57.0356 187.774C52.0894 188.553 48.3067 192.835 48.3067 198C48.3067 203.165 52.0894 207.447 57.0356 208.226C56.5065 208.31 55.9641 208.353 55.4116 208.353C49.6938 208.353 45.0587 203.718 45.0587 198C45.0587 192.282 49.6939 187.647 55.4116 187.647C55.9641 187.647 56.5066 187.69 57.0356 187.774Z" fill="#C1B59F"/>
<circle cx="40.8235" cy="198" r="2.82353" transform="rotate(-90 40.8235 198)" fill="#C1B59F"/>
<defs>
<linearGradient id="paint0_linear_199_199" x1="135" y1="15" x2="135" y2="382" gradientUnits="userSpaceOnUse">
<stop stop-color="#355860"/>
<stop offset="1" stop-color="#191919"/>
</linearGradient>
</defs>
</svg>
