<svg width="270" height="396" viewBox="0 0 270 396" fill="none" xmlns="http://www.w3.org/2000/svg">
<rect opacity="0.4" width="270" height="396" rx="24" fill="#6CC029"/>
<rect x="1.5" y="1.5" width="267" height="393" rx="22.5" fill="#191919" fill-opacity="0.8" stroke="#6CC029" stroke-width="3"/>
<rect x="14" y="15" width="242" height="367" rx="16" fill="url(#paint0_linear_199_241)"/>
<circle cx="135" cy="198" r="51" fill="#AEC19F"/>
<path d="M131.192 221.424L130.804 222.346L130.81 222.348L131.192 221.424ZM124.792 216.944L124.053 217.618L124.061 217.627L124.792 216.944ZM120.504 209.712L119.561 210.045L119.564 210.053L119.567 210.062L120.504 209.712ZM120.632 189.936L119.703 189.567L119.7 189.574L120.632 189.936ZM125.176 182.64L125.899 183.331L125.899 183.331L125.176 182.64ZM131.704 178.224L132.073 179.154L132.08 179.151L132.086 179.148L131.704 178.224ZM143.992 177.008L143.838 177.996L143.838 177.996L143.992 177.008ZM147.576 177.84L147.26 178.789L147.278 178.795L147.296 178.8L147.576 177.84ZM150.2 178.8L149.774 179.705L149.796 179.715L149.819 179.725L150.2 178.8ZM151.864 179.632L152.801 179.981L153.078 179.239L152.419 178.8L151.864 179.632ZM150.456 183.408L149.942 184.265L150.973 184.884L151.393 183.757L150.456 183.408ZM146.36 181.552L145.993 182.482L146.007 182.488L146.022 182.493L146.36 181.552ZM132.984 182L132.574 181.088L132.567 181.091L132.984 182ZM127.8 185.968L127.029 185.332L127.029 185.332L127.8 185.968ZM124.6 192.048L123.645 191.753L123.642 191.761L123.64 191.769L124.6 192.048ZM124.6 207.856L123.638 208.131L123.641 208.141L123.645 208.151L124.6 207.856ZM127.736 213.872L128.509 213.238L128.509 213.238L127.736 213.872ZM132.728 217.712L132.313 218.622L132.32 218.625L132.728 217.712ZM146.616 218.288L146.879 219.253L146.886 219.251L146.894 219.249L146.616 218.288ZM150.968 216.624L151.918 216.313L151.538 215.153L150.476 215.753L150.968 216.624ZM152.184 220.336L152.765 221.15L153.363 220.723L153.134 220.025L152.184 220.336ZM150.648 221.104L150.981 222.047L151.005 222.038L151.029 222.029L150.648 221.104ZM147.896 221.936L147.636 220.97L147.636 220.97L147.896 221.936ZM144.056 222.64L143.939 221.647L143.925 221.649L143.911 221.651L144.056 222.64ZM139.192 221.96C136.456 221.96 133.92 221.471 131.574 220.5L130.81 222.348C133.414 223.425 136.211 223.96 139.192 223.96V221.96ZM131.58 220.502C129.28 219.534 127.263 218.123 125.523 216.261L124.061 217.627C125.99 219.69 128.24 221.266 130.804 222.346L131.58 220.502ZM125.53 216.27C123.837 214.415 122.469 212.119 121.441 209.362L119.567 210.062C120.672 213.023 122.163 215.548 124.054 217.618L125.53 216.27ZM121.447 209.379C120.468 206.604 119.968 203.413 119.968 199.792H117.968C117.968 203.595 118.492 207.017 119.561 210.045L121.447 209.379ZM119.968 199.792C119.968 196.178 120.508 193.02 121.564 190.298L119.7 189.574C118.537 192.57 117.968 195.982 117.968 199.792H119.968ZM121.561 190.305C122.673 187.506 124.123 185.188 125.899 183.331L124.453 181.949C122.475 184.017 120.895 186.564 119.703 189.567L121.561 190.305ZM125.899 183.331C127.679 181.47 129.735 180.081 132.073 179.154L131.335 177.294C128.724 178.33 126.428 179.884 124.453 181.949L125.899 183.331ZM132.086 179.148C134.439 178.174 136.891 177.688 139.448 177.688V175.688C136.629 175.688 133.918 176.226 131.322 177.3L132.086 179.148ZM139.448 177.688C141.07 177.688 142.532 177.792 143.838 177.996L144.146 176.02C142.721 175.797 141.154 175.688 139.448 175.688V177.688ZM143.838 177.996C145.162 178.203 146.301 178.469 147.26 178.789L147.892 176.891C146.803 176.528 145.552 176.24 144.146 176.02L143.838 177.996ZM147.296 178.8C148.285 179.089 149.108 179.392 149.774 179.705L150.626 177.895C149.841 177.526 148.915 177.189 147.856 176.88L147.296 178.8ZM149.819 179.725C150.52 180.013 151.005 180.261 151.309 180.464L152.419 178.8C151.955 178.491 151.331 178.184 150.581 177.875L149.819 179.725ZM150.927 179.283L149.519 183.059L151.393 183.757L152.801 179.981L150.927 179.283ZM150.97 182.551C149.83 181.866 148.4 181.222 146.698 180.611L146.022 182.493C147.648 183.077 148.949 183.67 149.942 184.265L150.97 182.551ZM146.727 180.622C144.953 179.921 142.792 179.592 140.28 179.592V181.592C142.632 181.592 144.525 181.903 145.993 182.482L146.727 180.622ZM140.28 179.592C137.395 179.592 134.818 180.08 132.574 181.088L133.394 182.912C135.331 182.042 137.619 181.592 140.28 181.592V179.592ZM132.567 181.091C130.385 182.091 128.535 183.506 127.029 185.332L128.571 186.604C129.881 185.016 131.487 183.786 133.401 182.909L132.567 181.091ZM127.029 185.332C125.529 187.149 124.404 189.295 123.645 191.753L125.555 192.343C126.246 190.108 127.255 188.2 128.571 186.604L127.029 185.332ZM123.64 191.769C122.927 194.22 122.576 196.918 122.576 199.856H124.576C124.576 197.076 124.908 194.569 125.56 192.327L123.64 191.769ZM122.576 199.856C122.576 202.876 122.926 205.637 123.638 208.131L125.562 207.581C124.909 205.296 124.576 202.724 124.576 199.856H122.576ZM123.645 208.151C124.403 210.604 125.505 212.729 126.963 214.506L128.509 213.238C127.237 211.687 126.248 209.801 125.555 207.561L123.645 208.151ZM126.963 214.506C128.425 216.288 130.212 217.663 132.313 218.622L133.143 216.802C131.319 215.969 129.777 214.784 128.509 213.238L126.963 214.506ZM132.32 218.625C134.473 219.587 136.898 220.056 139.576 220.056V218.056C137.134 218.056 134.993 217.629 133.136 216.799L132.32 218.625ZM139.576 220.056C142.445 220.056 144.887 219.796 146.879 219.253L146.353 217.323C144.59 217.804 142.339 218.056 139.576 218.056V220.056ZM146.894 219.249C148.84 218.686 150.378 218.106 151.46 217.495L150.476 215.753C149.595 216.251 148.232 216.78 146.338 217.327L146.894 219.249ZM150.018 216.935L151.234 220.647L153.134 220.025L151.918 216.313L150.018 216.935ZM151.603 219.522C151.404 219.664 150.983 219.885 150.267 220.179L151.029 222.029C151.764 221.726 152.367 221.434 152.765 221.15L151.603 219.522ZM150.315 220.161C149.622 220.406 148.731 220.675 147.636 220.97L148.156 222.902C149.279 222.599 150.223 222.314 150.981 222.047L150.315 220.161ZM147.636 220.97C146.584 221.254 145.354 221.48 143.939 221.647L144.173 223.633C145.66 223.458 146.989 223.216 148.156 222.902L147.636 220.97ZM143.911 221.651C142.517 221.856 140.946 221.96 139.192 221.96V223.96C141.022 223.96 142.693 223.851 144.201 223.629L143.911 221.651Z" fill="black"/>
<circle cx="135" cy="198" r="63.5" stroke="#C1B59F"/>
<path fill-rule="evenodd" clip-rule="evenodd" d="M168.584 88C166.025 104.244 151.963 116.667 135 116.667C118.037 116.667 103.975 104.244 101.416 88C101.142 89.7376 101 91.5188 101 93.3333C101 112.111 116.222 127.333 135 127.333C153.778 127.333 169 112.111 169 93.3333C169 91.5188 168.858 89.7376 168.584 88Z" fill="#C1B59F"/>
<path fill-rule="evenodd" clip-rule="evenodd" d="M156.731 104.451C155.075 93.9402 145.976 85.9021 135 85.9021C124.024 85.9021 114.925 93.9402 113.269 104.451C113.092 103.327 113 102.174 113 101C113 88.8498 122.85 79 135 79C147.15 79 157 88.8498 157 101C157 102.174 156.908 103.327 156.731 104.451Z" fill="#C1B59F"/>
<circle cx="135" cy="70" r="6" fill="#C1B59F"/>
<path fill-rule="evenodd" clip-rule="evenodd" d="M168.584 308.333C166.025 292.089 151.963 279.667 135 279.667C118.037 279.667 103.975 292.089 101.416 308.333C101.142 306.596 101 304.814 101 303C101 284.222 116.222 269 135 269C153.778 269 169 284.222 169 303C169 304.814 168.858 306.596 168.584 308.333Z" fill="#C1B59F"/>
<path fill-rule="evenodd" clip-rule="evenodd" d="M156.731 291.882C155.075 302.393 145.976 310.431 135 310.431C124.024 310.431 114.925 302.393 113.269 291.882C113.092 293.007 113 294.159 113 295.333C113 307.483 122.85 317.333 135 317.333C147.15 317.333 157 307.483 157 295.333C157 294.159 156.908 293.007 156.731 291.882Z" fill="#C1B59F"/>
<circle cx="6" cy="6" r="6" transform="matrix(1 0 0 -1 129 332.333)" fill="#C1B59F"/>
<path fill-rule="evenodd" clip-rule="evenodd" d="M220.51 182.196C212.865 183.4 207.02 190.017 207.02 198C207.02 205.983 212.865 212.6 220.51 213.804C219.692 213.933 218.854 214 218 214C209.163 214 202 206.837 202 198C202 189.163 209.163 182 218 182C218.854 182 219.692 182.067 220.51 182.196Z" fill="#C1B59F"/>
<path fill-rule="evenodd" clip-rule="evenodd" d="M212.768 187.774C217.714 188.553 221.497 192.835 221.497 198C221.497 203.165 217.714 207.447 212.768 208.226C213.297 208.31 213.84 208.353 214.392 208.353C220.11 208.353 224.745 203.718 224.745 198C224.745 192.282 220.11 187.647 214.392 187.647C213.84 187.647 213.297 187.69 212.768 187.774Z" fill="#C1B59F"/>
<circle cx="2.82353" cy="2.82353" r="2.82353" transform="matrix(-4.37114e-08 -1 -1 4.37114e-08 231.804 200.824)" fill="#C1B59F"/>
<path fill-rule="evenodd" clip-rule="evenodd" d="M49.2939 182.196C56.9382 183.4 62.7842 190.017 62.7842 198C62.7842 205.983 56.9382 212.6 49.2939 213.804C50.1116 213.933 50.9498 214 51.8037 214C60.6403 214 67.8037 206.837 67.8037 198C67.8037 189.163 60.6403 182 51.8037 182C50.9499 182 50.1116 182.067 49.2939 182.196Z" fill="#C1B59F"/>
<path fill-rule="evenodd" clip-rule="evenodd" d="M57.0356 187.774C52.0894 188.553 48.3067 192.835 48.3067 198C48.3067 203.165 52.0894 207.447 57.0356 208.226C56.5065 208.31 55.9641 208.353 55.4116 208.353C49.6938 208.353 45.0587 203.718 45.0587 198C45.0587 192.282 49.6939 187.647 55.4116 187.647C55.9641 187.647 56.5066 187.69 57.0356 187.774Z" fill="#C1B59F"/>
<circle cx="40.8235" cy="198" r="2.82353" transform="rotate(-90 40.8235 198)" fill="#C1B59F"/>
<defs>
<linearGradient id="paint0_linear_199_241" x1="135" y1="15" x2="135" y2="382" gradientUnits="userSpaceOnUse">
<stop stop-color="#546035"/>
<stop offset="1" stop-color="#191919"/>
</linearGradient>
</defs>
</svg>
