<svg width="16" height="16" viewBox="0 0 16 16" fill="none" xmlns="http://www.w3.org/2000/svg">
<path d="M6.66699 3.36462C6.70914 3.10075 6.77206 2.86927 6.85878 2.66659C7.31285 1.60528 8.33366 1.33325 10.6142 1.33325C14.0003 1.33325 14.667 2.66659 14.667 5.39599C14.667 7.33325 14.5184 8.80025 13.3337 9.17368C13.1336 9.23674 12.904 9.2877 12.6406 9.33325" stroke="#FFAD06" stroke-width="1.5" stroke-linecap="round" stroke-linejoin="round"/>
<path d="M6.00065 14.6666C9.33398 14.6666 10.6673 13.6666 10.6673 9.99992C10.6673 6.33325 9.33398 5.33325 6.00065 5.33325C2.66732 5.33325 1.33398 6.11103 1.33398 9.99992C1.33398 13.8888 2.66732 14.6666 6.00065 14.6666Z" stroke="#FFAD06" stroke-width="1.5" stroke-linecap="round" stroke-linejoin="round"/>
<path d="M4.66667 6C4.66667 6 5.06971 7.59695 4.33333 8.33333C3.59695 9.06971 2 8.66667 2 8.66667" stroke="#FFAD06" stroke-width="1.5" stroke-linecap="round" stroke-linejoin="round"/>
</svg>
