<svg width="56" height="56" viewBox="0 0 56 56" fill="none" xmlns="http://www.w3.org/2000/svg">
<circle cx="28" cy="28" r="28" fill="#738BD8"/>
<path d="M38.2036 19.1914C38.1955 19.1759 38.1819 19.1637 38.1655 19.1571C36.2636 18.2981 34.2567 17.6856 32.1947 17.3349C32.1563 17.3279 32.1176 17.3459 32.0988 17.3796C31.8255 17.8678 31.5774 18.3694 31.3555 18.8823C29.1329 18.5501 26.872 18.5501 24.6494 18.8823C24.426 18.3681 24.1739 17.8664 23.8944 17.3796C23.8748 17.3467 23.8367 17.3289 23.7984 17.3349C21.7363 17.6849 19.7291 18.2974 17.8275 19.1571C17.8113 19.1639 17.7975 19.1755 17.7882 19.1903C13.9854 24.7806 12.9437 30.2334 13.4547 35.6187C13.4576 35.6454 13.4714 35.6697 13.4929 35.6862C15.7072 37.3002 18.184 38.5321 20.8175 39.3294C20.8555 39.3407 20.8965 39.3274 20.9204 39.2962C21.486 38.5386 21.9872 37.7364 22.4189 36.8977C22.4309 36.8745 22.4322 36.8472 22.4225 36.823C22.4127 36.7987 22.3929 36.7796 22.368 36.7707C21.5777 36.473 20.8126 36.1141 20.0798 35.6975C20.0528 35.6819 20.0355 35.654 20.0336 35.6232C20.0318 35.5924 20.0456 35.5627 20.0706 35.544C20.2248 35.4306 20.3763 35.3138 20.525 35.1935C20.5516 35.172 20.5883 35.1671 20.6198 35.181C25.4204 37.3376 30.6176 37.3376 35.3614 35.181C35.3929 35.1662 35.4303 35.1706 35.4573 35.1924C35.6062 35.3133 35.7581 35.4305 35.9129 35.544C35.938 35.5625 35.9521 35.5921 35.9505 35.6229C35.9489 35.6537 35.9317 35.6817 35.9048 35.6975C35.1737 36.1176 34.4079 36.4763 33.6155 36.7695C33.5906 36.7788 33.571 36.7982 33.5614 36.8226C33.5519 36.8471 33.5534 36.8744 33.5656 36.8977C34.0045 37.7318 34.5049 38.533 35.0629 39.2949C35.0862 39.327 35.1276 39.3408 35.1658 39.3293C37.8041 38.5346 40.2852 37.3026 42.5023 35.6862C42.5241 35.6705 42.538 35.6463 42.5405 35.6198C43.1523 29.3939 41.5162 23.9857 38.2036 19.1914ZM23.1358 32.3396C21.6905 32.3396 20.4996 31.034 20.4996 29.4305C20.4996 27.8271 21.6674 26.5214 23.1358 26.5214C24.6157 26.5214 25.7951 27.8384 25.772 29.4304C25.772 31.034 24.6041 32.3396 23.1358 32.3396ZM32.8827 32.3396C31.4374 32.3396 30.2465 31.034 30.2465 29.4305C30.2465 27.8271 31.4143 26.5214 32.8827 26.5214C34.3627 26.5214 35.542 27.8384 35.5189 29.4304C35.5189 31.034 34.3627 32.3396 32.8827 32.3396Z" fill="white"/>
</svg>
