<svg width="220" height="190" viewBox="0 0 220 190" fill="none" xmlns="http://www.w3.org/2000/svg">
<g opacity="0.05">
<path d="M190.055 62.6798C183.906 56.8225 172.05 50.3212 167.433 48.349C143.209 83.2046 99.3447 156.567 119.238 164.436C145.158 174.689 184.079 167.477 199.458 128.597C214.837 89.7179 194.886 67.282 190.055 62.6798Z" fill="#0090FF" fill-opacity="0.12" stroke="black"/>
<mask id="mask0_131_153" style="mask-type:alpha" maskUnits="userSpaceOnUse" x="113" y="47" width="93" height="123">
<path d="M190.055 62.6798C183.906 56.8225 172.05 50.3212 167.433 48.349C143.209 83.2046 99.3447 156.567 119.238 164.436C145.158 174.689 184.079 167.477 199.458 128.597C214.837 89.7179 194.886 67.282 190.055 62.6798Z" fill="#0090FF" stroke="black"/>
</mask>
<g mask="url(#mask0_131_153)">
<path fill-rule="evenodd" clip-rule="evenodd" d="M181.163 60.232L211.803 81.6728L212.376 80.8535L181.736 59.4127L181.163 60.232ZM180.06 64.3469L210.7 85.7877L211.273 84.9684L180.633 63.5276L180.06 64.3469ZM209.597 89.9026L178.957 68.4618L179.531 67.6425L210.171 89.0833L209.597 89.9026ZM177.855 72.5766L208.495 94.0174L209.068 93.1981L178.428 71.7573L177.855 72.5766ZM207.392 98.1323L176.752 76.6915L177.326 75.8722L207.966 97.313L207.392 98.1323ZM175.65 80.8064L206.29 102.247L206.863 101.428L176.223 79.987L175.65 80.8064ZM205.187 106.362L174.547 84.9211L175.121 84.1018L205.76 105.543L205.187 106.362ZM173.445 89.036L204.085 110.477L204.658 109.658L174.018 88.2167L173.445 89.036ZM202.982 114.592L172.342 93.151L172.915 92.3317L203.555 113.773L202.982 114.592ZM171.24 97.2657L201.879 118.706L202.453 117.887L171.813 96.4464L171.24 97.2657ZM200.777 122.822L170.137 101.381L170.71 100.561L201.35 122.002L200.777 122.822ZM169.034 105.496L199.674 126.936L200.248 126.117L169.608 104.676L169.034 105.496ZM198.572 131.051L167.932 109.61L168.505 108.791L199.145 130.232L198.572 131.051ZM166.829 113.725L197.469 135.166L198.042 134.347L167.403 112.906L166.829 113.725ZM196.366 139.281L165.727 117.84L166.3 117.021L196.94 138.462L196.366 139.281ZM164.624 121.955L195.264 143.396L195.837 142.576L165.197 121.136L164.624 121.955ZM194.161 147.511L163.521 126.07L164.095 125.25L194.735 146.691L194.161 147.511ZM162.419 130.185L193.059 151.626L193.632 150.806L162.992 129.365L162.419 130.185ZM191.956 155.74L161.316 134.299L161.89 133.48L192.53 154.921L191.956 155.74ZM160.214 138.414L190.854 159.855L191.427 159.036L160.787 137.595L160.214 138.414ZM189.751 163.97L159.111 142.529L159.685 141.71L190.324 163.151L189.751 163.97ZM158.009 146.644L188.648 168.085L189.222 167.266L158.582 145.825L158.009 146.644ZM187.546 172.2L156.906 150.759L157.479 149.94L188.119 171.38L187.546 172.2ZM155.804 154.874L186.443 176.314L187.017 175.495L156.377 154.054L155.804 154.874ZM185.341 180.43L154.701 158.989L155.274 158.169L185.914 179.61L185.341 180.43ZM146.949 159.117L177.589 180.558L178.162 179.738L147.522 158.297L146.949 159.117ZM168.808 180.41L138.168 158.969L138.741 158.15L169.381 179.591L168.808 180.41ZM132.197 160.677L162.837 182.118L163.41 181.299L132.771 159.858L132.197 160.677Z" fill="black"/>
</g>
<path d="M185.984 124.472C172.408 156.668 141.165 173.993 116.318 163.515C91.4707 153.038 82.0657 118.573 95.642 86.3771C109.218 54.1808 140.461 36.8562 165.308 47.3334C190.155 57.8107 199.56 92.2755 185.984 124.472Z" fill="white" stroke="black"/>
<path d="M178.955 122.132C167.025 150.423 139.789 165.697 118.242 156.611C96.6953 147.525 88.6191 117.361 100.549 89.0701C112.478 60.7793 139.714 45.5054 161.261 54.5911C182.808 63.6768 190.884 93.841 178.955 122.132Z" fill="#0090FF" stroke="black"/>
<path fill-rule="evenodd" clip-rule="evenodd" d="M140.918 100.196L138.323 105.576L148.167 109.732L146.738 112.197L137.073 108.088C135.739 110.198 134.715 112.582 133.249 114.467C131.688 116.706 130.127 118.946 128.433 120.96C126.192 123.587 123.111 125.039 119.561 124.657C117.493 124.483 115.388 123.729 114.106 122.057C113.663 121.558 113.314 120.706 113.457 120.174C113.647 119.466 114.243 118.676 114.876 118.466C115.282 118.385 116.131 118.803 116.622 119.124C117.018 119.799 117.366 120.652 117.535 121.457C118.231 123.162 119.619 123.724 121.338 123.045C123.332 122.061 124.751 120.353 125.811 118.549C128.027 114.586 130.194 110.801 132.23 106.791L132.42 106.082L123.293 102.118L124.364 99.5572L133.849 103.618L136.576 98.4633L126.779 94.1297L127.898 91.3919L138.1 95.6445C138.744 94.6779 139.161 93.8404 139.757 93.0509C141.508 90.1031 143.259 87.1552 146.17 84.8981C149.082 82.6409 152.068 81.5426 155.787 82.729C157.401 83.1615 158.873 84.1254 159.617 85.6536C159.749 85.8788 160.013 86.3291 159.918 86.6834C159.728 87.3919 159.491 88.2775 158.811 88.6646C157.951 89.0037 157.101 88.5863 156.574 87.6856C156.178 87.0101 155.962 86.3826 155.566 85.707C154.869 84.0017 153.303 83.3921 151.715 84.2955C150.581 84.9408 149.352 85.9403 148.481 87.0359C146.229 90.419 144.288 94.0753 141.989 97.6355L151.474 101.696L150.045 104.16L140.918 100.196Z" fill="white"/>
</g>
<path d="M95.1011 22.0779C86.8477 20.0796 73.3291 20.3774 68.3447 20.978C64.7937 63.2759 63.4875 148.742 84.6506 145.61C112.224 141.529 142.324 115.823 136.203 74.4625C130.083 33.1023 101.586 23.648 95.1011 22.0779Z" fill="#0090FF" fill-opacity="0.12" stroke="black"/>
<mask id="mask1_131_153" style="mask-type:alpha" maskUnits="userSpaceOnUse" x="65" y="20" width="73" height="127">
<path d="M95.1011 22.0779C86.8477 20.0796 73.3291 20.3774 68.3447 20.978C64.7937 63.2759 63.4875 148.742 84.6506 145.61C112.224 141.529 142.324 115.823 136.203 74.4625C130.083 33.1023 101.586 23.648 95.1011 22.0779Z" fill="#0090FF" stroke="black"/>
</mask>
<g mask="url(#mask1_131_153)">
<path fill-rule="evenodd" clip-rule="evenodd" d="M86.1762 24.4042L123.432 27.6525L123.518 26.6563L86.2631 23.408L86.1762 24.4042ZM87.2788 28.5191L124.534 31.7674L124.621 30.7712L87.3657 27.5229L87.2788 28.5191ZM125.637 35.8823L88.3814 32.634L88.4683 31.6377L125.724 34.8861L125.637 35.8823ZM89.4839 36.7487L126.739 39.9971L126.826 39.0009L89.5708 35.7525L89.4839 36.7487ZM127.842 44.112L90.5865 40.8636L90.6734 39.8674L127.929 43.1158L127.842 44.112ZM91.6891 44.9785L128.944 48.2269L129.031 47.2307L91.776 43.9823L91.6891 44.9785ZM130.047 52.3416L92.7917 49.0933L92.8785 48.0971L130.134 51.3454L130.047 52.3416ZM93.8942 53.2082L131.15 56.4565L131.236 55.4603L93.9811 52.212L93.8942 53.2082ZM132.252 60.5715L94.9969 57.3232L95.0837 56.327L132.339 59.5753L132.252 60.5715ZM96.0994 61.4379L133.355 64.6862L133.442 63.69L96.1862 60.4416L96.0994 61.4379ZM134.457 68.8012L97.202 65.5529L97.2888 64.5566L134.544 67.805L134.457 68.8012ZM98.3046 69.6678L135.56 72.9161L135.647 71.9199L98.3914 68.6715L98.3046 69.6678ZM136.662 77.0309L99.4071 73.7825L99.494 72.7863L136.749 76.0347L136.662 77.0309ZM100.51 77.8974L137.765 81.1458L137.852 80.1495L100.597 76.9012L100.51 77.8974ZM138.868 85.2607L101.612 82.0123L101.699 81.0161L138.954 84.2644L138.868 85.2607ZM102.715 86.1271L139.97 89.3754L140.057 88.3792L102.802 85.1309L102.715 86.1271ZM141.073 93.4903L103.817 90.242L103.904 89.2458L141.16 92.4941L141.073 93.4903ZM104.92 94.3569L142.175 97.6052L142.262 96.609L105.007 93.3606L104.92 94.3569ZM143.278 101.72L106.023 98.4716L106.109 97.4754L143.365 100.724L143.278 101.72ZM107.125 102.587L144.38 105.835L144.467 104.839L107.212 101.59L107.125 102.587ZM145.483 109.95L108.228 106.701L108.315 105.705L145.57 108.953L145.483 109.95ZM109.33 110.816L146.586 114.065L146.672 113.068L109.417 109.82L109.33 110.816ZM147.688 118.179L110.433 114.931L110.52 113.935L147.775 117.183L147.688 118.179ZM111.535 119.046L148.791 122.294L148.878 121.298L111.622 118.05L111.535 119.046ZM149.893 126.409L112.638 123.161L112.725 122.165L149.98 125.413L149.893 126.409ZM105.988 127.148L143.244 130.396L143.331 129.4L106.075 126.152L105.988 127.148ZM135.565 134.659L98.3101 131.41L98.397 130.414L135.652 133.663L135.565 134.659ZM93.9934 135.875L131.249 139.123L131.336 138.127L94.0803 134.879L93.9934 135.875Z" fill="black"/>
</g>
<path d="M122.472 77.6268C126.812 112.298 108.417 142.923 81.6606 146.273C54.9039 149.623 29.5265 124.478 25.1858 89.8068C20.8451 55.1359 39.2401 24.5108 65.9968 21.1609C92.7535 17.811 118.131 42.9559 122.472 77.6268Z" fill="white" stroke="black"/>
<path d="M115.214 79.1149C119.029 109.58 103.078 136.426 79.8752 139.331C56.6722 142.236 34.5958 120.151 30.7816 89.6857C26.9674 59.2205 42.9178 32.3748 66.1208 29.4698C89.3238 26.5648 111.4 48.6497 115.214 79.1149Z" fill="#0090FF" stroke="black"/>
<path fill-rule="evenodd" clip-rule="evenodd" d="M71.3054 79.1365L71.7479 85.0927L82.3514 83.7702L82.3458 86.6192L71.9217 87.8937C71.8212 90.3884 72.1269 92.9642 71.7995 95.33C71.5671 98.0499 71.3347 100.77 70.8755 103.361C70.2474 106.756 68.3058 109.555 65.0402 110.999C63.1621 111.882 60.9622 112.282 59.0157 111.474C58.3827 111.264 57.6548 110.7 57.5124 110.169C57.3226 109.46 57.444 108.478 57.8872 107.98C58.1985 107.707 59.1428 107.644 59.7283 107.677C60.4088 108.064 61.1367 108.628 61.6853 109.24C63.1412 110.369 64.6235 110.162 65.7737 108.714C67.0083 106.865 67.3831 104.676 67.3992 102.584C67.3363 98.0445 67.321 93.6825 67.0788 89.1913L66.889 88.4828L57.0029 89.6131L56.6498 86.8602L66.8945 85.6338L66.6789 79.8067L56.0279 80.9521L55.6273 78.0221L66.5895 76.6035C66.6635 75.4446 66.6056 74.511 66.727 73.5293C66.7696 70.1008 66.8122 66.6724 68.2052 63.2617C69.5983 59.8511 71.6348 57.4071 75.4489 56.5749C77.0632 56.1424 78.8199 56.2412 80.2283 57.1926C80.4551 57.3217 80.9088 57.5798 81.0037 57.9341C81.1935 58.6425 81.4308 59.5281 81.0351 60.2037C80.46 60.9273 79.5157 60.9904 78.6084 60.4742C77.928 60.087 77.4268 59.6518 76.7464 59.2646C75.2905 58.1361 73.6288 58.3915 72.7054 59.9677C72.0459 61.0936 71.4813 62.5738 71.2754 63.9578C71.0165 68.0137 71.1637 72.1506 70.9523 76.3836L81.197 75.1572L81.1914 78.0063L71.3054 79.1365Z" fill="white"/>
</svg>
