<svg width="69" height="69" viewBox="0 0 69 69" fill="none" xmlns="http://www.w3.org/2000/svg">
<g clip-path="url(#clip0_240_780)">
<rect width="69" height="69" rx="34.5" fill="#FFE896"/>
<path fill-rule="evenodd" clip-rule="evenodd" d="M12.3863 52.9184C13.5394 46.0267 15.6805 33.1219 15.6805 32.6772C15.6805 32.6005 15.6684 32.1984 15.649 31.5565C15.5246 27.4264 15.1012 13.3676 15.6805 12.1587C16.3497 10.762 18.3388 9.60131 20.0677 11.0374C21.0149 11.8242 22.6985 15.0966 24.1466 17.9113C25.2031 19.9648 26.1342 21.7746 26.5625 22.1977C26.6432 22.2774 26.7545 22.2539 26.8563 22.204C27.5796 21.8488 29.877 21.2755 34.5769 21.2672C34.5769 21.2672 34.5769 21.2672 34.5769 21.2672V21.2672C34.5769 21.2671 34.577 21.2671 34.577 21.2671C34.5941 21.2671 34.6112 21.2671 34.6282 21.2672C34.6452 21.2671 34.6623 21.2671 34.6794 21.2671C34.6794 21.2671 34.6795 21.2671 34.6795 21.2672V21.2672C34.6795 21.2672 34.6795 21.2672 34.6795 21.2672C39.3794 21.2755 41.6768 21.8488 42.4001 22.204C42.5019 22.2539 42.6133 22.2774 42.6939 22.1977C43.1222 21.7746 44.0534 19.9648 45.1098 17.9113C46.5579 15.0966 48.2416 11.8242 49.1887 11.0374C50.9176 9.60131 52.9067 10.762 53.5759 12.1587C54.1552 13.3676 53.7318 27.4264 53.6074 31.5565C53.5881 32.1984 53.5759 32.6005 53.5759 32.6772C53.5759 33.1219 55.717 46.0267 56.8701 52.9184C56.917 53.1988 56.7004 53.4514 56.4161 53.4514H34.6795H34.5769H12.8403C12.556 53.4514 12.3394 53.1988 12.3863 52.9184Z" fill="#FFAD06"/>
<path fill-rule="evenodd" clip-rule="evenodd" d="M42.4001 22.204C42.5018 22.254 42.6132 22.2775 42.6939 22.1978C43.1222 21.7746 44.0533 19.9648 45.1098 17.9114C46.5579 15.0967 48.2415 11.8242 49.1886 11.0375C50.9175 9.60137 52.9067 10.762 53.5759 12.1588C54.1551 13.3677 53.7317 27.4264 53.6073 31.5565L53.6073 31.5583C53.588 32.1992 53.5759 32.6006 53.5759 32.6773C53.5759 33.1219 55.7169 46.0267 56.8701 52.9185C56.917 53.1988 56.7003 53.4515 56.4161 53.4515H12.8403C12.556 53.4515 12.3394 53.1988 12.3863 52.9185C13.5394 46.0267 15.6805 33.1219 15.6805 32.6773C15.6805 32.6005 15.6684 32.1984 15.649 31.5565C15.5246 27.4264 15.1012 13.3677 15.6805 12.1588C16.3497 10.762 18.3388 9.60137 20.0677 11.0375C21.0148 11.8242 22.6985 15.0967 24.1466 17.9114C25.203 19.9648 26.1342 21.7746 26.5625 22.1978C26.6431 22.2775 26.7545 22.254 26.8563 22.204C27.5108 21.8826 29.4541 21.3826 33.3002 21.2843C33.7045 21.274 34.1298 21.2681 34.5769 21.2673L34.6794 21.2672C35.1265 21.268 35.5519 21.274 35.9562 21.2843C39.8022 21.3826 41.7456 21.8826 42.4001 22.204ZM27.1549 20.6307C27.6525 20.4869 28.2733 20.3541 29.0197 20.2416C30.3495 20.0411 32.1633 19.8928 34.5584 19.8879C34.5646 19.8878 34.5708 19.8878 34.577 19.8878H34.6794C34.6856 19.8878 34.6918 19.8878 34.698 19.8879C37.0931 19.8928 38.9068 20.0411 40.2366 20.2416C40.9831 20.3541 41.6039 20.4869 42.1015 20.6307C42.2077 20.4503 42.3264 20.2401 42.4571 20.0021C42.8646 19.2599 43.3521 18.3127 43.8832 17.2803L43.8913 17.2646C44.6097 15.8682 45.4032 14.3259 46.1376 13.0327C46.5063 12.3836 46.8714 11.7771 47.2146 11.2721C47.5382 10.7961 47.9115 10.3052 48.3073 9.9764C49.5695 8.92791 51.0166 8.79768 52.2444 9.2371C53.4013 9.65114 54.3365 10.554 54.8199 11.5628C54.9459 11.8258 55.0023 12.1172 55.0333 12.3015C55.0706 12.5231 55.0995 12.7789 55.123 13.052C55.17 13.6004 55.2014 14.2964 55.2216 15.0835C55.2621 16.662 55.2593 18.682 55.2347 20.7784C55.1856 24.9731 55.0484 29.5303 54.9862 31.5956L54.9861 31.5981C54.9764 31.9195 54.9686 32.1792 54.9632 32.3683L54.957 32.5939C54.9567 32.6078 54.9564 32.6197 54.9562 32.6298C54.9583 32.648 54.9619 32.6776 54.9677 32.7212C54.9822 32.831 55.0045 32.9873 55.0345 33.1891C55.0943 33.5914 55.1817 34.1537 55.2908 34.8425C55.509 36.2188 55.8122 38.0861 56.1517 40.157C56.8308 44.2982 57.6541 49.2457 58.2305 52.6908C58.4201 53.8237 57.5414 54.8308 56.4161 54.8308H12.8403C11.7149 54.8308 10.8363 53.8237 11.0258 52.6908C11.6023 49.2457 12.4255 44.2982 13.1046 40.157C13.4442 38.0861 13.7474 36.2188 13.9655 34.8425C14.0747 34.1537 14.162 33.5914 14.2218 33.1891C14.2518 32.9873 14.2741 32.831 14.2887 32.7212C14.2944 32.6776 14.298 32.648 14.3001 32.6298C14.2999 32.6197 14.2996 32.6078 14.2993 32.5939L14.2932 32.3683C14.2878 32.1792 14.2799 31.9195 14.2703 31.5981L14.2702 31.5955C14.208 29.5303 14.0707 24.9731 14.0216 20.7784C13.997 18.682 13.9943 16.662 14.0348 15.0835C14.055 14.2964 14.0863 13.6004 14.1334 13.052C14.1568 12.7789 14.1857 12.5231 14.2231 12.3015C14.2541 12.1172 14.3105 11.8258 14.4365 11.5628C14.9198 10.554 15.855 9.65114 17.0119 9.2371C18.2397 8.79768 19.6868 8.92791 20.9491 9.9764C21.3449 10.3052 21.7181 10.7961 22.0417 11.2721C22.385 11.7771 22.7501 12.3836 23.1187 13.0327C23.8531 14.3259 24.6466 15.8681 25.3651 17.2646L25.3731 17.2803C25.9043 18.3127 26.3917 19.2599 26.7992 20.0021C26.9299 20.2401 27.0487 20.4503 27.1549 20.6307ZM33.6058 20.2876C33.3537 20.5375 33.1975 20.8841 33.1975 21.2672C33.1975 20.8755 33.3563 20.5332 33.6058 20.2876ZM35.6505 20.2876C35.9 20.5332 36.0588 20.8755 36.0588 21.2672C36.0588 20.8841 35.9026 20.5375 35.6505 20.2876Z" fill="#FF5C00"/>
<path fill-rule="evenodd" clip-rule="evenodd" d="M20.9136 52.9915V49.1714C20.9136 48.1806 21.0737 47.1963 21.3878 46.2566L21.4894 45.9525C21.8854 44.7677 22.5186 43.676 23.3504 42.744L29.9682 35.3293C30.2868 34.9723 30.6564 34.6644 31.065 34.4155C31.826 33.952 32.6999 33.7068 33.591 33.7068H35.1368L36.2254 33.7068C37.1165 33.7068 37.9903 33.952 38.7514 34.4155C39.16 34.6644 39.5296 34.9723 39.8482 35.3293L46.466 42.744C47.2978 43.676 47.931 44.7677 48.327 45.9525L48.4286 46.2566C48.7427 47.1964 48.9028 48.1806 48.9028 49.1714V52.9915C48.9028 53.2455 48.6969 53.4513 48.443 53.4513H35.1394C35.0551 53.4513 34.9761 53.4286 34.9082 53.3891C34.8403 53.4286 34.7613 53.4513 34.677 53.4513H21.3734C21.1194 53.4513 20.9136 53.2455 20.9136 52.9915Z" fill="white"/>
<path fill-rule="evenodd" clip-rule="evenodd" d="M31.3868 45.1004C31.3612 45.3105 31.5352 45.4828 31.7468 45.4828H37.4161C37.6277 45.4828 37.8017 45.3105 37.7761 45.1004C37.5836 43.5193 36.2135 42.2935 34.5815 42.2935C32.9494 42.2935 31.5793 43.5193 31.3868 45.1004Z" fill="black"/>
<path fill-rule="evenodd" clip-rule="evenodd" d="M27.1995 28.2087C27.7074 28.2087 28.1191 28.6205 28.1191 29.1283V30.7133C28.1191 31.2211 27.7074 31.6329 27.1995 31.6329H23.0588C22.9534 31.6329 22.8657 31.5506 22.8657 31.4453V31.4453C22.8657 29.6578 24.3148 28.2087 26.1023 28.2087H27.1995Z" fill="black"/>
<path fill-rule="evenodd" clip-rule="evenodd" d="M34.9101 40.4411C36.1399 40.433 38.0664 39.6674 38.889 37.9446C39.9228 35.7797 39.3766 33.7903 34.8906 33.7903V33.7905C30.4225 33.7962 29.8795 35.783 30.9117 37.9448C31.7387 39.6767 33.6813 40.4413 34.9101 40.4413V40.4411Z" fill="black"/>
<path opacity="0.6" d="M36.9723 34.8344C36.9723 35.2384 36.0306 35.566 34.8689 35.566C33.7073 35.566 32.7656 35.2384 32.7656 34.8344C32.7656 34.4303 33.7073 34.1028 34.8689 34.1028C36.0306 34.1028 36.9723 34.4303 36.9723 34.8344Z" fill="white"/>
<path fill-rule="evenodd" clip-rule="evenodd" d="M41.9133 28.2087C41.4054 28.2087 40.9937 28.6205 40.9937 29.1283V30.7133C40.9937 31.2211 41.4054 31.6329 41.9133 31.6329H46.054C46.1594 31.6329 46.2471 31.5506 46.2471 31.4453V31.4453C46.2471 29.6578 44.798 28.2087 43.0106 28.2087H41.9133Z" fill="black"/>
<path d="M40.1549 40.5982C40.1266 40.3268 40.3394 40.0907 40.6122 40.0907H57.2044C57.4772 40.0907 57.69 40.3268 57.6617 40.5982L55.6356 60.0328C55.6111 60.267 55.4137 60.4449 55.1782 60.4449H42.6383C42.4028 60.4449 42.2054 60.267 42.181 60.0328L40.1549 40.5982Z" fill="#0090FF"/>
<path fill-rule="evenodd" clip-rule="evenodd" d="M48.9355 56.7676C45.7131 56.7676 43.0767 54.1312 43.0767 50.8796C43.106 47.6573 45.7131 45.0209 48.9648 45.0502C52.1871 45.0795 54.7943 47.6866 54.7943 50.9675C54.765 54.1605 52.1578 56.7676 48.9355 56.7676Z" fill="#0090FF"/>
<path fill-rule="evenodd" clip-rule="evenodd" d="M49.5685 50.109L49.3686 51.1753L51.2678 51.4418L51.1345 51.9416L49.2687 51.675C49.1354 52.1082 49.0687 52.5747 48.9021 52.9745C48.7356 53.441 48.569 53.9074 48.369 54.3406C48.1025 54.907 47.636 55.3069 47.0029 55.4068C46.6364 55.4734 46.2366 55.4401 45.9367 55.2069C45.8368 55.1403 45.7368 55.007 45.7368 54.907C45.7368 54.7737 45.8035 54.6071 45.9034 54.5405C45.9701 54.5072 46.1366 54.5405 46.2366 54.5738C46.3366 54.6738 46.4365 54.8071 46.5032 54.9403C46.7031 55.2069 46.9696 55.2402 47.2362 55.0403C47.5361 54.7737 47.7027 54.4072 47.8026 54.0407C48.0025 53.2411 48.2024 52.4747 48.369 51.675V51.5418L46.6031 51.2752L46.6698 50.7754L48.5023 51.042L48.7356 50.0091L46.8364 49.7092L46.903 49.1761L48.8688 49.4427C48.9355 49.2427 48.9688 49.0761 49.0354 48.9095C49.202 48.3098 49.3686 47.7101 49.7685 47.1769C50.1683 46.6438 50.6348 46.3106 51.3345 46.344C51.6343 46.344 51.9342 46.4439 52.1341 46.6772C52.1674 46.7105 52.2341 46.7771 52.2341 46.8438C52.2341 46.977 52.2341 47.1436 52.1341 47.2436C52.0008 47.3435 51.8342 47.3102 51.701 47.1769C51.601 47.077 51.5344 46.977 51.4344 46.8771C51.2345 46.6105 50.9346 46.5772 50.7014 46.8104C50.5348 46.977 50.3682 47.2103 50.2682 47.4435C50.035 48.1432 49.8684 48.8762 49.6352 49.6093L51.4677 49.8758L51.3345 50.3756L49.5685 50.109Z" fill="white"/>
<path d="M51.1227 37.6599C51.7115 37.3135 52.3822 37.1309 53.0654 37.1309H56.5678C56.991 37.1309 57.3341 37.474 57.3341 37.8972V39.8319H47.4302L51.1227 37.6599Z" fill="#0090FF"/>
<path d="M39.6042 39.5566C39.6527 39.3485 39.8383 39.2013 40.0519 39.2013H57.7795C57.9932 39.2013 58.1787 39.3485 58.2273 39.5566L58.643 41.3381C58.7103 41.6265 58.4913 41.9024 58.1952 41.9024H39.6363C39.3401 41.9024 39.1212 41.6265 39.1885 41.3381L39.6042 39.5566Z" fill="#77B6FF"/>
<path d="M53.4653 49.9419C53.4653 47.7757 55.2214 46.0197 57.3876 46.0197V46.0197C59.5537 46.0197 61.3098 47.7757 61.3098 49.9419V51.959C61.3098 54.1252 59.5537 55.8812 57.3876 55.8812V55.8812C55.2214 55.8812 53.4653 54.1252 53.4653 51.959V49.9419Z" fill="#FFAD06"/>
<path fill-rule="evenodd" clip-rule="evenodd" d="M60.3902 51.959V49.9419C60.3902 48.2836 59.0459 46.9392 57.3876 46.9392C55.7292 46.9392 54.3849 48.2836 54.3849 49.9419V51.959C54.3849 53.6173 55.7292 54.9617 57.3876 54.9617C59.0459 54.9617 60.3902 53.6173 60.3902 51.959ZM57.3876 46.0197C55.2214 46.0197 53.4653 47.7757 53.4653 49.9419V51.959C53.4653 54.1252 55.2214 55.8812 57.3876 55.8812C59.5537 55.8812 61.3098 54.1252 61.3098 51.959V49.9419C61.3098 47.7757 59.5537 46.0197 57.3876 46.0197Z" fill="#FF5C00"/>
</g>
<defs>
<clipPath id="clip0_240_780">
<rect width="69" height="69" rx="34.5" fill="white"/>
</clipPath>
</defs>
</svg>
