<svg width="270" height="396" viewBox="0 0 270 396" fill="none" xmlns="http://www.w3.org/2000/svg">
<rect opacity="0.4" width="270" height="396" rx="24" fill="#F59A23"/>
<rect x="1.5" y="1.5" width="267" height="393" rx="22.5" fill="#191919" fill-opacity="0.8" stroke="#F59A23" stroke-width="3"/>
<rect x="14" y="15" width="242" height="367" rx="16" fill="#18171F"/>
<path d="M139 244L144 249H130M133 260L128 255H142" stroke="white" stroke-width="1.5" stroke-linecap="round" stroke-linejoin="round"/>
<g clip-path="url(#clip0_131_1396)">
<path d="M99.9712 262.994C99.9712 271.787 92.8436 278.915 84.0508 278.915C75.2583 278.915 68.1304 271.787 68.1304 262.994C68.1304 254.202 75.2583 247.074 84.0508 247.074C92.8436 247.074 99.9712 254.202 99.9712 262.994Z" fill="#1BA27A"/>
<path d="M91.5228 255.102H76.4478V258.741H82.1656V264.091H85.805V258.741H91.5228V255.102Z" fill="white"/>
<path d="M84.0197 264.661C79.2898 264.661 75.455 263.912 75.455 262.988C75.455 262.065 79.2896 261.316 84.0197 261.316C88.7497 261.316 92.5842 262.065 92.5842 262.988C92.5842 263.912 88.7497 264.661 84.0197 264.661ZM93.6364 263.267C93.6364 262.076 89.3309 261.111 84.0197 261.111C78.7087 261.111 74.4028 262.076 74.4028 263.267C74.4028 264.316 77.7415 265.19 82.1656 265.383V273.062H85.8047V265.386C90.2629 265.199 93.6364 264.321 93.6364 263.267Z" fill="white"/>
</g>
<circle cx="97" cy="243" r="16" fill="#0090FF"/>
<path fill-rule="evenodd" clip-rule="evenodd" d="M98.0441 242.355L97.6861 244.23L101.087 244.699L100.849 245.578L97.507 245.109C97.2684 245.871 97.149 246.692 96.8506 247.395C96.5523 248.216 96.2539 249.036 95.8959 249.798C95.4185 250.795 94.583 251.498 93.4492 251.674C92.7928 251.791 92.0767 251.733 91.5397 251.322C91.3607 251.205 91.1816 250.971 91.1816 250.795C91.1816 250.56 91.301 250.267 91.48 250.15C91.5994 250.091 91.8977 250.15 92.0767 250.209C92.2558 250.384 92.4348 250.619 92.5541 250.853C92.9122 251.322 93.3896 251.381 93.867 251.029C94.404 250.56 94.7024 249.916 94.8814 249.271C95.2394 247.864 95.5975 246.516 95.8959 245.109V244.875L92.7332 244.406L92.8525 243.527L96.1346 243.996L96.5523 242.179L93.1509 241.651L93.2702 240.713L96.791 241.182C96.9103 240.831 96.97 240.538 97.0893 240.244C97.3877 239.189 97.6861 238.134 98.4022 237.197C99.1182 236.259 99.9537 235.673 101.207 235.731C101.744 235.731 102.281 235.907 102.639 236.317C102.699 236.376 102.818 236.493 102.818 236.611C102.818 236.845 102.818 237.138 102.639 237.314C102.4 237.49 102.102 237.431 101.863 237.197C101.684 237.021 101.565 236.845 101.386 236.669C101.028 236.2 100.491 236.142 100.073 236.552C99.7746 236.845 99.4763 237.255 99.2973 237.666C98.8795 238.896 98.5812 240.186 98.1635 241.475L101.446 241.944L101.207 242.823L98.0441 242.355Z" fill="white"/>
<rect x="54" y="227" width="32" height="32" rx="16" fill="#FFE896"/>
<mask id="path-11-outside-1_131_1396" maskUnits="userSpaceOnUse" x="58.6533" y="230.755" width="23" height="22" fill="black">
<rect fill="white" x="58.6533" y="230.755" width="23" height="22"/>
<path fill-rule="evenodd" clip-rule="evenodd" d="M59.6563 251.492C60.1913 248.295 61.1847 242.307 61.1847 242.101C61.1847 242.065 61.1791 241.879 61.1701 241.581C61.1124 239.665 60.916 233.142 61.1847 232.581C61.4952 231.933 62.4181 231.394 63.2203 232.06C63.6597 232.426 64.4409 233.944 65.1128 235.25C65.603 236.203 66.035 237.042 66.2337 237.239C66.2711 237.276 66.3228 237.265 66.37 237.242C66.7056 237.077 67.7716 236.811 69.9523 236.807C69.9523 236.807 69.9523 236.807 69.9523 236.807C69.9523 236.807 69.9523 236.807 69.9523 236.807C69.9602 236.807 69.9682 236.807 69.9761 236.807C69.9839 236.807 69.9919 236.807 69.9998 236.807C69.9998 236.807 69.9998 236.807 69.9998 236.807C69.9998 236.807 69.9998 236.807 69.9998 236.807C72.1805 236.811 73.2465 237.077 73.5821 237.242C73.6293 237.265 73.681 237.276 73.7184 237.239C73.9171 237.042 74.3491 236.203 74.8393 235.25C75.5112 233.944 76.2924 232.426 76.7318 232.06C77.534 231.394 78.4569 231.933 78.7674 232.581C79.0361 233.142 78.8397 239.665 78.782 241.581C78.773 241.879 78.7674 242.065 78.7674 242.101C78.7674 242.307 79.7608 248.295 80.2958 251.492C80.3176 251.622 80.2171 251.74 80.0852 251.74H69.9998H69.9523H59.8669C59.735 251.74 59.6345 251.622 59.6563 251.492Z"/>
</mask>
<path fill-rule="evenodd" clip-rule="evenodd" d="M59.6563 251.492C60.1913 248.295 61.1847 242.307 61.1847 242.101C61.1847 242.065 61.1791 241.879 61.1701 241.581C61.1124 239.665 60.916 233.142 61.1847 232.581C61.4952 231.933 62.4181 231.394 63.2203 232.06C63.6597 232.426 64.4409 233.944 65.1128 235.25C65.603 236.203 66.035 237.042 66.2337 237.239C66.2711 237.276 66.3228 237.265 66.37 237.242C66.7056 237.077 67.7716 236.811 69.9523 236.807C69.9523 236.807 69.9523 236.807 69.9523 236.807C69.9523 236.807 69.9523 236.807 69.9523 236.807C69.9602 236.807 69.9682 236.807 69.9761 236.807C69.9839 236.807 69.9919 236.807 69.9998 236.807C69.9998 236.807 69.9998 236.807 69.9998 236.807C69.9998 236.807 69.9998 236.807 69.9998 236.807C72.1805 236.811 73.2465 237.077 73.5821 237.242C73.6293 237.265 73.681 237.276 73.7184 237.239C73.9171 237.042 74.3491 236.203 74.8393 235.25C75.5112 233.944 76.2924 232.426 76.7318 232.06C77.534 231.394 78.4569 231.933 78.7674 232.581C79.0361 233.142 78.8397 239.665 78.782 241.581C78.773 241.879 78.7674 242.065 78.7674 242.101C78.7674 242.307 79.7608 248.295 80.2958 251.492C80.3176 251.622 80.2171 251.74 80.0852 251.74H69.9998H69.9523H59.8669C59.735 251.74 59.6345 251.622 59.6563 251.492Z" fill="#FFAD06"/>
<path d="M59.6563 251.492L59.0251 251.387H59.0251L59.6563 251.492ZM61.1701 241.581L60.5304 241.6V241.6L61.1701 241.581ZM61.1847 232.581L60.6075 232.304V232.304L61.1847 232.581ZM63.2203 232.06L62.8113 232.553V232.553L63.2203 232.06ZM65.1128 235.25L64.5437 235.543V235.543L65.1128 235.25ZM66.2337 237.239L65.7839 237.694L65.7839 237.694L66.2337 237.239ZM66.37 237.242L66.0879 236.667L66.0879 236.667L66.37 237.242ZM69.9761 236.807L69.9755 237.447L69.9766 237.447L69.9761 236.807ZM73.5821 237.242L73.3 237.816L73.3 237.816L73.5821 237.242ZM73.7184 237.239L74.1682 237.694L74.1682 237.694L73.7184 237.239ZM74.8393 235.25L75.4084 235.543V235.543L74.8393 235.25ZM76.7318 232.06L76.3229 231.568V231.568L76.7318 232.06ZM78.7674 232.581L78.1902 232.857V232.857L78.7674 232.581ZM78.782 241.581L78.1423 241.562V241.562L78.782 241.581ZM80.2958 251.492L79.6646 251.598V251.598L80.2958 251.492ZM69.9998 236.807L70.0009 236.167L69.9998 236.807ZM69.9998 236.807L69.9998 237.447L69.9998 236.807ZM69.9523 236.807V236.167V236.807ZM69.9523 236.807L69.9512 236.167L69.9523 236.807ZM60.5447 242.101C60.5447 242.061 60.5489 242.046 60.539 242.121C60.5322 242.172 60.5219 242.245 60.5079 242.338C60.4802 242.525 60.4397 242.786 60.389 243.105C60.2878 243.744 60.1471 244.61 59.9896 245.571C59.6745 247.493 59.2925 249.788 59.0251 251.387L60.2875 251.598C60.5551 249.999 60.9373 247.702 61.2527 245.778C61.4104 244.817 61.5515 243.948 61.6532 243.306C61.7041 242.985 61.7454 242.719 61.774 242.527C61.7883 242.431 61.7998 242.35 61.8079 242.289C61.8127 242.253 61.8247 242.166 61.8247 242.101H60.5447ZM60.5304 241.6C60.5349 241.749 60.5385 241.87 60.541 241.957C60.5423 242.001 60.5432 242.036 60.5439 242.062C60.5446 242.091 60.5447 242.101 60.5447 242.101H61.8247C61.8247 242.052 61.8185 241.849 61.8098 241.562L60.5304 241.6ZM60.6075 232.304C60.5491 232.426 60.5229 232.561 60.5085 232.647C60.4912 232.75 60.4778 232.868 60.4669 232.995C60.4451 233.25 60.4305 233.573 60.4211 233.938C60.4024 234.67 60.4036 235.607 60.415 236.58C60.4378 238.527 60.5016 240.642 60.5304 241.6L61.8098 241.562C61.781 240.603 61.7176 238.499 61.695 236.565C61.6836 235.597 61.6826 234.679 61.7007 233.971C61.7098 233.615 61.7236 233.322 61.7422 233.105C61.7516 232.996 61.7614 232.915 61.7707 232.859C61.783 232.787 61.7868 232.805 61.7619 232.857L60.6075 232.304ZM63.6292 231.568C63.0436 231.082 62.3722 231.021 61.8025 231.225C61.2657 231.417 60.8318 231.836 60.6075 232.304L61.7619 232.857C61.8481 232.677 62.0309 232.503 62.2338 232.43C62.4037 232.369 62.5948 232.373 62.8113 232.553L63.6292 231.568ZM65.6819 234.957C65.3476 234.307 64.9779 233.588 64.6359 232.986C64.4648 232.685 64.2954 232.404 64.1362 232.169C63.9861 231.949 63.8129 231.721 63.6292 231.568L62.8113 232.553C62.8474 232.583 62.9367 232.682 63.0776 232.889C63.2094 233.083 63.3597 233.331 63.5229 233.618C63.8492 234.193 64.2061 234.886 64.5437 235.543L65.6819 234.957ZM66.6835 236.783C66.6915 236.791 66.6609 236.758 66.5857 236.639C66.5192 236.533 66.4381 236.392 66.3436 236.22C66.1545 235.875 65.9283 235.436 65.6819 234.957L64.5437 235.543C64.7874 236.016 65.0224 236.473 65.2215 236.836C65.3211 237.017 65.4159 237.183 65.5016 237.319C65.5787 237.442 65.6766 237.588 65.7839 237.694L66.6835 236.783ZM66.0879 236.667C66.1018 236.66 66.1688 236.628 66.271 236.623C66.3963 236.618 66.5565 236.658 66.6835 236.783L65.7839 237.694C66.1442 238.05 66.5781 237.852 66.6521 237.816L66.0879 236.667ZM69.9512 236.167C68.8362 236.169 67.9922 236.238 67.3739 236.331C66.77 236.422 66.3434 236.542 66.0879 236.667L66.6521 237.816C66.7323 237.777 67.0065 237.681 67.5646 237.597C68.1083 237.515 68.8877 237.449 69.9534 237.447L69.9512 236.167ZM69.9523 237.447C69.96 237.447 69.9678 237.447 69.9755 237.447L69.9766 236.167C69.9685 236.167 69.9605 236.167 69.9523 236.167L69.9523 237.447ZM69.9998 236.167C69.9916 236.167 69.9836 236.167 69.9755 236.167L69.9766 237.447C69.9843 237.447 69.9921 237.447 69.9998 237.447L69.9998 236.167ZM69.9987 237.447C71.0644 237.449 71.8438 237.515 72.3875 237.597C72.9456 237.681 73.2198 237.777 73.3 237.816L73.8642 236.667C73.6087 236.542 73.1821 236.422 72.5782 236.331C71.9599 236.238 71.1159 236.169 70.0009 236.167L69.9987 237.447ZM73.3 237.816C73.374 237.852 73.8079 238.05 74.1682 237.694L73.2686 236.783C73.3956 236.658 73.5558 236.618 73.6811 236.623C73.7833 236.628 73.8503 236.66 73.8642 236.667L73.3 237.816ZM74.1682 237.694C74.2755 237.588 74.3734 237.442 74.4505 237.319C74.5362 237.183 74.631 237.017 74.7306 236.836C74.9297 236.473 75.1647 236.016 75.4084 235.543L74.2702 234.957C74.0238 235.436 73.7976 235.875 73.6086 236.22C73.514 236.392 73.4329 236.533 73.3664 236.639C73.2912 236.758 73.2606 236.791 73.2686 236.783L74.1682 237.694ZM75.4084 235.543C75.746 234.886 76.1029 234.193 76.4292 233.618C76.5924 233.331 76.7427 233.083 76.8745 232.889C77.0154 232.682 77.1047 232.583 77.1408 232.553L76.3229 231.568C76.1392 231.721 75.966 231.949 75.8159 232.169C75.6567 232.404 75.4873 232.685 75.3162 232.986C74.9742 233.588 74.6045 234.307 74.2702 234.957L75.4084 235.543ZM77.1408 232.553C77.3573 232.373 77.5484 232.369 77.7183 232.43C77.9212 232.503 78.104 232.677 78.1902 232.857L79.3446 232.304C79.1203 231.836 78.6864 231.417 78.1496 231.225C77.5799 231.021 76.9085 231.082 76.3229 231.568L77.1408 232.553ZM78.1902 232.857C78.1653 232.805 78.1691 232.787 78.1814 232.859C78.1907 232.915 78.2005 232.996 78.2099 233.105C78.2285 233.322 78.2423 233.615 78.2514 233.971C78.2695 234.679 78.2685 235.597 78.2571 236.565C78.2345 238.499 78.1711 240.603 78.1423 241.562L79.4217 241.6C79.4505 240.642 79.5142 238.527 79.5371 236.58C79.5485 235.607 79.5497 234.67 79.531 233.938C79.5216 233.573 79.507 233.25 79.4852 232.995C79.4743 232.868 79.4609 232.75 79.4436 232.647C79.4292 232.561 79.403 232.426 79.3446 232.304L78.1902 232.857ZM78.1423 241.562C78.1336 241.849 78.1274 242.052 78.1274 242.101H79.4074C79.4074 242.101 79.4075 242.091 79.4082 242.062C79.4088 242.036 79.4098 242.001 79.4111 241.957C79.4136 241.87 79.4172 241.749 79.4217 241.6L78.1423 241.562ZM78.1274 242.101C78.1274 242.166 78.1394 242.253 78.1442 242.289C78.1523 242.35 78.1638 242.431 78.1781 242.527C78.2067 242.719 78.248 242.985 78.2989 243.306C78.4006 243.948 78.5417 244.817 78.6994 245.778C79.0148 247.702 79.397 249.999 79.6646 251.598L80.927 251.387C80.6596 249.788 80.2776 247.493 79.9625 245.571C79.805 244.61 79.6643 243.744 79.5631 243.105C79.5124 242.786 79.4719 242.525 79.4442 242.338C79.4302 242.245 79.4199 242.172 79.4131 242.121C79.4032 242.046 79.4074 242.061 79.4074 242.101H78.1274ZM79.6646 251.598C79.6202 251.332 79.8268 251.1 80.0852 251.1V252.38C80.6073 252.38 81.015 251.912 80.927 251.387L79.6646 251.598ZM80.0852 251.1H69.9998V252.38H80.0852V251.1ZM69.9998 251.1H69.9523V252.38H69.9998V251.1ZM59.8669 252.38H69.9523V251.1H59.8669V252.38ZM59.0251 251.387C58.9371 251.912 59.3448 252.38 59.8669 252.38V251.1C60.1253 251.1 60.3319 251.332 60.2875 251.598L59.0251 251.387ZM69.3598 236.807C69.3598 237.173 69.659 237.446 69.9987 237.447L70.0009 236.167C70.3406 236.167 70.6398 236.441 70.6398 236.807H69.3598ZM69.9998 237.447C69.6464 237.447 69.3598 237.16 69.3598 236.807H70.6398C70.6398 236.453 70.3532 236.167 69.9998 236.167L69.9998 237.447ZM70.5923 236.807C70.5923 237.16 70.3057 237.447 69.9523 237.447L69.9523 236.167C69.5989 236.167 69.3123 236.453 69.3123 236.807H70.5923ZM69.9534 237.447C70.2931 237.446 70.5923 237.173 70.5923 236.807H69.3123C69.3123 236.441 69.6115 236.167 69.9512 236.167L69.9534 237.447Z" fill="#FF5C00" mask="url(#path-11-outside-1_131_1396)"/>
<path fill-rule="evenodd" clip-rule="evenodd" d="M76.5991 251.526V249.754C76.5991 249.294 76.5248 248.837 76.3791 248.401L76.3319 248.26C76.1482 247.711 75.8544 247.204 75.4684 246.772L72.3979 243.331C72.2501 243.166 72.0786 243.023 71.889 242.907C71.5359 242.692 71.1305 242.579 70.717 242.579H69.9998V242.579H69.4948C69.0814 242.579 68.6759 242.692 68.3228 242.907C68.1332 243.023 67.9617 243.166 67.8139 243.331L64.7434 246.772C64.3575 247.204 64.0637 247.711 63.88 248.26L63.8328 248.401C63.6871 248.838 63.6128 249.294 63.6128 249.754V251.526C63.6128 251.644 63.7083 251.74 63.8261 251.74H69.9987C70.0378 251.74 70.0745 251.729 70.106 251.711C70.1375 251.729 70.1741 251.74 70.2132 251.74H76.3857C76.5036 251.74 76.5991 251.644 76.5991 251.526Z" fill="white"/>
<path fill-rule="evenodd" clip-rule="evenodd" d="M69.9544 246.562C69.1371 246.562 68.4614 247.225 68.4614 248.042C68.4614 248.042 68.4615 248.042 68.4615 248.042H71.4473C71.4474 248.042 71.4474 248.042 71.4474 248.042C71.4474 247.225 70.7717 246.562 69.9544 246.562Z" fill="black"/>
<path fill-rule="evenodd" clip-rule="evenodd" d="M66.5289 240.027C66.7646 240.027 66.9556 240.218 66.9556 240.454V241.189C66.9556 241.425 66.7646 241.616 66.5289 241.616H64.608C64.5592 241.616 64.5186 241.578 64.5186 241.529C64.5186 240.7 65.1909 240.027 66.0202 240.027H66.5289Z" fill="black"/>
<path fill-rule="evenodd" clip-rule="evenodd" d="M70.1067 245.703C70.6773 245.699 71.5711 245.344 71.9528 244.545C72.4324 243.54 72.179 242.617 70.0976 242.617V242.617C68.0246 242.62 67.7726 243.542 68.2516 244.545C68.6353 245.348 69.5366 245.703 70.1067 245.703V245.703Z" fill="black"/>
<ellipse opacity="0.6" cx="70.0877" cy="243.102" rx="0.975893" ry="0.339441" fill="white"/>
<path fill-rule="evenodd" clip-rule="evenodd" d="M73.356 240.027C73.1204 240.027 72.9293 240.218 72.9293 240.454V241.189C72.9293 241.425 73.1204 241.616 73.356 241.616H75.2773C75.3261 241.616 75.3667 241.578 75.3667 241.529C75.3667 240.7 74.6944 240.027 73.865 240.027H73.356Z" fill="black"/>
<path d="M72.5402 245.776C72.527 245.65 72.6258 245.54 72.7524 245.54H80.4508C80.5773 245.54 80.6761 245.65 80.6629 245.776L79.7229 254.793C79.7115 254.902 79.6199 254.984 79.5107 254.984H73.6924C73.5832 254.984 73.4916 254.902 73.4803 254.793L72.5402 245.776Z" fill="#0090FF"/>
<g clip-path="url(#clip1_131_1396)">
<path fill-rule="evenodd" clip-rule="evenodd" d="M76.6139 253.278C75.1188 253.278 73.8955 252.055 73.8955 250.546C73.9091 249.051 75.1188 247.828 76.6275 247.841C78.1226 247.855 79.3322 249.065 79.3322 250.587C79.3186 252.068 78.109 253.278 76.6139 253.278Z" fill="#0090FF"/>
<path fill-rule="evenodd" clip-rule="evenodd" d="M76.9072 250.189L76.8145 250.683L77.6957 250.807L77.6338 251.039L76.7681 250.915C76.7063 251.116 76.6753 251.333 76.598 251.518C76.5207 251.734 76.4434 251.951 76.3507 252.152C76.227 252.415 76.0106 252.6 75.7169 252.647C75.5468 252.677 75.3613 252.662 75.2222 252.554C75.1758 252.523 75.1294 252.461 75.1294 252.415C75.1294 252.353 75.1603 252.276 75.2067 252.245C75.2376 252.229 75.3149 252.245 75.3613 252.26C75.4077 252.306 75.454 252.368 75.485 252.43C75.5777 252.554 75.7014 252.569 75.8251 252.477C75.9642 252.353 76.0415 252.183 76.0879 252.013C76.1806 251.642 76.2734 251.286 76.3507 250.915V250.853L75.5313 250.73L75.5623 250.498L76.4125 250.621L76.5207 250.142L75.6396 250.003L75.6705 249.756L76.5826 249.879C76.6135 249.787 76.629 249.709 76.6599 249.632C76.7372 249.354 76.8145 249.075 77 248.828C77.1855 248.581 77.4019 248.426 77.7266 248.442C77.8657 248.442 78.0048 248.488 78.0976 248.596C78.1131 248.612 78.144 248.643 78.144 248.674C78.144 248.735 78.144 248.813 78.0976 248.859C78.0358 248.905 77.9585 248.89 77.8966 248.828C77.8502 248.782 77.8193 248.735 77.7729 248.689C77.6802 248.565 77.5411 248.55 77.4328 248.658C77.3555 248.735 77.2782 248.844 77.2319 248.952C77.1237 249.276 77.0464 249.617 76.9381 249.957L77.7884 250.08L77.7266 250.312L76.9072 250.189Z" fill="white"/>
</g>
<path d="M77.6288 244.412C77.902 244.252 78.2132 244.167 78.5301 244.167H80.1552C80.3515 244.167 80.5107 244.326 80.5107 244.522V245.42H75.9155L77.6288 244.412Z" fill="#0090FF"/>
<path d="M72.2847 245.293C72.3072 245.196 72.3933 245.128 72.4925 245.128H80.7177C80.8168 245.128 80.9029 245.196 80.9254 245.293L81.1183 246.119C81.1495 246.253 81.0479 246.381 80.9105 246.381H72.2996C72.1622 246.381 72.0606 246.253 72.0919 246.119L72.2847 245.293Z" fill="#77B6FF"/>
<rect x="78.9296" y="248.505" width="3.21298" height="4.14888" rx="1.60649" fill="#FFAD06" stroke="#FF5C00" stroke-width="0.426667"/>
<path d="M78.9243 249.99H80.2069" stroke="#FF5C00" stroke-width="0.426667"/>
<path d="M78.9243 251.134H80.2069" stroke="#FF5C00" stroke-width="0.426667"/>
<rect x="172" y="247" width="32" height="32" rx="16" fill="#FFE896"/>
<mask id="path-28-outside-2_131_1396" maskUnits="userSpaceOnUse" x="176.653" y="250.755" width="23" height="22" fill="black">
<rect fill="white" x="176.653" y="250.755" width="23" height="22"/>
<path fill-rule="evenodd" clip-rule="evenodd" d="M177.656 271.492C178.191 268.295 179.185 262.307 179.185 262.101C179.185 262.065 179.179 261.879 179.17 261.581C179.112 259.665 178.916 253.142 179.185 252.581C179.495 251.933 180.418 251.394 181.22 252.06C181.66 252.426 182.441 253.944 183.113 255.25C183.603 256.203 184.035 257.042 184.234 257.239C184.271 257.276 184.323 257.265 184.37 257.242C184.706 257.077 185.772 256.811 187.952 256.807C187.952 256.807 187.952 256.807 187.952 256.807C187.952 256.807 187.952 256.807 187.952 256.807C187.96 256.807 187.968 256.807 187.976 256.807C187.984 256.807 187.992 256.807 188 256.807C188 256.807 188 256.807 188 256.807C188 256.807 188 256.807 188 256.807C190.181 256.811 191.246 257.077 191.582 257.242C191.629 257.265 191.681 257.276 191.718 257.239C191.917 257.042 192.349 256.203 192.839 255.25C193.511 253.944 194.292 252.426 194.732 252.06C195.534 251.394 196.457 251.933 196.767 252.581C197.036 253.142 196.84 259.665 196.782 261.581C196.773 261.879 196.767 262.065 196.767 262.101C196.767 262.307 197.761 268.295 198.296 271.492C198.318 271.622 198.217 271.74 198.085 271.74H188H187.952H177.867C177.735 271.74 177.635 271.622 177.656 271.492Z"/>
</mask>
<path fill-rule="evenodd" clip-rule="evenodd" d="M177.656 271.492C178.191 268.295 179.185 262.307 179.185 262.101C179.185 262.065 179.179 261.879 179.17 261.581C179.112 259.665 178.916 253.142 179.185 252.581C179.495 251.933 180.418 251.394 181.22 252.06C181.66 252.426 182.441 253.944 183.113 255.25C183.603 256.203 184.035 257.042 184.234 257.239C184.271 257.276 184.323 257.265 184.37 257.242C184.706 257.077 185.772 256.811 187.952 256.807C187.952 256.807 187.952 256.807 187.952 256.807C187.952 256.807 187.952 256.807 187.952 256.807C187.96 256.807 187.968 256.807 187.976 256.807C187.984 256.807 187.992 256.807 188 256.807C188 256.807 188 256.807 188 256.807C188 256.807 188 256.807 188 256.807C190.181 256.811 191.246 257.077 191.582 257.242C191.629 257.265 191.681 257.276 191.718 257.239C191.917 257.042 192.349 256.203 192.839 255.25C193.511 253.944 194.292 252.426 194.732 252.06C195.534 251.394 196.457 251.933 196.767 252.581C197.036 253.142 196.84 259.665 196.782 261.581C196.773 261.879 196.767 262.065 196.767 262.101C196.767 262.307 197.761 268.295 198.296 271.492C198.318 271.622 198.217 271.74 198.085 271.74H188H187.952H177.867C177.735 271.74 177.635 271.622 177.656 271.492Z" fill="#FFAD06"/>
<path d="M177.656 271.492L177.025 271.387H177.025L177.656 271.492ZM179.17 261.581L178.53 261.6V261.6L179.17 261.581ZM179.185 252.581L178.608 252.304V252.304L179.185 252.581ZM181.22 252.06L180.811 252.553V252.553L181.22 252.06ZM183.113 255.25L182.544 255.543V255.543L183.113 255.25ZM184.234 257.239L183.784 257.694L183.784 257.694L184.234 257.239ZM184.37 257.242L184.088 256.667L184.088 256.667L184.37 257.242ZM187.976 256.807L187.976 257.447L187.977 257.447L187.976 256.807ZM191.582 257.242L191.3 257.816L191.3 257.816L191.582 257.242ZM191.718 257.239L192.168 257.694L192.168 257.694L191.718 257.239ZM192.839 255.25L193.408 255.543V255.543L192.839 255.25ZM194.732 252.06L194.323 251.568V251.568L194.732 252.06ZM196.767 252.581L196.19 252.857V252.857L196.767 252.581ZM196.782 261.581L196.142 261.562V261.562L196.782 261.581ZM198.296 271.492L197.665 271.598V271.598L198.296 271.492ZM188 256.807L188.001 256.167L188 256.807ZM188 256.807L188 257.447L188 256.807ZM187.952 256.807V256.167V256.807ZM187.952 256.807L187.951 256.167L187.952 256.807ZM178.545 262.101C178.545 262.061 178.549 262.046 178.539 262.121C178.532 262.172 178.522 262.245 178.508 262.338C178.48 262.525 178.44 262.786 178.389 263.105C178.288 263.744 178.147 264.61 177.99 265.571C177.675 267.493 177.293 269.788 177.025 271.387L178.288 271.598C178.555 269.999 178.937 267.702 179.253 265.778C179.41 264.817 179.551 263.948 179.653 263.306C179.704 262.985 179.745 262.719 179.774 262.527C179.788 262.431 179.8 262.35 179.808 262.289C179.813 262.253 179.825 262.166 179.825 262.101H178.545ZM178.53 261.6C178.535 261.749 178.539 261.87 178.541 261.957C178.542 262.001 178.543 262.036 178.544 262.062C178.545 262.091 178.545 262.101 178.545 262.101H179.825C179.825 262.052 179.818 261.849 179.81 261.562L178.53 261.6ZM178.608 252.304C178.549 252.426 178.523 252.561 178.509 252.647C178.491 252.75 178.478 252.868 178.467 252.995C178.445 253.25 178.431 253.573 178.421 253.938C178.402 254.67 178.404 255.607 178.415 256.58C178.438 258.527 178.502 260.642 178.53 261.6L179.81 261.562C179.781 260.603 179.718 258.499 179.695 256.565C179.684 255.597 179.683 254.679 179.701 253.971C179.71 253.615 179.724 253.322 179.742 253.105C179.752 252.996 179.761 252.915 179.771 252.859C179.783 252.787 179.787 252.805 179.762 252.857L178.608 252.304ZM181.629 251.568C181.044 251.082 180.372 251.021 179.802 251.225C179.266 251.417 178.832 251.836 178.608 252.304L179.762 252.857C179.848 252.677 180.031 252.503 180.234 252.43C180.404 252.369 180.595 252.373 180.811 252.553L181.629 251.568ZM183.682 254.957C183.348 254.307 182.978 253.588 182.636 252.986C182.465 252.685 182.295 252.404 182.136 252.169C181.986 251.949 181.813 251.721 181.629 251.568L180.811 252.553C180.847 252.583 180.937 252.682 181.078 252.889C181.209 253.083 181.36 253.331 181.523 253.618C181.849 254.193 182.206 254.886 182.544 255.543L183.682 254.957ZM184.684 256.783C184.691 256.791 184.661 256.758 184.586 256.639C184.519 256.533 184.438 256.392 184.344 256.22C184.154 255.875 183.928 255.436 183.682 254.957L182.544 255.543C182.787 256.016 183.022 256.473 183.222 256.836C183.321 257.017 183.416 257.183 183.502 257.319C183.579 257.442 183.677 257.588 183.784 257.694L184.684 256.783ZM184.088 256.667C184.102 256.66 184.169 256.628 184.271 256.623C184.396 256.618 184.557 256.658 184.684 256.783L183.784 257.694C184.144 258.05 184.578 257.852 184.652 257.816L184.088 256.667ZM187.951 256.167C186.836 256.169 185.992 256.238 185.374 256.331C184.77 256.422 184.343 256.542 184.088 256.667L184.652 257.816C184.732 257.777 185.006 257.681 185.565 257.597C186.108 257.515 186.888 257.449 187.953 257.447L187.951 256.167ZM187.952 257.447C187.96 257.447 187.968 257.447 187.976 257.447L187.977 256.167C187.969 256.167 187.96 256.167 187.952 256.167L187.952 257.447ZM188 256.167C187.992 256.167 187.984 256.167 187.976 256.167L187.977 257.447C187.984 257.447 187.992 257.447 188 257.447L188 256.167ZM187.999 257.447C189.064 257.449 189.844 257.515 190.387 257.597C190.946 257.681 191.22 257.777 191.3 257.816L191.864 256.667C191.609 256.542 191.182 256.422 190.578 256.331C189.96 256.238 189.116 256.169 188.001 256.167L187.999 257.447ZM191.3 257.816C191.374 257.852 191.808 258.05 192.168 257.694L191.269 256.783C191.396 256.658 191.556 256.618 191.681 256.623C191.783 256.628 191.85 256.66 191.864 256.667L191.3 257.816ZM192.168 257.694C192.276 257.588 192.373 257.442 192.45 257.319C192.536 257.183 192.631 257.017 192.731 256.836C192.93 256.473 193.165 256.016 193.408 255.543L192.27 254.957C192.024 255.436 191.798 255.875 191.609 256.22C191.514 256.392 191.433 256.533 191.366 256.639C191.291 256.758 191.261 256.791 191.269 256.783L192.168 257.694ZM193.408 255.543C193.746 254.886 194.103 254.193 194.429 253.618C194.592 253.331 194.743 253.083 194.874 252.889C195.015 252.682 195.105 252.583 195.141 252.553L194.323 251.568C194.139 251.721 193.966 251.949 193.816 252.169C193.657 252.404 193.487 252.685 193.316 252.986C192.974 253.588 192.605 254.307 192.27 254.957L193.408 255.543ZM195.141 252.553C195.357 252.373 195.548 252.369 195.718 252.43C195.921 252.503 196.104 252.677 196.19 252.857L197.345 252.304C197.12 251.836 196.686 251.417 196.15 251.225C195.58 251.021 194.909 251.082 194.323 251.568L195.141 252.553ZM196.19 252.857C196.165 252.805 196.169 252.787 196.181 252.859C196.191 252.915 196.201 252.996 196.21 253.105C196.229 253.322 196.242 253.615 196.251 253.971C196.27 254.679 196.268 255.597 196.257 256.565C196.234 258.499 196.171 260.603 196.142 261.562L197.422 261.6C197.451 260.642 197.514 258.527 197.537 256.58C197.548 255.607 197.55 254.67 197.531 253.938C197.522 253.573 197.507 253.25 197.485 252.995C197.474 252.868 197.461 252.75 197.444 252.647C197.429 252.561 197.403 252.426 197.345 252.304L196.19 252.857ZM196.142 261.562C196.134 261.849 196.127 262.052 196.127 262.101H197.407C197.407 262.101 197.408 262.091 197.408 262.062C197.409 262.036 197.41 262.001 197.411 261.957C197.414 261.87 197.417 261.749 197.422 261.6L196.142 261.562ZM196.127 262.101C196.127 262.166 196.139 262.253 196.144 262.289C196.152 262.35 196.164 262.431 196.178 262.527C196.207 262.719 196.248 262.985 196.299 263.306C196.401 263.948 196.542 264.817 196.699 265.778C197.015 267.702 197.397 269.999 197.665 271.598L198.927 271.387C198.66 269.788 198.278 267.493 197.963 265.571C197.805 264.61 197.664 263.744 197.563 263.105C197.512 262.786 197.472 262.525 197.444 262.338C197.43 262.245 197.42 262.172 197.413 262.121C197.403 262.046 197.407 262.061 197.407 262.101H196.127ZM197.665 271.598C197.62 271.332 197.827 271.1 198.085 271.1V272.38C198.607 272.38 199.015 271.912 198.927 271.387L197.665 271.598ZM198.085 271.1H188V272.38H198.085V271.1ZM188 271.1H187.952V272.38H188V271.1ZM177.867 272.38H187.952V271.1H177.867V272.38ZM177.025 271.387C176.937 271.912 177.345 272.38 177.867 272.38V271.1C178.125 271.1 178.332 271.332 178.288 271.598L177.025 271.387ZM187.36 256.807C187.36 257.173 187.659 257.446 187.999 257.447L188.001 256.167C188.341 256.167 188.64 256.441 188.64 256.807H187.36ZM188 257.447C187.646 257.447 187.36 257.16 187.36 256.807H188.64C188.64 256.453 188.353 256.167 188 256.167L188 257.447ZM188.592 256.807C188.592 257.16 188.306 257.447 187.952 257.447L187.952 256.167C187.599 256.167 187.312 256.453 187.312 256.807H188.592ZM187.953 257.447C188.293 257.446 188.592 257.173 188.592 256.807H187.312C187.312 256.441 187.612 256.167 187.951 256.167L187.953 257.447Z" fill="#FF5C00" mask="url(#path-28-outside-2_131_1396)"/>
<path fill-rule="evenodd" clip-rule="evenodd" d="M194.599 271.526V269.754C194.599 269.294 194.525 268.837 194.379 268.401L194.332 268.26C194.148 267.711 193.854 267.204 193.468 266.772L190.398 263.331C190.25 263.166 190.079 263.023 189.889 262.907C189.536 262.692 189.13 262.579 188.717 262.579H188V262.579H187.495C187.081 262.579 186.676 262.692 186.323 262.907C186.133 263.023 185.962 263.166 185.814 263.331L182.743 266.772C182.357 267.204 182.064 267.711 181.88 268.26L181.833 268.401C181.687 268.838 181.613 269.294 181.613 269.754V271.526C181.613 271.644 181.708 271.74 181.826 271.74H187.999C188.038 271.74 188.074 271.729 188.106 271.711C188.137 271.729 188.174 271.74 188.213 271.74H194.386C194.504 271.74 194.599 271.644 194.599 271.526Z" fill="white"/>
<path fill-rule="evenodd" clip-rule="evenodd" d="M187.954 266.562C187.137 266.562 186.461 267.225 186.461 268.042C186.461 268.042 186.461 268.042 186.462 268.042H189.447C189.447 268.042 189.447 268.042 189.447 268.042C189.447 267.225 188.772 266.562 187.954 266.562Z" fill="black"/>
<path fill-rule="evenodd" clip-rule="evenodd" d="M184.529 260.027C184.764 260.027 184.956 260.218 184.956 260.454V261.189C184.956 261.425 184.764 261.616 184.529 261.616H182.608C182.559 261.616 182.519 261.578 182.519 261.529C182.519 260.7 183.191 260.027 184.02 260.027H184.529Z" fill="black"/>
<path fill-rule="evenodd" clip-rule="evenodd" d="M188.107 265.703C188.677 265.699 189.571 265.344 189.953 264.545C190.432 263.54 190.179 262.617 188.098 262.617V262.617C186.025 262.62 185.773 263.542 186.252 264.545C186.635 265.348 187.537 265.703 188.107 265.703V265.703Z" fill="black"/>
<ellipse opacity="0.6" cx="188.088" cy="263.102" rx="0.975893" ry="0.339441" fill="white"/>
<path fill-rule="evenodd" clip-rule="evenodd" d="M191.356 260.027C191.12 260.027 190.929 260.218 190.929 260.454V261.189C190.929 261.425 191.12 261.616 191.356 261.616H193.277C193.326 261.616 193.367 261.578 193.367 261.529C193.367 260.7 192.694 260.027 191.865 260.027H191.356Z" fill="black"/>
<path d="M190.54 265.776C190.527 265.65 190.626 265.54 190.752 265.54H198.451C198.577 265.54 198.676 265.65 198.663 265.776L197.723 274.793C197.712 274.902 197.62 274.984 197.511 274.984H191.692C191.583 274.984 191.492 274.902 191.48 274.793L190.54 265.776Z" fill="#0090FF"/>
<g clip-path="url(#clip2_131_1396)">
<path fill-rule="evenodd" clip-rule="evenodd" d="M194.614 273.278C193.119 273.278 191.896 272.055 191.896 270.546C191.909 269.051 193.119 267.828 194.627 267.841C196.123 267.855 197.332 269.065 197.332 270.587C197.319 272.068 196.109 273.278 194.614 273.278Z" fill="#0090FF"/>
<path fill-rule="evenodd" clip-rule="evenodd" d="M194.907 270.189L194.814 270.683L195.696 270.807L195.634 271.039L194.768 270.915C194.706 271.116 194.675 271.333 194.598 271.518C194.521 271.734 194.443 271.951 194.351 272.152C194.227 272.415 194.011 272.6 193.717 272.647C193.547 272.677 193.361 272.662 193.222 272.554C193.176 272.523 193.129 272.461 193.129 272.415C193.129 272.353 193.16 272.276 193.207 272.245C193.238 272.229 193.315 272.245 193.361 272.26C193.408 272.306 193.454 272.368 193.485 272.43C193.578 272.554 193.701 272.569 193.825 272.477C193.964 272.353 194.041 272.183 194.088 272.013C194.181 271.642 194.273 271.286 194.351 270.915V270.853L193.531 270.73L193.562 270.498L194.413 270.621L194.521 270.142L193.64 270.003L193.67 269.756L194.583 269.879C194.613 269.787 194.629 269.709 194.66 269.632C194.737 269.354 194.814 269.075 195 268.828C195.185 268.581 195.402 268.426 195.727 268.442C195.866 268.442 196.005 268.488 196.098 268.596C196.113 268.612 196.144 268.643 196.144 268.674C196.144 268.735 196.144 268.813 196.098 268.859C196.036 268.905 195.958 268.89 195.897 268.828C195.85 268.782 195.819 268.735 195.773 268.689C195.68 268.565 195.541 268.55 195.433 268.658C195.356 268.735 195.278 268.844 195.232 268.952C195.124 269.276 195.046 269.617 194.938 269.957L195.788 270.08L195.727 270.312L194.907 270.189Z" fill="white"/>
</g>
<path d="M195.629 264.412C195.902 264.252 196.213 264.167 196.53 264.167H198.155C198.352 264.167 198.511 264.326 198.511 264.522V265.42H193.916L195.629 264.412Z" fill="#0090FF"/>
<path d="M190.285 265.293C190.307 265.196 190.393 265.128 190.492 265.128H198.718C198.817 265.128 198.903 265.196 198.925 265.293L199.118 266.119C199.149 266.253 199.048 266.381 198.911 266.381H190.3C190.162 266.381 190.061 266.253 190.092 266.119L190.285 265.293Z" fill="#77B6FF"/>
<rect x="196.93" y="268.505" width="3.21298" height="4.14888" rx="1.60649" fill="#FFAD06" stroke="#FF5C00" stroke-width="0.426667"/>
<path d="M196.924 269.99H198.207" stroke="#FF5C00" stroke-width="0.426667"/>
<path d="M196.924 271.134H198.207" stroke="#FF5C00" stroke-width="0.426667"/>
<g clip-path="url(#clip3_131_1396)">
<path d="M215.971 242.994C215.971 251.787 208.844 258.915 200.051 258.915C191.258 258.915 184.13 251.787 184.13 242.994C184.13 234.202 191.258 227.074 200.051 227.074C208.844 227.074 215.971 234.202 215.971 242.994Z" fill="#1BA27A"/>
<path d="M207.523 235.102H192.448V238.741H198.166V244.091H201.805V238.741H207.523V235.102Z" fill="white"/>
<path d="M200.02 244.661C195.29 244.661 191.455 243.912 191.455 242.988C191.455 242.065 195.29 241.316 200.02 241.316C204.75 241.316 208.584 242.065 208.584 242.988C208.584 243.912 204.75 244.661 200.02 244.661ZM209.636 243.267C209.636 242.076 205.331 241.111 200.02 241.111C194.709 241.111 190.403 242.076 190.403 243.267C190.403 244.316 193.741 245.19 198.166 245.383V253.062H201.805V245.386C206.263 245.199 209.636 244.321 209.636 243.267Z" fill="white"/>
</g>
<circle cx="174" cy="243" r="16" fill="#0090FF"/>
<path fill-rule="evenodd" clip-rule="evenodd" d="M175.044 242.355L174.686 244.23L178.087 244.699L177.849 245.578L174.507 245.109C174.268 245.871 174.149 246.692 173.851 247.395C173.552 248.216 173.254 249.036 172.896 249.798C172.418 250.795 171.583 251.498 170.449 251.674C169.793 251.791 169.077 251.733 168.54 251.322C168.361 251.205 168.182 250.971 168.182 250.795C168.182 250.56 168.301 250.267 168.48 250.15C168.599 250.091 168.898 250.15 169.077 250.209C169.256 250.384 169.435 250.619 169.554 250.853C169.912 251.322 170.39 251.381 170.867 251.029C171.404 250.56 171.702 249.916 171.881 249.271C172.239 247.864 172.597 246.516 172.896 245.109V244.875L169.733 244.406L169.853 243.527L173.135 243.996L173.552 242.179L170.151 241.651L170.27 240.713L173.791 241.182C173.91 240.831 173.97 240.538 174.089 240.244C174.388 239.189 174.686 238.134 175.402 237.197C176.118 236.259 176.954 235.673 178.207 235.731C178.744 235.731 179.281 235.907 179.639 236.317C179.699 236.376 179.818 236.493 179.818 236.611C179.818 236.845 179.818 237.138 179.639 237.314C179.4 237.49 179.102 237.431 178.863 237.197C178.684 237.021 178.565 236.845 178.386 236.669C178.028 236.2 177.491 236.142 177.073 236.552C176.775 236.845 176.476 237.255 176.297 237.666C175.88 238.896 175.581 240.186 175.163 241.475L178.446 241.944L178.207 242.823L175.044 242.355Z" fill="white"/>
<path d="M101.176 89.888C100.408 90.816 99.608 91.808 98.776 92.864C97.976 93.92 97.192 95.024 96.424 96.176C95.656 97.328 94.92 98.512 94.216 99.728C93.512 100.912 92.872 102.096 92.296 103.28H101.176V89.888ZM106.84 82.736V103.28H110.584V108.032H106.84V116H101.176V108.032H86.584V103.904C87.224 102.496 88.072 100.88 89.128 99.056C90.216 97.232 91.416 95.36 92.728 93.44C94.04 91.52 95.432 89.632 96.904 87.776C98.376 85.92 99.848 84.24 101.32 82.736H106.84ZM128.657 89.888C127.889 90.816 127.089 91.808 126.257 92.864C125.457 93.92 124.673 95.024 123.905 96.176C123.137 97.328 122.401 98.512 121.697 99.728C120.993 100.912 120.353 102.096 119.777 103.28H128.657V89.888ZM134.321 82.736V103.28H138.065V108.032H134.321V116H128.657V108.032H114.065V103.904C114.705 102.496 115.553 100.88 116.609 99.056C117.697 97.232 118.897 95.36 120.209 93.44C121.521 91.52 122.913 89.632 124.385 87.776C125.857 85.92 127.329 84.24 128.801 82.736H134.321ZM158.347 91.088C158.347 94 157.595 96.24 156.091 97.808C154.619 99.376 152.683 100.16 150.283 100.16C149.099 100.16 148.011 99.968 147.019 99.584C146.027 99.168 145.179 98.576 144.475 97.808C143.771 97.04 143.211 96.096 142.795 94.976C142.411 93.824 142.219 92.528 142.219 91.088C142.219 88.144 142.955 85.904 144.427 84.368C145.931 82.8 147.883 82.016 150.283 82.016C152.683 82.016 154.619 82.8 156.091 84.368C157.595 85.904 158.347 88.144 158.347 91.088ZM153.787 91.088C153.787 89.392 153.467 88.128 152.827 87.296C152.219 86.432 151.371 86 150.283 86C149.195 86 148.347 86.432 147.739 87.296C147.131 88.128 146.827 89.392 146.827 91.088C146.827 92.784 147.131 94.064 147.739 94.928C148.347 95.76 149.195 96.176 150.283 96.176C151.371 96.176 152.219 95.76 152.827 94.928C153.467 94.064 153.787 92.784 153.787 91.088ZM168.091 82.736H173.611L154.843 116H149.323L168.091 82.736ZM180.763 107.696C180.763 110.608 180.011 112.848 178.507 114.416C177.035 115.984 175.099 116.768 172.699 116.768C171.515 116.768 170.427 116.56 169.435 116.144C168.443 115.76 167.595 115.184 166.891 114.416C166.187 113.648 165.627 112.704 165.211 111.584C164.827 110.432 164.635 109.136 164.635 107.696C164.635 104.752 165.371 102.512 166.843 100.976C168.347 99.408 170.299 98.624 172.699 98.624C175.099 98.624 177.035 99.408 178.507 100.976C180.011 102.512 180.763 104.752 180.763 107.696ZM176.203 107.696C176.203 106 175.883 104.736 175.243 103.904C174.635 103.04 173.787 102.608 172.699 102.608C171.611 102.608 170.763 103.04 170.155 103.904C169.547 104.736 169.243 106 169.243 107.696C169.243 109.392 169.547 110.672 170.155 111.536C170.763 112.368 171.611 112.784 172.699 112.784C173.787 112.784 174.635 112.368 175.243 111.536C175.883 110.672 176.203 109.392 176.203 107.696Z" fill="#FFAD06"/>
<path d="M91.66 159V145.14H100.42V147.28H94.18V150.82H99.72V152.96H94.18V159H91.66ZM105.537 157.3C106.284 157.3 106.851 157.26 107.237 157.18V154.5C107.104 154.46 106.911 154.42 106.657 154.38C106.404 154.34 106.124 154.32 105.817 154.32C105.551 154.32 105.277 154.34 104.997 154.38C104.731 154.42 104.484 154.493 104.257 154.6C104.044 154.707 103.871 154.86 103.737 155.06C103.604 155.247 103.537 155.487 103.537 155.78C103.537 156.353 103.717 156.753 104.077 156.98C104.437 157.193 104.924 157.3 105.537 157.3ZM105.337 148.28C106.137 148.28 106.811 148.38 107.357 148.58C107.904 148.78 108.337 149.06 108.657 149.42C108.991 149.78 109.224 150.22 109.357 150.74C109.504 151.247 109.577 151.807 109.577 152.42V158.76C109.204 158.84 108.637 158.933 107.877 159.04C107.131 159.16 106.284 159.22 105.337 159.22C104.711 159.22 104.137 159.16 103.617 159.04C103.097 158.92 102.651 158.727 102.277 158.46C101.917 158.193 101.631 157.847 101.417 157.42C101.217 156.993 101.117 156.467 101.117 155.84C101.117 155.24 101.231 154.733 101.457 154.32C101.697 153.907 102.017 153.573 102.417 153.32C102.817 153.053 103.277 152.867 103.797 152.76C104.331 152.64 104.884 152.58 105.457 152.58C105.724 152.58 106.004 152.6 106.297 152.64C106.591 152.667 106.904 152.72 107.237 152.8V152.4C107.237 152.12 107.204 151.853 107.137 151.6C107.071 151.347 106.951 151.127 106.777 150.94C106.617 150.74 106.397 150.587 106.117 150.48C105.851 150.373 105.511 150.32 105.097 150.32C104.537 150.32 104.024 150.36 103.557 150.44C103.091 150.52 102.711 150.613 102.417 150.72L102.117 148.76C102.424 148.653 102.871 148.547 103.457 148.44C104.044 148.333 104.671 148.28 105.337 148.28ZM115.181 159H112.761V148.54H115.181V159ZM115.441 145.48C115.441 145.933 115.294 146.293 115.001 146.56C114.707 146.827 114.361 146.96 113.961 146.96C113.547 146.96 113.194 146.827 112.901 146.56C112.607 146.293 112.461 145.933 112.461 145.48C112.461 145.013 112.607 144.647 112.901 144.38C113.194 144.113 113.547 143.98 113.961 143.98C114.361 143.98 114.707 144.113 115.001 144.38C115.294 144.647 115.441 145.013 115.441 145.48ZM124.428 150.72C124.228 150.653 123.948 150.587 123.588 150.52C123.241 150.44 122.835 150.4 122.368 150.4C122.101 150.4 121.815 150.427 121.508 150.48C121.215 150.533 121.008 150.58 120.888 150.62V159H118.468V149.04C118.935 148.867 119.515 148.707 120.208 148.56C120.915 148.4 121.695 148.32 122.548 148.32C122.708 148.32 122.895 148.333 123.108 148.36C123.321 148.373 123.535 148.4 123.748 148.44C123.961 148.467 124.168 148.507 124.368 148.56C124.568 148.6 124.728 148.64 124.848 148.68L124.428 150.72ZM135.083 157.12C135.989 157.12 136.649 156.967 137.063 156.66C137.476 156.353 137.683 155.92 137.683 155.36C137.683 155.027 137.609 154.74 137.463 154.5C137.329 154.26 137.129 154.047 136.863 153.86C136.609 153.66 136.296 153.48 135.923 153.32C135.549 153.147 135.123 152.98 134.643 152.82C134.163 152.647 133.696 152.46 133.243 152.26C132.803 152.047 132.409 151.787 132.063 151.48C131.729 151.173 131.456 150.807 131.243 150.38C131.043 149.953 130.943 149.44 130.943 148.84C130.943 147.587 131.376 146.607 132.243 145.9C133.109 145.18 134.289 144.82 135.783 144.82C136.649 144.82 137.416 144.92 138.083 145.12C138.763 145.307 139.296 145.513 139.683 145.74L138.903 147.78C138.449 147.527 137.949 147.333 137.403 147.2C136.869 147.067 136.316 147 135.743 147C135.063 147 134.529 147.14 134.143 147.42C133.769 147.7 133.583 148.093 133.583 148.6C133.583 148.907 133.643 149.173 133.763 149.4C133.896 149.613 134.076 149.807 134.303 149.98C134.543 150.153 134.816 150.313 135.123 150.46C135.443 150.607 135.789 150.747 136.163 150.88C136.816 151.12 137.396 151.367 137.903 151.62C138.423 151.86 138.856 152.153 139.203 152.5C139.563 152.833 139.836 153.233 140.023 153.7C140.209 154.153 140.303 154.707 140.303 155.36C140.303 156.613 139.856 157.587 138.963 158.28C138.083 158.96 136.789 159.3 135.083 159.3C134.509 159.3 133.983 159.26 133.503 159.18C133.036 159.113 132.616 159.027 132.243 158.92C131.883 158.813 131.569 158.707 131.303 158.6C131.036 158.48 130.823 158.373 130.663 158.28L131.403 156.22C131.763 156.42 132.249 156.62 132.863 156.82C133.476 157.02 134.216 157.12 135.083 157.12ZM148.843 152.42C148.537 153.593 148.203 154.74 147.843 155.86C147.497 156.967 147.15 158.013 146.803 159H144.823C144.557 158.387 144.277 157.687 143.983 156.9C143.69 156.113 143.397 155.273 143.103 154.38C142.81 153.487 142.517 152.547 142.223 151.56C141.93 150.573 141.643 149.567 141.363 148.54H143.923C144.043 149.1 144.183 149.707 144.343 150.36C144.503 151 144.67 151.66 144.843 152.34C145.017 153.007 145.197 153.66 145.383 154.3C145.57 154.94 145.757 155.527 145.943 156.06C146.143 155.447 146.337 154.813 146.523 154.16C146.723 153.507 146.91 152.853 147.083 152.2C147.257 151.547 147.417 150.913 147.563 150.3C147.723 149.673 147.863 149.087 147.983 148.54H149.843C149.963 149.087 150.097 149.673 150.243 150.3C150.39 150.913 150.543 151.547 150.703 152.2C150.877 152.853 151.057 153.507 151.243 154.16C151.443 154.813 151.643 155.447 151.843 156.06C152.017 155.527 152.197 154.94 152.383 154.3C152.57 153.66 152.75 153.007 152.923 152.34C153.11 151.66 153.283 151 153.443 150.36C153.603 149.707 153.743 149.1 153.863 148.54H156.363C156.083 149.567 155.797 150.573 155.503 151.56C155.21 152.547 154.917 153.487 154.623 154.38C154.33 155.273 154.037 156.113 153.743 156.9C153.45 157.687 153.163 158.387 152.883 159H150.923C150.577 158.013 150.217 156.967 149.843 155.86C149.483 154.74 149.15 153.593 148.843 152.42ZM162.089 157.3C162.835 157.3 163.402 157.26 163.789 157.18V154.5C163.655 154.46 163.462 154.42 163.209 154.38C162.955 154.34 162.675 154.32 162.369 154.32C162.102 154.32 161.829 154.34 161.549 154.38C161.282 154.42 161.035 154.493 160.809 154.6C160.595 154.707 160.422 154.86 160.289 155.06C160.155 155.247 160.089 155.487 160.089 155.78C160.089 156.353 160.269 156.753 160.629 156.98C160.989 157.193 161.475 157.3 162.089 157.3ZM161.889 148.28C162.689 148.28 163.362 148.38 163.909 148.58C164.455 148.78 164.889 149.06 165.209 149.42C165.542 149.78 165.775 150.22 165.909 150.74C166.055 151.247 166.129 151.807 166.129 152.42V158.76C165.755 158.84 165.189 158.933 164.429 159.04C163.682 159.16 162.835 159.22 161.889 159.22C161.262 159.22 160.689 159.16 160.169 159.04C159.649 158.92 159.202 158.727 158.829 158.46C158.469 158.193 158.182 157.847 157.969 157.42C157.769 156.993 157.669 156.467 157.669 155.84C157.669 155.24 157.782 154.733 158.009 154.32C158.249 153.907 158.569 153.573 158.969 153.32C159.369 153.053 159.829 152.867 160.349 152.76C160.882 152.64 161.435 152.58 162.009 152.58C162.275 152.58 162.555 152.6 162.849 152.64C163.142 152.667 163.455 152.72 163.789 152.8V152.4C163.789 152.12 163.755 151.853 163.689 151.6C163.622 151.347 163.502 151.127 163.329 150.94C163.169 150.74 162.949 150.587 162.669 150.48C162.402 150.373 162.062 150.32 161.649 150.32C161.089 150.32 160.575 150.36 160.109 150.44C159.642 150.52 159.262 150.613 158.969 150.72L158.669 148.76C158.975 148.653 159.422 148.547 160.009 148.44C160.595 148.333 161.222 148.28 161.889 148.28ZM176.232 153.82C176.232 152.74 175.986 151.9 175.492 151.3C175.012 150.7 174.232 150.4 173.152 150.4C172.926 150.4 172.686 150.413 172.432 150.44C172.192 150.453 171.952 150.493 171.712 150.56V156.54C171.926 156.687 172.206 156.827 172.552 156.96C172.912 157.08 173.292 157.14 173.692 157.14C174.572 157.14 175.212 156.84 175.612 156.24C176.026 155.64 176.232 154.833 176.232 153.82ZM178.712 153.78C178.712 154.58 178.606 155.313 178.392 155.98C178.192 156.647 177.899 157.22 177.512 157.7C177.126 158.18 176.639 158.553 176.052 158.82C175.479 159.087 174.826 159.22 174.092 159.22C173.599 159.22 173.146 159.16 172.732 159.04C172.319 158.92 171.979 158.787 171.712 158.64V162.7H169.292V148.88C169.786 148.747 170.392 148.62 171.112 148.5C171.832 148.38 172.592 148.32 173.392 148.32C174.219 148.32 174.959 148.447 175.612 148.7C176.266 148.953 176.819 149.32 177.272 149.8C177.739 150.267 178.092 150.84 178.332 151.52C178.586 152.187 178.712 152.94 178.712 153.78Z" fill="white"/>
<defs>
<clipPath id="clip0_131_1396">
<rect width="32" height="32" fill="white" transform="translate(68 247)"/>
</clipPath>
<clipPath id="clip1_131_1396">
<rect width="6.18375" height="6.18375" fill="white" transform="translate(73.522 247.468)"/>
</clipPath>
<clipPath id="clip2_131_1396">
<rect width="6.18375" height="6.18375" fill="white" transform="translate(191.522 267.468)"/>
</clipPath>
<clipPath id="clip3_131_1396">
<rect width="32" height="32" fill="white" transform="translate(184 227)"/>
</clipPath>
</defs>
</svg>
