<svg width="270" height="396" viewBox="0 0 270 396" fill="none" xmlns="http://www.w3.org/2000/svg">
<rect opacity="0.4" width="270" height="396" rx="24" fill="#00D1FF"/>
<rect x="1.5" y="1.5" width="267" height="393" rx="22.5" fill="#191919" fill-opacity="0.8" stroke="#00D1FF" stroke-width="3"/>
<rect x="14" y="15" width="242" height="367" rx="16" fill="#18171F"/>
<g opacity="0.4">
<path fill-rule="evenodd" clip-rule="evenodd" d="M110.417 250.033L103.965 261.419L136.858 298.093L170.779 261.534L170.471 261.248L136.864 297.47L104.479 261.363L110.783 250.24L110.417 250.033Z" fill="#9A9AA0"/>
<path fill-rule="evenodd" clip-rule="evenodd" d="M115.282 243.837L137.241 297.976L157.315 246.085L156.924 245.933L137.232 296.836L115.672 243.679L115.282 243.837Z" fill="#9A9AA0"/>
</g>
<path d="M104.222 261.766C100.921 230.553 124.856 222.5 137.236 222.375L111.726 256.889C108.124 255.989 105.223 259.765 104.222 261.766Z" fill="#0090FF"/>
<path d="M170.69 261.766C173.991 230.553 150.056 222.5 137.676 222.375L163.186 256.889C166.788 255.989 169.689 259.766 170.69 261.766Z" fill="#0090FF"/>
<path d="M111.726 256.889C109.625 234.08 127.857 224.375 137.236 222.375L125.231 253.138C118.929 250.136 113.601 254.388 111.726 256.889Z" fill="#ECF4FA"/>
<path d="M163.186 256.889C165.287 234.08 147.055 224.376 137.676 222.375L149.681 253.138C155.983 250.137 161.311 254.388 163.186 256.889Z" fill="#ECF4FA"/>
<path d="M149.617 253.138C151.718 238.432 142.739 226.127 137.612 222C128.008 227.702 125.232 245.26 125.232 253.138C136.937 242.033 146.24 248.511 149.617 253.138Z" fill="#0090FF"/>
<path fill-rule="evenodd" clip-rule="evenodd" d="M138.475 236.534L137.862 237.72L140.397 238.738L140.055 239.279L137.565 238.274C137.244 238.737 137.005 239.264 136.648 239.675C136.27 240.165 135.893 240.655 135.48 241.094C134.933 241.665 134.163 241.965 133.258 241.85C132.731 241.793 132.19 241.606 131.85 241.219C131.733 241.103 131.638 240.909 131.67 240.791C131.712 240.633 131.856 240.461 132.015 240.419C132.118 240.404 132.337 240.505 132.464 240.581C132.571 240.737 132.666 240.931 132.716 241.113C132.907 241.502 133.264 241.64 133.696 241.502C134.194 241.298 134.54 240.926 134.794 240.53C135.323 239.658 135.841 238.826 136.324 237.942L136.367 237.784L134.015 236.816L134.265 236.25L136.709 237.243L137.358 236.107L134.833 235.051L135.094 234.445L137.721 235.487C137.876 235.275 137.975 235.091 138.12 234.918C138.54 234.271 138.959 233.623 139.68 233.14C140.4 232.658 141.149 232.436 142.104 232.734C142.518 232.845 142.9 233.074 143.102 233.424C143.137 233.476 143.208 233.579 143.187 233.658C143.144 233.815 143.092 234.012 142.922 234.094C142.707 234.163 142.487 234.062 142.346 233.855C142.239 233.7 142.179 233.557 142.073 233.402C141.882 233.012 141.479 232.862 141.083 233.052C140.8 233.187 140.497 233.401 140.285 233.64C139.741 234.381 139.279 235.187 138.725 235.967L141.169 236.96L140.827 237.501L138.475 236.534Z" fill="white"/>
<mask id="path-11-outside-1_131_1270" maskUnits="userSpaceOnUse" x="124.588" y="284.624" width="25" height="24" fill="black">
<rect fill="white" x="124.588" y="284.624" width="25" height="24"/>
<path fill-rule="evenodd" clip-rule="evenodd" d="M148.43 307.422C147.835 303.866 146.747 297.31 146.747 297.083C146.747 297.043 146.754 296.837 146.763 296.507C146.827 294.384 147.045 287.16 146.747 286.539C146.403 285.821 145.381 285.225 144.493 285.963C144.006 286.367 143.141 288.049 142.397 289.495C141.866 290.526 141.397 291.438 141.171 291.682C141.123 291.734 141.05 291.722 140.986 291.692C140.595 291.509 139.414 291.224 137.037 291.219C137.037 291.219 137.037 291.219 137.037 291.219C137.037 291.219 137.037 291.219 137.037 291.219C137.029 291.219 137.02 291.219 137.012 291.219C137.003 291.219 136.994 291.219 136.985 291.219C136.984 291.219 136.984 291.219 136.984 291.219C136.984 291.219 136.984 291.219 136.984 291.219C134.608 291.224 133.427 291.509 133.036 291.692C132.971 291.722 132.899 291.734 132.851 291.682C132.624 291.438 132.155 290.526 131.625 289.495C130.881 288.049 130.015 286.367 129.529 285.963C128.64 285.225 127.618 285.821 127.274 286.539C126.977 287.16 127.194 294.384 127.258 296.507C127.268 296.837 127.274 297.043 127.274 297.083C127.274 297.31 126.187 303.866 125.592 307.422C125.563 307.598 125.698 307.758 125.876 307.758L136.984 307.758L137.037 307.758L148.146 307.758C148.324 307.758 148.459 307.598 148.43 307.422Z"/>
</mask>
<path fill-rule="evenodd" clip-rule="evenodd" d="M148.43 307.422C147.835 303.866 146.747 297.31 146.747 297.083C146.747 297.043 146.754 296.837 146.763 296.507C146.827 294.384 147.045 287.16 146.747 286.539C146.403 285.821 145.381 285.225 144.493 285.963C144.006 286.367 143.141 288.049 142.397 289.495C141.866 290.526 141.397 291.438 141.171 291.682C141.123 291.734 141.05 291.722 140.986 291.692C140.595 291.509 139.414 291.224 137.037 291.219C137.037 291.219 137.037 291.219 137.037 291.219C137.037 291.219 137.037 291.219 137.037 291.219C137.029 291.219 137.02 291.219 137.012 291.219C137.003 291.219 136.994 291.219 136.985 291.219C136.984 291.219 136.984 291.219 136.984 291.219C136.984 291.219 136.984 291.219 136.984 291.219C134.608 291.224 133.427 291.509 133.036 291.692C132.971 291.722 132.899 291.734 132.851 291.682C132.624 291.438 132.155 290.526 131.625 289.495C130.881 288.049 130.015 286.367 129.529 285.963C128.64 285.225 127.618 285.821 127.274 286.539C126.977 287.16 127.194 294.384 127.258 296.507C127.268 296.837 127.274 297.043 127.274 297.083C127.274 297.31 126.187 303.866 125.592 307.422C125.563 307.598 125.698 307.758 125.876 307.758L136.984 307.758L137.037 307.758L148.146 307.758C148.324 307.758 148.459 307.598 148.43 307.422Z" fill="#FFAD06"/>
<path d="M148.43 307.422L147.578 307.565L147.578 307.565L148.43 307.422ZM146.763 296.507L145.9 296.481L145.9 296.481L146.763 296.507ZM146.747 286.539L147.527 286.166L147.527 286.166L146.747 286.539ZM144.493 285.963L145.045 286.627L144.493 285.963ZM142.397 289.495L143.165 289.89L143.165 289.89L142.397 289.495ZM141.171 291.682L140.538 291.094L140.538 291.094L141.171 291.682ZM140.986 291.692L141.352 290.909L141.352 290.909L140.986 291.692ZM137.012 291.219L137.011 292.083L137.013 292.083L137.012 291.219ZM133.036 291.692L132.67 290.909L132.67 290.909L133.036 291.692ZM132.851 291.682L132.218 292.27L132.218 292.27L132.851 291.682ZM131.625 289.495L130.856 289.89L131.625 289.495ZM129.529 285.963L128.977 286.627L129.529 285.963ZM127.274 286.539L128.054 286.912L128.054 286.912L127.274 286.539ZM127.258 296.507L126.395 296.533L127.258 296.507ZM125.592 307.422L126.444 307.565L126.444 307.565L125.592 307.422ZM125.876 307.758L125.876 308.622H125.876L125.876 307.758ZM136.984 307.758L136.985 306.894L136.984 306.894L136.984 307.758ZM137.037 307.758L137.037 308.622L137.037 308.622L137.037 307.758ZM148.146 307.758L148.146 306.894L148.146 307.758ZM136.984 291.219L136.986 292.083L136.984 291.219ZM136.985 291.219L136.985 290.355L136.985 291.219ZM137.037 291.219L137.037 292.083L137.037 291.219ZM137.037 291.219L137.039 290.355L137.037 291.219ZM145.883 297.083C145.883 297.168 145.898 297.275 145.903 297.31C145.912 297.378 145.925 297.468 145.941 297.573C145.972 297.785 146.017 298.077 146.073 298.429C146.185 299.134 146.34 300.087 146.513 301.144C146.859 303.257 147.28 305.786 147.578 307.565L149.282 307.28C148.985 305.502 148.564 302.975 148.218 300.864C148.045 299.809 147.891 298.859 147.78 298.159C147.724 297.808 147.68 297.523 147.65 297.319C147.635 297.217 147.623 297.138 147.616 297.084C147.605 296.996 147.611 297.026 147.611 297.083L145.883 297.083ZM145.9 296.481C145.89 296.797 145.883 297.026 145.883 297.083L147.611 297.083C147.611 297.085 147.611 297.076 147.612 297.044C147.613 297.015 147.614 296.977 147.615 296.928C147.618 296.831 147.622 296.698 147.627 296.533L145.9 296.481ZM145.968 286.912C145.93 286.834 145.932 286.795 145.945 286.873C145.955 286.929 145.965 287.014 145.975 287.132C145.996 287.368 146.011 287.69 146.021 288.082C146.041 288.864 146.04 289.879 146.027 290.95C146.002 293.09 145.932 295.419 145.9 296.481L147.627 296.533C147.659 295.472 147.73 293.128 147.755 290.97C147.768 289.892 147.769 288.852 147.748 288.038C147.738 287.632 147.722 287.271 147.697 286.985C147.685 286.842 147.669 286.706 147.649 286.586C147.633 286.49 147.601 286.322 147.527 286.166L145.968 286.912ZM145.045 286.627C145.157 286.535 145.246 286.504 145.31 286.493C145.376 286.483 145.45 286.489 145.533 286.518C145.717 286.584 145.889 286.748 145.968 286.912L147.527 286.166C147.261 285.612 146.75 285.119 146.115 284.891C145.436 284.648 144.634 284.722 143.941 285.298L145.045 286.627ZM143.165 289.89C143.539 289.163 143.933 288.398 144.293 287.765C144.472 287.448 144.637 287.177 144.779 286.968C144.85 286.863 144.911 286.781 144.962 286.719C144.987 286.688 145.007 286.666 145.023 286.649C145.039 286.633 145.046 286.627 145.045 286.627L143.941 285.298C143.72 285.482 143.518 285.75 143.35 285.996C143.17 286.26 142.981 286.576 142.79 286.911C142.409 287.582 141.999 288.381 141.629 289.1L143.165 289.89ZM141.804 292.27C141.922 292.143 142.031 291.978 142.118 291.837C142.214 291.682 142.319 291.498 142.428 291.298C142.646 290.899 142.902 290.403 143.165 289.89L141.629 289.1C141.362 289.619 141.117 290.093 140.912 290.469C140.809 290.656 140.721 290.81 140.649 290.927C140.568 291.058 140.533 291.099 140.538 291.094L141.804 292.27ZM140.62 292.475C140.737 292.529 141.336 292.774 141.804 292.27L140.538 291.094C140.705 290.914 140.921 290.853 141.089 290.854C141.229 290.854 141.323 290.896 141.352 290.909L140.62 292.475ZM137.036 292.083C139.386 292.088 140.408 292.375 140.62 292.475L141.352 290.909C140.782 290.642 139.441 290.36 137.039 290.355L137.036 292.083ZM137.037 290.355C137.029 290.355 137.02 290.355 137.011 290.355L137.013 292.083C137.021 292.083 137.029 292.083 137.037 292.083L137.037 290.355ZM136.985 292.083C136.993 292.083 137.002 292.083 137.011 292.083L137.013 290.355C137.003 290.355 136.994 290.355 136.985 290.355L136.985 292.083ZM136.983 290.355C134.581 290.36 133.24 290.642 132.67 290.909L133.402 292.475C133.614 292.375 134.635 292.088 136.986 292.083L136.983 290.355ZM132.67 290.909C132.699 290.896 132.793 290.854 132.933 290.854C133.1 290.853 133.317 290.914 133.484 291.094L132.218 292.27C132.686 292.774 133.285 292.529 133.402 292.475L132.67 290.909ZM133.484 291.094C133.488 291.099 133.454 291.058 133.373 290.927C133.3 290.81 133.212 290.656 133.11 290.469C132.904 290.093 132.66 289.619 132.393 289.1L130.856 289.89C131.12 290.403 131.375 290.899 131.594 291.298C131.703 291.498 131.808 291.682 131.904 291.837C131.991 291.978 132.1 292.143 132.218 292.27L133.484 291.094ZM132.393 289.1C132.023 288.381 131.612 287.582 131.232 286.911C131.041 286.576 130.851 286.26 130.671 285.996C130.504 285.75 130.302 285.482 130.081 285.298L128.977 286.627C128.976 286.627 128.983 286.633 128.999 286.649C129.015 286.666 129.035 286.688 129.06 286.719C129.11 286.781 129.171 286.863 129.242 286.968C129.385 287.177 129.549 287.448 129.729 287.765C130.089 288.398 130.482 289.163 130.856 289.89L132.393 289.1ZM130.081 285.298C129.387 284.722 128.586 284.648 127.906 284.891C127.271 285.119 126.76 285.612 126.495 286.166L128.054 286.912C128.132 286.748 128.304 286.584 128.488 286.518C128.571 286.489 128.645 286.483 128.712 286.493C128.775 286.504 128.865 286.535 128.977 286.627L130.081 285.298ZM126.495 286.166C126.42 286.322 126.389 286.49 126.372 286.586C126.352 286.706 126.337 286.842 126.325 286.985C126.3 287.271 126.284 287.632 126.274 288.038C126.253 288.852 126.254 289.892 126.267 290.97C126.292 293.128 126.363 295.472 126.395 296.533L128.122 296.481C128.09 295.419 128.02 293.09 127.995 290.95C127.982 289.879 127.981 288.864 128.001 288.082C128.011 287.69 128.026 287.368 128.046 287.132C128.057 287.014 128.067 286.929 128.076 286.873C128.09 286.795 128.091 286.834 128.054 286.912L126.495 286.166ZM126.395 296.533C126.4 296.698 126.404 296.831 126.406 296.928C126.408 296.977 126.409 297.015 126.409 297.044C126.41 297.076 126.41 297.085 126.41 297.083L128.138 297.083C128.138 297.026 128.131 296.797 128.122 296.481L126.395 296.533ZM126.41 297.083C126.41 297.026 126.417 296.996 126.405 297.084C126.398 297.138 126.387 297.217 126.372 297.319C126.342 297.523 126.297 297.808 126.242 298.159C126.131 298.859 125.977 299.809 125.804 300.864C125.458 302.975 125.037 305.502 124.74 307.28L126.444 307.565C126.742 305.786 127.162 303.257 127.509 301.144C127.682 300.087 127.837 299.134 127.948 298.429C128.004 298.077 128.05 297.785 128.081 297.573C128.097 297.468 128.11 297.378 128.119 297.31C128.123 297.275 128.138 297.168 128.138 297.083L126.41 297.083ZM124.74 307.28C124.622 307.982 125.164 308.622 125.876 308.622L125.876 306.894C126.232 306.894 126.503 307.213 126.444 307.565L124.74 307.28ZM125.876 308.622L136.984 308.622L136.984 306.894L125.876 306.894L125.876 308.622ZM136.984 308.622L137.037 308.622L137.037 306.894L136.985 306.894L136.984 308.622ZM148.146 306.894L137.037 306.894L137.037 308.622L148.146 308.622L148.146 306.894ZM147.578 307.565C147.519 307.213 147.79 306.894 148.146 306.894L148.146 308.622C148.858 308.622 149.399 307.982 149.282 307.28L147.578 307.565ZM136.12 291.219C136.12 290.725 136.524 290.356 136.983 290.355L136.986 292.083C137.445 292.083 137.848 291.714 137.848 291.219L136.12 291.219ZM136.985 290.355C136.507 290.355 136.12 290.742 136.12 291.219L137.848 291.219C137.848 291.697 137.462 292.083 136.985 292.083L136.985 290.355ZM137.901 291.219C137.901 290.742 137.514 290.355 137.037 290.355L137.037 292.083C136.56 292.083 136.173 291.697 136.173 291.219L137.901 291.219ZM137.039 290.355C137.498 290.356 137.901 290.725 137.901 291.219L136.173 291.219C136.173 291.714 136.577 292.083 137.036 292.083L137.039 290.355Z" fill="#FF5C00" mask="url(#path-11-outside-1_131_1270)"/>
<path fill-rule="evenodd" clip-rule="evenodd" d="M129.963 307.47L129.963 305.631C129.963 305.074 130.053 304.52 130.23 303.992C130.453 303.325 130.809 302.711 131.277 302.187L134.616 298.445C134.78 298.262 134.97 298.104 135.18 297.976C135.571 297.738 136.02 297.612 136.478 297.612L137.272 297.612L137.272 297.612L137.832 297.612C138.29 297.612 138.739 297.738 139.13 297.976C139.34 298.104 139.53 298.262 139.693 298.446L143.033 302.187C143.501 302.711 143.857 303.325 144.08 303.992C144.256 304.52 144.346 305.074 144.346 305.631L144.346 307.47C144.346 307.629 144.217 307.758 144.058 307.758L137.325 307.758C137.262 307.758 137.203 307.737 137.155 307.702C137.107 307.737 137.048 307.758 136.984 307.758L130.251 307.758C130.092 307.758 129.963 307.629 129.963 307.47Z" fill="white"/>
<path fill-rule="evenodd" clip-rule="evenodd" d="M136.987 302.024C136.081 302.024 135.333 302.758 135.333 303.663C135.333 303.663 135.333 303.663 135.333 303.663L138.64 303.663C138.64 303.663 138.64 303.663 138.64 303.663C138.64 302.758 137.892 302.024 136.987 302.024Z" fill="black"/>
<path fill-rule="evenodd" clip-rule="evenodd" d="M133.089 294.786C133.407 294.786 133.665 295.044 133.665 295.362L133.665 295.97C133.665 296.288 133.407 296.546 133.089 296.546L131.065 296.546C131.011 296.546 130.966 296.504 130.966 296.45C130.966 295.531 131.711 294.786 132.629 294.786L133.089 294.786Z" fill="black"/>
<path fill-rule="evenodd" clip-rule="evenodd" d="M137.156 301.072C137.787 301.068 138.778 300.675 139.2 299.789C139.731 298.677 139.451 297.655 137.146 297.655L137.146 297.655C134.85 297.658 134.571 298.679 135.101 299.789C135.526 300.679 136.524 301.072 137.156 301.072L137.156 301.072Z" fill="black"/>
<ellipse opacity="0.6" cx="137.135" cy="298.191" rx="1.08082" ry="0.375937" fill="white"/>
<path fill-rule="evenodd" clip-rule="evenodd" d="M140.857 294.786C140.539 294.786 140.281 295.044 140.281 295.362L140.281 295.97C140.281 296.288 140.539 296.546 140.857 296.546L142.882 296.546C142.936 296.546 142.981 296.504 142.981 296.449C142.981 295.531 142.237 294.786 141.318 294.786L140.857 294.786Z" fill="black"/>
<path d="M139.856 301.21C139.839 301.04 139.972 300.892 140.143 300.892L148.554 300.892C148.725 300.892 148.858 301.04 148.841 301.21L147.81 311.093C147.795 311.24 147.671 311.351 147.524 311.351L141.173 311.351C141.026 311.351 140.902 311.24 140.887 311.093L139.856 301.21Z" fill="#0090FF"/>
<g clip-path="url(#clip0_131_1270)">
<path fill-rule="evenodd" clip-rule="evenodd" d="M144.362 309.462C142.706 309.462 141.352 308.107 141.352 306.436C141.367 304.78 142.706 303.426 144.377 303.441C146.033 303.456 147.373 304.795 147.373 306.481C147.358 308.122 146.018 309.462 144.362 309.462Z" fill="#0090FF"/>
<path fill-rule="evenodd" clip-rule="evenodd" d="M144.688 306.04L144.585 306.588L145.561 306.725L145.492 306.982L144.534 306.845C144.465 307.067 144.431 307.307 144.345 307.513C144.26 307.752 144.174 307.992 144.071 308.215C143.934 308.506 143.695 308.711 143.369 308.762C143.181 308.797 142.976 308.78 142.821 308.66C142.77 308.626 142.719 308.557 142.719 308.506C142.719 308.437 142.753 308.352 142.804 308.317C142.839 308.3 142.924 308.317 142.976 308.334C143.027 308.386 143.078 308.454 143.113 308.523C143.215 308.66 143.352 308.677 143.489 308.574C143.643 308.437 143.729 308.249 143.78 308.06C143.883 307.65 143.986 307.256 144.071 306.845L144.071 306.776L143.164 306.639L143.198 306.383L144.14 306.52L144.26 305.989L143.284 305.835L143.318 305.561L144.328 305.698C144.362 305.595 144.38 305.509 144.414 305.424C144.499 305.116 144.585 304.807 144.79 304.533C144.996 304.26 145.236 304.088 145.595 304.105C145.749 304.105 145.903 304.157 146.006 304.277C146.023 304.294 146.057 304.328 146.057 304.362C146.057 304.431 146.057 304.516 146.006 304.568C145.938 304.619 145.852 304.602 145.784 304.533C145.732 304.482 145.698 304.431 145.647 304.379C145.544 304.242 145.39 304.225 145.27 304.345C145.184 304.431 145.099 304.551 145.047 304.67C144.927 305.03 144.842 305.407 144.722 305.783L145.664 305.92L145.595 306.177L144.688 306.04Z" fill="white"/>
</g>
<path d="M145.385 299.702C145.754 299.485 146.174 299.371 146.602 299.371L148.198 299.371C148.463 299.371 148.678 299.586 148.678 299.851L148.678 300.759L143.589 300.759L145.385 299.702Z" fill="#0090FF"/>
<path d="M139.558 300.658C139.588 300.527 139.705 300.435 139.839 300.435L148.866 300.435C149 300.435 149.116 300.527 149.146 300.658L149.336 301.47C149.378 301.65 149.241 301.823 149.055 301.823L139.649 301.823C139.464 301.823 139.326 301.65 139.369 301.47L139.558 300.658Z" fill="#77B6FF"/>
<rect x="146.979" y="304.227" width="3.45497" height="4.4915" rx="1.72748" fill="#FFAD06" stroke="#FF5C00" stroke-width="0.576"/>
<path d="M146.921 305.82L148.341 305.82" stroke="#FF5C00" stroke-width="0.576"/>
<path d="M146.921 307.087L148.342 307.087" stroke="#FF5C00" stroke-width="0.576"/>
<path d="M90.32 89.648C92.176 88.912 94.032 87.968 95.888 86.816C97.776 85.664 99.44 84.304 100.88 82.736H104.96V116H99.152V90.512C98.288 91.184 97.2 91.84 95.888 92.48C94.576 93.12 93.312 93.648 92.096 94.064L90.32 89.648ZM131.865 106.496C131.865 105.44 131.657 104.496 131.241 103.664C130.825 102.832 130.089 102.128 129.033 101.552C128.009 100.976 126.617 100.544 124.857 100.256C123.129 99.968 120.937 99.824 118.281 99.824C118.633 96.752 118.905 93.84 119.097 91.088C119.289 88.304 119.449 85.52 119.577 82.736H136.569V87.632H124.521C124.489 88.176 124.441 88.8 124.377 89.504C124.345 90.176 124.297 90.864 124.233 91.568C124.201 92.272 124.153 92.944 124.089 93.584C124.025 94.224 123.961 94.768 123.897 95.216C128.633 95.472 132.121 96.56 134.361 98.48C136.633 100.368 137.769 102.96 137.769 106.256C137.769 107.76 137.513 109.152 137.001 110.432C136.489 111.712 135.705 112.816 134.649 113.744C133.593 114.672 132.265 115.408 130.665 115.952C129.065 116.464 127.193 116.72 125.049 116.72C124.185 116.72 123.305 116.656 122.409 116.528C121.513 116.4 120.649 116.24 119.817 116.048C119.017 115.888 118.297 115.712 117.657 115.52C117.017 115.328 116.537 115.152 116.217 114.992L117.321 110.096C117.993 110.416 118.953 110.768 120.201 111.152C121.481 111.504 123.033 111.68 124.857 111.68C126.105 111.68 127.177 111.552 128.073 111.296C128.969 111.008 129.689 110.624 130.233 110.144C130.809 109.664 131.225 109.12 131.481 108.512C131.737 107.872 131.865 107.2 131.865 106.496ZM159.347 91.088C159.347 94 158.595 96.24 157.091 97.808C155.619 99.376 153.683 100.16 151.283 100.16C150.099 100.16 149.011 99.968 148.019 99.584C147.027 99.168 146.179 98.576 145.475 97.808C144.771 97.04 144.211 96.096 143.795 94.976C143.411 93.824 143.219 92.528 143.219 91.088C143.219 88.144 143.955 85.904 145.427 84.368C146.931 82.8 148.883 82.016 151.283 82.016C153.683 82.016 155.619 82.8 157.091 84.368C158.595 85.904 159.347 88.144 159.347 91.088ZM154.787 91.088C154.787 89.392 154.467 88.128 153.827 87.296C153.219 86.432 152.371 86 151.283 86C150.195 86 149.347 86.432 148.739 87.296C148.131 88.128 147.827 89.392 147.827 91.088C147.827 92.784 148.131 94.064 148.739 94.928C149.347 95.76 150.195 96.176 151.283 96.176C152.371 96.176 153.219 95.76 153.827 94.928C154.467 94.064 154.787 92.784 154.787 91.088ZM169.091 82.736H174.611L155.843 116H150.323L169.091 82.736ZM181.763 107.696C181.763 110.608 181.011 112.848 179.507 114.416C178.035 115.984 176.099 116.768 173.699 116.768C172.515 116.768 171.427 116.56 170.435 116.144C169.443 115.76 168.595 115.184 167.891 114.416C167.187 113.648 166.627 112.704 166.211 111.584C165.827 110.432 165.635 109.136 165.635 107.696C165.635 104.752 166.371 102.512 167.843 100.976C169.347 99.408 171.299 98.624 173.699 98.624C176.099 98.624 178.035 99.408 179.507 100.976C181.011 102.512 181.763 104.752 181.763 107.696ZM177.203 107.696C177.203 106 176.883 104.736 176.243 103.904C175.635 103.04 174.787 102.608 173.699 102.608C172.611 102.608 171.763 103.04 171.155 103.904C170.547 104.736 170.243 106 170.243 107.696C170.243 109.392 170.547 110.672 171.155 111.536C171.763 112.368 172.611 112.784 173.699 112.784C174.787 112.784 175.635 112.368 176.243 111.536C176.883 110.672 177.203 109.392 177.203 107.696Z" fill="#FFAD06"/>
<path d="M62.4998 162C62.3132 161.453 62.1198 160.913 61.9198 160.38C61.7198 159.847 61.5265 159.3 61.3398 158.74H55.4998C55.3132 159.3 55.1198 159.853 54.9198 160.4C54.7332 160.933 54.5465 161.467 54.3598 162H51.7398C52.2598 160.52 52.7532 159.153 53.2198 157.9C53.6865 156.647 54.1398 155.46 54.5798 154.34C55.0332 153.22 55.4798 152.153 55.9198 151.14C56.3598 150.127 56.8132 149.127 57.2798 148.14H59.6598C60.1265 149.127 60.5798 150.127 61.0198 151.14C61.4598 152.153 61.8998 153.22 62.3398 154.34C62.7932 155.46 63.2532 156.647 63.7198 157.9C64.1998 159.153 64.6998 160.52 65.2198 162H62.4998ZM58.4198 150.82C58.1132 151.527 57.7598 152.387 57.3598 153.4C56.9732 154.413 56.5665 155.513 56.1398 156.7H60.6998C60.2732 155.513 59.8598 154.407 59.4598 153.38C59.0598 152.353 58.7132 151.5 58.4198 150.82ZM69.4917 162H67.0717V151.54H69.4917V162ZM69.7517 148.48C69.7517 148.933 69.6051 149.293 69.3117 149.56C69.0184 149.827 68.6717 149.96 68.2717 149.96C67.8584 149.96 67.5051 149.827 67.2117 149.56C66.9184 149.293 66.7717 148.933 66.7717 148.48C66.7717 148.013 66.9184 147.647 67.2117 147.38C67.5051 147.113 67.8584 146.98 68.2717 146.98C68.6717 146.98 69.0184 147.113 69.3117 147.38C69.6051 147.647 69.7517 148.013 69.7517 148.48ZM78.7391 153.72C78.5391 153.653 78.2591 153.587 77.8991 153.52C77.5524 153.44 77.1457 153.4 76.6791 153.4C76.4124 153.4 76.1257 153.427 75.8191 153.48C75.5257 153.533 75.3191 153.58 75.1991 153.62V162H72.7791V152.04C73.2457 151.867 73.8257 151.707 74.5191 151.56C75.2257 151.4 76.0057 151.32 76.8591 151.32C77.0191 151.32 77.2057 151.333 77.4191 151.36C77.6324 151.373 77.8457 151.4 78.0591 151.44C78.2724 151.467 78.4791 151.507 78.6791 151.56C78.8791 151.6 79.0391 151.64 79.1591 151.68L78.7391 153.72ZM82.9455 156.74C82.9455 157.807 83.1988 158.647 83.7055 159.26C84.2121 159.86 84.9121 160.16 85.8055 160.16C86.1921 160.16 86.5188 160.147 86.7855 160.12C87.0655 160.08 87.2921 160.04 87.4655 160V154C87.2521 153.853 86.9655 153.72 86.6055 153.6C86.2588 153.467 85.8855 153.4 85.4855 153.4C84.6055 153.4 83.9588 153.7 83.5455 154.3C83.1455 154.9 82.9455 155.713 82.9455 156.74ZM89.8855 161.68C89.4055 161.827 88.7988 161.96 88.0655 162.08C87.3455 162.2 86.5855 162.26 85.7855 162.26C84.9588 162.26 84.2188 162.133 83.5655 161.88C82.9121 161.627 82.3521 161.267 81.8855 160.8C81.4321 160.32 81.0788 159.747 80.8255 159.08C80.5855 158.4 80.4655 157.64 80.4655 156.8C80.4655 155.973 80.5655 155.227 80.7655 154.56C80.9788 153.88 81.2855 153.3 81.6855 152.82C82.0855 152.34 82.5721 151.973 83.1455 151.72C83.7188 151.453 84.3788 151.32 85.1255 151.32C85.6321 151.32 86.0788 151.38 86.4655 151.5C86.8521 151.62 87.1855 151.753 87.4655 151.9V146.88L89.8855 146.48V161.68ZM99.1195 153.72C98.9195 153.653 98.6395 153.587 98.2795 153.52C97.9329 153.44 97.5262 153.4 97.0595 153.4C96.7929 153.4 96.5062 153.427 96.1995 153.48C95.9062 153.533 95.6995 153.58 95.5795 153.62V162H93.1595V152.04C93.6262 151.867 94.2062 151.707 94.8995 151.56C95.6062 151.4 96.3862 151.32 97.2395 151.32C97.3995 151.32 97.5862 151.333 97.7995 151.36C98.0129 151.373 98.2262 151.4 98.4395 151.44C98.6529 151.467 98.8595 151.507 99.0595 151.56C99.2595 151.6 99.4195 151.64 99.5395 151.68L99.1195 153.72ZM110.886 156.76C110.886 157.587 110.766 158.34 110.526 159.02C110.286 159.7 109.946 160.28 109.506 160.76C109.066 161.24 108.533 161.613 107.906 161.88C107.293 162.147 106.613 162.28 105.866 162.28C105.119 162.28 104.439 162.147 103.826 161.88C103.213 161.613 102.686 161.24 102.246 160.76C101.806 160.28 101.459 159.7 101.206 159.02C100.966 158.34 100.846 157.587 100.846 156.76C100.846 155.933 100.966 155.187 101.206 154.52C101.459 153.84 101.806 153.26 102.246 152.78C102.699 152.3 103.233 151.933 103.846 151.68C104.459 151.413 105.133 151.28 105.866 151.28C106.599 151.28 107.273 151.413 107.886 151.68C108.513 151.933 109.046 152.3 109.486 152.78C109.926 153.26 110.266 153.84 110.506 154.52C110.759 155.187 110.886 155.933 110.886 156.76ZM108.406 156.76C108.406 155.72 108.179 154.9 107.726 154.3C107.286 153.687 106.666 153.38 105.866 153.38C105.066 153.38 104.439 153.687 103.986 154.3C103.546 154.9 103.326 155.72 103.326 156.76C103.326 157.813 103.546 158.647 103.986 159.26C104.439 159.873 105.066 160.18 105.866 160.18C106.666 160.18 107.286 159.873 107.726 159.26C108.179 158.647 108.406 157.813 108.406 156.76ZM120.519 156.82C120.519 155.74 120.272 154.9 119.779 154.3C119.299 153.7 118.519 153.4 117.439 153.4C117.212 153.4 116.972 153.413 116.719 153.44C116.479 153.453 116.239 153.493 115.999 153.56V159.54C116.212 159.687 116.492 159.827 116.839 159.96C117.199 160.08 117.579 160.14 117.979 160.14C118.859 160.14 119.499 159.84 119.899 159.24C120.312 158.64 120.519 157.833 120.519 156.82ZM122.999 156.78C122.999 157.58 122.892 158.313 122.679 158.98C122.479 159.647 122.186 160.22 121.799 160.7C121.412 161.18 120.926 161.553 120.339 161.82C119.766 162.087 119.112 162.22 118.379 162.22C117.886 162.22 117.432 162.16 117.019 162.04C116.606 161.92 116.266 161.787 115.999 161.64V165.7H113.579V151.88C114.072 151.747 114.679 151.62 115.399 151.5C116.119 151.38 116.879 151.32 117.679 151.32C118.506 151.32 119.246 151.447 119.899 151.7C120.552 151.953 121.106 152.32 121.559 152.8C122.026 153.267 122.379 153.84 122.619 154.52C122.872 155.187 122.999 155.94 122.999 156.78ZM132.633 156.82C132.633 155.74 132.386 154.9 131.893 154.3C131.413 153.7 130.633 153.4 129.553 153.4C129.326 153.4 129.086 153.413 128.833 153.44C128.593 153.453 128.353 153.493 128.113 153.56V159.54C128.326 159.687 128.606 159.827 128.953 159.96C129.313 160.08 129.693 160.14 130.093 160.14C130.973 160.14 131.613 159.84 132.013 159.24C132.426 158.64 132.633 157.833 132.633 156.82ZM135.113 156.78C135.113 157.58 135.006 158.313 134.793 158.98C134.593 159.647 134.3 160.22 133.913 160.7C133.526 161.18 133.04 161.553 132.453 161.82C131.88 162.087 131.226 162.22 130.493 162.22C130 162.22 129.546 162.16 129.133 162.04C128.72 161.92 128.38 161.787 128.113 161.64V165.7H125.693V151.88C126.186 151.747 126.793 151.62 127.513 151.5C128.233 151.38 128.993 151.32 129.793 151.32C130.62 151.32 131.36 151.447 132.013 151.7C132.666 151.953 133.22 152.32 133.673 152.8C134.14 153.267 134.493 153.84 134.733 154.52C134.986 155.187 135.113 155.94 135.113 156.78ZM137.227 156.82C137.227 155.9 137.361 155.093 137.627 154.4C137.907 153.707 138.274 153.133 138.727 152.68C139.181 152.213 139.701 151.867 140.287 151.64C140.874 151.4 141.474 151.28 142.087 151.28C143.527 151.28 144.647 151.727 145.447 152.62C146.261 153.513 146.667 154.847 146.667 156.62C146.667 156.753 146.661 156.907 146.647 157.08C146.647 157.24 146.641 157.387 146.627 157.52H139.727C139.794 158.36 140.087 159.013 140.607 159.48C141.141 159.933 141.907 160.16 142.907 160.16C143.494 160.16 144.027 160.107 144.507 160C145.001 159.893 145.387 159.78 145.667 159.66L145.987 161.64C145.854 161.707 145.667 161.78 145.427 161.86C145.201 161.927 144.934 161.987 144.627 162.04C144.334 162.107 144.014 162.16 143.667 162.2C143.321 162.24 142.967 162.26 142.607 162.26C141.687 162.26 140.887 162.127 140.207 161.86C139.527 161.58 138.967 161.2 138.527 160.72C138.087 160.227 137.761 159.653 137.547 159C137.334 158.333 137.227 157.607 137.227 156.82ZM144.247 155.74C144.247 155.407 144.201 155.093 144.107 154.8C144.014 154.493 143.874 154.233 143.687 154.02C143.514 153.793 143.294 153.62 143.027 153.5C142.774 153.367 142.467 153.3 142.107 153.3C141.734 153.3 141.407 153.373 141.127 153.52C140.847 153.653 140.607 153.833 140.407 154.06C140.221 154.287 140.074 154.547 139.967 154.84C139.861 155.133 139.787 155.433 139.747 155.74H144.247ZM151.333 156.74C151.333 157.807 151.586 158.647 152.093 159.26C152.6 159.86 153.3 160.16 154.193 160.16C154.58 160.16 154.906 160.147 155.173 160.12C155.453 160.08 155.68 160.04 155.853 160V154C155.64 153.853 155.353 153.72 154.993 153.6C154.646 153.467 154.273 153.4 153.873 153.4C152.993 153.4 152.346 153.7 151.933 154.3C151.533 154.9 151.333 155.713 151.333 156.74ZM158.273 161.68C157.793 161.827 157.186 161.96 156.453 162.08C155.733 162.2 154.973 162.26 154.173 162.26C153.346 162.26 152.606 162.133 151.953 161.88C151.3 161.627 150.74 161.267 150.273 160.8C149.82 160.32 149.466 159.747 149.213 159.08C148.973 158.4 148.853 157.64 148.853 156.8C148.853 155.973 148.953 155.227 149.153 154.56C149.366 153.88 149.673 153.3 150.073 152.82C150.473 152.34 150.96 151.973 151.533 151.72C152.106 151.453 152.766 151.32 153.513 151.32C154.02 151.32 154.466 151.38 154.853 151.5C155.24 151.62 155.573 151.753 155.853 151.9V146.88L158.273 146.48V161.68ZM166.295 148.78L168.715 148.38V151.54H172.435V153.56H168.715V157.82C168.715 158.66 168.848 159.26 169.115 159.62C169.382 159.98 169.835 160.16 170.475 160.16C170.915 160.16 171.302 160.113 171.635 160.02C171.982 159.927 172.255 159.84 172.455 159.76L172.855 161.68C172.575 161.8 172.208 161.92 171.755 162.04C171.302 162.173 170.768 162.24 170.155 162.24C169.408 162.24 168.782 162.14 168.275 161.94C167.782 161.74 167.388 161.453 167.095 161.08C166.802 160.693 166.595 160.233 166.475 159.7C166.355 159.153 166.295 158.533 166.295 157.84V148.78ZM184.2 156.76C184.2 157.587 184.08 158.34 183.84 159.02C183.6 159.7 183.26 160.28 182.82 160.76C182.38 161.24 181.847 161.613 181.22 161.88C180.607 162.147 179.927 162.28 179.18 162.28C178.433 162.28 177.753 162.147 177.14 161.88C176.527 161.613 176 161.24 175.56 160.76C175.12 160.28 174.773 159.7 174.52 159.02C174.28 158.34 174.16 157.587 174.16 156.76C174.16 155.933 174.28 155.187 174.52 154.52C174.773 153.84 175.12 153.26 175.56 152.78C176.013 152.3 176.547 151.933 177.16 151.68C177.773 151.413 178.447 151.28 179.18 151.28C179.913 151.28 180.587 151.413 181.2 151.68C181.827 151.933 182.36 152.3 182.8 152.78C183.24 153.26 183.58 153.84 183.82 154.52C184.073 155.187 184.2 155.933 184.2 156.76ZM181.72 156.76C181.72 155.72 181.493 154.9 181.04 154.3C180.6 153.687 179.98 153.38 179.18 153.38C178.38 153.38 177.753 153.687 177.3 154.3C176.86 154.9 176.64 155.72 176.64 156.76C176.64 157.813 176.86 158.647 177.3 159.26C177.753 159.873 178.38 160.18 179.18 160.18C179.98 160.18 180.6 159.873 181.04 159.26C181.493 158.647 181.72 157.813 181.72 156.76ZM191.881 162V148.14H200.641V150.28H194.401V153.82H199.941V155.96H194.401V162H191.881ZM203.097 148.14H205.617V162H203.097V148.14ZM217.897 159.82V162H209.137V148.14H211.657V159.82H217.897ZM100.801 192V176.88L103.221 176.48V181.66C103.488 181.567 103.794 181.487 104.141 181.42C104.501 181.353 104.854 181.32 105.201 181.32C106.041 181.32 106.734 181.44 107.281 181.68C107.841 181.907 108.288 182.233 108.621 182.66C108.954 183.073 109.188 183.573 109.321 184.16C109.468 184.747 109.541 185.4 109.541 186.12V192H107.121V186.5C107.121 185.94 107.081 185.467 107.001 185.08C106.934 184.68 106.814 184.36 106.641 184.12C106.481 183.867 106.261 183.687 105.981 183.58C105.701 183.46 105.354 183.4 104.941 183.4C104.621 183.4 104.294 183.433 103.961 183.5C103.628 183.567 103.381 183.627 103.221 183.68V192H100.801ZM122.102 186.76C122.102 187.587 121.982 188.34 121.742 189.02C121.502 189.7 121.162 190.28 120.722 190.76C120.282 191.24 119.748 191.613 119.122 191.88C118.508 192.147 117.828 192.28 117.082 192.28C116.335 192.28 115.655 192.147 115.042 191.88C114.428 191.613 113.902 191.24 113.462 190.76C113.022 190.28 112.675 189.7 112.422 189.02C112.182 188.34 112.062 187.587 112.062 186.76C112.062 185.933 112.182 185.187 112.422 184.52C112.675 183.84 113.022 183.26 113.462 182.78C113.915 182.3 114.448 181.933 115.062 181.68C115.675 181.413 116.348 181.28 117.082 181.28C117.815 181.28 118.488 181.413 119.102 181.68C119.728 181.933 120.262 182.3 120.702 182.78C121.142 183.26 121.482 183.84 121.722 184.52C121.975 185.187 122.102 185.933 122.102 186.76ZM119.622 186.76C119.622 185.72 119.395 184.9 118.942 184.3C118.502 183.687 117.882 183.38 117.082 183.38C116.282 183.38 115.655 183.687 115.202 184.3C114.762 184.9 114.542 185.72 114.542 186.76C114.542 187.813 114.762 188.647 115.202 189.26C115.655 189.873 116.282 190.18 117.082 190.18C117.882 190.18 118.502 189.873 118.942 189.26C119.395 188.647 119.622 187.813 119.622 186.76ZM128.435 192.2C127.715 192.187 127.115 192.107 126.635 191.96C126.168 191.813 125.795 191.607 125.515 191.34C125.235 191.06 125.035 190.72 124.915 190.32C124.808 189.907 124.755 189.44 124.755 188.92V176.88L127.175 176.48V188.46C127.175 188.753 127.195 189 127.235 189.2C127.288 189.4 127.375 189.573 127.495 189.72C127.615 189.853 127.775 189.96 127.975 190.04C128.188 190.107 128.455 190.16 128.775 190.2L128.435 192.2ZM132.832 186.74C132.832 187.807 133.086 188.647 133.592 189.26C134.099 189.86 134.799 190.16 135.692 190.16C136.079 190.16 136.406 190.147 136.672 190.12C136.952 190.08 137.179 190.04 137.352 190V184C137.139 183.853 136.852 183.72 136.492 183.6C136.146 183.467 135.772 183.4 135.372 183.4C134.492 183.4 133.846 183.7 133.432 184.3C133.032 184.9 132.832 185.713 132.832 186.74ZM139.772 191.68C139.292 191.827 138.686 191.96 137.952 192.08C137.232 192.2 136.472 192.26 135.672 192.26C134.846 192.26 134.106 192.133 133.452 191.88C132.799 191.627 132.239 191.267 131.772 190.8C131.319 190.32 130.966 189.747 130.712 189.08C130.472 188.4 130.352 187.64 130.352 186.8C130.352 185.973 130.452 185.227 130.652 184.56C130.866 183.88 131.172 183.3 131.572 182.82C131.972 182.34 132.459 181.973 133.032 181.72C133.606 181.453 134.266 181.32 135.012 181.32C135.519 181.32 135.966 181.38 136.352 181.5C136.739 181.62 137.072 181.753 137.352 181.9V176.88L139.772 176.48V191.68ZM142.466 186.82C142.466 185.9 142.6 185.093 142.866 184.4C143.146 183.707 143.513 183.133 143.966 182.68C144.42 182.213 144.94 181.867 145.526 181.64C146.113 181.4 146.713 181.28 147.326 181.28C148.766 181.28 149.886 181.727 150.686 182.62C151.5 183.513 151.906 184.847 151.906 186.62C151.906 186.753 151.9 186.907 151.886 187.08C151.886 187.24 151.88 187.387 151.866 187.52H144.966C145.033 188.36 145.326 189.013 145.846 189.48C146.38 189.933 147.146 190.16 148.146 190.16C148.733 190.16 149.266 190.107 149.746 190C150.24 189.893 150.626 189.78 150.906 189.66L151.226 191.64C151.093 191.707 150.906 191.78 150.666 191.86C150.44 191.927 150.173 191.987 149.866 192.04C149.573 192.107 149.253 192.16 148.906 192.2C148.56 192.24 148.206 192.26 147.846 192.26C146.926 192.26 146.126 192.127 145.446 191.86C144.766 191.58 144.206 191.2 143.766 190.72C143.326 190.227 143 189.653 142.786 189C142.573 188.333 142.466 187.607 142.466 186.82ZM149.486 185.74C149.486 185.407 149.44 185.093 149.346 184.8C149.253 184.493 149.113 184.233 148.926 184.02C148.753 183.793 148.533 183.62 148.266 183.5C148.013 183.367 147.706 183.3 147.346 183.3C146.973 183.3 146.646 183.373 146.366 183.52C146.086 183.653 145.846 183.833 145.646 184.06C145.46 184.287 145.313 184.547 145.206 184.84C145.1 185.133 145.026 185.433 144.986 185.74H149.486ZM160.632 183.72C160.432 183.653 160.152 183.587 159.792 183.52C159.445 183.44 159.039 183.4 158.572 183.4C158.305 183.4 158.019 183.427 157.712 183.48C157.419 183.533 157.212 183.58 157.092 183.62V192H154.672V182.04C155.139 181.867 155.719 181.707 156.412 181.56C157.119 181.4 157.899 181.32 158.752 181.32C158.912 181.32 159.099 181.333 159.312 181.36C159.525 181.373 159.739 181.4 159.952 181.44C160.165 181.467 160.372 181.507 160.572 181.56C160.772 181.6 160.932 181.64 161.052 181.68L160.632 183.72ZM165.558 190.26C166.198 190.26 166.665 190.187 166.958 190.04C167.252 189.88 167.398 189.613 167.398 189.24C167.398 188.893 167.238 188.607 166.918 188.38C166.612 188.153 166.098 187.907 165.378 187.64C164.938 187.48 164.532 187.313 164.158 187.14C163.798 186.953 163.485 186.74 163.218 186.5C162.952 186.26 162.738 185.973 162.578 185.64C162.432 185.293 162.358 184.873 162.358 184.38C162.358 183.42 162.712 182.667 163.418 182.12C164.125 181.56 165.085 181.28 166.298 181.28C166.912 181.28 167.498 181.34 168.058 181.46C168.618 181.567 169.038 181.673 169.318 181.78L168.878 183.74C168.612 183.62 168.272 183.513 167.858 183.42C167.445 183.313 166.965 183.26 166.418 183.26C165.925 183.26 165.525 183.347 165.218 183.52C164.912 183.68 164.758 183.933 164.758 184.28C164.758 184.453 164.785 184.607 164.838 184.74C164.905 184.873 165.012 185 165.158 185.12C165.305 185.227 165.498 185.34 165.738 185.46C165.978 185.567 166.272 185.68 166.618 185.8C167.192 186.013 167.678 186.227 168.078 186.44C168.478 186.64 168.805 186.873 169.058 187.14C169.325 187.393 169.518 187.687 169.638 188.02C169.758 188.353 169.818 188.753 169.818 189.22C169.818 190.22 169.445 190.98 168.698 191.5C167.965 192.007 166.912 192.26 165.538 192.26C164.618 192.26 163.878 192.18 163.318 192.02C162.758 191.873 162.365 191.753 162.138 191.66L162.558 189.64C162.918 189.787 163.345 189.927 163.838 190.06C164.345 190.193 164.918 190.26 165.558 190.26Z" fill="white"/>
<defs>
<clipPath id="clip0_131_1270">
<rect width="6.84861" height="6.84861" fill="white" transform="translate(140.938 303.027)"/>
</clipPath>
</defs>
</svg>
