<svg width="270" height="396" viewBox="0 0 270 396" fill="none" xmlns="http://www.w3.org/2000/svg">
<rect opacity="0.4" width="270" height="396" rx="24" fill="#5D38C6"/>
<rect x="1.5" y="1.5" width="267" height="393" rx="22.5" fill="#191919" fill-opacity="0.8" stroke="#5D38C6" stroke-width="3"/>
<rect x="14" y="15" width="242" height="367" rx="16" fill="#18171F"/>
<circle cx="135" cy="269" r="28" fill="#738BD8"/>
<path d="M145.204 260.191C145.195 260.176 145.182 260.164 145.165 260.157C143.264 259.298 141.257 258.686 139.195 258.335C139.156 258.328 139.118 258.346 139.099 258.38C138.826 258.868 138.577 259.369 138.355 259.882C136.133 259.55 133.872 259.55 131.649 259.882C131.426 259.368 131.174 258.866 130.894 258.38C130.875 258.347 130.837 258.329 130.798 258.335C128.736 258.685 126.729 259.297 124.828 260.157C124.811 260.164 124.798 260.175 124.788 260.19C120.985 265.781 119.944 271.233 120.455 276.619C120.458 276.645 120.471 276.67 120.493 276.686C122.707 278.3 125.184 279.532 127.818 280.329C127.855 280.341 127.897 280.327 127.92 280.296C128.486 279.539 128.987 278.736 129.419 277.898C129.431 277.874 129.432 277.847 129.422 277.823C129.413 277.799 129.393 277.78 129.368 277.771C128.578 277.473 127.813 277.114 127.08 276.698C127.053 276.682 127.035 276.654 127.034 276.623C127.032 276.592 127.046 276.563 127.071 276.544C127.225 276.431 127.376 276.314 127.525 276.194C127.552 276.172 127.588 276.167 127.62 276.181C132.42 278.338 137.618 278.338 142.361 276.181C142.393 276.166 142.43 276.171 142.457 276.192C142.606 276.313 142.758 276.431 142.913 276.544C142.938 276.562 142.952 276.592 142.95 276.623C142.949 276.654 142.932 276.682 142.905 276.698C142.174 277.118 141.408 277.476 140.616 277.77C140.591 277.779 140.571 277.798 140.561 277.823C140.552 277.847 140.553 277.874 140.566 277.898C141.005 278.732 141.505 279.533 142.063 280.295C142.086 280.327 142.128 280.341 142.166 280.329C144.804 279.535 147.285 278.303 149.502 276.686C149.524 276.671 149.538 276.646 149.54 276.62C150.152 270.394 148.516 264.986 145.204 260.191ZM130.136 273.34C128.69 273.34 127.5 272.034 127.5 270.431C127.5 268.827 128.667 267.521 130.136 267.521C131.616 267.521 132.795 268.838 132.772 270.43C132.772 272.034 131.604 273.34 130.136 273.34ZM139.883 273.34C138.437 273.34 137.247 272.034 137.247 270.431C137.247 268.827 138.414 267.521 139.883 267.521C141.363 267.521 142.542 268.838 142.519 270.43C142.519 272.034 141.363 273.34 139.883 273.34Z" fill="white"/>
<path d="M104.54 89.648C106.396 88.912 108.252 87.968 110.108 86.816C111.996 85.664 113.66 84.304 115.1 82.736H119.18V116H113.372V90.512C112.508 91.184 111.42 91.84 110.108 92.48C108.796 93.12 107.532 93.648 106.316 94.064L104.54 89.648ZM146.086 91.088C146.086 94 145.334 96.24 143.83 97.808C142.358 99.376 140.422 100.16 138.022 100.16C136.838 100.16 135.75 99.968 134.758 99.584C133.766 99.168 132.918 98.576 132.214 97.808C131.51 97.04 130.95 96.096 130.534 94.976C130.15 93.824 129.958 92.528 129.958 91.088C129.958 88.144 130.694 85.904 132.166 84.368C133.67 82.8 135.622 82.016 138.022 82.016C140.422 82.016 142.358 82.8 143.83 84.368C145.334 85.904 146.086 88.144 146.086 91.088ZM141.526 91.088C141.526 89.392 141.206 88.128 140.566 87.296C139.958 86.432 139.11 86 138.022 86C136.934 86 136.086 86.432 135.478 87.296C134.87 88.128 134.566 89.392 134.566 91.088C134.566 92.784 134.87 94.064 135.478 94.928C136.086 95.76 136.934 96.176 138.022 96.176C139.11 96.176 139.958 95.76 140.566 94.928C141.206 94.064 141.526 92.784 141.526 91.088ZM155.83 82.736H161.35L142.582 116H137.062L155.83 82.736ZM168.502 107.696C168.502 110.608 167.75 112.848 166.246 114.416C164.774 115.984 162.838 116.768 160.438 116.768C159.254 116.768 158.166 116.56 157.174 116.144C156.182 115.76 155.334 115.184 154.63 114.416C153.926 113.648 153.366 112.704 152.95 111.584C152.566 110.432 152.374 109.136 152.374 107.696C152.374 104.752 153.11 102.512 154.582 100.976C156.086 99.408 158.038 98.624 160.438 98.624C162.838 98.624 164.774 99.408 166.246 100.976C167.75 102.512 168.502 104.752 168.502 107.696ZM163.942 107.696C163.942 106 163.622 104.736 162.982 103.904C162.374 103.04 161.526 102.608 160.438 102.608C159.35 102.608 158.502 103.04 157.894 103.904C157.286 104.736 156.982 106 156.982 107.696C156.982 109.392 157.286 110.672 157.894 111.536C158.502 112.368 159.35 112.784 160.438 112.784C161.526 112.784 162.374 112.368 162.982 111.536C163.622 110.672 163.942 109.392 163.942 107.696Z" fill="#FFAD06"/>
<path d="M40.7034 162C40.5167 161.453 40.3234 160.913 40.1234 160.38C39.9234 159.847 39.73 159.3 39.5434 158.74H33.7034C33.5167 159.3 33.3234 159.853 33.1234 160.4C32.9367 160.933 32.75 161.467 32.5634 162H29.9434C30.4634 160.52 30.9567 159.153 31.4234 157.9C31.89 156.647 32.3434 155.46 32.7834 154.34C33.2367 153.22 33.6834 152.153 34.1234 151.14C34.5634 150.127 35.0167 149.127 35.4834 148.14H37.8634C38.33 149.127 38.7834 150.127 39.2234 151.14C39.6634 152.153 40.1034 153.22 40.5434 154.34C40.9967 155.46 41.4567 156.647 41.9234 157.9C42.4034 159.153 42.9034 160.52 43.4234 162H40.7034ZM36.6234 150.82C36.3167 151.527 35.9634 152.387 35.5634 153.4C35.1767 154.413 34.77 155.513 34.3434 156.7H38.9034C38.4767 155.513 38.0634 154.407 37.6634 153.38C37.2634 152.353 36.9167 151.5 36.6234 150.82ZM47.6952 162H45.2752V151.54H47.6952V162ZM47.9552 148.48C47.9552 148.933 47.8086 149.293 47.5152 149.56C47.2219 149.827 46.8752 149.96 46.4752 149.96C46.0619 149.96 45.7086 149.827 45.4152 149.56C45.1219 149.293 44.9752 148.933 44.9752 148.48C44.9752 148.013 45.1219 147.647 45.4152 147.38C45.7086 147.113 46.0619 146.98 46.4752 146.98C46.8752 146.98 47.2219 147.113 47.5152 147.38C47.8086 147.647 47.9552 148.013 47.9552 148.48ZM56.9426 153.72C56.7426 153.653 56.4626 153.587 56.1026 153.52C55.7559 153.44 55.3492 153.4 54.8826 153.4C54.6159 153.4 54.3292 153.427 54.0226 153.48C53.7292 153.533 53.5226 153.58 53.4026 153.62V162H50.9826V152.04C51.4492 151.867 52.0292 151.707 52.7226 151.56C53.4292 151.4 54.2092 151.32 55.0626 151.32C55.2226 151.32 55.4092 151.333 55.6226 151.36C55.8359 151.373 56.0492 151.4 56.2626 151.44C56.4759 151.467 56.6826 151.507 56.8826 151.56C57.0826 151.6 57.2426 151.64 57.3626 151.68L56.9426 153.72ZM61.149 156.74C61.149 157.807 61.4023 158.647 61.909 159.26C62.4157 159.86 63.1157 160.16 64.009 160.16C64.3957 160.16 64.7223 160.147 64.989 160.12C65.269 160.08 65.4957 160.04 65.669 160V154C65.4557 153.853 65.169 153.72 64.809 153.6C64.4623 153.467 64.089 153.4 63.689 153.4C62.809 153.4 62.1623 153.7 61.749 154.3C61.349 154.9 61.149 155.713 61.149 156.74ZM68.089 161.68C67.609 161.827 67.0023 161.96 66.269 162.08C65.549 162.2 64.789 162.26 63.989 162.26C63.1623 162.26 62.4223 162.133 61.769 161.88C61.1157 161.627 60.5557 161.267 60.089 160.8C59.6357 160.32 59.2823 159.747 59.029 159.08C58.789 158.4 58.669 157.64 58.669 156.8C58.669 155.973 58.769 155.227 58.969 154.56C59.1823 153.88 59.489 153.3 59.889 152.82C60.289 152.34 60.7757 151.973 61.349 151.72C61.9223 151.453 62.5823 151.32 63.329 151.32C63.8357 151.32 64.2823 151.38 64.669 151.5C65.0557 151.62 65.389 151.753 65.669 151.9V146.88L68.089 146.48V161.68ZM77.323 153.72C77.123 153.653 76.843 153.587 76.483 153.52C76.1364 153.44 75.7297 153.4 75.263 153.4C74.9964 153.4 74.7097 153.427 74.403 153.48C74.1097 153.533 73.903 153.58 73.783 153.62V162H71.363V152.04C71.8297 151.867 72.4097 151.707 73.103 151.56C73.8097 151.4 74.5897 151.32 75.443 151.32C75.603 151.32 75.7897 151.333 76.003 151.36C76.2164 151.373 76.4297 151.4 76.643 151.44C76.8564 151.467 77.063 151.507 77.263 151.56C77.463 151.6 77.623 151.64 77.743 151.68L77.323 153.72ZM89.0895 156.76C89.0895 157.587 88.9695 158.34 88.7295 159.02C88.4895 159.7 88.1495 160.28 87.7095 160.76C87.2695 161.24 86.7361 161.613 86.1095 161.88C85.4961 162.147 84.8161 162.28 84.0695 162.28C83.3228 162.28 82.6428 162.147 82.0295 161.88C81.4161 161.613 80.8895 161.24 80.4495 160.76C80.0095 160.28 79.6628 159.7 79.4095 159.02C79.1695 158.34 79.0495 157.587 79.0495 156.76C79.0495 155.933 79.1695 155.187 79.4095 154.52C79.6628 153.84 80.0095 153.26 80.4495 152.78C80.9028 152.3 81.4361 151.933 82.0495 151.68C82.6628 151.413 83.3361 151.28 84.0695 151.28C84.8028 151.28 85.4761 151.413 86.0895 151.68C86.7161 151.933 87.2495 152.3 87.6895 152.78C88.1295 153.26 88.4695 153.84 88.7095 154.52C88.9628 155.187 89.0895 155.933 89.0895 156.76ZM86.6095 156.76C86.6095 155.72 86.3828 154.9 85.9295 154.3C85.4895 153.687 84.8695 153.38 84.0695 153.38C83.2695 153.38 82.6428 153.687 82.1895 154.3C81.7495 154.9 81.5295 155.72 81.5295 156.76C81.5295 157.813 81.7495 158.647 82.1895 159.26C82.6428 159.873 83.2695 160.18 84.0695 160.18C84.8695 160.18 85.4895 159.873 85.9295 159.26C86.3828 158.647 86.6095 157.813 86.6095 156.76ZM98.7226 156.82C98.7226 155.74 98.4759 154.9 97.9826 154.3C97.5026 153.7 96.7226 153.4 95.6426 153.4C95.4159 153.4 95.1759 153.413 94.9226 153.44C94.6826 153.453 94.4426 153.493 94.2026 153.56V159.54C94.4159 159.687 94.6959 159.827 95.0426 159.96C95.4026 160.08 95.7826 160.14 96.1826 160.14C97.0626 160.14 97.7026 159.84 98.1026 159.24C98.5159 158.64 98.7226 157.833 98.7226 156.82ZM101.203 156.78C101.203 157.58 101.096 158.313 100.883 158.98C100.683 159.647 100.389 160.22 100.003 160.7C99.6159 161.18 99.1292 161.553 98.5426 161.82C97.9692 162.087 97.3159 162.22 96.5826 162.22C96.0892 162.22 95.6359 162.16 95.2226 162.04C94.8092 161.92 94.4692 161.787 94.2026 161.64V165.7H91.7826V151.88C92.2759 151.747 92.8826 151.62 93.6026 151.5C94.3226 151.38 95.0826 151.32 95.8826 151.32C96.7092 151.32 97.4492 151.447 98.1026 151.7C98.7559 151.953 99.3092 152.32 99.7626 152.8C100.229 153.267 100.583 153.84 100.823 154.52C101.076 155.187 101.203 155.94 101.203 156.78ZM110.837 156.82C110.837 155.74 110.59 154.9 110.097 154.3C109.617 153.7 108.837 153.4 107.757 153.4C107.53 153.4 107.29 153.413 107.037 153.44C106.797 153.453 106.557 153.493 106.317 153.56V159.54C106.53 159.687 106.81 159.827 107.157 159.96C107.517 160.08 107.897 160.14 108.297 160.14C109.177 160.14 109.817 159.84 110.217 159.24C110.63 158.64 110.837 157.833 110.837 156.82ZM113.317 156.78C113.317 157.58 113.21 158.313 112.997 158.98C112.797 159.647 112.503 160.22 112.117 160.7C111.73 161.18 111.243 161.553 110.657 161.82C110.083 162.087 109.43 162.22 108.697 162.22C108.203 162.22 107.75 162.16 107.337 162.04C106.923 161.92 106.583 161.787 106.317 161.64V165.7H103.897V151.88C104.39 151.747 104.997 151.62 105.717 151.5C106.437 151.38 107.197 151.32 107.997 151.32C108.823 151.32 109.563 151.447 110.217 151.7C110.87 151.953 111.423 152.32 111.877 152.8C112.343 153.267 112.697 153.84 112.937 154.52C113.19 155.187 113.317 155.94 113.317 156.78ZM115.431 156.82C115.431 155.9 115.564 155.093 115.831 154.4C116.111 153.707 116.477 153.133 116.931 152.68C117.384 152.213 117.904 151.867 118.491 151.64C119.077 151.4 119.677 151.28 120.291 151.28C121.731 151.28 122.851 151.727 123.651 152.62C124.464 153.513 124.871 154.847 124.871 156.62C124.871 156.753 124.864 156.907 124.851 157.08C124.851 157.24 124.844 157.387 124.831 157.52H117.931C117.997 158.36 118.291 159.013 118.811 159.48C119.344 159.933 120.111 160.16 121.111 160.16C121.697 160.16 122.231 160.107 122.711 160C123.204 159.893 123.591 159.78 123.871 159.66L124.191 161.64C124.057 161.707 123.871 161.78 123.631 161.86C123.404 161.927 123.137 161.987 122.831 162.04C122.537 162.107 122.217 162.16 121.871 162.2C121.524 162.24 121.171 162.26 120.811 162.26C119.891 162.26 119.091 162.127 118.411 161.86C117.731 161.58 117.171 161.2 116.731 160.72C116.291 160.227 115.964 159.653 115.751 159C115.537 158.333 115.431 157.607 115.431 156.82ZM122.451 155.74C122.451 155.407 122.404 155.093 122.311 154.8C122.217 154.493 122.077 154.233 121.891 154.02C121.717 153.793 121.497 153.62 121.231 153.5C120.977 153.367 120.671 153.3 120.311 153.3C119.937 153.3 119.611 153.373 119.331 153.52C119.051 153.653 118.811 153.833 118.611 154.06C118.424 154.287 118.277 154.547 118.171 154.84C118.064 155.133 117.991 155.433 117.951 155.74H122.451ZM129.536 156.74C129.536 157.807 129.79 158.647 130.296 159.26C130.803 159.86 131.503 160.16 132.396 160.16C132.783 160.16 133.11 160.147 133.376 160.12C133.656 160.08 133.883 160.04 134.056 160V154C133.843 153.853 133.556 153.72 133.196 153.6C132.85 153.467 132.476 153.4 132.076 153.4C131.196 153.4 130.55 153.7 130.136 154.3C129.736 154.9 129.536 155.713 129.536 156.74ZM136.476 161.68C135.996 161.827 135.39 161.96 134.656 162.08C133.936 162.2 133.176 162.26 132.376 162.26C131.55 162.26 130.81 162.133 130.156 161.88C129.503 161.627 128.943 161.267 128.476 160.8C128.023 160.32 127.67 159.747 127.416 159.08C127.176 158.4 127.056 157.64 127.056 156.8C127.056 155.973 127.156 155.227 127.356 154.56C127.57 153.88 127.876 153.3 128.276 152.82C128.676 152.34 129.163 151.973 129.736 151.72C130.31 151.453 130.97 151.32 131.716 151.32C132.223 151.32 132.67 151.38 133.056 151.5C133.443 151.62 133.776 151.753 134.056 151.9V146.88L136.476 146.48V161.68ZM144.499 148.78L146.919 148.38V151.54H150.639V153.56H146.919V157.82C146.919 158.66 147.052 159.26 147.319 159.62C147.585 159.98 148.039 160.16 148.679 160.16C149.119 160.16 149.505 160.113 149.839 160.02C150.185 159.927 150.459 159.84 150.659 159.76L151.059 161.68C150.779 161.8 150.412 161.92 149.959 162.04C149.505 162.173 148.972 162.24 148.359 162.24C147.612 162.24 146.985 162.14 146.479 161.94C145.985 161.74 145.592 161.453 145.299 161.08C145.005 160.693 144.799 160.233 144.679 159.7C144.559 159.153 144.499 158.533 144.499 157.84V148.78ZM162.404 156.76C162.404 157.587 162.284 158.34 162.044 159.02C161.804 159.7 161.464 160.28 161.024 160.76C160.584 161.24 160.05 161.613 159.424 161.88C158.81 162.147 158.13 162.28 157.384 162.28C156.637 162.28 155.957 162.147 155.344 161.88C154.73 161.613 154.204 161.24 153.764 160.76C153.324 160.28 152.977 159.7 152.724 159.02C152.484 158.34 152.364 157.587 152.364 156.76C152.364 155.933 152.484 155.187 152.724 154.52C152.977 153.84 153.324 153.26 153.764 152.78C154.217 152.3 154.75 151.933 155.364 151.68C155.977 151.413 156.65 151.28 157.384 151.28C158.117 151.28 158.79 151.413 159.404 151.68C160.03 151.933 160.564 152.3 161.004 152.78C161.444 153.26 161.784 153.84 162.024 154.52C162.277 155.187 162.404 155.933 162.404 156.76ZM159.924 156.76C159.924 155.72 159.697 154.9 159.244 154.3C158.804 153.687 158.184 153.38 157.384 153.38C156.584 153.38 155.957 153.687 155.504 154.3C155.064 154.9 154.844 155.72 154.844 156.76C154.844 157.813 155.064 158.647 155.504 159.26C155.957 159.873 156.584 160.18 157.384 160.18C158.184 160.18 158.804 159.873 159.244 159.26C159.697 158.647 159.924 157.813 159.924 156.76ZM172.605 159.92C172.751 159.933 172.945 159.947 173.185 159.96C173.425 159.96 173.751 159.96 174.165 159.96C175.858 159.96 177.118 159.533 177.945 158.68C178.785 157.813 179.205 156.607 179.205 155.06C179.205 153.487 178.798 152.28 177.985 151.44C177.171 150.6 175.911 150.18 174.205 150.18C173.458 150.18 172.925 150.2 172.605 150.24V159.92ZM181.845 155.06C181.845 156.26 181.658 157.307 181.285 158.2C180.911 159.08 180.378 159.82 179.685 160.42C179.005 161.007 178.178 161.447 177.205 161.74C176.245 162.02 175.178 162.16 174.005 162.16C173.445 162.16 172.811 162.133 172.105 162.08C171.398 162.04 170.725 161.947 170.085 161.8V148.34C170.725 148.193 171.405 148.1 172.125 148.06C172.845 148.02 173.485 148 174.045 148C175.205 148 176.265 148.14 177.225 148.42C178.185 148.687 179.005 149.113 179.685 149.7C180.378 150.273 180.911 151.007 181.285 151.9C181.658 152.78 181.845 153.833 181.845 155.06ZM187.116 162H184.696V151.54H187.116V162ZM187.376 148.48C187.376 148.933 187.23 149.293 186.936 149.56C186.643 149.827 186.296 149.96 185.896 149.96C185.483 149.96 185.13 149.827 184.836 149.56C184.543 149.293 184.396 148.933 184.396 148.48C184.396 148.013 184.543 147.647 184.836 147.38C185.13 147.113 185.483 146.98 185.896 146.98C186.296 146.98 186.643 147.113 186.936 147.38C187.23 147.647 187.376 148.013 187.376 148.48ZM193.024 160.26C193.664 160.26 194.13 160.187 194.424 160.04C194.717 159.88 194.864 159.613 194.864 159.24C194.864 158.893 194.704 158.607 194.384 158.38C194.077 158.153 193.564 157.907 192.844 157.64C192.404 157.48 191.997 157.313 191.624 157.14C191.264 156.953 190.95 156.74 190.684 156.5C190.417 156.26 190.204 155.973 190.044 155.64C189.897 155.293 189.824 154.873 189.824 154.38C189.824 153.42 190.177 152.667 190.884 152.12C191.59 151.56 192.55 151.28 193.764 151.28C194.377 151.28 194.964 151.34 195.524 151.46C196.084 151.567 196.504 151.673 196.784 151.78L196.344 153.74C196.077 153.62 195.737 153.513 195.324 153.42C194.91 153.313 194.43 153.26 193.884 153.26C193.39 153.26 192.99 153.347 192.684 153.52C192.377 153.68 192.224 153.933 192.224 154.28C192.224 154.453 192.25 154.607 192.304 154.74C192.37 154.873 192.477 155 192.624 155.12C192.77 155.227 192.964 155.34 193.204 155.46C193.444 155.567 193.737 155.68 194.084 155.8C194.657 156.013 195.144 156.227 195.544 156.44C195.944 156.64 196.27 156.873 196.524 157.14C196.79 157.393 196.984 157.687 197.104 158.02C197.224 158.353 197.284 158.753 197.284 159.22C197.284 160.22 196.91 160.98 196.164 161.5C195.43 162.007 194.377 162.26 193.004 162.26C192.084 162.26 191.344 162.18 190.784 162.02C190.224 161.873 189.83 161.753 189.604 161.66L190.024 159.64C190.384 159.787 190.81 159.927 191.304 160.06C191.81 160.193 192.384 160.26 193.024 160.26ZM199.164 156.78C199.164 156.007 199.284 155.287 199.524 154.62C199.764 153.94 200.104 153.353 200.544 152.86C200.998 152.367 201.544 151.98 202.184 151.7C202.824 151.42 203.544 151.28 204.344 151.28C205.331 151.28 206.264 151.46 207.144 151.82L206.624 153.8C206.344 153.68 206.024 153.58 205.664 153.5C205.318 153.42 204.944 153.38 204.544 153.38C203.598 153.38 202.878 153.68 202.384 154.28C201.891 154.867 201.644 155.7 201.644 156.78C201.644 157.82 201.878 158.647 202.344 159.26C202.811 159.86 203.598 160.16 204.704 160.16C205.118 160.16 205.524 160.12 205.924 160.04C206.324 159.96 206.671 159.86 206.964 159.74L207.304 161.74C207.038 161.873 206.631 161.993 206.084 162.1C205.551 162.207 204.998 162.26 204.424 162.26C203.531 162.26 202.751 162.127 202.084 161.86C201.431 161.58 200.884 161.2 200.444 160.72C200.018 160.227 199.698 159.647 199.484 158.98C199.271 158.3 199.164 157.567 199.164 156.78ZM218.623 156.76C218.623 157.587 218.503 158.34 218.263 159.02C218.023 159.7 217.683 160.28 217.243 160.76C216.803 161.24 216.27 161.613 215.643 161.88C215.03 162.147 214.35 162.28 213.603 162.28C212.856 162.28 212.176 162.147 211.563 161.88C210.95 161.613 210.423 161.24 209.983 160.76C209.543 160.28 209.196 159.7 208.943 159.02C208.703 158.34 208.583 157.587 208.583 156.76C208.583 155.933 208.703 155.187 208.943 154.52C209.196 153.84 209.543 153.26 209.983 152.78C210.436 152.3 210.97 151.933 211.583 151.68C212.196 151.413 212.87 151.28 213.603 151.28C214.336 151.28 215.01 151.413 215.623 151.68C216.25 151.933 216.783 152.3 217.223 152.78C217.663 153.26 218.003 153.84 218.243 154.52C218.496 155.187 218.623 155.933 218.623 156.76ZM216.143 156.76C216.143 155.72 215.916 154.9 215.463 154.3C215.023 153.687 214.403 153.38 213.603 153.38C212.803 153.38 212.176 153.687 211.723 154.3C211.283 154.9 211.063 155.72 211.063 156.76C211.063 157.813 211.283 158.647 211.723 159.26C212.176 159.873 212.803 160.18 213.603 160.18C214.403 160.18 215.023 159.873 215.463 159.26C215.916 158.647 216.143 157.813 216.143 156.76ZM227.276 153.72C227.076 153.653 226.796 153.587 226.436 153.52C226.09 153.44 225.683 153.4 225.216 153.4C224.95 153.4 224.663 153.427 224.356 153.48C224.063 153.533 223.856 153.58 223.736 153.62V162H221.316V152.04C221.783 151.867 222.363 151.707 223.056 151.56C223.763 151.4 224.543 151.32 225.396 151.32C225.556 151.32 225.743 151.333 225.956 151.36C226.17 151.373 226.383 151.4 226.596 151.44C226.81 151.467 227.016 151.507 227.216 151.56C227.416 151.6 227.576 151.64 227.696 151.68L227.276 153.72ZM231.483 156.74C231.483 157.807 231.736 158.647 232.243 159.26C232.749 159.86 233.449 160.16 234.343 160.16C234.729 160.16 235.056 160.147 235.323 160.12C235.603 160.08 235.829 160.04 236.003 160V154C235.789 153.853 235.503 153.72 235.143 153.6C234.796 153.467 234.423 153.4 234.023 153.4C233.143 153.4 232.496 153.7 232.083 154.3C231.683 154.9 231.483 155.713 231.483 156.74ZM238.423 161.68C237.943 161.827 237.336 161.96 236.603 162.08C235.883 162.2 235.123 162.26 234.323 162.26C233.496 162.26 232.756 162.133 232.103 161.88C231.449 161.627 230.889 161.267 230.423 160.8C229.969 160.32 229.616 159.747 229.363 159.08C229.123 158.4 229.003 157.64 229.003 156.8C229.003 155.973 229.103 155.227 229.303 154.56C229.516 153.88 229.823 153.3 230.223 152.82C230.623 152.34 231.109 151.973 231.683 151.72C232.256 151.453 232.916 151.32 233.663 151.32C234.169 151.32 234.616 151.38 235.003 151.5C235.389 151.62 235.723 151.753 236.003 151.9V146.88L238.423 146.48V161.68ZM37.0358 186.78C37.0358 186.007 37.1558 185.287 37.3958 184.62C37.6358 183.94 37.9758 183.353 38.4158 182.86C38.8691 182.367 39.4158 181.98 40.0558 181.7C40.6958 181.42 41.4158 181.28 42.2158 181.28C43.2024 181.28 44.1358 181.46 45.0158 181.82L44.4958 183.8C44.2158 183.68 43.8958 183.58 43.5358 183.5C43.1891 183.42 42.8158 183.38 42.4158 183.38C41.4691 183.38 40.7491 183.68 40.2558 184.28C39.7624 184.867 39.5158 185.7 39.5158 186.78C39.5158 187.82 39.7491 188.647 40.2158 189.26C40.6824 189.86 41.4691 190.16 42.5758 190.16C42.9891 190.16 43.3958 190.12 43.7958 190.04C44.1958 189.96 44.5424 189.86 44.8358 189.74L45.1758 191.74C44.9091 191.873 44.5025 191.993 43.9558 192.1C43.4224 192.207 42.8691 192.26 42.2958 192.26C41.4024 192.26 40.6224 192.127 39.9558 191.86C39.3024 191.58 38.7558 191.2 38.3158 190.72C37.8891 190.227 37.5691 189.647 37.3558 188.98C37.1424 188.3 37.0358 187.567 37.0358 186.78ZM56.4945 186.76C56.4945 187.587 56.3745 188.34 56.1345 189.02C55.8945 189.7 55.5545 190.28 55.1145 190.76C54.6745 191.24 54.1412 191.613 53.5145 191.88C52.9012 192.147 52.2212 192.28 51.4745 192.28C50.7279 192.28 50.0479 192.147 49.4345 191.88C48.8212 191.613 48.2945 191.24 47.8545 190.76C47.4145 190.28 47.0679 189.7 46.8145 189.02C46.5745 188.34 46.4545 187.587 46.4545 186.76C46.4545 185.933 46.5745 185.187 46.8145 184.52C47.0679 183.84 47.4145 183.26 47.8545 182.78C48.3079 182.3 48.8412 181.933 49.4545 181.68C50.0679 181.413 50.7412 181.28 51.4745 181.28C52.2079 181.28 52.8812 181.413 53.4945 181.68C54.1212 181.933 54.6545 182.3 55.0945 182.78C55.5345 183.26 55.8745 183.84 56.1145 184.52C56.3679 185.187 56.4945 185.933 56.4945 186.76ZM54.0145 186.76C54.0145 185.72 53.7879 184.9 53.3345 184.3C52.8945 183.687 52.2745 183.38 51.4745 183.38C50.6745 183.38 50.0479 183.687 49.5945 184.3C49.1545 184.9 48.9345 185.72 48.9345 186.76C48.9345 187.813 49.1545 188.647 49.5945 189.26C50.0479 189.873 50.6745 190.18 51.4745 190.18C52.2745 190.18 52.8945 189.873 53.3345 189.26C53.7879 188.647 54.0145 187.813 54.0145 186.76ZM65.1477 186.5C65.1477 185.407 65.0077 184.62 64.7277 184.14C64.461 183.647 63.9543 183.4 63.2077 183.4C62.941 183.4 62.6477 183.42 62.3277 183.46C62.0077 183.5 61.7677 183.533 61.6077 183.56V192H59.1877V181.88C59.6543 181.747 60.261 181.62 61.0077 181.5C61.7677 181.38 62.5677 181.32 63.4077 181.32C64.1277 181.32 64.7143 181.413 65.1677 181.6C65.6343 181.787 66.021 182.033 66.3277 182.34C66.4743 182.233 66.661 182.12 66.8877 182C67.1143 181.88 67.3677 181.773 67.6477 181.68C67.9277 181.573 68.221 181.487 68.5277 181.42C68.8477 181.353 69.1677 181.32 69.4877 181.32C70.301 181.32 70.9677 181.44 71.4877 181.68C72.021 181.907 72.4343 182.233 72.7277 182.66C73.0343 183.073 73.241 183.58 73.3477 184.18C73.4677 184.767 73.5277 185.413 73.5277 186.12V192H71.1077V186.5C71.1077 185.407 70.9743 184.62 70.7077 184.14C70.441 183.647 69.9277 183.4 69.1677 183.4C68.781 183.4 68.4143 183.467 68.0677 183.6C67.721 183.72 67.461 183.84 67.2877 183.96C67.3943 184.293 67.4677 184.647 67.5077 185.02C67.5477 185.393 67.5677 185.793 67.5677 186.22V192H65.1477V186.5ZM82.6523 186.5C82.6523 185.407 82.5123 184.62 82.2323 184.14C81.9657 183.647 81.459 183.4 80.7123 183.4C80.4457 183.4 80.1523 183.42 79.8323 183.46C79.5123 183.5 79.2723 183.533 79.1123 183.56V192H76.6923V181.88C77.159 181.747 77.7657 181.62 78.5123 181.5C79.2723 181.38 80.0723 181.32 80.9123 181.32C81.6323 181.32 82.219 181.413 82.6723 181.6C83.139 181.787 83.5257 182.033 83.8323 182.34C83.979 182.233 84.1657 182.12 84.3923 182C84.619 181.88 84.8723 181.773 85.1523 181.68C85.4323 181.573 85.7257 181.487 86.0323 181.42C86.3523 181.353 86.6723 181.32 86.9923 181.32C87.8057 181.32 88.4723 181.44 88.9923 181.68C89.5257 181.907 89.939 182.233 90.2323 182.66C90.539 183.073 90.7457 183.58 90.8523 184.18C90.9723 184.767 91.0323 185.413 91.0323 186.12V192H88.6123V186.5C88.6123 185.407 88.479 184.62 88.2123 184.14C87.9457 183.647 87.4323 183.4 86.6723 183.4C86.2857 183.4 85.919 183.467 85.5723 183.6C85.2257 183.72 84.9657 183.84 84.7923 183.96C84.899 184.293 84.9723 184.647 85.0123 185.02C85.0523 185.393 85.0723 185.793 85.0723 186.22V192H82.6523V186.5ZM102.777 191.68C102.31 191.8 101.704 191.92 100.957 192.04C100.21 192.173 99.3904 192.24 98.497 192.24C97.657 192.24 96.9504 192.12 96.377 191.88C95.817 191.64 95.3637 191.307 95.017 190.88C94.6837 190.453 94.4437 189.947 94.297 189.36C94.1504 188.76 94.077 188.107 94.077 187.4V181.54H96.497V187.02C96.497 188.14 96.657 188.94 96.977 189.42C97.3104 189.9 97.8837 190.14 98.697 190.14C98.9904 190.14 99.297 190.127 99.617 190.1C99.9504 190.073 100.197 190.04 100.357 190V181.54H102.777V191.68ZM106.057 181.88C106.524 181.747 107.131 181.62 107.877 181.5C108.624 181.38 109.451 181.32 110.357 181.32C111.211 181.32 111.924 181.44 112.497 181.68C113.071 181.907 113.524 182.233 113.857 182.66C114.204 183.073 114.444 183.58 114.577 184.18C114.724 184.767 114.797 185.413 114.797 186.12V192H112.377V186.5C112.377 185.94 112.337 185.467 112.257 185.08C112.191 184.68 112.071 184.36 111.897 184.12C111.737 183.867 111.511 183.687 111.217 183.58C110.937 183.46 110.591 183.4 110.177 183.4C109.871 183.4 109.551 183.42 109.217 183.46C108.884 183.5 108.637 183.533 108.477 183.56V192H106.057V181.88ZM120.396 192H117.976V181.54H120.396V192ZM120.656 178.48C120.656 178.933 120.51 179.293 120.216 179.56C119.923 179.827 119.576 179.96 119.176 179.96C118.763 179.96 118.41 179.827 118.116 179.56C117.823 179.293 117.676 178.933 117.676 178.48C117.676 178.013 117.823 177.647 118.116 177.38C118.41 177.113 118.763 176.98 119.176 176.98C119.576 176.98 119.923 177.113 120.216 177.38C120.51 177.647 120.656 178.013 120.656 178.48ZM123.564 178.78L125.984 178.38V181.54H129.704V183.56H125.984V187.82C125.984 188.66 126.117 189.26 126.384 189.62C126.65 189.98 127.104 190.16 127.744 190.16C128.184 190.16 128.57 190.113 128.904 190.02C129.25 189.927 129.524 189.84 129.724 189.76L130.124 191.68C129.844 191.8 129.477 191.92 129.024 192.04C128.57 192.173 128.037 192.24 127.424 192.24C126.677 192.24 126.05 192.14 125.544 191.94C125.05 191.74 124.657 191.453 124.364 191.08C124.07 190.693 123.864 190.233 123.744 189.7C123.624 189.153 123.564 188.533 123.564 187.84V178.78ZM140.783 181.54C139.703 185.513 138.45 189.113 137.023 192.34C136.756 192.94 136.483 193.453 136.203 193.88C135.923 194.307 135.61 194.66 135.263 194.94C134.916 195.22 134.53 195.42 134.103 195.54C133.676 195.673 133.183 195.74 132.623 195.74C132.25 195.74 131.876 195.7 131.503 195.62C131.143 195.54 130.87 195.453 130.683 195.36L131.123 193.42C131.603 193.607 132.076 193.7 132.543 193.7C133.17 193.7 133.656 193.547 134.003 193.24C134.363 192.947 134.676 192.487 134.943 191.86C134.183 190.393 133.45 188.793 132.743 187.06C132.05 185.327 131.43 183.487 130.883 181.54H133.463C133.596 182.1 133.756 182.707 133.943 183.36C134.143 184.013 134.356 184.68 134.583 185.36C134.81 186.027 135.05 186.693 135.303 187.36C135.556 188.027 135.81 188.647 136.063 189.22C136.49 188.033 136.89 186.773 137.263 185.44C137.636 184.093 137.976 182.793 138.283 181.54H140.783ZM153.642 186.5C153.642 185.407 153.502 184.62 153.222 184.14C152.956 183.647 152.449 183.4 151.702 183.4C151.436 183.4 151.142 183.42 150.822 183.46C150.502 183.5 150.262 183.533 150.102 183.56V192H147.682V181.88C148.149 181.747 148.756 181.62 149.502 181.5C150.262 181.38 151.062 181.32 151.902 181.32C152.622 181.32 153.209 181.413 153.662 181.6C154.129 181.787 154.516 182.033 154.822 182.34C154.969 182.233 155.156 182.12 155.382 182C155.609 181.88 155.862 181.773 156.142 181.68C156.422 181.573 156.716 181.487 157.022 181.42C157.342 181.353 157.662 181.32 157.982 181.32C158.796 181.32 159.462 181.44 159.982 181.68C160.516 181.907 160.929 182.233 161.222 182.66C161.529 183.073 161.736 183.58 161.842 184.18C161.962 184.767 162.022 185.413 162.022 186.12V192H159.602V186.5C159.602 185.407 159.469 184.62 159.202 184.14C158.936 183.647 158.422 183.4 157.662 183.4C157.276 183.4 156.909 183.467 156.562 183.6C156.216 183.72 155.956 183.84 155.782 183.96C155.889 184.293 155.962 184.647 156.002 185.02C156.042 185.393 156.062 185.793 156.062 186.22V192H153.642V186.5ZM164.607 186.82C164.607 185.9 164.74 185.093 165.007 184.4C165.287 183.707 165.654 183.133 166.107 182.68C166.56 182.213 167.08 181.867 167.667 181.64C168.254 181.4 168.854 181.28 169.467 181.28C170.907 181.28 172.027 181.727 172.827 182.62C173.64 183.513 174.047 184.847 174.047 186.62C174.047 186.753 174.04 186.907 174.027 187.08C174.027 187.24 174.02 187.387 174.007 187.52H167.107C167.174 188.36 167.467 189.013 167.987 189.48C168.52 189.933 169.287 190.16 170.287 190.16C170.874 190.16 171.407 190.107 171.887 190C172.38 189.893 172.767 189.78 173.047 189.66L173.367 191.64C173.234 191.707 173.047 191.78 172.807 191.86C172.58 191.927 172.314 191.987 172.007 192.04C171.714 192.107 171.394 192.16 171.047 192.2C170.7 192.24 170.347 192.26 169.987 192.26C169.067 192.26 168.267 192.127 167.587 191.86C166.907 191.58 166.347 191.2 165.907 190.72C165.467 190.227 165.14 189.653 164.927 189C164.714 188.333 164.607 187.607 164.607 186.82ZM171.627 185.74C171.627 185.407 171.58 185.093 171.487 184.8C171.394 184.493 171.254 184.233 171.067 184.02C170.894 183.793 170.674 183.62 170.407 183.5C170.154 183.367 169.847 183.3 169.487 183.3C169.114 183.3 168.787 183.373 168.507 183.52C168.227 183.653 167.987 183.833 167.787 184.06C167.6 184.287 167.454 184.547 167.347 184.84C167.24 185.133 167.167 185.433 167.127 185.74H171.627ZM182.773 186.5C182.773 185.407 182.633 184.62 182.353 184.14C182.086 183.647 181.579 183.4 180.833 183.4C180.566 183.4 180.273 183.42 179.953 183.46C179.633 183.5 179.393 183.533 179.233 183.56V192H176.813V181.88C177.279 181.747 177.886 181.62 178.633 181.5C179.393 181.38 180.193 181.32 181.033 181.32C181.753 181.32 182.339 181.413 182.793 181.6C183.259 181.787 183.646 182.033 183.953 182.34C184.099 182.233 184.286 182.12 184.513 182C184.739 181.88 184.993 181.773 185.273 181.68C185.553 181.573 185.846 181.487 186.153 181.42C186.473 181.353 186.793 181.32 187.113 181.32C187.926 181.32 188.593 181.44 189.113 181.68C189.646 181.907 190.059 182.233 190.353 182.66C190.659 183.073 190.866 183.58 190.973 184.18C191.093 184.767 191.153 185.413 191.153 186.12V192H188.733V186.5C188.733 185.407 188.599 184.62 188.333 184.14C188.066 183.647 187.553 183.4 186.793 183.4C186.406 183.4 186.039 183.467 185.693 183.6C185.346 183.72 185.086 183.84 184.913 183.96C185.019 184.293 185.093 184.647 185.133 185.02C185.173 185.393 185.193 185.793 185.193 186.22V192H182.773V186.5ZM201.257 186.74C201.257 185.713 201.051 184.9 200.637 184.3C200.237 183.7 199.597 183.4 198.717 183.4C198.317 183.4 197.937 183.46 197.577 183.58C197.231 183.7 196.951 183.833 196.737 183.98V190C196.911 190.04 197.131 190.08 197.397 190.12C197.677 190.147 198.011 190.16 198.397 190.16C199.291 190.16 199.991 189.86 200.497 189.26C201.004 188.647 201.257 187.807 201.257 186.74ZM203.737 186.78C203.737 187.62 203.611 188.38 203.357 189.06C203.117 189.727 202.764 190.3 202.297 190.78C201.844 191.26 201.291 191.627 200.637 191.88C199.984 192.133 199.244 192.26 198.417 192.26C197.617 192.26 196.851 192.2 196.117 192.08C195.397 191.96 194.797 191.827 194.317 191.68V176.88L196.737 176.48V181.9C197.017 181.753 197.357 181.62 197.757 181.5C198.171 181.38 198.624 181.32 199.117 181.32C199.851 181.32 200.504 181.453 201.077 181.72C201.664 181.973 202.151 182.34 202.537 182.82C202.924 183.3 203.217 183.88 203.417 184.56C203.631 185.227 203.737 185.967 203.737 186.78ZM205.851 186.82C205.851 185.9 205.985 185.093 206.251 184.4C206.531 183.707 206.898 183.133 207.351 182.68C207.805 182.213 208.325 181.867 208.911 181.64C209.498 181.4 210.098 181.28 210.711 181.28C212.151 181.28 213.271 181.727 214.071 182.62C214.885 183.513 215.291 184.847 215.291 186.62C215.291 186.753 215.285 186.907 215.271 187.08C215.271 187.24 215.265 187.387 215.251 187.52H208.351C208.418 188.36 208.711 189.013 209.231 189.48C209.765 189.933 210.531 190.16 211.531 190.16C212.118 190.16 212.651 190.107 213.131 190C213.625 189.893 214.011 189.78 214.291 189.66L214.611 191.64C214.478 191.707 214.291 191.78 214.051 191.86C213.825 191.927 213.558 191.987 213.251 192.04C212.958 192.107 212.638 192.16 212.291 192.2C211.945 192.24 211.591 192.26 211.231 192.26C210.311 192.26 209.511 192.127 208.831 191.86C208.151 191.58 207.591 191.2 207.151 190.72C206.711 190.227 206.385 189.653 206.171 189C205.958 188.333 205.851 187.607 205.851 186.82ZM212.871 185.74C212.871 185.407 212.825 185.093 212.731 184.8C212.638 184.493 212.498 184.233 212.311 184.02C212.138 183.793 211.918 183.62 211.651 183.5C211.398 183.367 211.091 183.3 210.731 183.3C210.358 183.3 210.031 183.373 209.751 183.52C209.471 183.653 209.231 183.833 209.031 184.06C208.845 184.287 208.698 184.547 208.591 184.84C208.485 185.133 208.411 185.433 208.371 185.74H212.871ZM224.017 183.72C223.817 183.653 223.537 183.587 223.177 183.52C222.831 183.44 222.424 183.4 221.957 183.4C221.691 183.4 221.404 183.427 221.097 183.48C220.804 183.533 220.597 183.58 220.477 183.62V192H218.057V182.04C218.524 181.867 219.104 181.707 219.797 181.56C220.504 181.4 221.284 181.32 222.137 181.32C222.297 181.32 222.484 181.333 222.697 181.36C222.911 181.373 223.124 181.4 223.337 181.44C223.551 181.467 223.757 181.507 223.957 181.56C224.157 181.6 224.317 181.64 224.437 181.68L224.017 183.72ZM228.944 190.26C229.584 190.26 230.05 190.187 230.344 190.04C230.637 189.88 230.784 189.613 230.784 189.24C230.784 188.893 230.624 188.607 230.304 188.38C229.997 188.153 229.484 187.907 228.764 187.64C228.324 187.48 227.917 187.313 227.544 187.14C227.184 186.953 226.87 186.74 226.604 186.5C226.337 186.26 226.124 185.973 225.964 185.64C225.817 185.293 225.744 184.873 225.744 184.38C225.744 183.42 226.097 182.667 226.804 182.12C227.51 181.56 228.47 181.28 229.684 181.28C230.297 181.28 230.884 181.34 231.444 181.46C232.004 181.567 232.424 181.673 232.704 181.78L232.264 183.74C231.997 183.62 231.657 183.513 231.244 183.42C230.83 183.313 230.35 183.26 229.804 183.26C229.31 183.26 228.91 183.347 228.604 183.52C228.297 183.68 228.144 183.933 228.144 184.28C228.144 184.453 228.17 184.607 228.224 184.74C228.29 184.873 228.397 185 228.544 185.12C228.69 185.227 228.884 185.34 229.124 185.46C229.364 185.567 229.657 185.68 230.004 185.8C230.577 186.013 231.064 186.227 231.464 186.44C231.864 186.64 232.19 186.873 232.444 187.14C232.71 187.393 232.904 187.687 233.024 188.02C233.144 188.353 233.204 188.753 233.204 189.22C233.204 190.22 232.83 190.98 232.084 191.5C231.35 192.007 230.297 192.26 228.924 192.26C228.004 192.26 227.264 192.18 226.704 192.02C226.144 191.873 225.75 191.753 225.524 191.66L225.944 189.64C226.304 189.787 226.73 189.927 227.224 190.06C227.73 190.193 228.304 190.26 228.944 190.26Z" fill="white"/>
</svg>
