<svg width="73" height="83" viewBox="0 0 73 83" fill="none" xmlns="http://www.w3.org/2000/svg">
<path d="M56.1004 9.33879C51.6631 6.91841 43.8449 5.00708 40.8866 4.58447C32.3289 28.3561 18.4116 77.2923 31.0615 78.7519C47.5432 80.6536 68.809 70.511 71.6615 45.7886C74.5141 21.0661 59.5869 11.2405 56.1004 9.33879Z" fill="#0090FF" fill-opacity="0.12" stroke="black"/>
<mask id="mask0_240_665" style="mask-type:alpha" maskUnits="userSpaceOnUse" x="25" y="4" width="48" height="76">
<path d="M56.1004 9.33879C51.6631 6.91841 43.8449 5.00708 40.8866 4.58447C32.3289 28.3561 18.4116 77.2923 31.0615 78.7519C47.5432 80.6536 68.809 70.511 71.6615 45.7886C74.5141 21.0661 59.5869 11.2405 56.1004 9.33879Z" fill="#0090FF" stroke="black"/>
</mask>
<g mask="url(#mask0_240_665)">
<path fill-rule="evenodd" clip-rule="evenodd" d="M50.5418 9.49143L71.4608 17.0983L71.8025 16.1585L50.8835 8.55164L50.5418 9.49143ZM50.5418 12.0271L71.4608 19.634L71.8025 18.6942L50.8835 11.0873L50.5418 12.0271ZM71.4608 22.1697L50.5418 14.5627L50.8835 13.6229L71.8025 21.2299L71.4608 22.1697ZM50.5418 17.0981L71.4608 24.705L71.8025 23.7652L50.8835 16.1583L50.5418 17.0981ZM71.4608 27.241L50.5418 19.6341L50.8835 18.6943L71.8025 26.3012L71.4608 27.241ZM50.5418 22.1697L71.4608 29.7766L71.8025 28.8368L50.8835 21.2299L50.5418 22.1697ZM71.4608 32.312L50.5418 24.7051L50.8835 23.7653L71.8025 31.3722L71.4608 32.312ZM50.5418 27.2407L71.4608 34.8477L71.8025 33.9079L50.8835 26.3009L50.5418 27.2407ZM71.4608 37.3833L50.5418 29.7764L50.8835 28.8366L71.8025 36.4435L71.4608 37.3833ZM50.5418 32.3121L71.4608 39.919L71.8025 38.9792L50.8835 31.3723L50.5418 32.3121ZM71.4608 42.4546L50.5418 34.8477L50.8835 33.9079L71.8025 41.5148L71.4608 42.4546ZM50.5418 37.3834L71.4608 44.9903L71.8025 44.0505L50.8835 36.4436L50.5418 37.3834ZM71.4608 47.5259L50.5418 39.919L50.8835 38.9792L71.8025 46.5861L71.4608 47.5259ZM50.5418 42.4547L71.4608 50.0616L71.8025 49.1218L50.8835 41.5149L50.5418 42.4547ZM71.4608 52.5972L50.5418 44.9903L50.8835 44.0505L71.8025 51.6575L71.4608 52.5972ZM50.5418 47.526L71.4608 55.1329L71.8025 54.1931L50.8835 46.5862L50.5418 47.526ZM71.4608 57.6686L50.5418 50.0616L50.8835 49.1219L71.8025 56.7288L71.4608 57.6686ZM50.5418 52.5973L71.4608 60.2042L71.8025 59.2644L50.8835 51.6575L50.5418 52.5973ZM71.4608 62.7399L50.5418 55.133L50.8835 54.1932L71.8025 61.8001L71.4608 62.7399ZM50.5418 57.6686L71.4608 65.2755L71.8025 64.3357L50.8835 56.7288L50.5418 57.6686ZM71.4608 67.8112L50.5418 60.2043L50.8835 59.2645L71.8025 66.8714L71.4608 67.8112ZM50.5418 62.7397L71.4608 70.3466L71.8025 69.4068L50.8835 61.7999L50.5418 62.7397ZM71.4608 72.8822L50.5418 65.2753L50.8835 64.3355L71.8025 71.9424L71.4608 72.8822ZM50.5418 67.811L71.4608 75.4179L71.8025 74.4781L50.8835 66.8712L50.5418 67.811ZM71.4608 77.9535L50.5418 70.3466L50.8835 69.4068L71.8025 77.0137L71.4608 77.9535ZM46.1046 71.6146L67.0236 79.2215L67.3653 78.2817L46.4463 70.6748L46.1046 71.6146ZM61.9523 80.4895L41.0333 72.8826L41.375 71.9428L62.294 79.5497L61.9523 80.4895ZM37.8638 74.7841L58.7828 82.391L59.1245 81.4512L38.2055 73.8443L37.8638 74.7841Z" fill="black"/>
</g>
<path d="M63.0791 45.4646C60.2421 66.0055 45.0135 80.6464 29.2684 78.4717C13.5233 76.2971 2.83348 58.0764 5.67055 37.5354C8.50761 16.9945 23.7362 2.3536 39.4813 4.52827C55.2264 6.70294 65.9162 24.9236 63.0791 45.4646Z" fill="white" stroke="black"/>
<path d="M58.6772 45.2021C56.185 63.2462 42.9427 76.0883 29.3111 74.2055C15.6795 72.3227 6.41403 56.372 8.90625 38.3279C11.3985 20.2837 24.6407 7.44167 38.2723 9.32443C51.9039 11.2072 61.1694 27.1579 58.6772 45.2021Z" fill="#0090FF" stroke="black"/>
<path fill-rule="evenodd" clip-rule="evenodd" d="M33.6296 38.4777L32.9665 41.9703L39.2666 42.8435L38.8244 44.4806L32.6349 43.6075C32.1928 45.0263 31.9717 46.5543 31.4191 47.8641C30.8664 49.3921 30.3138 50.9201 29.6506 52.3389C28.7664 54.1944 27.219 55.5041 25.119 55.8315C23.9032 56.0498 22.5769 55.9406 21.5821 55.1766C21.2505 54.9584 20.9189 54.5218 20.9189 54.1944C20.9189 53.7578 21.14 53.2121 21.4716 52.9938C21.6926 52.8846 22.2453 52.9938 22.5769 53.1029C22.9084 53.4304 23.24 53.8669 23.4611 54.3035C24.1243 55.1766 25.0085 55.2858 25.8927 54.6309C26.8874 53.7578 27.4401 52.5572 27.7717 51.3566C28.4348 48.7372 29.098 46.2269 29.6506 43.6075V43.1709L23.7927 42.2978L24.0137 40.6606L30.0928 41.5338L30.8664 38.1503L24.5664 37.168L24.7874 35.4217L31.3086 36.2949C31.5296 35.64 31.6401 35.0943 31.8612 34.5486C32.4138 32.584 32.9665 30.6194 34.2928 28.8732C35.6191 27.1269 37.1665 26.0354 39.4876 26.1446C40.4824 26.1446 41.4771 26.472 42.1403 27.236C42.2508 27.3452 42.4719 27.5634 42.4719 27.7817C42.4719 28.2183 42.4719 28.764 42.1403 29.0914C41.6982 29.4189 41.1455 29.3097 40.7034 28.8732C40.3718 28.5457 40.1508 28.2183 39.8192 27.8909C39.156 27.0177 38.1613 26.9086 37.3876 27.6726C36.8349 28.2183 36.2823 28.9823 35.9507 29.7463C35.177 32.0383 34.6244 34.4395 33.8507 36.8406L39.9297 37.7137L39.4876 39.3509L33.6296 38.4777Z" fill="white"/>
</svg>
