<svg width="1280" height="362" viewBox="0 0 1280 362" fill="none" xmlns="http://www.w3.org/2000/svg">
<path d="M1009.19 13L634.437 33.0289H608.844C606.885 33.0289 605.214 34.4471 604.897 36.3797L587.053 144.868C587.018 145.083 587 145.3 587 145.517V285.795C587 286.822 587.395 287.81 588.104 288.554L641.198 344.277C641.931 345.047 642.94 345.493 644.003 345.517L1273.91 359.907C1276.15 359.958 1278 358.153 1278 355.908V82.2841C1278 81.5101 1277.78 80.7527 1277.35 80.1038L1234.91 14.8197C1234.17 13.6847 1232.91 13 1231.55 13H1009.19Z" fill="#F8FBFF" stroke="#191919" stroke-width="3"/>
<path d="M14.7913 2.17267L621.309 27.9278C622.396 27.9739 623.417 28.4608 624.138 29.2762L639.004 46.1079C640.596 47.9098 640.249 50.6985 638.266 52.0566L624.96 61.1653C623.757 61.9887 623.098 63.401 623.238 64.8517L641.575 254.114C641.803 256.465 639.955 258.5 637.594 258.5H601.348C598.352 258.5 596.42 261.672 597.793 264.334L638.989 344.166C640.363 346.828 638.431 350 635.435 350H6.10154C3.85315 350 2.04645 348.147 2.1028 345.9L10.6229 6.06882C10.679 3.8332 12.557 2.0778 14.7913 2.17267Z" fill="white" stroke="#191919" stroke-width="3"/>
</svg>
