<svg width="170" height="44" viewBox="0 0 170 44" fill="none" xmlns="http://www.w3.org/2000/svg">
<rect width="43.2" height="43.2" rx="21.6" fill="#FFE896"/>
<path d="M33.0331 33.09C33.1565 32.1527 32.7683 31.8064 32.3652 31.7179C32.1167 31.6634 31.8692 31.489 31.8692 31.2469C31.8692 31.043 31.6975 30.8766 31.4828 30.8725L10.5609 30.4671C10.2891 30.4618 10.0221 30.5357 9.79594 30.6789L9.47833 30.8799C6.26379 33.4584 17.4592 36.142 21.1726 36.2473C24.8859 36.3525 32.8114 34.7739 33.0331 33.09Z" fill="white"/>
<path fill-rule="evenodd" clip-rule="evenodd" d="M10.8684 29.9291C10.5341 29.922 10.2057 30.0208 9.92747 30.2122L9.59946 30.4378L9.58526 30.4502C9.14575 30.8333 8.89775 31.268 8.90565 31.7475C8.91337 32.2158 9.16479 32.6337 9.516 32.9923C10.2146 33.7054 11.4675 34.3463 12.8801 34.8862C15.7216 35.9723 19.4247 36.7275 21.2943 36.7851C23.1609 36.8425 26.0558 36.4422 28.5082 35.8043C29.7352 35.4852 30.8688 35.1022 31.7163 34.6782C32.1392 34.4666 32.5048 34.238 32.7768 33.9919C33.0439 33.7503 33.2584 33.4576 33.3001 33.1133C33.3661 32.5681 33.302 32.1426 33.1237 31.8273C32.9409 31.5041 32.6626 31.3399 32.3918 31.2753C32.3165 31.2573 32.2475 31.2202 32.2032 31.1784C32.161 31.1386 32.1573 31.112 32.1573 31.1005C32.1573 30.6987 31.8458 30.3708 31.4565 30.3626L10.8684 29.9291ZM10.2905 30.7741C10.4574 30.6592 10.6545 30.5999 10.8551 30.6042L31.4432 31.0377C31.4763 31.0384 31.5028 31.0663 31.5028 31.1005C31.5028 31.3479 31.6209 31.544 31.7615 31.6767C31.9002 31.8075 32.0752 31.8928 32.2444 31.9332C32.3703 31.9632 32.4814 32.0314 32.5584 32.1676C32.6399 32.3116 32.706 32.5724 32.6507 33.0295C32.6378 33.1354 32.5609 33.2893 32.3454 33.4842C32.1348 33.6747 31.8268 33.8725 31.4308 34.0706C30.6404 34.466 29.555 34.8357 28.3482 35.1496C25.9331 35.7777 23.1013 36.1652 21.3139 36.1101C19.5294 36.0552 15.897 35.3192 13.1074 34.253C11.7045 33.7168 10.5679 33.1162 9.97631 32.5123C9.68244 32.2123 9.56359 31.9528 9.56002 31.736C9.55667 31.533 9.65371 31.279 9.9939 30.9781L10.2905 30.7741Z" fill="black"/>
<path d="M35.8145 16.7097C35.8145 17.4713 36.432 18.0887 37.1936 18.0887C37.9553 18.0887 38.5727 17.4713 38.5727 16.7097C38.5727 15.948 37.9553 15.3306 37.1936 15.3306C36.432 15.3306 35.8145 15.948 35.8145 16.7097Z" fill="white"/>
<path fill-rule="evenodd" clip-rule="evenodd" d="M37.1936 15.4652C37.8612 15.4652 38.4023 15.9621 38.4023 16.5752C38.4023 17.1882 37.8612 17.6852 37.1936 17.6852C36.5261 17.6852 35.985 17.1882 35.985 16.5752C35.985 15.9621 36.5261 15.4652 37.1936 15.4652ZM38.8418 16.5752C38.8418 15.7392 38.1039 15.0615 37.1936 15.0615C36.2834 15.0615 35.5455 15.7392 35.5455 16.5752C35.5455 17.4111 36.2834 18.0888 37.1936 18.0888C38.1039 18.0888 38.8418 17.4111 38.8418 16.5752Z" fill="black"/>
<path d="M6.95453 16.7097C6.95453 17.4713 6.33709 18.0887 5.57544 18.0887C4.81379 18.0887 4.19635 17.4713 4.19635 16.7097C4.19635 15.948 4.81379 15.3306 5.57544 15.3306C6.33709 15.3306 6.95453 15.948 6.95453 16.7097Z" fill="white"/>
<path fill-rule="evenodd" clip-rule="evenodd" d="M5.57546 15.4652C4.90793 15.4652 4.36679 15.9621 4.36679 16.5752C4.36679 17.1882 4.90793 17.6852 5.57546 17.6852C6.24299 17.6852 6.78413 17.1882 6.78413 16.5752C6.78413 15.9621 6.24299 15.4652 5.57546 15.4652ZM3.92728 16.5752C3.92728 15.7392 4.66519 15.0615 5.57546 15.0615C6.48572 15.0615 7.22364 15.7392 7.22364 16.5752C7.22364 17.4111 6.48572 18.0888 5.57546 18.0888C4.66519 18.0888 3.92728 17.4111 3.92728 16.5752Z" fill="black"/>
<path d="M37.1478 18.1903L36.5547 15.3074C36.493 15.0075 36.2288 14.7922 35.9223 14.7922C35.5031 14.7922 35.1951 15.185 35.2955 15.5916L36.0008 18.4491C36.0656 18.7115 36.3012 18.8959 36.5718 18.8959C36.9441 18.8959 37.2227 18.5546 37.1478 18.1903Z" fill="white"/>
<path fill-rule="evenodd" clip-rule="evenodd" d="M36.5974 15.4594C36.5207 15.071 36.192 14.7922 35.8108 14.7922C35.2894 14.7922 34.9062 15.301 35.031 15.8275L35.6816 18.5717C35.7642 18.9201 36.0647 19.165 36.4098 19.165C36.8846 19.165 37.24 18.7117 37.1444 18.2279L36.5974 15.4594ZM35.8108 15.2241C35.9949 15.2241 36.1536 15.3587 36.1907 15.5463L36.7377 18.3149C36.7803 18.5308 36.6217 18.7331 36.4098 18.7331C36.2558 18.7331 36.1216 18.6238 36.0848 18.4683L35.4342 15.7241C35.3739 15.4698 35.5589 15.2241 35.8108 15.2241Z" fill="black"/>
<path d="M5.62134 18.1903L6.21437 15.3074C6.27606 15.0075 6.54031 14.7922 6.84679 14.7922C7.26596 14.7922 7.574 15.185 7.47365 15.5916L6.76827 18.4491C6.70351 18.7115 6.46788 18.8959 6.19734 18.8959C5.825 18.8959 5.5464 18.5546 5.62134 18.1903Z" fill="white"/>
<path fill-rule="evenodd" clip-rule="evenodd" d="M6.17168 15.4594C6.24841 15.071 6.57711 14.7922 6.95834 14.7922C7.47975 14.7922 7.86291 15.301 7.73809 15.8275L7.0875 18.5717C7.0049 18.9201 6.70438 19.165 6.35934 19.165C5.88446 19.165 5.52913 18.7117 5.62472 18.2279L6.17168 15.4594ZM6.95834 15.2241C6.77422 15.2241 6.61548 15.3587 6.57842 15.5463L6.03145 18.3149C5.98879 18.5308 6.14739 18.7331 6.35934 18.7331C6.51334 18.7331 6.64747 18.6238 6.68434 18.4683L7.33493 15.7241C7.39521 15.4698 7.21016 15.2241 6.95834 15.2241Z" fill="black"/>
<path d="M36.3282 20.156C36.6813 25.2199 33.1286 29.9351 31.308 31.6597C22.4261 36.6135 12.5513 32.5404 10.2343 30.8341C7.91728 29.1278 6.31744 25.1648 6.75878 18.5598C7.20012 11.9548 11.6135 4.63428 21.5987 4.63428C31.5839 4.63428 35.8869 13.8262 36.3282 20.156Z" fill="white"/>
<path fill-rule="evenodd" clip-rule="evenodd" d="M32.5051 10.5289C34.829 13.5465 35.992 17.3466 36.208 20.4446C36.3781 22.8846 35.6073 25.2572 34.5572 27.2439C33.5191 29.2079 32.2212 30.7697 31.34 31.6118C27.01 34.0138 22.4349 34.2303 18.6431 33.6301C14.8319 33.0268 11.8485 31.6044 10.7451 30.7918C8.57463 29.1934 6.97997 25.3937 7.41694 18.854C7.6327 15.6249 8.81936 12.232 11.1579 9.65142C13.4894 7.07849 16.9841 5.29209 21.8674 5.29209C26.723 5.29209 30.1889 7.52125 32.5051 10.5289ZM33.0279 10.1281C30.6054 6.98241 26.9563 4.63428 21.8674 4.63428C16.8062 4.63428 13.1309 6.49326 10.6688 9.21025C8.21367 11.9196 6.98288 15.4612 6.7591 18.8102C6.317 25.4267 7.90898 29.5208 10.3536 31.3211C11.5577 32.2078 14.6454 33.6633 18.5398 34.2798C22.443 34.8976 27.193 34.6784 31.698 32.1658L31.7341 32.1457L31.7641 32.1172C32.6957 31.2347 34.0557 29.6028 35.1404 27.5508C36.2247 25.4993 37.0472 23.0023 36.8657 20.399C36.6422 17.1929 35.4427 13.2637 33.0279 10.1281Z" fill="black"/>
<path fill-rule="evenodd" clip-rule="evenodd" d="M21.5665 11.9582C26.7575 11.7821 30.576 12.8402 31.8169 13.3797L31.98 12.9712C30.676 12.4042 26.796 11.3379 21.5527 11.5159L21.5665 11.9582Z" fill="black"/>
<path fill-rule="evenodd" clip-rule="evenodd" d="M17.1127 12.0343H20.14V11.4961H17.1127V12.0343Z" fill="black"/>
<path fill-rule="evenodd" clip-rule="evenodd" d="M14.1441 12.5724L16.0364 12.3019L15.9777 11.7651L14.0855 12.0356L14.1441 12.5724Z" fill="black"/>
<path fill-rule="evenodd" clip-rule="evenodd" d="M11.7113 13.1105L13.2782 12.6995L13.1633 12.3032L11.5964 12.7143L11.7113 13.1105Z" fill="black"/>
<path d="M9.98182 18.9596C9.98182 21.3451 10.4032 24.7711 10.6799 26.6441C10.7353 27.0188 10.9528 27.3517 11.2869 27.5349C17.134 30.7411 26.7675 28.9519 31.5464 27.4485C31.9641 27.3171 32.2789 26.9814 32.3742 26.557C32.6973 25.1183 33.1194 22.5108 33.0485 19.844C32.9434 15.8899 32.8383 12.8203 21.5414 13.1325C10.2445 13.4446 9.98182 15.6298 9.98182 18.9596Z" fill="black"/>
<path fill-rule="evenodd" clip-rule="evenodd" d="M9.44365 19.128C9.44365 21.5475 9.86799 24.9999 10.1442 26.8753C10.2178 27.3746 10.5092 27.8314 10.9719 28.0859C13.9951 29.7488 17.9537 30.0988 21.7095 29.8624C25.4764 29.6254 29.1037 28.794 31.5131 28.0338C32.0762 27.856 32.5052 27.3995 32.6349 26.82C32.9621 25.3586 33.3893 22.7139 33.3175 20.0009C33.3169 19.9795 33.3163 19.9581 33.3158 19.9368C33.2653 18.0236 33.2139 16.0779 31.6106 14.7233C30.8092 14.0462 29.6566 13.5461 28.0184 13.2322C26.3796 12.9182 24.2263 12.7851 21.3946 12.8636C18.5679 12.9419 16.4145 13.1381 14.7743 13.4448C13.1379 13.7509 11.9821 14.1723 11.1741 14.7215C10.3502 15.2816 9.9064 15.9625 9.67844 16.7332C9.45747 17.4803 9.44365 18.3023 9.44365 19.128ZM10.5798 26.8117C10.3039 24.9389 9.88387 21.5133 9.88387 19.128C9.88387 15.7986 10.1458 13.6137 21.4068 13.3016C32.6679 12.9894 32.7726 16.0587 32.8774 20.0124C32.948 22.6788 32.5273 25.2861 32.2052 26.7247C32.1102 27.149 31.7965 27.4847 31.38 27.6161C26.6163 29.1193 17.0134 30.9083 11.1848 27.7024C10.8518 27.5193 10.635 27.1864 10.5798 26.8117Z" fill="black"/>
<mask id="mask0_474_357" style="mask-type:alpha" maskUnits="userSpaceOnUse" x="9" y="13" width="25" height="17">
<path d="M9.98182 18.9596C9.98182 21.3451 10.4032 24.7711 10.6799 26.6441C10.7353 27.0188 10.9528 27.3517 11.2869 27.5349C17.134 30.7411 26.7675 28.9519 31.5464 27.4485C31.9641 27.3171 32.2789 26.9814 32.3742 26.557C32.6973 25.1183 33.1194 22.5108 33.0485 19.844C32.9434 15.8899 32.8383 12.8203 21.5414 13.1325C10.2445 13.4446 9.98182 15.6298 9.98182 18.9596Z" fill="black"/>
</mask>
<g mask="url(#mask0_474_357)">
<path fill-rule="evenodd" clip-rule="evenodd" d="M33.5916 31.0313C32.961 27.3079 31.777 20.2574 31.777 20.0155C31.777 19.9739 31.7837 19.756 31.7943 19.4081C31.8625 17.1697 32.0947 9.55037 31.777 8.8952C31.41 8.13822 30.319 7.50917 29.3707 8.28748C28.8513 8.71387 27.9278 10.4874 27.1336 12.0129C26.5448 13.1438 26.0269 14.1383 25.7973 14.3465C25.7586 14.3816 25.7073 14.3694 25.6605 14.3458C25.2791 14.1539 24.0197 13.8362 21.4126 13.8317C21.4125 13.8317 21.4125 13.8317 21.4125 13.8316V13.8316C21.4125 13.8316 21.4125 13.8316 21.4125 13.8316C21.4032 13.8316 21.3938 13.8316 21.3845 13.8316C21.3752 13.8316 21.3659 13.8316 21.3566 13.8316C21.3566 13.8316 21.3565 13.8316 21.3565 13.8316V13.8316C21.3565 13.8317 21.3565 13.8317 21.3565 13.8317C18.7493 13.8362 17.49 14.1539 17.1086 14.3458C17.0617 14.3694 17.0104 14.3816 16.9717 14.3465C16.7421 14.1383 16.2243 13.1438 15.6355 12.0129C14.8413 10.4874 13.9178 8.71387 13.3983 8.28748C12.4501 7.50917 11.3591 8.13822 10.992 8.8952C10.6743 9.55037 10.9066 17.1697 10.9748 19.4081C10.9854 19.756 10.992 19.9739 10.992 20.0155C10.992 20.2574 9.80807 27.3079 9.17751 31.0313C9.15577 31.1596 9.25627 31.2743 9.38796 31.2743H21.3565H21.4125H33.3811C33.5128 31.2743 33.6133 31.1596 33.5916 31.0313Z" fill="#FFAD06"/>
<path fill-rule="evenodd" clip-rule="evenodd" d="M28.9527 31.0639V28.8297C28.9527 28.3764 28.8783 27.926 28.7323 27.4961L28.5844 27.0606C28.4004 26.5185 28.106 26.019 27.7193 25.5926L23.969 21.4568C23.7937 21.2635 23.5902 21.0966 23.3653 20.9618C22.9464 20.7107 22.4654 20.5779 21.975 20.5779H21.3758H21.1242H20.525C20.0346 20.5779 19.5536 20.7107 19.1347 20.9618C18.9098 21.0966 18.7063 21.2635 18.531 21.4568L14.7807 25.5926C14.394 26.019 14.0996 26.5185 13.9156 27.0606L13.7677 27.4961C13.6217 27.926 13.5473 28.3764 13.5473 28.8297V31.0639C13.5473 31.1801 13.643 31.2742 13.761 31.2742H21.1621C21.1934 31.2742 21.2232 31.2676 21.25 31.2557C21.2768 31.2676 21.3066 31.2742 21.3379 31.2742H28.739C28.857 31.2742 28.9527 31.1801 28.9527 31.0639Z" fill="white"/>
<path fill-rule="evenodd" clip-rule="evenodd" d="M23.1673 27.1706H19.6018C19.6018 26.0932 20.4087 25.2197 21.3845 25.2197C22.3604 25.2197 23.1672 26.0932 23.1673 27.1706Z" fill="black"/>
<path fill-rule="evenodd" clip-rule="evenodd" d="M25.2967 17.5505C25.0495 17.5505 24.8491 17.7145 24.8491 17.9168V18.7988C24.8491 19.0011 25.0495 19.1651 25.2967 19.1651H27.7653C27.8259 19.1651 27.8764 19.1264 27.8764 19.0767V19.0767C27.8764 18.2338 27.0413 17.5505 26.0113 17.5505H25.2967Z" fill="black"/>
<path fill-rule="evenodd" clip-rule="evenodd" d="M21.2554 24.4124C21.9364 24.4078 23.0033 23.9664 23.4588 22.9731C24.0304 21.7267 23.7297 20.5812 21.2554 20.5779V20.5779C21.2536 20.5779 21.2518 20.5779 21.25 20.5779C21.2482 20.5779 21.2464 20.5779 21.2446 20.5779V20.5779C18.7703 20.5812 18.4696 21.7267 19.0412 22.9731C19.4967 23.9664 20.5636 24.4078 21.2446 24.4124V24.4124C21.2464 24.4124 21.2482 24.4124 21.25 24.4124C21.2518 24.4124 21.2536 24.4124 21.2554 24.4124V24.4124Z" fill="black"/>
<path opacity="0.6" d="M20.14 21.2506C20.14 21.4735 20.6972 21.6542 21.3845 21.6542C22.0719 21.6542 22.6291 21.4735 22.6291 21.2506C22.6291 21.0276 22.0719 20.8469 21.3845 20.8469C20.6972 20.8469 20.14 21.0276 20.14 21.2506Z" fill="white"/>
<path fill-rule="evenodd" clip-rule="evenodd" d="M17.4725 17.5505C17.7196 17.5505 17.92 17.7145 17.92 17.9168V18.7989C17.92 19.0011 17.7196 19.1651 17.4725 19.1651H15.0039C14.9432 19.1651 14.8927 19.1263 14.8927 19.0767V19.0767C14.8927 18.2338 15.7277 17.5505 16.7577 17.5505H17.4725Z" fill="black"/>
<path opacity="0.3" d="M9.8182 18.9106C9.8182 21.3376 10.2414 24.8231 10.5192 26.7287C10.5748 27.1099 10.7933 27.4486 11.1287 27.635C17.0002 30.8969 26.6739 29.0766 31.4728 27.5471C31.8923 27.4134 32.2084 27.0719 32.3041 26.6401C32.6286 25.1764 33.0524 22.5235 32.9812 19.8104C32.8757 15.7876 32.7701 12.6646 21.4261 12.9822C10.082 13.2998 9.8182 15.5229 9.8182 18.9106Z" fill="black"/>
</g>
<path opacity="0.4" d="M31.8628 16.3196C31.7735 15.3529 30.8953 15.0747 30.4673 15.0564C28.6625 14.7818 24.8297 14.2874 23.9366 14.5071C22.8203 14.7818 23.2668 16.5393 25.053 17.0885C26.8391 17.6377 27.3973 16.0999 28.7369 20.3289C30.0766 24.558 30.4673 23.7891 31.5279 23.6792C32.5884 23.5694 31.9744 17.5279 31.8628 16.3196Z" fill="white"/>
<path opacity="0.4" d="M13.598 23.9562C12.9646 23.9562 13.453 22.62 13.2813 22.1814C12.6127 21.5898 11.286 21.1166 11.3283 23.9562C11.3811 27.5057 12.5423 27.2447 15.9733 27.2447C19.4043 27.2447 18.0401 25.5379 17.7152 25.0002C17.2865 24.2904 14.3898 23.9562 13.598 23.9562Z" fill="white"/>
<path d="M23.7585 25.1825C23.7093 24.7306 24.0633 24.3359 24.5179 24.3359H34.5309C34.9838 24.3359 35.3373 24.7279 35.2906 25.1785L34.0839 36.8245C34.0436 37.2138 33.7155 37.5096 33.3242 37.5096H25.787C25.3972 37.5096 25.0699 37.2161 25.0277 36.8286L23.7585 25.1825Z" fill="#0090FF"/>
<path fill-rule="evenodd" clip-rule="evenodd" d="M34.5309 24.8451H24.5179C24.3663 24.8451 24.2483 24.9767 24.2648 25.1273L25.5339 36.7734C25.548 36.9026 25.6571 37.0004 25.787 37.0004H33.3242C33.4546 37.0004 33.564 36.9018 33.5774 36.7721L34.7841 25.126C34.7997 24.9758 34.6819 24.8451 34.5309 24.8451ZM24.5179 24.3359C24.0633 24.3359 23.7093 24.7306 23.7585 25.1825L25.0277 36.8286C25.0699 37.2161 25.3972 37.5096 25.787 37.5096H33.3242C33.7155 37.5096 34.0436 37.2138 34.0839 36.8245L35.2906 25.1785C35.3373 24.7279 34.9838 24.3359 34.5309 24.3359H24.5179Z" fill="black"/>
<path fill-rule="evenodd" clip-rule="evenodd" d="M29.8317 30.8479L29.7377 31.3404L30.6307 31.4635L30.5681 31.6943L29.6907 31.5712C29.628 31.7713 29.5967 31.9867 29.5183 32.1714C29.44 32.3868 29.3617 32.6023 29.2677 32.8024C29.1423 33.064 28.923 33.2486 28.6253 33.2948C28.4529 33.3256 28.2649 33.3102 28.1239 33.2025C28.0769 33.1717 28.0299 33.1101 28.0299 33.064C28.0299 33.0024 28.0612 32.9255 28.1082 32.8947C28.1396 32.8793 28.2179 32.8947 28.2649 32.9101C28.3119 32.9562 28.3589 33.0178 28.3903 33.0794C28.4843 33.2025 28.6096 33.2179 28.735 33.1255C28.876 33.0024 28.9543 32.8331 29.0013 32.6639C29.0953 32.2945 29.1893 31.9406 29.2677 31.5712V31.5097L28.4373 31.3866L28.4686 31.1557L29.3303 31.2788L29.44 30.8018L28.5469 30.6633L28.5783 30.417L29.5027 30.5402C29.534 30.4478 29.5497 30.3709 29.581 30.2939C29.6593 30.0169 29.7377 29.7399 29.9257 29.4937C30.1137 29.2475 30.3331 29.0936 30.6621 29.109C30.8031 29.109 30.9441 29.1551 31.0381 29.2629C31.0538 29.2782 31.0851 29.309 31.0851 29.3398C31.0851 29.4014 31.0851 29.4783 31.0381 29.5245C30.9754 29.5706 30.8971 29.5553 30.8344 29.4937C30.7874 29.4475 30.7561 29.4014 30.7091 29.3552C30.6151 29.2321 30.4741 29.2167 30.3644 29.3244C30.2861 29.4014 30.2077 29.5091 30.1607 29.6168C30.051 29.94 29.9727 30.2785 29.863 30.6171L30.7248 30.7402L30.6621 30.9711L29.8317 30.8479Z" fill="white"/>
<path d="M30.0716 23.2904C30.8228 22.8485 31.6785 22.6155 32.5501 22.6155H34.0351C34.4401 22.6155 34.7684 22.9438 34.7684 23.3487V24.4203H28.1508L30.0716 23.2904Z" fill="#0090FF"/>
<path fill-rule="evenodd" clip-rule="evenodd" d="M35.2776 24.9296H26.2809L29.8134 22.8517C30.6429 22.3637 31.5878 22.1064 32.5501 22.1064H34.0351C34.7213 22.1064 35.2776 22.6627 35.2776 23.3489V24.9296ZM30.0716 23.2906C30.8228 22.8487 31.6785 22.6156 32.5501 22.6156H34.0351C34.4401 22.6156 34.7684 22.9439 34.7684 23.3489V24.4204H28.1508L30.0716 23.2906Z" fill="black"/>
<path d="M23.8809 24.5606C23.9231 24.3902 24.0761 24.2705 24.2516 24.2705H34.736C34.9116 24.2705 35.0645 24.3902 35.1067 24.5606L35.2959 25.3244C35.3556 25.5652 35.1733 25.7981 34.9252 25.7981H24.0624C23.8143 25.7981 23.6321 25.5652 23.6917 25.3244L23.8809 24.5606Z" fill="#77B6FF"/>
<path fill-rule="evenodd" clip-rule="evenodd" d="M24.2516 23.7612H34.736C35.1456 23.7612 35.5025 24.0405 35.601 24.4381L35.7902 25.2019C35.9294 25.7638 35.5041 26.3072 34.9252 26.3072H24.0624C23.4835 26.3072 23.0582 25.7638 23.1974 25.2019L23.3866 24.4381C23.4851 24.0405 23.842 23.7612 24.2516 23.7612ZM24.2516 24.2704C24.0761 24.2704 23.9231 24.3901 23.8809 24.5605L23.6917 25.3243C23.632 25.5651 23.8143 25.798 24.0624 25.798H34.9252C35.1733 25.798 35.3556 25.5651 35.2959 25.3243L35.1067 24.5605C35.0645 24.3901 34.9116 24.2704 34.736 24.2704H24.2516Z" fill="black"/>
<path d="M32.3164 30.6549C32.3164 29.325 33.4007 28.2468 34.7382 28.2468V28.2468C36.0757 28.2468 37.16 29.325 37.16 30.6549V31.8933C37.16 33.2232 36.0757 34.3014 34.7382 34.3014V34.3014C33.4007 34.3014 32.3164 33.2232 32.3164 31.8933V30.6549Z" fill="#FFAD06"/>
<path fill-rule="evenodd" clip-rule="evenodd" d="M37.0891 31.9358V30.5863C37.0891 29.3015 36.0447 28.2599 34.7564 28.2599C33.468 28.2599 32.4237 29.3015 32.4237 30.5863V31.9358C32.4237 33.2207 33.468 34.2622 34.7564 34.2622C36.0447 34.2622 37.0891 33.2207 37.0891 31.9358ZM34.7564 27.9622C33.3032 27.9622 32.1251 29.137 32.1251 30.5863V31.9358C32.1251 33.3851 33.3032 34.56 34.7564 34.56C36.2096 34.56 37.3876 33.3851 37.3876 31.9358V30.5863C37.3876 29.137 36.2096 27.9622 34.7564 27.9622Z" fill="black"/>
<path fill-rule="evenodd" clip-rule="evenodd" d="M34.0204 30.7923H32.3386V30.321H34.0204V30.7923Z" fill="black"/>
<path fill-rule="evenodd" clip-rule="evenodd" d="M34.0204 32.2723H32.3386V31.801H34.0204V32.2723Z" fill="black"/>
<path d="M63.1404 31.0001V15.0611H73.8124V18.0741H66.7284V21.4091H73.0304V24.4221H66.7284V31.0001H63.1404Z" fill="white"/>
<path d="M75.8875 15.0611H79.4755V31.0001H75.8875V15.0611Z" fill="white"/>
<path d="M93.3538 27.9181V31.0001H82.7048V15.0611H86.2928V27.9181H93.3538Z" fill="white"/>
<path d="M95.2048 31.0001V15.0611H105.969V18.0741H98.7928V21.2021H105.164V24.1461H98.7928V27.9871H106.498V31.0001H95.2048Z" fill="white"/>
<path d="M112.281 28.0791C112.45 28.0945 112.641 28.1098 112.856 28.1251C113.086 28.1251 113.354 28.1251 113.661 28.1251C115.455 28.1251 116.781 27.6728 117.64 26.7681C118.514 25.8634 118.951 24.6138 118.951 23.0191C118.951 21.3478 118.537 20.0828 117.709 19.2241C116.881 18.3654 115.57 17.9361 113.776 17.9361C113.531 17.9361 113.278 17.9438 113.017 17.9591C112.756 17.9591 112.511 17.9744 112.281 18.0051V28.0791ZM122.654 23.0191C122.654 24.3991 122.439 25.6028 122.01 26.6301C121.581 27.6574 120.967 28.5085 120.17 29.1831C119.388 29.8578 118.43 30.3638 117.295 30.7011C116.16 31.0384 114.888 31.2071 113.477 31.2071C112.833 31.2071 112.082 31.1764 111.223 31.1151C110.364 31.0691 109.521 30.9618 108.693 30.7931V15.2681C109.521 15.1148 110.38 15.0151 111.269 14.9691C112.174 14.9078 112.948 14.8771 113.592 14.8771C114.957 14.8771 116.191 15.0304 117.295 15.3371C118.414 15.6438 119.373 16.1268 120.17 16.7861C120.967 17.4454 121.581 18.2888 122.01 19.3161C122.439 20.3434 122.654 21.5778 122.654 23.0191Z" fill="white"/>
<path d="M128.204 23.0191C128.204 23.8011 128.296 24.5065 128.48 25.1351C128.679 25.7638 128.955 26.3081 129.308 26.7681C129.676 27.2128 130.121 27.5578 130.642 27.8031C131.163 28.0484 131.761 28.1711 132.436 28.1711C133.095 28.1711 133.686 28.0484 134.207 27.8031C134.744 27.5578 135.188 27.2128 135.541 26.7681C135.909 26.3081 136.185 25.7638 136.369 25.1351C136.568 24.5065 136.668 23.8011 136.668 23.0191C136.668 22.2371 136.568 21.5318 136.369 20.9031C136.185 20.2591 135.909 19.7148 135.541 19.2701C135.188 18.8101 134.744 18.4574 134.207 18.2121C133.686 17.9668 133.095 17.8441 132.436 17.8441C131.761 17.8441 131.163 17.9744 130.642 18.2351C130.121 18.4804 129.676 18.8331 129.308 19.2931C128.955 19.7378 128.679 20.2821 128.48 20.9261C128.296 21.5548 128.204 22.2524 128.204 23.0191ZM140.371 23.0191C140.371 24.3838 140.164 25.5874 139.75 26.6301C139.351 27.6574 138.799 28.5238 138.094 29.2291C137.389 29.9191 136.545 30.4404 135.564 30.7931C134.598 31.1458 133.555 31.3221 132.436 31.3221C131.347 31.3221 130.32 31.1458 129.354 30.7931C128.388 30.4404 127.545 29.9191 126.824 29.2291C126.103 28.5238 125.536 27.6574 125.122 26.6301C124.708 25.5874 124.501 24.3838 124.501 23.0191C124.501 21.6544 124.716 20.4584 125.145 19.4311C125.574 18.3884 126.149 17.5144 126.87 16.8091C127.606 16.1038 128.449 15.5748 129.4 15.2221C130.366 14.8694 131.378 14.6931 132.436 14.6931C133.525 14.6931 134.552 14.8694 135.518 15.2221C136.484 15.5748 137.327 16.1038 138.048 16.8091C138.769 17.5144 139.336 18.3884 139.75 19.4311C140.164 20.4584 140.371 21.6544 140.371 23.0191Z" fill="white"/>
<path d="M150.676 17.8211C149.005 17.8211 147.793 18.2888 147.042 19.2241C146.306 20.1441 145.938 21.4091 145.938 23.0191C145.938 23.8011 146.03 24.5141 146.214 25.1581C146.398 25.7868 146.674 26.3311 147.042 26.7911C147.41 27.2511 147.87 27.6114 148.422 27.8721C148.974 28.1174 149.618 28.2401 150.354 28.2401C150.753 28.2401 151.09 28.2324 151.366 28.2171C151.657 28.2018 151.91 28.1711 152.125 28.1251V22.5821H155.713V30.4711C155.284 30.6398 154.594 30.8161 153.643 31.0001C152.692 31.1994 151.519 31.2991 150.124 31.2991C148.928 31.2991 147.839 31.1151 146.858 30.7471C145.892 30.3791 145.064 29.8424 144.374 29.1371C143.684 28.4318 143.147 27.5654 142.764 26.5381C142.396 25.5108 142.212 24.3378 142.212 23.0191C142.212 21.6851 142.419 20.5044 142.833 19.4771C143.247 18.4498 143.814 17.5834 144.535 16.8781C145.256 16.1574 146.099 15.6131 147.065 15.2451C148.046 14.8771 149.089 14.6931 150.193 14.6931C150.944 14.6931 151.619 14.7468 152.217 14.8541C152.83 14.9461 153.352 15.0611 153.781 15.1991C154.226 15.3218 154.586 15.4521 154.862 15.5901C155.153 15.7281 155.36 15.8354 155.483 15.9121L154.448 18.7871C153.957 18.5264 153.39 18.3041 152.746 18.1201C152.117 17.9208 151.427 17.8211 150.676 17.8211Z" fill="white"/>
<path d="M158.591 31.0001V15.0611H169.355V18.0741H162.179V21.2021H168.55V24.1461H162.179V27.9871H169.884V31.0001H158.591Z" fill="white"/>
</svg>
