<svg width="170" height="44" viewBox="0 0 170 44" fill="none" xmlns="http://www.w3.org/2000/svg">
<rect width="43.2" height="43.2" rx="21.6" fill="#FFE896"/>
<mask id="path-2-outside-1_108_2520" maskUnits="userSpaceOnUse" x="6.63184" y="5.41916" width="30" height="29" fill="black">
<rect fill="white" x="6.63184" y="5.41916" width="30" height="29"/>
<path fill-rule="evenodd" clip-rule="evenodd" d="M7.63585 33.0645C8.35814 28.7477 9.69921 20.6646 9.69921 20.386C9.69921 20.338 9.69163 20.0861 9.67952 19.6841C9.60161 17.0971 9.33641 8.29112 9.69921 7.53392C10.1184 6.65904 11.3643 5.93202 12.4472 6.83155C13.0405 7.32434 14.0951 9.37412 15.0021 11.1371C15.6639 12.4234 16.2471 13.557 16.5154 13.822C16.5659 13.8719 16.6357 13.8572 16.6994 13.8259C17.1524 13.6035 18.5915 13.2443 21.5353 13.2392C21.5353 13.2392 21.5354 13.2392 21.5354 13.2392C21.5354 13.2391 21.5354 13.2391 21.5354 13.2391C21.5461 13.2391 21.5568 13.2391 21.5675 13.2391C21.5781 13.2391 21.5888 13.2391 21.5995 13.2391C21.5996 13.2391 21.5996 13.2391 21.5996 13.2392C21.5996 13.2392 21.5996 13.2392 21.5996 13.2392C24.5435 13.2443 25.9825 13.6035 26.4355 13.8259C26.4993 13.8572 26.569 13.8719 26.6196 13.822C26.8879 13.557 27.4711 12.4234 28.1328 11.1371C29.0399 9.37412 30.0944 7.32435 30.6877 6.83155C31.7706 5.93202 33.0165 6.65904 33.4357 7.53392C33.7985 8.29112 33.5333 17.0971 33.4554 19.6841C33.4433 20.0861 33.4357 20.338 33.4357 20.386C33.4357 20.6646 34.7768 28.7477 35.4991 33.0645C35.5285 33.2401 35.3928 33.3984 35.2147 33.3984H21.5996H21.5354H7.92021C7.74215 33.3984 7.60647 33.2401 7.63585 33.0645Z"/>
</mask>
<path fill-rule="evenodd" clip-rule="evenodd" d="M7.63585 33.0645C8.35814 28.7477 9.69921 20.6646 9.69921 20.386C9.69921 20.338 9.69163 20.0861 9.67952 19.6841C9.60161 17.0971 9.33641 8.29112 9.69921 7.53392C10.1184 6.65904 11.3643 5.93202 12.4472 6.83155C13.0405 7.32434 14.0951 9.37412 15.0021 11.1371C15.6639 12.4234 16.2471 13.557 16.5154 13.822C16.5659 13.8719 16.6357 13.8572 16.6994 13.8259C17.1524 13.6035 18.5915 13.2443 21.5353 13.2392C21.5353 13.2392 21.5354 13.2392 21.5354 13.2392C21.5354 13.2391 21.5354 13.2391 21.5354 13.2391C21.5461 13.2391 21.5568 13.2391 21.5675 13.2391C21.5781 13.2391 21.5888 13.2391 21.5995 13.2391C21.5996 13.2391 21.5996 13.2391 21.5996 13.2392C21.5996 13.2392 21.5996 13.2392 21.5996 13.2392C24.5435 13.2443 25.9825 13.6035 26.4355 13.8259C26.4993 13.8572 26.569 13.8719 26.6196 13.822C26.8879 13.557 27.4711 12.4234 28.1328 11.1371C29.0399 9.37412 30.0944 7.32435 30.6877 6.83155C31.7706 5.93202 33.0165 6.65904 33.4357 7.53392C33.7985 8.29112 33.5333 17.0971 33.4554 19.6841C33.4433 20.0861 33.4357 20.338 33.4357 20.386C33.4357 20.6646 34.7768 28.7477 35.4991 33.0645C35.5285 33.2401 35.3928 33.3984 35.2147 33.3984H21.5996H21.5354H7.92021C7.74215 33.3984 7.60647 33.2401 7.63585 33.0645Z" fill="#FFAD06"/>
<path d="M7.63585 33.0645L8.488 33.2071H8.488L7.63585 33.0645ZM9.67952 19.6841L10.5431 19.6581L9.67952 19.6841ZM9.69921 7.53392L8.92003 7.16058L8.92003 7.16058L9.69921 7.53392ZM12.4472 6.83155L12.9993 6.16693L12.9993 6.16693L12.4472 6.83155ZM15.0021 11.1371L14.2338 11.5324V11.5324L15.0021 11.1371ZM16.5154 13.822L15.9081 14.4366L15.9081 14.4366L16.5154 13.822ZM16.6994 13.8259L17.0802 14.6015L17.0802 14.6015L16.6994 13.8259ZM21.5675 13.2391L21.5667 14.1031L21.5682 14.1031L21.5675 13.2391ZM26.4355 13.8259L26.0547 14.6015L26.0547 14.6015L26.4355 13.8259ZM26.6196 13.822L27.2268 14.4367L27.2268 14.4366L26.6196 13.822ZM28.1328 11.1371L27.3645 10.7419L28.1328 11.1371ZM30.6877 6.83155L31.2398 7.49617V7.49617L30.6877 6.83155ZM33.4357 7.53392L32.6565 7.90725V7.90725L33.4357 7.53392ZM33.4554 19.6841L32.5918 19.6581V19.6581L33.4554 19.6841ZM35.4991 33.0645L34.6469 33.2071V33.2071L35.4991 33.0645ZM21.5996 13.2392L21.6011 12.3752L21.5996 13.2392ZM21.5995 13.2391L21.5995 12.3751L21.5995 13.2391ZM21.5354 13.2391L21.5354 12.3751L21.5354 13.2391ZM21.5353 13.2392L21.5368 14.1032L21.5353 13.2392ZM8.83521 20.386C8.83521 20.3324 8.84092 20.3117 8.82744 20.4136C8.81834 20.4823 8.80437 20.5802 8.78557 20.7067C8.74811 20.9586 8.69341 21.3109 8.62503 21.7423C8.48839 22.6043 8.29848 23.7739 8.08577 25.0711C7.66043 27.665 7.14476 30.764 6.7837 32.9219L8.488 33.2071C8.84923 31.0482 9.36524 27.9472 9.791 25.3507C10.0038 24.0527 10.1944 22.8795 10.3317 22.0128C10.4004 21.5797 10.4561 21.2211 10.4948 20.9608C10.5141 20.8311 10.5296 20.7226 10.5405 20.6402C10.547 20.591 10.5632 20.4745 10.5632 20.386H8.83521ZM8.81591 19.7101C8.82197 19.9114 8.82687 20.0741 8.83026 20.1925C8.83195 20.2518 8.83324 20.2989 8.8341 20.3338C8.83506 20.373 8.83521 20.3866 8.83521 20.386H10.5632C10.5632 20.3207 10.5548 20.0462 10.5431 19.6581L8.81591 19.7101ZM8.92003 7.16058C8.84108 7.32536 8.80577 7.50787 8.78634 7.62328C8.76296 7.76211 8.74485 7.92235 8.73017 8.09341C8.70069 8.4369 8.68105 8.87286 8.6684 9.36587C8.64305 10.3546 8.64477 11.6199 8.66016 12.9329C8.69095 15.5615 8.77697 18.4172 8.81591 19.7101L10.5431 19.6581C10.5042 18.3639 10.4186 15.5232 10.388 12.9127C10.3727 11.6063 10.3713 10.3664 10.3958 9.41018C10.4081 8.93073 10.4267 8.53428 10.4518 8.24116C10.4645 8.09391 10.4778 7.98479 10.4904 7.91018C10.5069 7.81215 10.512 7.83712 10.4784 7.90725L8.92003 7.16058ZM12.9993 6.16693C12.2087 5.51019 11.3023 5.42862 10.5332 5.70386C9.80856 5.9632 9.22278 6.52874 8.92003 7.16058L10.4784 7.90725C10.5948 7.66421 10.8416 7.42881 11.1155 7.3308C11.3449 7.2487 11.6029 7.25338 11.8952 7.49617L12.9993 6.16693ZM15.7704 10.7419C15.3191 9.86458 14.82 8.89435 14.3583 8.08132C14.1274 7.67474 13.8987 7.29481 13.6837 6.97854C13.481 6.68038 13.2472 6.37287 12.9993 6.16693L11.8952 7.49617C11.9439 7.53663 12.0644 7.67013 12.2546 7.95C12.4326 8.21175 12.6355 8.54685 12.8557 8.93469C13.2963 9.71051 13.7781 10.6467 14.2338 11.5324L15.7704 10.7419ZM17.1226 13.2074C17.1334 13.218 17.092 13.1738 16.9905 13.0121C16.9008 12.8692 16.7913 12.6792 16.6636 12.4467C16.4084 11.9818 16.1031 11.3885 15.7704 10.7419L14.2338 11.5324C14.5629 12.172 14.88 12.7886 15.1489 13.2783C15.2833 13.5232 15.4113 13.7466 15.5271 13.931C15.6311 14.0966 15.7632 14.2935 15.9081 14.4366L17.1226 13.2074ZM16.3186 13.0504C16.3373 13.0412 16.4277 12.9971 16.5658 12.9912C16.7348 12.984 16.9511 13.038 17.1226 13.2074L15.9081 14.4366C16.3945 14.9172 16.9803 14.6506 17.0802 14.6015L16.3186 13.0504ZM21.5338 12.3752C20.0286 12.3778 18.8893 12.4709 18.0545 12.5967C17.2393 12.7196 16.6634 12.881 16.3186 13.0504L17.0802 14.6015C17.1884 14.5484 17.5586 14.419 18.3121 14.3054C19.046 14.1948 20.0982 14.1057 21.5368 14.1032L21.5338 12.3752ZM21.5354 14.1031C21.5459 14.1031 21.5563 14.1031 21.5667 14.1031L21.5682 12.3751C21.5573 12.3751 21.5463 12.3751 21.5354 12.3751L21.5354 14.1031ZM21.5995 12.3751C21.5886 12.3751 21.5777 12.3751 21.5667 12.3751L21.5682 14.1031C21.5786 14.1031 21.5891 14.1031 21.5996 14.1031L21.5995 12.3751ZM21.5981 14.1032C23.0367 14.1057 24.0889 14.1948 24.8228 14.3054C25.5764 14.419 25.9465 14.5484 26.0547 14.6015L26.8164 13.0504C26.4715 12.881 25.8956 12.7196 25.0804 12.5967C24.2456 12.4709 23.1063 12.3778 21.6011 12.3752L21.5981 14.1032ZM26.0547 14.6015C26.1547 14.6506 26.7404 14.9171 27.2268 14.4367L26.0124 13.2074C26.1838 13.038 26.4001 12.984 26.5692 12.9912C26.7072 12.9971 26.7977 13.0412 26.8164 13.0504L26.0547 14.6015ZM27.2268 14.4366C27.3717 14.2935 27.5039 14.0966 27.6079 13.931C27.7236 13.7466 27.8516 13.5232 27.986 13.2783C28.2549 12.7886 28.5721 12.172 28.9011 11.5324L27.3645 10.7419C27.0318 11.3885 26.7265 11.9818 26.4713 12.4467C26.3437 12.6792 26.2342 12.8692 26.1444 13.0121C26.0429 13.1738 26.0016 13.218 26.0123 13.2074L27.2268 14.4366ZM28.9011 11.5324C29.3568 10.6467 29.8386 9.71051 30.2792 8.93469C30.4995 8.54685 30.7024 8.21175 30.8803 7.95C31.0706 7.67013 31.1911 7.53663 31.2398 7.49617L30.1356 6.16693C29.8877 6.37287 29.6539 6.68038 29.4512 6.97854C29.2362 7.29481 29.0075 7.67474 28.7766 8.08132C28.3149 8.89435 27.8159 9.86458 27.3645 10.7419L28.9011 11.5324ZM31.2398 7.49617C31.532 7.25338 31.79 7.2487 32.0195 7.3308C32.2933 7.42881 32.5401 7.66421 32.6565 7.90725L34.2149 7.16058C33.9122 6.52874 33.3264 5.9632 32.6017 5.70386C31.8327 5.42862 30.9263 5.51019 30.1356 6.16693L31.2398 7.49617ZM32.6565 7.90725C32.6229 7.83712 32.6281 7.81215 32.6446 7.91018C32.6571 7.98479 32.6705 8.09391 32.6831 8.24116C32.7083 8.53428 32.7268 8.93073 32.7391 9.41018C32.7636 10.3664 32.7622 11.6063 32.7469 12.9127C32.7163 15.5232 32.6308 18.3639 32.5918 19.6581L34.319 19.7101C34.358 18.4172 34.444 15.5615 34.4748 12.9329C34.4902 11.6199 34.4919 10.3546 34.4665 9.36587C34.4539 8.87286 34.4342 8.4369 34.4048 8.09341C34.3901 7.92235 34.372 7.76211 34.3486 7.62328C34.3292 7.50787 34.2939 7.32536 34.2149 7.16058L32.6565 7.90725ZM32.5918 19.6581C32.5801 20.0462 32.5717 20.3207 32.5717 20.386H34.2997C34.2997 20.3866 34.2999 20.373 34.3008 20.3338C34.3017 20.2989 34.303 20.2518 34.3047 20.1925C34.3081 20.0741 34.313 19.9114 34.319 19.7101L32.5918 19.6581ZM32.5717 20.386C32.5717 20.4745 32.5879 20.591 32.5944 20.6402C32.6053 20.7226 32.6209 20.8311 32.6402 20.9608C32.6789 21.2211 32.7346 21.5797 32.8032 22.0128C32.9406 22.8795 33.1311 24.0527 33.3439 25.3507C33.7697 27.9472 34.2857 31.0482 34.6469 33.2071L36.3512 32.9219C35.9902 30.764 35.4745 27.665 35.0492 25.0711C34.8365 23.7739 34.6465 22.6043 34.5099 21.7423C34.4415 21.3109 34.3868 20.9586 34.3494 20.7067C34.3306 20.5802 34.3166 20.4823 34.3075 20.4136C34.294 20.3117 34.2997 20.3324 34.2997 20.386H32.5717ZM34.6469 33.2071C34.587 32.8487 34.866 32.5344 35.2147 32.5344V34.2624C35.9196 34.2624 36.47 33.6315 36.3512 32.9219L34.6469 33.2071ZM35.2147 32.5344H21.5996V34.2624H35.2147V32.5344ZM21.5996 32.5344H21.5354V34.2624H21.5996V32.5344ZM7.92021 34.2624H21.5354V32.5344H7.92021V34.2624ZM6.7837 32.9219C6.66497 33.6315 7.21532 34.2624 7.92021 34.2624V32.5344C8.26898 32.5344 8.54796 32.8487 8.488 33.2071L6.7837 32.9219ZM20.7356 13.2392C20.7356 13.7336 21.1395 14.1024 21.5981 14.1032L21.6011 12.3752C22.0596 12.376 22.4636 12.7447 22.4636 13.2392H20.7356ZM21.5996 14.1031C21.1225 14.1031 20.7356 13.7164 20.7356 13.2392H22.4636C22.4636 12.7619 22.0767 12.3751 21.5995 12.3751L21.5996 14.1031ZM22.3994 13.2392C22.3994 13.7164 22.0125 14.1031 21.5354 14.1031L21.5354 12.3751C21.0583 12.3751 20.6714 12.7619 20.6714 13.2392H22.3994ZM21.5368 14.1032C21.9954 14.1024 22.3994 13.7336 22.3994 13.2392H20.6714C20.6714 12.7447 21.0753 12.376 21.5338 12.3752L21.5368 14.1032Z" fill="#FF5C00" mask="url(#path-2-outside-1_108_2520)"/>
<path fill-rule="evenodd" clip-rule="evenodd" d="M12.9771 33.1103V30.7176C12.9771 30.0969 13.0773 29.4804 13.2741 28.8918L13.3377 28.7013C13.5857 27.9592 13.9824 27.2754 14.5034 26.6916L18.6486 22.0472C18.8481 21.8237 19.0797 21.6308 19.3356 21.4749C19.8123 21.1845 20.3597 21.031 20.9178 21.031H21.8861L22.5679 21.031C23.1261 21.031 23.6735 21.1846 24.1501 21.4749C24.4061 21.6308 24.6376 21.8237 24.8372 22.0473L28.9823 26.6916C29.5034 27.2754 29.9 27.9592 30.148 28.7013L30.2117 28.8918C30.4084 29.4804 30.5087 30.097 30.5087 30.7176V33.1103C30.5087 33.2694 30.3797 33.3983 30.2207 33.3983H21.8877C21.8349 33.3983 21.7854 33.3841 21.7429 33.3593C21.7003 33.3841 21.6508 33.3983 21.5981 33.3983H13.2651C13.106 33.3983 12.9771 33.2694 12.9771 33.1103Z" fill="white"/>
<path fill-rule="evenodd" clip-rule="evenodd" d="M21.538 26.4092C20.4347 26.4092 19.5225 27.3036 19.5225 28.4069C19.5225 28.4069 19.5225 28.4069 19.5225 28.4069H23.5535C23.5535 28.4069 23.5535 28.4069 23.5535 28.4069C23.5535 27.3036 22.6413 26.4092 21.538 26.4092Z" fill="black"/>
<path fill-rule="evenodd" clip-rule="evenodd" d="M16.9141 17.5871C17.2323 17.5871 17.4901 17.845 17.4901 18.1631V19.1558C17.4901 19.4739 17.2323 19.7318 16.9141 19.7318H14.3206C14.2546 19.7318 14.1997 19.6803 14.1997 19.6143C14.1997 18.4947 15.1073 17.5871 16.227 17.5871H16.9141Z" fill="black"/>
<path fill-rule="evenodd" clip-rule="evenodd" d="M21.7439 25.249C22.5142 25.2439 23.7209 24.7643 24.2361 23.6852C24.8836 22.3291 24.5415 21.083 21.7316 21.083V21.0831C18.933 21.0867 18.5929 22.3312 19.2394 23.6853C19.7574 24.7702 20.9742 25.2491 21.7439 25.2491V25.249Z" fill="black"/>
<ellipse opacity="0.6" cx="21.7183" cy="21.7371" rx="1.31746" ry="0.458245" fill="white"/>
<path fill-rule="evenodd" clip-rule="evenodd" d="M26.1306 17.5871C25.8125 17.5871 25.5546 17.845 25.5546 18.1631V19.1558C25.5546 19.4739 25.8125 19.7318 26.1306 19.7318H28.7243C28.7903 19.7318 28.8452 19.6803 28.8452 19.6143C28.8452 18.4947 27.9376 17.5871 26.818 17.5871H26.1306Z" fill="black"/>
<path d="M25.0292 25.3474C25.0115 25.1775 25.1448 25.0295 25.3157 25.0295H35.7085C35.8794 25.0295 36.0127 25.1775 35.995 25.3474L34.7259 37.5207C34.7106 37.6674 34.5869 37.7788 34.4394 37.7788H26.5848C26.4373 37.7788 26.3136 37.6674 26.2983 37.5207L25.0292 25.3474Z" fill="#0090FF"/>
<g clip-path="url(#clip0_108_2520)">
<path fill-rule="evenodd" clip-rule="evenodd" d="M30.5287 35.4752C28.5103 35.4752 26.8589 33.8239 26.8589 31.7872C26.8772 29.7688 28.5103 28.1175 30.547 28.1358C32.5654 28.1542 34.1985 29.7872 34.1985 31.8422C34.1801 33.8422 32.5471 35.4752 30.5287 35.4752Z" fill="#0090FF"/>
<path fill-rule="evenodd" clip-rule="evenodd" d="M30.925 31.3046L30.7998 31.9724L31.9893 32.1394L31.9059 32.4524L30.7371 32.2855C30.6537 32.5568 30.6119 32.8489 30.5076 33.0994C30.4032 33.3916 30.2989 33.6838 30.1736 33.9551C30.0067 34.3099 29.7145 34.5603 29.318 34.6229C29.0884 34.6647 28.838 34.6438 28.6501 34.4977C28.5875 34.456 28.5249 34.3725 28.5249 34.3099C28.5249 34.2264 28.5666 34.122 28.6293 34.0803C28.671 34.0594 28.7753 34.0803 28.838 34.1012C28.9006 34.1638 28.9632 34.2472 29.0049 34.3307C29.1301 34.4977 29.2971 34.5186 29.4641 34.3933C29.6519 34.2264 29.7562 33.9968 29.8189 33.7672C29.9441 33.2664 30.0693 32.7863 30.1736 32.2855V32.202L29.0675 32.035L29.1093 31.722L30.2571 31.8889L30.4032 31.2419L29.2136 31.0541L29.2554 30.7202L30.4867 30.8872C30.5284 30.7619 30.5493 30.6576 30.591 30.5532C30.6954 30.1776 30.7998 29.8019 31.0502 29.468C31.3006 29.1341 31.5928 28.9254 32.0311 28.9462C32.2189 28.9462 32.4068 29.0088 32.532 29.1549C32.5528 29.1758 32.5946 29.2175 32.5946 29.2593C32.5946 29.3428 32.5946 29.4471 32.532 29.5097C32.4485 29.5723 32.3441 29.5515 32.2607 29.468C32.1981 29.4054 32.1563 29.3428 32.0937 29.2801C31.9685 29.1132 31.7806 29.0923 31.6346 29.2384C31.5302 29.3428 31.4259 29.4889 31.3632 29.6349C31.2172 30.0732 31.1128 30.5324 30.9667 30.9915L32.1146 31.1585L32.0311 31.4715L30.925 31.3046Z" fill="white"/>
</g>
<path d="M31.8988 23.5067C32.2676 23.2897 32.6877 23.1753 33.1156 23.1753H35.3094C35.5745 23.1753 35.7894 23.3902 35.7894 23.6553V24.8672H29.5859L31.8988 23.5067Z" fill="#0090FF"/>
<path d="M24.6841 24.6949C24.7146 24.5646 24.8308 24.4724 24.9646 24.4724H36.0686C36.2025 24.4724 36.3187 24.5646 36.3491 24.6949L36.6095 25.8108C36.6516 25.9914 36.5145 26.1642 36.329 26.1642H24.7042C24.5187 26.1642 24.3816 25.9914 24.4238 25.8108L24.6841 24.6949Z" fill="#77B6FF"/>
<rect x="33.6547" y="29.0313" width="4.33752" height="5.60099" rx="2.16876" fill="#FFAD06" stroke="#FF5C00" stroke-width="0.576"/>
<path d="M33.6475 31.0363H35.3789" stroke="#FF5C00" stroke-width="0.576"/>
<path d="M33.6475 32.5806H35.3789" stroke="#FF5C00" stroke-width="0.576"/>
<path d="M63.1406 31V15.061H73.8126V18.074H66.7286V21.409H73.0306V24.422H66.7286V31H63.1406Z" fill="white"/>
<path d="M75.8877 15.061H79.4757V31H75.8877V15.061Z" fill="white"/>
<path d="M93.354 27.918V31H82.705V15.061H86.293V27.918H93.354Z" fill="white"/>
<path d="M95.205 31V15.061H105.969V18.074H98.793V21.202H105.164V24.146H98.793V27.987H106.498V31H95.205Z" fill="white"/>
<path d="M112.281 28.079C112.45 28.0943 112.642 28.1097 112.856 28.125C113.086 28.125 113.355 28.125 113.661 28.125C115.455 28.125 116.782 27.6727 117.64 26.768C118.514 25.8633 118.951 24.6137 118.951 23.019C118.951 21.3477 118.537 20.0827 117.709 19.224C116.881 18.3653 115.57 17.936 113.776 17.936C113.531 17.936 113.278 17.9437 113.017 17.959C112.757 17.959 112.511 17.9743 112.281 18.005V28.079ZM122.654 23.019C122.654 24.399 122.44 25.6027 122.01 26.63C121.581 27.6573 120.968 28.5083 120.17 29.183C119.388 29.8577 118.43 30.3637 117.295 30.701C116.161 31.0383 114.888 31.207 113.477 31.207C112.833 31.207 112.082 31.1763 111.223 31.115C110.365 31.069 109.521 30.9617 108.693 30.793V15.268C109.521 15.1147 110.38 15.015 111.269 14.969C112.174 14.9077 112.948 14.877 113.592 14.877C114.957 14.877 116.191 15.0303 117.295 15.337C118.415 15.6437 119.373 16.1267 120.17 16.786C120.968 17.4453 121.581 18.2887 122.01 19.316C122.44 20.3433 122.654 21.5777 122.654 23.019Z" fill="white"/>
<path d="M128.204 23.019C128.204 23.801 128.296 24.5063 128.48 25.135C128.68 25.7637 128.956 26.308 129.308 26.768C129.676 27.2127 130.121 27.5577 130.642 27.803C131.164 28.0483 131.762 28.171 132.436 28.171C133.096 28.171 133.686 28.0483 134.207 27.803C134.744 27.5577 135.189 27.2127 135.541 26.768C135.909 26.308 136.185 25.7637 136.369 25.135C136.569 24.5063 136.668 23.801 136.668 23.019C136.668 22.237 136.569 21.5317 136.369 20.903C136.185 20.259 135.909 19.7147 135.541 19.27C135.189 18.81 134.744 18.4573 134.207 18.212C133.686 17.9667 133.096 17.844 132.436 17.844C131.762 17.844 131.164 17.9743 130.642 18.235C130.121 18.4803 129.676 18.833 129.308 19.293C128.956 19.7377 128.68 20.282 128.48 20.926C128.296 21.5547 128.204 22.2523 128.204 23.019ZM140.371 23.019C140.371 24.3837 140.164 25.5873 139.75 26.63C139.352 27.6573 138.8 28.5237 138.094 29.229C137.389 29.919 136.546 30.4403 135.564 30.793C134.598 31.1457 133.556 31.322 132.436 31.322C131.348 31.322 130.32 31.1457 129.354 30.793C128.388 30.4403 127.545 29.919 126.824 29.229C126.104 28.5237 125.536 27.6573 125.122 26.63C124.708 25.5873 124.501 24.3837 124.501 23.019C124.501 21.6543 124.716 20.4583 125.145 19.431C125.575 18.3883 126.15 17.5143 126.87 16.809C127.606 16.1037 128.45 15.5747 129.4 15.222C130.366 14.8693 131.378 14.693 132.436 14.693C133.525 14.693 134.552 14.8693 135.518 15.222C136.484 15.5747 137.328 16.1037 138.048 16.809C138.769 17.5143 139.336 18.3883 139.75 19.431C140.164 20.4583 140.371 21.6543 140.371 23.019Z" fill="white"/>
<path d="M150.676 17.821C149.005 17.821 147.793 18.2887 147.042 19.224C146.306 20.144 145.938 21.409 145.938 23.019C145.938 23.801 146.03 24.514 146.214 25.158C146.398 25.7867 146.674 26.331 147.042 26.791C147.41 27.251 147.87 27.6113 148.422 27.872C148.974 28.1173 149.618 28.24 150.354 28.24C150.753 28.24 151.09 28.2323 151.366 28.217C151.657 28.2017 151.91 28.171 152.125 28.125V22.582H155.713V30.471C155.284 30.6397 154.594 30.816 153.643 31C152.692 31.1993 151.519 31.299 150.124 31.299C148.928 31.299 147.839 31.115 146.858 30.747C145.892 30.379 145.064 29.8423 144.374 29.137C143.684 28.4317 143.147 27.5653 142.764 26.538C142.396 25.5107 142.212 24.3377 142.212 23.019C142.212 21.685 142.419 20.5043 142.833 19.477C143.247 18.4497 143.814 17.5833 144.535 16.878C145.256 16.1573 146.099 15.613 147.065 15.245C148.046 14.877 149.089 14.693 150.193 14.693C150.944 14.693 151.619 14.7467 152.217 14.854C152.83 14.946 153.352 15.061 153.781 15.199C154.226 15.3217 154.586 15.452 154.862 15.59C155.153 15.728 155.36 15.8353 155.483 15.912L154.448 18.787C153.957 18.5263 153.39 18.304 152.746 18.12C152.117 17.9207 151.427 17.821 150.676 17.821Z" fill="white"/>
<path d="M158.592 31V15.061H169.356V18.074H162.18V21.202H168.551V24.146H162.18V27.987H169.885V31H158.592Z" fill="white"/>
<defs>
<clipPath id="clip0_108_2520">
<rect width="8.34807" height="8.34807" fill="white" transform="translate(26.3545 27.6314)"/>
</clipPath>
</defs>
</svg>
