<svg width="455" height="497" viewBox="0 0 455 497" fill="none" xmlns="http://www.w3.org/2000/svg">
<path d="M291 268.349C286.185 260.812 281.342 257.238 277.318 255.807C272.5 254.092 269.51 259.241 270.27 264.298L281.076 336.199C281.647 340.002 284.211 343.209 287.796 344.602C289.88 345.413 291.655 346.882 292.943 348.709C318.473 384.92 354.648 383.865 375.017 377.14C379.393 375.696 382 371.419 382 366.81V338.904C382 330.327 372.589 323.23 364.255 321.201C337.114 314.596 300.224 282.787 291 268.349Z" fill="white" stroke="black" stroke-width="6"/>
<path d="M346.412 298.515H425.068C427.441 298.515 429.292 300.567 429.047 302.927L419.568 394.412C419.357 396.451 417.639 398 415.589 398H356.381C354.34 398 352.626 396.463 352.405 394.433L342.435 302.948C342.177 300.581 344.031 298.515 346.412 298.515Z" fill="#0090FF" stroke="black" stroke-width="4"/>
<path d="M414.658 329.301C427.036 321.684 438.553 323.636 445.363 326.765C448.272 328.102 449.893 331.093 450.222 334.277C455.608 386.385 438.604 387.666 420.658 383.301C402.158 378.801 395.158 341.301 414.658 329.301Z" fill="white" stroke="black" stroke-width="6"/>
<path d="M404 344H416" stroke="black" stroke-width="4"/>
<path d="M404 352H413" stroke="black" stroke-width="4"/>
<path d="M404 361H416" stroke="black" stroke-width="4"/>
<path fill-rule="evenodd" clip-rule="evenodd" d="M388.154 347.669L387.416 351.537L394.431 352.504L393.939 354.317L387.047 353.35C386.554 354.922 386.308 356.614 385.693 358.065C385.077 359.757 384.462 361.45 383.724 363.021C382.739 365.077 381.016 366.527 378.677 366.89C377.324 367.132 375.847 367.011 374.739 366.165C374.37 365.923 374 365.439 374 365.077C374 364.593 374.247 363.989 374.616 363.747C374.862 363.626 375.477 363.747 375.847 363.868C376.216 364.23 376.585 364.714 376.831 365.197C377.57 366.165 378.554 366.285 379.539 365.56C380.647 364.593 381.262 363.263 381.631 361.933C382.37 359.032 383.108 356.252 383.724 353.35V352.867L377.2 351.9L377.447 350.086L384.216 351.053L385.077 347.306L378.062 346.218L378.308 344.284L385.57 345.251C385.816 344.525 385.939 343.921 386.185 343.317C386.8 341.141 387.416 338.965 388.893 337.03C390.37 335.096 392.093 333.887 394.677 334.008C395.785 334.008 396.893 334.371 397.631 335.217C397.754 335.338 398 335.58 398 335.822C398 336.305 398 336.91 397.631 337.272C397.139 337.635 396.524 337.514 396.031 337.03C395.662 336.668 395.416 336.305 395.047 335.942C394.308 334.975 393.2 334.854 392.339 335.701C391.724 336.305 391.108 337.151 390.739 337.998C389.877 340.536 389.262 343.196 388.4 345.855L395.17 346.822L394.677 348.636L388.154 347.669Z" fill="white"/>
<path d="M426.934 299.177H428.934V297.177V288.76C428.934 284.474 425.46 281 421.174 281H409.509C402.306 281 395.233 282.926 389.025 286.578L373.936 295.454L367.606 299.177H374.95H426.934Z" fill="#0090FF" stroke="black" stroke-width="4"/>
<path d="M426.68 294H344.32C342.022 294 340.019 295.567 339.467 297.798L337.981 303.798C337.199 306.951 339.585 310 342.834 310H428.166C431.415 310 433.801 306.951 433.019 303.798L431.533 297.798C430.981 295.567 428.978 294 426.68 294Z" fill="#77B6FF" stroke="black" stroke-width="4"/>
<path d="M71.7088 247H99.8823H267.632C271.36 247 274.382 250.022 274.382 253.75V258.107C274.382 259.428 273.31 260.5 271.988 260.5C271.59 260.5 271.199 260.599 270.848 260.789L265.666 263.596C261.794 265.693 259.382 269.743 259.382 274.147V442.447C259.382 448.038 255.52 452.888 250.072 454.141L111.032 486.12C109.937 486.372 108.813 486.469 107.691 486.408L71.8134 484.458C67.0845 484.201 63.3818 480.292 63.3818 475.556C63.3818 474.526 63.5602 473.505 63.9089 472.536L65.5611 467.947C66.9996 463.952 66.1569 459.547 63.8309 455.995C34.2062 410.749 47.6716 310 60.189 256.03C61.4286 250.685 66.2223 247 71.7088 247Z" fill="#E7E7E7" stroke="black" stroke-width="4"/>
<path fill-rule="evenodd" clip-rule="evenodd" d="M15.263 412.052C16.1135 417.844 16.2527 418.791 12.1069 422.501C2.60694 431.001 -7.39306 456.501 26.6069 469.001C59.3041 481.022 58.2454 457.899 57.2268 435.654C57.1863 434.767 57.1457 433.882 57.1074 433.001C56.1074 410.001 58.6074 367.001 81.1074 349.001C78.1074 351.659 77.6074 425.501 81.1074 433.001C84.6074 440.501 106.107 481.001 116.607 481.001C122.039 481.001 123.323 486.887 124.819 493.746C124.838 493.831 124.856 493.915 124.874 494H248.865C280.611 474.905 307.611 438.022 297.607 372.501C286.469 299.542 278.884 268.555 274.516 257.809C272.914 253.867 267.994 253.509 263.739 253.522L92.5956 254.044C68.5907 262.96 21.9811 293.392 16.1069 349.001C11.8799 389.016 14.1647 404.573 15.263 412.052Z" fill="white"/>
<path d="M12.1069 422.501L14.1073 424.737L14.1073 424.737L12.1069 422.501ZM15.263 412.052L12.2949 412.488L12.2949 412.488L15.263 412.052ZM26.6069 469.001L25.5717 471.817L25.5717 471.817L26.6069 469.001ZM57.2268 435.654L54.23 435.791L54.23 435.791L57.2268 435.654ZM57.1074 433.001L60.1046 432.871L60.1046 432.871L57.1074 433.001ZM81.1074 349.001L83.097 351.246L79.2333 346.658L81.1074 349.001ZM124.819 493.746L127.75 493.107L127.75 493.107L124.819 493.746ZM124.874 494L121.943 494.64L122.459 497H124.874V494ZM248.865 494V497H249.698L250.412 496.571L248.865 494ZM297.607 372.501L300.573 372.048L300.573 372.048L297.607 372.501ZM274.516 257.809L271.737 258.939L271.737 258.939L274.516 257.809ZM263.739 253.522L263.73 250.522L263.739 253.522ZM92.5956 254.044L92.5864 251.044L92.052 251.046L91.551 251.232L92.5956 254.044ZM16.1069 349.001L19.0903 349.316L16.1069 349.001ZM14.1073 424.737C16.1643 422.896 17.8285 421.206 18.4587 418.825C18.7656 417.666 18.7837 416.521 18.7043 415.395C18.6266 414.296 18.4379 413.024 18.2312 411.617L12.2949 412.488C12.5134 413.976 12.661 414.995 12.7192 415.818C12.7754 416.615 12.7287 417.024 12.6585 417.29C12.5345 417.758 12.1954 418.396 10.1066 420.265L14.1073 424.737ZM27.6421 466.185C11.4201 460.221 6.50676 451.554 6.0386 444.064C5.5447 436.161 9.89521 428.505 14.1073 424.737L10.1066 420.265C4.81867 424.996 -0.580809 434.34 0.0502866 444.438C0.707125 454.947 7.79381 465.281 25.5717 471.817L27.6421 466.185ZM54.23 435.791C54.4862 441.387 54.7336 446.849 54.4744 451.782C54.2132 456.752 53.4481 460.833 51.9024 463.786C50.4464 466.567 48.2873 468.395 44.7857 469.04C41.0707 469.723 35.6039 469.112 27.6421 466.185L25.5717 471.817C33.9586 474.9 40.6208 475.907 45.8715 474.94C51.3357 473.935 54.9789 470.846 57.2181 466.569C59.3676 462.463 60.1904 457.343 60.4661 452.097C60.7437 446.814 60.4768 441.043 60.2237 435.516L54.23 435.791ZM54.1103 433.131C54.1487 434.017 54.1894 434.905 54.23 435.791L60.2237 435.516C60.1831 434.629 60.1427 433.748 60.1046 432.871L54.1103 433.131ZM79.2333 346.658C67.1625 356.315 60.7184 372.409 57.3582 388.513C53.9781 404.712 53.6036 421.479 54.1103 433.131L60.1046 432.871C59.6112 421.523 59.9868 405.29 63.2317 389.739C66.4964 374.092 72.5524 359.687 82.9815 351.343L79.2333 346.658ZM83.826 431.732C83.767 431.606 83.6187 431.172 83.4411 430.271C83.2743 429.424 83.1125 428.331 82.9598 427.004C82.6549 424.354 82.403 420.916 82.2053 416.937C81.8103 408.987 81.6388 399.026 81.6699 389.195C81.7011 379.362 81.9347 369.704 82.3449 362.36C82.5505 358.679 82.7977 355.631 83.0781 353.448C83.2194 352.348 83.3602 351.541 83.4895 351.009C83.555 350.74 83.6004 350.614 83.6116 350.587C83.6597 350.469 83.5396 350.854 83.097 351.246L79.1179 346.755C78.4877 347.314 78.1851 348.004 78.0555 348.322C77.889 348.73 77.7617 349.171 77.6597 349.59C77.4537 350.437 77.2796 351.495 77.127 352.684C76.8195 355.077 76.5628 358.292 76.3543 362.025C75.9363 369.508 75.7013 379.278 75.6699 389.176C75.6386 399.074 75.8108 409.146 76.2127 417.234C76.4134 421.274 76.6732 424.857 76.9991 427.69C77.1619 429.105 77.3453 430.37 77.5543 431.431C77.7524 432.436 78.0103 433.458 78.3889 434.27L83.826 431.732ZM116.607 478.001C116.204 478.001 115.337 477.774 113.934 476.79C112.587 475.846 111.042 474.412 109.346 472.541C105.961 468.806 102.283 463.667 98.7546 458.189C91.7052 447.244 85.5203 435.363 83.826 431.732L78.3889 434.27C80.1945 438.139 86.5097 450.258 93.7103 461.438C97.3068 467.022 101.191 472.477 104.9 476.57C106.751 478.613 108.635 480.402 110.488 481.702C112.284 482.962 114.386 484.001 116.607 484.001V478.001ZM127.75 493.107C127.031 489.811 126.263 486.189 124.862 483.439C124.133 482.01 123.146 480.626 121.734 479.6C120.277 478.542 118.551 478.001 116.607 478.001V484.001C117.379 484.001 117.851 484.195 118.209 484.455C118.612 484.748 119.057 485.263 119.516 486.164C120.489 488.072 121.111 490.823 121.888 494.386L127.75 493.107ZM127.805 493.36C127.787 493.276 127.769 493.191 127.75 493.107L121.888 494.386C121.906 494.47 121.925 494.555 121.943 494.64L127.805 493.36ZM124.874 497H248.865V491H124.874V497ZM294.642 372.954C299.568 405.218 295.354 430.195 286.186 449.366C277.013 468.546 262.779 482.13 247.319 491.429L250.412 496.571C266.697 486.775 281.835 472.37 291.599 451.955C301.366 431.53 305.65 405.305 300.573 372.048L294.642 372.954ZM271.737 258.939C275.948 269.298 283.492 299.92 294.642 372.954L300.573 372.048C289.446 299.164 281.82 267.811 277.295 256.679L271.737 258.939ZM263.749 256.522C265.857 256.515 267.765 256.613 269.271 257.059C270.695 257.481 271.393 258.092 271.737 258.939L277.295 256.679C276.037 253.585 273.474 252.046 270.974 251.306C268.556 250.59 265.877 250.515 263.73 250.522L263.749 256.522ZM92.6047 257.044L263.749 256.522L263.73 250.522L92.5864 251.044L92.6047 257.044ZM19.0903 349.316C24.7929 295.331 70.145 265.583 93.6401 256.857L91.551 251.232C67.0365 260.337 19.1692 291.453 13.1235 348.686L19.0903 349.316ZM18.2312 411.617C17.1705 404.394 14.8889 389.089 19.0903 349.316L13.1235 348.686C8.87097 388.943 11.1588 404.753 12.2949 412.488L18.2312 411.617ZM93.1222 250.667C92.6086 250.846 92.0847 251.034 91.551 251.232L93.6401 256.857C94.1352 256.673 94.6193 256.499 95.0917 256.335L93.1222 250.667Z" fill="black"/>
<path d="M142.361 355.668L144.694 327.668C144.867 325.595 146.6 324 148.681 324H231C233.209 324 235 325.791 235 328V356C235 358.209 233.209 360 231 360H146.347C144.007 360 142.167 358 142.361 355.668Z" fill="#ECD683" stroke="black" stroke-width="4"/>
<path fill-rule="evenodd" clip-rule="evenodd" d="M176 343C176 346.314 173.314 349 170 349C166.686 349 164 346.314 164 343C164 339.686 166.686 337 170 337C173.314 337 176 339.686 176 343ZM195 343C195 346.314 192.314 349 189 349C185.686 349 183 346.314 183 343C183 339.686 185.686 337 189 337C192.314 337 195 339.686 195 343ZM207 349C210.314 349 213 346.314 213 343C213 339.686 210.314 337 207 337C203.686 337 201 339.686 201 343C201 346.314 203.686 349 207 349Z" fill="black"/>
<path d="M91 342C87.5 343.5 79.5 347.8 75.5 353" stroke="black" stroke-width="4"/>
<path d="M81 352C85.3333 350.5 89.6 348.4 98 352" stroke="black" stroke-width="4"/>
<path d="M70.5001 259.5C69.3869 250.594 72.8886 247.304 76.5257 246.463C78.7676 245.944 81.0001 244.287 81.0001 241.986C81.0001 240.05 82.5493 238.468 84.4858 238.429L273.233 234.577C275.685 234.527 278.094 235.229 280.135 236.59L283 238.5C312 263 211 288.5 177.5 289.5C144 290.5 72.5001 275.5 70.5001 259.5Z" fill="white" stroke="black" stroke-width="6"/>
<circle cx="33" cy="111" r="13" fill="white" stroke="black" stroke-width="4"/>
<circle cx="13" cy="13" r="13" transform="matrix(-1 0 0 1 333.5 98)" fill="white" stroke="black" stroke-width="4"/>
<path d="M33.2896 124.224L38.5585 98.5817C39.1066 95.9144 41.4544 94 44.1775 94C47.9017 94 50.6385 97.4937 49.7469 101.11L43.4798 126.526C42.9044 128.86 40.8109 130.5 38.4072 130.5C35.0991 130.5 32.6238 127.464 33.2896 124.224Z" fill="white" stroke="black" stroke-width="4"/>
<path d="M320.21 124.224L314.941 98.5817C314.393 95.9144 312.046 94 309.323 94C305.598 94 302.861 97.4937 303.753 101.11L310.02 126.526C310.596 128.86 312.689 130.5 315.093 130.5C318.401 130.5 320.876 127.464 320.21 124.224Z" fill="white" stroke="black" stroke-width="4"/>
<path d="M40.2219 144C37.0219 190 69.2219 232.833 85.7219 248.5C166.222 293.5 255.722 256.5 276.722 241C297.722 225.5 312.222 189.5 308.222 129.5C304.222 69.5 264.222 3 173.722 3C83.2217 3 44.2219 86.5 40.2219 144Z" fill="white" stroke="black" stroke-width="6"/>
<path d="M79.5 79.4999C91.5 74.4999 127.8 64.8999 177 66.4999" stroke="black" stroke-width="4"/>
<path d="M186 66.5H216.5" stroke="black" stroke-width="4"/>
<path d="M226.5 68L242.5 70" stroke="black" stroke-width="4"/>
<path d="M251 72.5L265.5 76.5" stroke="black" stroke-width="4"/>
<path d="M276.655 202.832C279.164 185.723 283 154.326 283 132.393C283 124.824 282.863 117.599 280.948 111.094C279.001 104.481 275.237 98.6572 268.148 93.8148C261.131 89.0221 250.935 85.2431 236.194 82.4732C221.437 79.7001 201.986 77.9142 176.353 77.2004C150.698 76.4859 131.293 77.702 116.601 80.5306C101.911 83.3586 91.8039 87.823 84.8761 93.7042C70.9926 105.49 70.5461 122.428 70.0777 140.201L70.0721 140.414C69.4245 164.971 73.2768 188.945 76.2268 202.182C77.248 206.765 80.6221 210.381 85.0725 211.792C106.84 218.694 139.637 226.246 173.674 228.398C207.659 230.547 243.171 227.332 270.146 212.424C273.761 210.427 276.071 206.822 276.655 202.832Z" fill="black" stroke="black" stroke-width="4"/>
<mask id="mask0_240_157" style="mask-type:alpha" maskUnits="userSpaceOnUse" x="72" y="79" width="209" height="148">
<path d="M281 132.393C281 154.17 277.183 185.444 274.677 202.542C274.175 205.963 272.205 209.002 269.179 210.674C216.219 239.942 128.962 223.609 85.677 209.886C81.8932 208.686 79.0423 205.622 78.1789 201.747C75.2521 188.614 71.4294 164.811 72.0714 140.467C73.0232 104.372 73.975 76.3499 176.298 79.1996C278.62 82.0492 281 101.997 281 132.393Z" fill="black"/>
</mask>
<g mask="url(#mask0_240_157)">
<path fill-rule="evenodd" clip-rule="evenodd" d="M66.934 241.741C72.6182 207.774 83.2909 143.454 83.2909 141.247C83.2909 140.867 83.231 138.879 83.1355 135.706C82.5205 115.285 80.4271 45.7762 83.2909 39.7993C86.5998 32.8935 96.4344 27.1548 104.982 34.2552C109.665 38.145 117.989 54.3248 125.149 68.2411C130.457 78.558 135.125 87.6309 137.195 89.5301C137.543 89.8502 138.006 89.7391 138.428 89.5242C141.867 87.7735 153.219 84.8744 176.721 84.8334C176.721 84.8334 176.721 84.8333 176.721 84.8332V84.8332C176.721 84.8331 176.721 84.833 176.721 84.833C176.805 84.833 176.89 84.833 176.973 84.8331C177.057 84.833 177.141 84.833 177.226 84.833C177.226 84.833 177.226 84.8331 177.226 84.8332V84.8332C177.226 84.8333 177.226 84.8334 177.226 84.8334C200.728 84.8744 212.08 87.7735 215.519 89.5242C215.941 89.7391 216.403 89.8502 216.752 89.5301C218.822 87.6308 223.49 78.558 228.798 68.2411C235.957 54.3248 244.282 38.145 248.964 34.2552C257.512 27.1548 267.347 32.8935 270.656 39.7993C273.52 45.7762 271.426 115.285 270.811 135.706C270.716 138.879 270.656 140.867 270.656 141.247C270.656 143.454 281.329 207.774 287.013 241.741C287.209 242.912 286.303 243.959 285.116 243.959H177.226H176.721H68.8311C67.644 243.959 66.738 242.912 66.934 241.741Z" fill="#FFAD06"/>
<path fill-rule="evenodd" clip-rule="evenodd" d="M109.166 242.04V221.65C109.166 217.513 109.834 213.402 111.146 209.478L112.474 205.504C114.127 200.557 116.771 195.998 120.245 192.106L153.933 154.361C155.509 152.596 157.336 151.073 159.356 149.843C163.119 147.551 167.44 146.339 171.845 146.339H177.228H179.488H184.87C189.276 146.339 193.597 147.551 197.359 149.843C199.38 151.073 201.207 152.596 202.782 154.361L236.471 192.106C239.944 195.998 242.589 200.557 244.242 205.504L245.57 209.478C246.882 213.402 247.55 217.513 247.55 221.65V242.04C247.55 243.1 246.691 243.96 245.63 243.96H179.148C178.866 243.96 178.599 243.899 178.358 243.791C178.117 243.899 177.85 243.96 177.568 243.96H111.086C110.025 243.96 109.166 243.1 109.166 242.04Z" fill="white"/>
<path fill-rule="evenodd" clip-rule="evenodd" d="M160.832 204.559H192.651C192.651 195.85 185.45 188.791 176.741 188.791C168.032 188.791 160.832 195.85 160.832 204.559Z" fill="black"/>
<path fill-rule="evenodd" clip-rule="evenodd" d="M140.949 119.154C143.07 119.154 144.789 120.874 144.789 122.994V132.242C144.789 134.363 143.07 136.082 140.949 136.082H119.77C119.249 136.082 118.816 135.676 118.816 135.156V135.156C118.816 126.319 125.981 119.154 134.818 119.154H140.949Z" fill="black"/>
<path fill-rule="evenodd" clip-rule="evenodd" d="M178.269 179.632C172.189 179.593 162.664 175.807 158.597 167.289C153.493 156.6 156.178 146.777 178.269 146.749V146.749C178.285 146.749 178.301 146.749 178.317 146.749C178.333 146.749 178.349 146.749 178.366 146.749V146.749C200.457 146.777 203.142 156.6 198.038 167.289C193.971 175.807 184.446 179.593 178.366 179.632V179.633C178.35 179.633 178.333 179.633 178.317 179.633C178.301 179.633 178.285 179.633 178.269 179.633V179.632Z" fill="black"/>
<ellipse opacity="0.6" cx="176.93" cy="151.913" rx="10.3993" ry="3.61713" fill="white"/>
<path fill-rule="evenodd" clip-rule="evenodd" d="M212.287 119.154C210.166 119.154 208.447 120.874 208.447 122.994V132.244C208.447 134.364 210.166 136.084 212.287 136.084H233.467C233.987 136.084 234.421 135.677 234.421 135.156V135.156C234.421 126.319 227.256 119.154 218.419 119.154H212.287Z" fill="black"/>
</g>
<path opacity="0.3" d="M273.655 203.832C276.164 186.723 280 155.326 280 133.393C280 125.824 279.863 118.599 277.948 112.094C276.001 105.481 272.237 99.6572 265.148 94.8148C258.131 90.0221 247.935 86.2431 233.194 83.4732C218.437 80.7001 198.986 78.9142 173.353 78.2004C147.698 77.4859 128.293 78.702 113.601 81.5306C98.9111 84.3586 88.8039 88.823 81.8761 94.7042C67.9926 106.49 67.5461 123.428 67.0777 141.201L67.0721 141.414C66.4245 165.971 70.2768 189.945 73.2268 203.182C74.248 207.765 77.6221 211.381 82.0725 212.792C103.84 219.694 136.637 227.246 170.674 229.398C204.659 231.547 240.171 228.332 267.146 213.424C270.761 211.427 273.071 207.822 273.655 203.832Z" fill="black" stroke="black" stroke-width="4"/>
<path opacity="0.4" d="M85.4898 110.998C86.2898 102.198 94.1564 99.6651 97.9898 99.4984C114.157 96.9984 148.49 92.4984 156.49 94.4984C166.49 96.9984 162.49 112.998 146.49 117.998C130.49 122.998 125.49 108.998 113.49 147.498C101.49 185.998 97.9898 178.998 88.4898 177.998C78.9898 176.998 84.4898 121.998 85.4898 110.998Z" fill="white"/>
<path opacity="0.4" d="M248.126 175.299C254.126 175.299 249.5 162.5 251.126 158.299C257.46 152.632 270.026 148.099 269.626 175.299C269.126 209.299 258.126 206.799 225.626 206.799C193.126 206.799 206.049 190.45 209.126 185.299C213.188 178.5 240.626 175.299 248.126 175.299Z" fill="white"/>
<circle opacity="0.4" cx="362" cy="123" r="21" fill="white"/>
<circle opacity="0.2" cx="333" cy="153" r="12" fill="white"/>
<circle opacity="0.2" cx="311.5" cy="171.5" r="6.5" fill="white"/>
</svg>
