<svg width="455" height="497" viewBox="0 0 455 497" fill="none" xmlns="http://www.w3.org/2000/svg">
<path d="M291 268.349C286.185 260.812 281.342 257.238 277.318 255.807C272.5 254.092 269.51 259.241 270.27 264.298L281.076 336.199C281.647 340.002 284.211 343.209 287.796 344.602C289.88 345.413 291.654 346.882 292.943 348.709C318.473 384.92 354.648 383.865 375.016 377.14C379.393 375.696 382 371.419 382 366.81V338.904C382 330.327 372.589 323.23 364.255 321.201C337.114 314.596 300.224 282.787 291 268.349Z" fill="white"/>
<path fill-rule="evenodd" clip-rule="evenodd" d="M273.114 252.858C274.767 252.298 276.554 252.35 278.324 252.98C283.14 254.694 288.46 258.802 293.528 266.734C297.86 273.514 309.062 284.823 322.737 295.334C336.402 305.838 352.009 315.134 364.964 318.286C369.606 319.416 374.498 321.932 378.276 325.382C382.035 328.815 385 333.478 385 338.904V366.81C385 372.484 381.767 378.071 375.957 379.989C354.793 386.976 317.028 388.077 290.491 350.438C289.507 349.043 288.188 347.974 286.708 347.399C282.121 345.615 278.84 341.512 278.109 336.645L267.303 264.744C266.827 261.575 267.48 258.188 269.286 255.735C270.209 254.48 271.486 253.409 273.114 252.858ZM274.118 259.291C273.414 260.248 272.952 261.963 273.236 263.852L284.042 335.753C284.454 338.493 286.301 340.802 288.883 341.806C291.571 342.852 293.801 344.72 295.395 346.98C319.918 381.764 354.503 380.753 374.076 374.292C377.019 373.32 379 370.353 379 366.81V338.904C379 335.753 377.259 332.578 374.23 329.812C371.218 327.062 367.237 325.015 363.545 324.116C349.36 320.664 332.951 310.753 319.08 300.091C305.219 289.437 293.364 277.622 288.472 269.964C283.909 262.823 279.545 259.783 276.312 258.633C275.673 258.406 275.28 258.459 275.04 258.54C274.776 258.63 274.45 258.841 274.118 259.291Z" fill="black"/>
<path d="M340.447 303.165C340.06 299.615 342.84 296.515 346.411 296.515H425.068C428.626 296.515 431.403 299.594 431.036 303.133L421.557 394.618C421.24 397.676 418.663 400 415.589 400H356.381C353.319 400 350.748 397.694 350.416 394.65L340.447 303.165Z" fill="#0090FF"/>
<path fill-rule="evenodd" clip-rule="evenodd" d="M425.068 300.515H346.411C345.221 300.515 344.294 301.548 344.423 302.731L354.393 394.217C354.503 395.231 355.36 396 356.381 396H415.589C416.614 396 417.473 395.225 417.578 394.206L427.057 302.721C427.18 301.541 426.254 300.515 425.068 300.515ZM346.411 296.515C342.84 296.515 340.06 299.615 340.447 303.165L350.416 394.65C350.748 397.694 353.319 400 356.381 400H415.589C418.663 400 421.24 397.676 421.557 394.618L431.036 303.133C431.403 299.594 428.626 296.515 425.068 296.515H346.411Z" fill="black"/>
<path d="M414.658 329.301C427.035 321.684 438.553 323.636 445.363 326.765C448.272 328.102 449.893 331.093 450.222 334.277C455.608 386.385 438.603 387.666 420.658 383.301C402.158 378.801 395.158 341.301 414.658 329.301Z" fill="white"/>
<path fill-rule="evenodd" clip-rule="evenodd" d="M413.086 326.746C426.489 318.497 439.095 320.583 446.616 324.039C450.759 325.943 452.802 330.063 453.206 333.968C454.566 347.129 454.534 357.257 453.364 364.983C452.197 372.698 449.857 378.26 446.391 382.004C439.285 389.681 428.85 388.381 419.949 386.216C414.408 384.868 409.937 381.103 406.694 376.341C403.447 371.574 401.305 365.642 400.438 359.535C398.725 347.482 401.907 333.625 413.086 326.746ZM444.111 329.491C438.01 326.688 427.581 324.87 416.23 331.856C407.909 336.977 404.84 347.869 406.378 358.691C407.135 364.022 408.993 369.058 411.653 372.964C414.316 376.874 417.657 379.483 421.367 380.386C430.411 382.586 437.452 382.828 441.988 377.928C444.342 375.385 446.366 371.129 447.432 364.085C448.497 357.051 448.57 347.478 447.238 334.585C446.983 332.123 445.785 330.26 444.111 329.491Z" fill="black"/>
<path fill-rule="evenodd" clip-rule="evenodd" d="M416 346H404V342H416V346Z" fill="black"/>
<path fill-rule="evenodd" clip-rule="evenodd" d="M413 354H404V350H413V354Z" fill="black"/>
<path fill-rule="evenodd" clip-rule="evenodd" d="M416 363H404V359H416V363Z" fill="black"/>
<path fill-rule="evenodd" clip-rule="evenodd" d="M388.154 347.669L387.416 351.537L394.431 352.504L393.939 354.317L387.047 353.35C386.554 354.922 386.308 356.614 385.693 358.065C385.077 359.757 384.462 361.45 383.724 363.021C382.739 365.077 381.016 366.527 378.677 366.89C377.324 367.132 375.847 367.011 374.739 366.165C374.37 365.923 374 365.439 374 365.077C374 364.593 374.247 363.989 374.616 363.747C374.862 363.626 375.477 363.747 375.847 363.868C376.216 364.23 376.585 364.714 376.831 365.197C377.57 366.165 378.554 366.285 379.539 365.56C380.647 364.593 381.262 363.263 381.631 361.933C382.37 359.032 383.108 356.252 383.724 353.35V352.867L377.2 351.9L377.447 350.086L384.216 351.053L385.077 347.306L378.062 346.218L378.308 344.284L385.57 345.251C385.816 344.525 385.939 343.921 386.185 343.317C386.8 341.141 387.416 338.965 388.893 337.03C390.37 335.096 392.093 333.887 394.677 334.008C395.785 334.008 396.893 334.371 397.631 335.217C397.754 335.338 398 335.58 398 335.822C398 336.305 398 336.91 397.631 337.272C397.139 337.635 396.524 337.514 396.031 337.03C395.662 336.668 395.416 336.305 395.047 335.942C394.308 334.975 393.2 334.854 392.339 335.701C391.724 336.305 391.108 337.151 390.739 337.998C389.877 340.536 389.262 343.196 388.4 345.855L395.17 346.822L394.677 348.636L388.154 347.669Z" fill="white"/>
<path d="M390.039 288.302C395.94 284.83 402.662 283 409.509 283H421.174C424.355 283 426.934 285.579 426.934 288.76V297.177H374.95L390.039 288.302Z" fill="#0090FF"/>
<path fill-rule="evenodd" clip-rule="evenodd" d="M430.934 301.177H360.261L388.011 284.854C394.527 281.021 401.949 279 409.508 279H421.174C426.564 279 430.934 283.37 430.934 288.76V301.177ZM390.039 288.302C395.94 284.83 402.662 283 409.508 283H421.174C424.355 283 426.934 285.579 426.934 288.76V297.177H374.95L390.039 288.302Z" fill="black"/>
<path d="M341.408 298.279C341.74 296.94 342.941 296 344.32 296H426.68C428.059 296 429.26 296.94 429.592 298.279L431.078 304.279C431.547 306.171 430.115 308 428.166 308H342.834C340.885 308 339.453 306.171 339.922 304.279L341.408 298.279Z" fill="#77B6FF"/>
<path fill-rule="evenodd" clip-rule="evenodd" d="M344.32 292H426.68C429.897 292 432.701 294.194 433.474 297.317L434.961 303.317C436.054 307.731 432.714 312 428.166 312H342.834C338.286 312 334.946 307.731 336.039 303.317L337.525 297.317C338.299 294.194 341.102 292 344.32 292ZM344.32 296C342.941 296 341.74 296.94 341.408 298.279L339.922 304.279C339.453 306.171 340.885 308 342.834 308H428.166C430.115 308 431.547 306.171 431.078 304.279L429.592 298.279C429.26 296.94 428.059 296 426.68 296H344.32Z" fill="black"/>
<path d="M71.7089 247H99.8823H267.632C271.36 247 274.382 250.022 274.382 253.75V258.107C274.382 259.428 273.31 260.5 271.988 260.5C271.59 260.5 271.199 260.599 270.848 260.789L265.666 263.596C261.794 265.693 259.382 269.743 259.382 274.147V442.447C259.382 448.038 255.52 452.888 250.072 454.141L111.032 486.12C109.937 486.372 108.813 486.469 107.691 486.408L71.8134 484.458C67.0845 484.201 63.3818 480.292 63.3818 475.556C63.3818 474.526 63.5602 473.505 63.9089 472.536L65.5611 467.947C66.9996 463.952 66.1569 459.547 63.8309 455.995C34.2062 410.749 47.6716 310 60.189 256.03C61.4286 250.685 66.2223 247 71.7089 247Z" fill="#E7E7E7"/>
<path fill-rule="evenodd" clip-rule="evenodd" d="M58.2407 255.578C59.6977 249.296 65.3238 245 71.7088 245H267.632C272.464 245 276.382 248.918 276.382 253.75V258.107C276.382 260.533 274.415 262.5 271.988 262.5C271.923 262.5 271.859 262.516 271.801 262.547L266.619 265.354C263.392 267.102 261.382 270.477 261.382 274.147V442.447C261.382 448.97 256.877 454.628 250.52 456.09L111.48 488.07C110.203 488.363 108.891 488.476 107.582 488.405L71.7048 486.455C65.9151 486.141 61.3818 481.354 61.3818 475.556C61.3818 474.295 61.6001 473.044 62.0271 471.858L63.6793 467.27C64.8672 463.97 64.2056 460.218 62.1576 457.09C46.9787 433.908 42.9784 396.85 44.2077 359.219C45.4409 321.467 51.9609 282.654 58.2407 255.578ZM71.7088 249C67.1206 249 63.1594 252.075 62.1372 256.482C55.8996 283.376 49.4282 321.923 48.2056 359.349C46.979 396.896 51.0583 432.836 65.5041 454.899C68.1081 458.876 69.1318 463.933 67.4428 468.625L65.7906 473.213C65.5201 473.965 65.3818 474.757 65.3818 475.556C65.3818 479.229 68.2538 482.262 71.9218 482.461L107.8 484.411C108.734 484.462 109.671 484.381 110.584 484.171L249.623 452.192C254.164 451.148 257.382 447.106 257.382 442.447V274.147C257.382 269.009 260.196 264.284 264.714 261.837L269.896 259.03C270.538 258.682 271.258 258.5 271.988 258.5C272.206 258.5 272.382 258.324 272.382 258.107V253.75C272.382 251.127 270.255 249 267.632 249H71.7088Z" fill="black"/>
<path fill-rule="evenodd" clip-rule="evenodd" d="M15.263 412.052C16.1135 417.843 16.2527 418.791 12.1069 422.501C2.60694 431.001 -7.39305 456.501 26.6069 469.001C59.3041 481.022 58.2454 457.899 57.2268 435.654C57.1863 434.767 57.1457 433.882 57.1074 433.001C56.1074 410.001 58.6074 367.001 81.1074 349.001C78.1074 351.659 77.6074 425.501 81.1074 433.001C84.6074 440.501 106.107 481.001 116.607 481.001C122.039 481.001 123.323 486.887 124.819 493.746C124.838 493.831 124.856 493.915 124.874 494H248.865C280.611 474.905 307.611 438.022 297.607 372.501C286.469 299.542 278.884 268.554 274.516 257.809C272.914 253.867 267.994 253.509 263.739 253.522L92.5956 254.044C68.5907 262.96 21.9811 293.392 16.1069 349.001C11.8799 389.016 14.1647 404.573 15.263 412.052Z" fill="white"/>
<path fill-rule="evenodd" clip-rule="evenodd" d="M269.271 257.059C267.765 256.613 265.857 256.515 263.748 256.522L93.1442 257.043C69.5129 266 24.753 295.709 19.0903 349.316C14.9029 388.956 17.1552 404.291 18.2204 411.544L18.2447 411.709C18.4461 413.08 18.6283 414.32 18.7042 415.395C18.7836 416.521 18.7655 417.666 18.4586 418.825C17.8284 421.206 16.1642 422.896 14.1072 424.737C9.89513 428.505 5.54462 436.161 6.03852 444.064C6.50668 451.554 11.42 460.221 27.6421 466.185C35.6038 469.112 41.0706 469.723 44.7857 469.04C48.2872 468.395 50.4464 466.567 51.9023 463.786C53.448 460.833 54.2131 456.752 54.4743 451.782C54.7335 446.849 54.4861 441.387 54.2299 435.791C54.1894 434.905 54.1487 434.017 54.1102 433.131C53.6036 421.479 53.978 404.712 57.3581 388.513C60.7183 372.409 67.1624 356.315 79.2333 346.658L83.0969 351.246C83.4072 350.971 83.559 350.7 83.6054 350.603C83.5882 350.649 83.5464 350.775 83.4894 351.009C83.3601 351.54 83.2193 352.348 83.078 353.448C82.7976 355.631 82.5504 358.679 82.3449 362.36C81.9347 369.704 81.701 379.362 81.6698 389.195C81.6387 399.026 81.8102 408.987 82.2052 416.937C82.4029 420.916 82.6548 424.354 82.9598 427.004C83.1124 428.331 83.2742 429.424 83.441 430.271C83.6186 431.172 83.7669 431.606 83.8259 431.732C85.5203 435.363 91.7051 447.244 98.7545 458.189C102.283 463.667 105.961 468.806 109.346 472.541C111.042 474.412 112.587 475.846 113.934 476.79C115.337 477.774 116.204 478.001 116.607 478.001C118.551 478.001 120.277 478.542 121.734 479.6C123.146 480.626 124.133 482.01 124.862 483.439C125.969 485.612 126.681 488.329 127.286 491H248.027C263.213 481.714 277.153 468.253 286.186 449.366C295.354 430.195 299.568 405.218 294.642 372.954C283.492 299.92 275.948 269.298 271.737 258.939C271.393 258.092 270.695 257.481 269.271 257.059ZM83.6115 350.587C83.6259 350.552 83.6252 350.561 83.6054 350.603C83.608 350.596 83.6101 350.59 83.6115 350.587ZM91.5509 251.232C91.5542 251.231 91.5574 251.23 91.5607 251.228L92.0519 251.046L92.057 251.046C92.4167 250.915 92.7718 250.789 93.1221 250.667L93.2525 251.042L263.73 250.522C265.877 250.515 268.556 250.59 270.974 251.306C273.474 252.046 276.037 253.584 277.295 256.679C281.82 267.811 289.446 299.164 300.573 372.048C305.65 405.305 301.366 431.53 291.598 451.955C281.835 472.37 266.697 486.775 250.412 496.571L249.698 497H122.459L121.888 494.386C121.111 490.823 120.488 488.072 119.516 486.164C119.057 485.263 118.612 484.748 118.209 484.455C117.851 484.195 117.379 484.001 116.607 484.001C114.386 484.001 112.284 482.962 110.488 481.702C108.635 480.402 106.751 478.613 104.9 476.57C101.191 472.477 97.3067 467.022 93.7102 461.438C86.5096 450.258 80.1944 438.139 78.3888 434.269C78.0102 433.458 77.7523 432.436 77.5542 431.431C77.3452 430.37 77.1619 429.105 76.9991 427.69C76.6731 424.856 76.4133 421.274 76.2126 417.234C75.8107 409.146 75.6385 399.074 75.6699 389.176C75.7012 379.278 75.9363 369.508 76.3542 362.025C76.4381 360.522 76.5299 359.103 76.6296 357.788C69.9861 366.184 65.7671 377.587 63.2316 389.739C59.9867 405.29 59.6111 421.522 60.1045 432.871C60.1426 433.747 60.183 434.628 60.2235 435.514L60.2236 435.516L60.2276 435.602C60.4794 441.103 60.7422 446.841 60.466 452.097C60.1903 457.343 59.3675 462.463 57.218 466.569C54.9789 470.846 51.3356 473.935 45.8715 474.94C40.6207 475.907 33.9585 474.9 25.5717 471.817C7.79373 465.281 0.707044 454.947 0.0502057 444.438C-0.58089 434.34 4.81859 424.996 10.1065 420.265C12.1953 418.396 12.5344 417.758 12.6584 417.29C12.7286 417.024 12.7754 416.615 12.7191 415.818C12.6609 414.994 12.5133 413.976 12.2948 412.488C11.1588 404.753 8.87089 388.943 13.1235 348.686C19.1691 291.453 67.0364 260.337 91.5509 251.232Z" fill="black"/>
<path d="M142.361 355.668L144.694 327.668C144.867 325.595 146.6 324 148.681 324H231C233.209 324 235 325.791 235 328V356C235 358.209 233.209 360 231 360H146.347C144.007 360 142.167 358 142.361 355.668Z" fill="#ECD683"/>
<path fill-rule="evenodd" clip-rule="evenodd" d="M148.68 326C147.64 326 146.774 326.797 146.687 327.834L144.354 355.834C144.257 357 145.177 358 146.347 358H231C232.104 358 233 357.105 233 356V328C233 326.895 232.104 326 231 326H148.68ZM142.701 327.502C142.96 324.392 145.56 322 148.68 322H231C234.314 322 237 324.686 237 328V356C237 359.314 234.314 362 231 362H146.347C142.837 362 140.076 359 140.368 355.502L142.701 327.502Z" fill="black"/>
<path fill-rule="evenodd" clip-rule="evenodd" d="M176 343C176 346.314 173.314 349 170 349C166.686 349 164 346.314 164 343C164 339.686 166.686 337 170 337C173.314 337 176 339.686 176 343ZM195 343C195 346.314 192.314 349 189 349C185.686 349 183 346.314 183 343C183 339.686 185.686 337 189 337C192.314 337 195 339.686 195 343ZM207 349C210.314 349 213 346.314 213 343C213 339.686 210.314 337 207 337C203.686 337 201 339.686 201 343C201 346.314 203.686 349 207 349Z" fill="black"/>
<path fill-rule="evenodd" clip-rule="evenodd" d="M82.3461 344.436C85.3829 342.459 88.3597 340.956 90.212 340.162L91.7876 343.838C90.1399 344.544 87.3667 345.941 84.5285 347.789C81.6693 349.65 78.8848 351.88 77.085 354.219L73.9146 351.781C76.1148 348.92 79.3303 346.4 82.3461 344.436Z" fill="black"/>
<path fill-rule="evenodd" clip-rule="evenodd" d="M82.7647 353.498C82.4039 353.627 82.0352 353.759 81.6541 353.89L80.3457 350.11C80.6597 350.002 80.9836 349.886 81.3178 349.766C83.1441 349.11 85.278 348.345 87.7784 348.098C90.8212 347.797 94.3261 348.25 98.7878 350.162L97.2121 353.839C93.2737 352.151 90.4453 351.854 88.1715 352.078C86.2029 352.273 84.5852 352.849 82.7647 353.498Z" fill="black"/>
<path d="M70.5001 259.5C69.3869 250.594 72.8886 247.304 76.5257 246.463C78.7676 245.944 81.0001 244.287 81.0001 241.986C81.0001 240.05 82.5493 238.468 84.4858 238.429L273.233 234.577C275.685 234.527 278.094 235.229 280.135 236.59L283 238.5C312 263 211 288.5 177.5 289.5C144 290.5 72.5001 275.5 70.5001 259.5Z" fill="white"/>
<path fill-rule="evenodd" clip-rule="evenodd" d="M273.172 231.577C276.237 231.515 279.248 232.393 281.799 234.094L284.806 236.098L284.936 236.208C288.965 239.612 291.239 243.475 291.167 247.736C291.096 251.897 288.791 255.611 285.571 258.797C279.167 265.133 267.68 270.828 254.73 275.626C228.679 285.276 194.73 291.987 177.589 292.499C160.477 293.009 133.937 289.452 111.454 283.784C100.205 280.948 89.8121 277.545 82.0426 273.777C78.1654 271.897 74.8136 269.866 72.32 267.679C69.8718 265.533 67.9056 262.931 67.5232 259.872C66.9177 255.028 67.5053 251.247 69.1403 248.445C70.816 245.573 73.3674 244.114 75.8498 243.54C76.5404 243.38 77.1733 243.05 77.5791 242.679C77.9661 242.325 78 242.089 78 241.986C78 238.417 80.8554 235.502 84.4245 235.429L273.172 231.577ZM278.47 239.086C276.94 238.066 275.134 237.539 273.295 237.576L84.5469 241.428C84.2431 241.434 84 241.683 84 241.986C84 244.185 82.9177 245.928 81.628 247.107C80.3571 248.269 78.7528 249.027 77.2015 249.385C76.0468 249.652 75.0287 250.259 74.3226 251.469C73.5758 252.749 72.9691 255.066 73.4769 259.128C73.5944 260.068 74.3001 261.436 76.2757 263.168C78.206 264.86 81.0299 266.618 84.6605 268.379C91.9066 271.892 101.857 275.177 112.921 277.966C135.062 283.548 161.023 286.991 177.41 286.501C193.77 286.013 227.071 279.474 252.645 269.999C265.507 265.235 275.927 259.898 281.351 254.532C284.045 251.866 285.135 249.56 285.167 247.634C285.198 245.83 284.308 243.573 281.19 240.899L278.47 239.086Z" fill="black"/>
<path d="M46 111C46 118.18 40.1797 124 33 124C25.8203 124 20 118.18 20 111C20 103.82 25.8203 98 33 98C40.1797 98 46 103.82 46 111Z" fill="white"/>
<path fill-rule="evenodd" clip-rule="evenodd" d="M33 100C26.9249 100 22 104.925 22 111C22 117.075 26.9249 122 33 122C39.0751 122 44 117.075 44 111C44 104.925 39.0751 100 33 100ZM18 111C18 102.716 24.7157 96 33 96C41.2843 96 48 102.716 48 111C48 119.284 41.2843 126 33 126C24.7157 126 18 119.284 18 111Z" fill="black"/>
<path d="M307.5 111C307.5 118.18 313.32 124 320.5 124C327.68 124 333.5 118.18 333.5 111C333.5 103.82 327.68 98 320.5 98C313.32 98 307.5 103.82 307.5 111Z" fill="white"/>
<path fill-rule="evenodd" clip-rule="evenodd" d="M320.5 100C326.575 100 331.5 104.925 331.5 111C331.5 117.075 326.575 122 320.5 122C314.425 122 309.5 117.075 309.5 111C309.5 104.925 314.425 100 320.5 100ZM335.5 111C335.5 102.716 328.784 96 320.5 96C312.216 96 305.5 102.716 305.5 111C305.5 119.284 312.216 126 320.5 126C328.784 126 335.5 119.284 335.5 111Z" fill="black"/>
<path d="M33.2894 124.224L38.5584 98.5817C39.1065 95.9144 41.4542 94 44.1773 94C47.9015 94 50.6384 97.4937 49.7468 101.11L43.4797 126.526C42.9042 128.86 40.8107 130.5 38.4071 130.5C35.0989 130.5 32.6236 127.464 33.2894 124.224Z" fill="white"/>
<path fill-rule="evenodd" clip-rule="evenodd" d="M36.5993 98.1792C37.3385 94.5819 40.5048 92 44.1773 92C49.2 92 52.8911 96.7117 51.6886 101.588L45.4215 127.005C44.6257 130.232 41.7308 132.5 38.407 132.5C33.8325 132.5 30.4096 128.302 31.3304 123.821L36.5993 98.1792ZM44.1773 96C42.4036 96 40.8744 97.2469 40.5174 98.9843L35.2485 124.626C34.8375 126.626 36.3653 128.5 38.407 128.5C39.8906 128.5 41.1826 127.488 41.5378 126.047L47.8049 100.631C48.3857 98.2756 46.603 96 44.1773 96Z" fill="black"/>
<path d="M320.21 124.224L314.941 98.5817C314.393 95.9144 312.046 94 309.322 94C305.598 94 302.861 97.4937 303.753 101.11L310.02 126.526C310.596 128.86 312.689 130.5 315.093 130.5C318.401 130.5 320.876 127.464 320.21 124.224Z" fill="white"/>
<path fill-rule="evenodd" clip-rule="evenodd" d="M316.9 98.1792C316.161 94.5819 312.995 92 309.322 92C304.3 92 300.609 96.7117 301.811 101.588L308.078 127.005C308.874 130.232 311.769 132.5 315.093 132.5C319.667 132.5 323.09 128.302 322.169 123.821L316.9 98.1792ZM309.322 96C311.096 96 312.625 97.2469 312.982 98.9843L318.251 124.626C318.662 126.626 317.134 128.5 315.093 128.5C313.609 128.5 312.317 127.488 311.962 126.047L305.695 100.631C305.114 98.2756 306.897 96 309.322 96Z" fill="black"/>
<path d="M40.2219 144C37.0219 190 69.2219 232.833 85.7219 248.5C166.222 293.5 255.722 256.5 276.722 241C297.722 225.5 312.222 189.5 308.222 129.5C304.222 69.5 264.222 3 173.722 3C83.2217 3 44.2219 86.5 40.2219 144Z" fill="white"/>
<path fill-rule="evenodd" clip-rule="evenodd" d="M76.913 53.7654C55.7642 81.2895 45.1802 115.951 43.2145 144.208C41.6663 166.463 48.6811 188.104 58.2378 206.226C67.685 224.139 79.4969 238.385 87.516 246.066C126.921 267.975 168.557 269.949 203.064 264.475C237.748 258.972 264.898 245.998 274.94 238.586C294.693 224.007 309.205 189.349 305.228 129.7C303.265 100.247 292.465 69.3 271.184 45.762C249.965 22.294 218.162 6 173.722 6C129.533 6 97.9917 26.3324 76.913 53.7654ZM72.1553 50.1096C94.2015 21.4176 127.41 0 173.722 0C219.781 0 253.228 16.956 275.634 41.738C297.978 66.45 309.178 98.7534 311.215 129.3C315.238 189.651 300.75 226.993 278.503 243.414C267.545 251.502 239.445 264.778 204.004 270.4C168.483 276.036 125.255 274.036 84.2579 251.119L83.9292 250.935L83.6561 250.676C75.1783 242.626 62.8013 227.741 52.9307 209.024C43.0624 190.312 35.5772 167.537 37.229 143.792C39.2633 114.549 50.1792 78.7105 72.1553 50.1096Z" fill="black"/>
<path fill-rule="evenodd" clip-rule="evenodd" d="M176.935 68.4989C127.982 66.9069 91.9715 76.4701 80.2692 81.3461L78.7307 77.6538C91.0284 72.5298 127.618 62.893 177.065 64.501L176.935 68.4989Z" fill="black"/>
<path fill-rule="evenodd" clip-rule="evenodd" d="M216.5 68.5H186V64.5H216.5V68.5Z" fill="black"/>
<path fill-rule="evenodd" clip-rule="evenodd" d="M242.252 71.9846L226.252 69.9846L226.748 66.0154L242.748 68.0154L242.252 71.9846Z" fill="black"/>
<path fill-rule="evenodd" clip-rule="evenodd" d="M264.968 78.428L250.468 74.428L251.532 70.572L266.032 74.572L264.968 78.428Z" fill="black"/>
<path d="M281 132.393C281 154.17 277.183 185.444 274.677 202.542C274.175 205.963 272.205 209.002 269.179 210.674C216.219 239.942 128.962 223.609 85.677 209.886C81.8932 208.686 79.0423 205.622 78.1789 201.747C75.2521 188.614 71.4294 164.811 72.0714 140.467C73.0232 104.372 73.975 76.3499 176.298 79.1996C278.62 82.0492 281 101.997 281 132.393Z" fill="black"/>
<path fill-rule="evenodd" clip-rule="evenodd" d="M285 132.393C285 154.481 281.144 186.001 278.634 203.122C277.966 207.681 275.318 211.852 271.114 214.175C243.643 229.356 207.674 232.552 173.547 230.394C139.32 228.23 106.36 220.64 84.4681 213.699C79.3509 212.076 75.4538 207.909 74.2746 202.618C71.3014 189.276 67.4196 165.13 68.0727 140.362C68.0779 140.167 68.083 139.972 68.0881 139.777C68.5469 122.31 69.0135 104.547 83.5818 92.1795C90.8637 85.9977 101.337 81.4325 116.223 78.5666C131.113 75.6998 150.679 74.4846 176.409 75.2011C202.093 75.9164 221.66 77.7072 236.564 80.5076C251.433 83.3016 261.935 87.1491 269.276 92.1633C276.762 97.2768 280.795 103.493 282.867 110.529C284.874 117.35 285 124.854 285 132.393ZM274.677 202.542C277.183 185.444 281 154.17 281 132.393C281 101.997 278.62 82.0492 176.298 79.1996C73.975 76.3499 73.0232 104.372 72.0713 140.467C71.4294 164.811 75.2521 188.614 78.1789 201.747C79.0423 205.622 81.8932 208.686 85.677 209.886C128.962 223.609 216.219 239.942 269.179 210.674C272.205 209.002 274.175 205.963 274.677 202.542Z" fill="black"/>
<mask id="mask0_131_83" style="mask-type:alpha" maskUnits="userSpaceOnUse" x="72" y="79" width="209" height="148">
<path d="M281 132.393C281 154.17 277.183 185.444 274.677 202.542C274.175 205.963 272.205 209.002 269.179 210.674C216.219 239.942 128.962 223.609 85.677 209.886C81.8932 208.686 79.0423 205.622 78.1789 201.747C75.2521 188.614 71.4294 164.811 72.0714 140.467C73.0232 104.372 73.975 76.3499 176.298 79.1996C278.62 82.0492 281 101.997 281 132.393Z" fill="black"/>
</mask>
<g mask="url(#mask0_131_83)">
<path fill-rule="evenodd" clip-rule="evenodd" d="M66.934 241.741C72.6182 207.774 83.2909 143.454 83.2909 141.247C83.2909 140.867 83.231 138.879 83.1355 135.706C82.5205 115.285 80.4271 45.7762 83.2909 39.7993C86.5998 32.8935 96.4344 27.1548 104.982 34.2552C109.665 38.145 117.989 54.3248 125.149 68.2411C130.457 78.558 135.125 87.6309 137.195 89.5301C137.543 89.8502 138.006 89.7391 138.428 89.5242C141.867 87.7735 153.219 84.8744 176.721 84.8334C176.721 84.8334 176.721 84.8333 176.721 84.8332C176.721 84.8331 176.721 84.833 176.721 84.833C176.805 84.833 176.89 84.833 176.973 84.8331C177.057 84.833 177.141 84.833 177.226 84.833C177.226 84.833 177.226 84.8331 177.226 84.8332C177.226 84.8333 177.226 84.8334 177.226 84.8334C200.728 84.8744 212.08 87.7735 215.519 89.5242C215.941 89.7391 216.403 89.8502 216.752 89.5301C218.822 87.6308 223.49 78.558 228.798 68.2411C235.957 54.3248 244.282 38.145 248.964 34.2552C257.512 27.1548 267.347 32.8935 270.656 39.7993C273.52 45.7762 271.426 115.285 270.811 135.706C270.716 138.879 270.656 140.867 270.656 141.247C270.656 143.454 281.329 207.774 287.013 241.741C287.209 242.912 286.303 243.959 285.116 243.959H177.226H176.721H68.8311C67.644 243.959 66.738 242.912 66.934 241.741Z" fill="#FFAD06"/>
<path fill-rule="evenodd" clip-rule="evenodd" d="M109.166 242.04V221.65C109.166 217.513 109.834 213.402 111.146 209.478L112.474 205.504C114.127 200.557 116.771 195.998 120.245 192.106L153.933 154.361C155.509 152.596 157.336 151.073 159.357 149.843C163.119 147.551 167.44 146.339 171.845 146.339H177.228H179.488H184.87C189.276 146.339 193.597 147.551 197.359 149.843C199.38 151.073 201.207 152.596 202.782 154.361L236.471 192.106C239.945 195.998 242.589 200.557 244.242 205.504L245.57 209.478C246.882 213.402 247.55 217.513 247.55 221.65V242.04C247.55 243.101 246.691 243.96 245.63 243.96H179.148C178.866 243.96 178.599 243.9 178.358 243.791C178.117 243.9 177.85 243.96 177.568 243.96H111.086C110.025 243.96 109.166 243.101 109.166 242.04Z" fill="white"/>
<path fill-rule="evenodd" clip-rule="evenodd" d="M160.832 204.559H192.651C192.651 195.85 185.45 188.791 176.741 188.791C168.032 188.791 160.832 195.85 160.832 204.559Z" fill="black"/>
<path fill-rule="evenodd" clip-rule="evenodd" d="M140.949 119.154C143.07 119.154 144.789 120.874 144.789 122.994V132.242C144.789 134.363 143.07 136.082 140.949 136.082H119.77C119.249 136.082 118.816 135.676 118.816 135.156C118.816 126.319 125.981 119.154 134.818 119.154H140.949Z" fill="black"/>
<path fill-rule="evenodd" clip-rule="evenodd" d="M178.269 179.632C172.189 179.593 162.664 175.807 158.597 167.289C153.493 156.6 156.178 146.777 178.269 146.749V146.749C178.285 146.749 178.301 146.749 178.317 146.749C178.333 146.749 178.35 146.749 178.366 146.749V146.749C200.457 146.777 203.142 156.6 198.038 167.289C193.971 175.807 184.446 179.593 178.366 179.632V179.633C178.35 179.633 178.334 179.633 178.317 179.633C178.301 179.633 178.285 179.633 178.269 179.633V179.632Z" fill="black"/>
<path opacity="0.6" d="M187.329 151.913C187.329 153.911 182.673 155.53 176.93 155.53C171.186 155.53 166.531 153.911 166.531 151.913C166.531 149.915 171.186 148.296 176.93 148.296C182.673 148.296 187.329 149.915 187.329 151.913Z" fill="white"/>
<path fill-rule="evenodd" clip-rule="evenodd" d="M212.287 119.154C210.166 119.154 208.447 120.874 208.447 122.994V132.244C208.447 134.364 210.166 136.084 212.287 136.084H233.467C233.987 136.084 234.421 135.677 234.421 135.156C234.421 126.319 227.256 119.154 218.419 119.154H212.287Z" fill="black"/>
</g>
<path opacity="0.3" d="M278 133.393C278 155.17 274.183 186.444 271.677 203.542C271.175 206.963 269.205 210.002 266.179 211.674C213.219 240.942 125.962 224.609 82.677 210.886C78.8932 209.686 76.0423 206.622 75.1789 202.747C72.2521 189.614 68.4294 165.811 69.0714 141.467C70.0232 105.372 70.975 77.3499 173.298 80.1996C275.62 83.0492 278 102.997 278 133.393Z" fill="black"/>
<path opacity="0.3" fill-rule="evenodd" clip-rule="evenodd" d="M282 133.393C282 155.481 278.144 187.001 275.634 204.122C274.966 208.681 272.318 212.852 268.114 215.175C240.643 230.356 204.674 233.552 170.547 231.394C136.32 229.23 103.36 221.64 81.4681 214.699C76.3509 213.076 72.4538 208.909 71.2746 203.618C68.3014 190.276 64.4196 166.13 65.0727 141.362C65.0779 141.167 65.083 140.972 65.0881 140.777C65.5469 123.31 66.0135 105.547 80.5818 93.1795C87.8637 86.9977 98.3367 82.4325 113.223 79.5666C128.113 76.6998 147.679 75.4846 173.409 76.2011C199.093 76.9164 218.66 78.7072 233.564 81.5076C248.433 84.3016 258.935 88.1491 266.276 93.1633C273.762 98.2768 277.795 104.493 279.867 111.529C281.874 118.35 282 125.854 282 133.393ZM271.677 203.542C274.183 186.444 278 155.17 278 133.393C278 102.997 275.62 83.0492 173.298 80.1996C70.975 77.3499 70.0232 105.372 69.0713 141.467C68.4294 165.811 72.2521 189.614 75.1789 202.747C76.0423 206.622 78.8932 209.686 82.677 210.886C125.962 224.609 213.219 240.942 266.179 211.674C269.205 210.002 271.175 206.963 271.677 203.542Z" fill="black"/>
<path opacity="0.4" d="M85.4898 110.998C86.2898 102.198 94.1564 99.6651 97.9898 99.4984C114.157 96.9984 148.49 92.4984 156.49 94.4984C166.49 96.9984 162.49 112.998 146.49 117.998C130.49 122.998 125.49 108.998 113.49 147.498C101.49 185.998 97.9898 178.998 88.4898 177.998C78.9898 176.998 84.4898 121.998 85.4898 110.998Z" fill="white"/>
<path opacity="0.4" d="M248.126 175.299C254.126 175.299 249.5 162.5 251.126 158.299C257.46 152.632 270.026 148.099 269.626 175.299C269.126 209.299 258.126 206.799 225.626 206.799C193.126 206.799 206.049 190.45 209.126 185.299C213.187 178.5 240.626 175.299 248.126 175.299Z" fill="white"/>
</svg>
