<svg width="25" height="24" viewBox="0 0 25 24" fill="none" xmlns="http://www.w3.org/2000/svg">
<path d="M19.6526 5.39354C19.6465 5.38188 19.6363 5.37274 19.624 5.36776C18.1976 4.72355 16.6924 4.26417 15.1459 4.00113C15.1171 3.99586 15.0881 4.00937 15.074 4.03465C14.869 4.40085 14.683 4.777 14.5165 5.16166C12.8495 4.91257 11.1539 4.91257 9.48694 5.16166C9.31938 4.77602 9.13034 4.39978 8.92066 4.03465C8.90594 4.00997 8.87738 3.99668 8.84867 4.00113C7.30207 4.26362 5.79673 4.72303 4.37053 5.3678C4.35833 5.37289 4.34802 5.38159 4.34105 5.3927C1.48894 9.5854 0.707633 13.675 1.09091 17.714C1.09309 17.734 1.10342 17.7523 1.11954 17.7646C2.7803 18.9751 4.63788 19.899 6.61301 20.497C6.64149 20.5055 6.67229 20.4955 6.6902 20.4721C7.11441 19.904 7.4903 19.3023 7.81403 18.6733C7.82303 18.6558 7.82401 18.6354 7.81672 18.6172C7.80944 18.599 7.79458 18.5847 7.77591 18.578C7.18316 18.3547 6.60931 18.0856 6.05975 17.7731C6.03948 17.7614 6.02648 17.7405 6.02509 17.7174C6.0237 17.6942 6.0341 17.672 6.05283 17.658C6.16847 17.5729 6.28211 17.4853 6.39364 17.3951C6.4136 17.3789 6.44114 17.3753 6.46473 17.3857C10.0651 19.0032 13.9631 19.0032 17.5209 17.3857C17.5446 17.3746 17.5726 17.378 17.5929 17.3943C17.7045 17.4849 17.8185 17.5729 17.9346 17.658C17.9534 17.6718 17.9639 17.694 17.9627 17.7171C17.9615 17.7402 17.9487 17.7612 17.9285 17.7731C17.3802 18.0882 16.8058 18.3572 16.2115 18.5771C16.1928 18.5841 16.1781 18.5986 16.171 18.617C16.1638 18.6353 16.165 18.6558 16.1741 18.6733C16.5033 19.2988 16.8786 19.8997 17.2971 20.4712C17.3145 20.4952 17.3456 20.5056 17.3743 20.4969C19.3529 19.9009 21.2138 18.9769 22.8766 17.7646C22.893 17.7529 22.9034 17.7347 22.9052 17.7148C23.3641 13.0454 22.137 8.98926 19.6526 5.39354ZM8.35172 15.2547C7.26773 15.2547 6.37456 14.2755 6.37456 13.0729C6.37456 11.8703 7.25041 10.891 8.35172 10.891C9.46164 10.891 10.3462 11.8788 10.3289 13.0728C10.3289 14.2755 9.45296 15.2547 8.35172 15.2547ZM15.6619 15.2547C14.5779 15.2547 13.6848 14.2755 13.6848 13.0729C13.6848 11.8703 14.5606 10.891 15.6619 10.891C16.7719 10.891 17.6564 11.8788 17.639 13.0728C17.639 14.2755 16.7719 15.2547 15.6619 15.2547Z" fill="white"/>
</svg>
