<svg width="56" height="56" viewBox="0 0 56 56" fill="none" xmlns="http://www.w3.org/2000/svg">
<g clip-path="url(#clip0_519_365)">
<path d="M28 0.875C13.0156 0.875 0.875 13.0156 0.875 28C0.875 42.9844 13.0156 55.125 28 55.125C42.9844 55.125 55.125 42.9844 55.125 28C55.125 13.0156 42.9844 0.875 28 0.875ZM41.3219 19.4578L36.8703 40.4359C36.5422 41.9234 35.6563 42.2844 34.4203 41.5844L27.6391 36.5859L24.3688 39.7359C24.0078 40.0969 23.7016 40.4031 23.0016 40.4031L23.4828 33.5016L36.05 22.1484C36.5969 21.6672 35.9297 21.3937 35.2078 21.875L19.6766 31.6531L12.9828 29.5641C11.5281 29.1047 11.4953 28.1094 13.2891 27.4094L39.4406 17.325C40.6547 16.8875 41.7156 17.6203 41.3219 19.4578Z" fill="#4395D5"/>
</g>
<defs>
<clipPath id="clip0_519_365">
<rect width="56" height="56" fill="white"/>
</clipPath>
</defs>
</svg>
