<svg width="56" height="56" viewBox="0 0 56 56" fill="none" xmlns="http://www.w3.org/2000/svg">
<circle cx="28" cy="28" r="28" fill="#0084FF"/>
<path d="M39.0868 23.5009V22.7074C40.2197 21.9151 41.1903 20.8053 42 19.6956C41.0293 20.1717 39.8965 20.4891 38.7625 20.6466C39.8965 20.013 40.8672 18.7445 41.3525 17.4761C40.2197 18.1097 39.0868 18.5858 37.7918 18.9021C36.8212 17.7923 35.2018 17 33.5837 17C30.3473 17 27.9195 19.5369 27.9195 22.8673C27.9195 23.3422 27.9195 23.8183 28.0805 24.2933C23.387 23.977 19.1788 21.5988 16.2657 17.951C15.4572 18.5858 15.134 19.538 15.134 20.6466C15.134 22.7086 16.1035 24.6107 17.7228 25.7216C16.751 25.7216 15.9425 25.4042 15.1328 24.9281C15.1328 27.7824 17.0753 30.3193 19.6653 30.7954C19.1788 30.9541 18.6935 30.9541 18.207 30.9541C17.8838 30.9541 17.5607 30.9541 17.0753 30.7954C17.7228 33.1735 19.9885 34.9181 22.4163 34.9181C20.421 36.5663 17.8982 37.465 15.295 37.455C14.8097 37.455 14.3232 37.455 14 37.2963C16.59 39.0408 19.5032 39.9919 22.7395 39.9919C33.2605 40.3093 39.0868 31.2703 39.0868 23.5009Z" fill="white"/>
</svg>
