<svg width="24" height="24" viewBox="0 0 24 24" fill="none" xmlns="http://www.w3.org/2000/svg">
<path d="M20.3151 8.6257V8.03057C21.1647 7.43631 21.8928 6.604 22.5 5.77169C21.772 6.12877 20.9224 6.36682 20.0719 6.48498C20.9224 6.00974 21.6504 5.05841 22.0144 4.10707C21.1648 4.58231 20.3151 4.93938 19.3439 5.17657C18.6159 4.34426 17.4014 3.75 16.1877 3.75C13.7605 3.75 11.9396 5.65267 11.9396 8.15046C11.9396 8.50667 11.9396 8.86375 12.0604 9.21996C8.54025 8.98277 5.38412 7.19913 3.19925 4.46328C2.59288 4.93938 2.3505 5.65353 2.3505 6.48498C2.3505 8.03144 3.07763 9.45801 4.29213 10.2912C3.56325 10.2912 2.95688 10.0531 2.34963 9.69605C2.34963 11.8368 3.8065 13.7394 5.749 14.0965C5.38413 14.2155 5.02013 14.2155 4.65525 14.2155C4.41288 14.2155 4.1705 14.2155 3.8065 14.0965C4.29212 15.8802 5.99138 17.1886 7.81225 17.1886C6.31578 18.4247 4.42369 19.0987 2.47125 19.0912C2.10725 19.0912 1.74238 19.0912 1.5 18.9722C3.4425 20.2806 5.62737 20.9939 8.05462 20.9939C15.9454 21.232 20.3151 14.4527 20.3151 8.6257Z" fill="white"/>
</svg>
