<svg width="56" height="56" viewBox="0 0 56 56" fill="none" xmlns="http://www.w3.org/2000/svg">
<circle cx="28" cy="28" r="28" fill="#C54C35"/>
<path d="M41.4156 21.2531C41.0938 20.0469 40.1437 19.0969 38.9406 18.775C36.7562 18.1875 28 18.1875 28 18.1875C28 18.1875 19.2437 18.1875 17.0594 18.7719C15.8531 19.0937 14.9062 20.0438 14.5844 21.25C14 23.4375 14 28 14 28C14 28 14 32.5625 14.5844 34.7469C14.9062 35.9531 15.8562 36.9031 17.0594 37.225C19.2437 37.8125 28 37.8125 28 37.8125C28 37.8125 36.7562 37.8125 38.9406 37.225C40.1469 36.9031 41.0938 35.9531 41.4156 34.7469C42 32.5625 42 28 42 28C42 28 42 23.4375 41.4156 21.2531ZM25.2188 32.1875V23.8125L32.4688 27.9688L25.2188 32.1875Z" fill="white"/>
</svg>
