<svg width="418" height="186" viewBox="0 0 418 186" fill="none" xmlns="http://www.w3.org/2000/svg">
<path fill-rule="evenodd" clip-rule="evenodd" d="M118.685 159.352C122.883 134.276 131.173 84.3492 131.173 82.6646C131.173 82.3801 131.128 80.8895 131.056 78.5098C130.595 63.1985 129.026 11.0794 131.173 6.59783C133.654 1.41974 141.028 -2.88317 147.437 2.44077C150.949 5.35745 157.19 17.4892 162.559 27.9239C166.884 36.3307 170.642 43.6358 171.95 44.133C172.016 44.1582 172.069 44.1372 172.129 44.0993C174.147 42.8262 182.593 40.3978 201.226 40.3651C201.226 40.3651 201.226 40.365 201.226 40.3649V40.3649C201.226 40.3648 201.226 40.3648 201.226 40.3648C201.289 40.3648 201.353 40.3648 201.416 40.3648C201.479 40.3648 201.543 40.3648 201.606 40.3648C201.606 40.3648 201.607 40.3648 201.607 40.3649V40.3649C201.607 40.365 201.607 40.3651 201.607 40.3651C220.239 40.3978 228.686 42.8262 230.703 44.0993C230.763 44.1372 230.816 44.1582 230.883 44.133C232.19 43.6358 235.948 36.3306 240.274 27.9239C245.642 17.4892 251.884 5.35744 255.395 2.44077C261.804 -2.88317 269.178 1.41974 271.659 6.59783C273.807 11.0794 272.237 63.1985 271.776 78.5098C271.704 80.8895 271.659 82.3801 271.659 82.6646C271.659 84.3492 279.949 134.276 284.148 159.352C284.177 159.528 284.04 159.679 283.862 159.679H201.607H201.226H118.97C118.792 159.679 118.655 159.528 118.685 159.352Z" fill="#FFAD06"/>
<path fill-rule="evenodd" clip-rule="evenodd" d="M254.336 159.391V139.204C254.336 138.583 254.235 137.967 254.039 137.378L250.352 126.346C250.104 125.604 249.707 124.92 249.186 124.337L219.557 91.139C219.179 90.7156 218.74 90.3504 218.256 90.0551L213.768 87.3221C212.866 86.7723 211.829 86.4814 210.772 86.4814H201.607L194.135 86.4815C193.078 86.4815 192.041 86.7723 191.139 87.3221L186.651 90.0551C186.167 90.3504 185.728 90.7156 185.35 91.139L155.721 124.337C155.2 124.92 154.803 125.604 154.555 126.346L150.868 137.378C150.672 137.967 150.571 138.583 150.571 139.204V159.391C150.571 159.55 150.7 159.679 150.859 159.679H203.012C203.013 159.679 203.014 159.679 203.015 159.679H254.048C254.207 159.679 254.336 159.55 254.336 159.391Z" fill="white"/>
<path fill-rule="evenodd" clip-rule="evenodd" d="M192.914 118.313C190.926 118.313 189.314 119.925 189.314 121.913V129.897C189.314 130.03 189.421 130.137 189.554 130.137H212.932C213.065 130.137 213.172 130.03 213.172 129.897V121.913C213.172 119.925 211.561 118.313 209.572 118.313H192.914Z" fill="black"/>
<path fill-rule="evenodd" clip-rule="evenodd" d="M176.71 66.098C177.028 66.098 177.286 66.3559 177.286 66.674V78.215C177.286 78.5332 177.028 78.791 176.71 78.791H158.387C158.068 78.791 157.811 78.5332 157.811 78.215V72.578C157.811 68.9992 160.712 66.098 164.291 66.098H176.71Z" fill="black"/>
<path fill-rule="evenodd" clip-rule="evenodd" d="M202.462 111.446C207.021 111.416 214.162 108.577 217.212 102.191C221.038 94.1763 219.025 86.8108 202.462 86.7892V86.7892C202.456 86.7892 202.449 86.7892 202.443 86.7892C202.425 86.7892 202.407 86.7892 202.389 86.7892V86.7893C185.825 86.8108 183.812 94.1763 187.639 102.191C190.688 108.577 197.83 111.416 202.389 111.446V111.446C202.4 111.446 202.412 111.446 202.423 111.446C202.436 111.446 202.449 111.446 202.462 111.446V111.446Z" fill="black"/>
<ellipse opacity="0.6" cx="202.309" cy="90.6614" rx="7.79751" ry="2.71218" fill="white"/>
<path fill-rule="evenodd" clip-rule="evenodd" d="M225.59 66.098C225.272 66.098 225.014 66.3559 225.014 66.674V78.215C225.014 78.5332 225.272 78.791 225.59 78.791H243.914C244.232 78.791 244.49 78.5332 244.49 78.215V72.578C244.49 68.9992 241.589 66.098 238.01 66.098H225.59Z" fill="black"/>
<path d="M221.741 110.465C221.723 110.295 221.856 110.147 222.027 110.147H286.682C286.853 110.147 286.986 110.295 286.969 110.465L279.162 185.347C279.147 185.494 279.023 185.605 278.875 185.605H229.834C229.686 185.605 229.563 185.494 229.547 185.347L221.741 110.465Z" fill="#0090FF"/>
<path fill-rule="evenodd" clip-rule="evenodd" d="M254.455 171.971C242.509 171.971 232.735 162.197 232.735 150.143C232.844 138.197 242.509 128.423 254.564 128.532C266.51 128.641 276.175 138.306 276.175 150.469C276.067 162.306 266.401 171.971 254.455 171.971Z" fill="#0090FF"/>
<path fill-rule="evenodd" clip-rule="evenodd" d="M256.802 147.287L256.061 151.239L263.101 152.227L262.607 154.08L255.69 153.092C255.196 154.698 254.949 156.427 254.331 157.91C253.714 159.639 253.096 161.368 252.355 162.974C251.367 165.074 249.637 166.556 247.291 166.927C245.932 167.174 244.45 167.05 243.338 166.186C242.967 165.938 242.597 165.444 242.597 165.074C242.597 164.58 242.844 163.962 243.214 163.715C243.461 163.592 244.079 163.715 244.45 163.839C244.82 164.209 245.191 164.703 245.438 165.197C246.179 166.186 247.167 166.309 248.155 165.568C249.267 164.58 249.885 163.221 250.255 161.862C250.996 158.898 251.737 156.057 252.355 153.092V152.598L245.808 151.61L246.055 149.757L252.849 150.745L253.714 146.916L246.673 145.804L246.92 143.828L254.208 144.816C254.455 144.075 254.578 143.457 254.825 142.84C255.443 140.616 256.061 138.393 257.543 136.417C259.025 134.44 260.754 133.205 263.348 133.329C264.46 133.329 265.572 133.699 266.313 134.564C266.437 134.687 266.684 134.934 266.684 135.181C266.684 135.675 266.684 136.293 266.313 136.664C265.819 137.034 265.201 136.911 264.707 136.417C264.337 136.046 264.09 135.675 263.719 135.305C262.978 134.317 261.866 134.193 261.002 135.058C260.384 135.675 259.766 136.54 259.396 137.405C258.531 139.999 257.913 142.716 257.049 145.434L263.843 146.422L263.348 148.275L256.802 147.287Z" fill="white"/>
<path d="M265.336 99.5037C265.704 99.2868 266.125 99.1724 266.552 99.1724H285.112C285.377 99.1724 285.592 99.3873 285.592 99.6524V109.186H248.876L265.336 99.5037Z" fill="#0090FF"/>
<path d="M220.118 107.072C220.148 106.942 220.265 106.85 220.399 106.85H288.367C288.501 106.85 288.617 106.942 288.647 107.072L290.85 116.51C290.892 116.69 290.755 116.863 290.569 116.863H218.196C218.011 116.863 217.874 116.69 217.916 116.51L220.118 107.072Z" fill="#77B6FF"/>
<rect x="271.537" y="132.416" width="28.5052" height="35.9832" rx="5.472" fill="#FFAD06" stroke="#FF5C00" stroke-width="0.576"/>
<path d="M272.911 145.7H283.158" stroke="#FF5C00" stroke-width="0.576"/>
<path d="M272.911 154.84H283.158" stroke="#FF5C00" stroke-width="0.576"/>
<mask id="path-16-outside-1_240_548" maskUnits="userSpaceOnUse" x="-1" y="77.4536" width="79" height="75" fill="black">
<rect fill="white" x="-1" y="77.4536" width="79" height="75"/>
<path fill-rule="evenodd" clip-rule="evenodd" d="M1.004 151.033C2.93032 139.527 6.67599 116.963 6.67599 116.198C6.67599 116.068 6.65549 115.387 6.62277 114.301C6.41223 107.309 5.69555 83.5124 6.67599 81.4661C7.8088 79.1019 11.1758 77.1372 14.1022 79.568C15.7055 80.8998 18.5553 86.4391 21.0065 91.2034C22.9239 94.9302 24.5973 98.1829 25.2393 98.5767C25.2999 98.6139 25.3678 98.5928 25.4291 98.557C26.4381 97.968 30.3077 96.8986 38.6613 96.884C38.6614 96.884 38.6614 96.8839 38.6614 96.8839V96.8839C38.6614 96.8839 38.6615 96.8838 38.6615 96.8838C38.6905 96.8838 38.7195 96.8838 38.7484 96.8839C38.7773 96.8838 38.8063 96.8838 38.8353 96.8838C38.8354 96.8838 38.8354 96.8839 38.8354 96.8839V96.8839C38.8354 96.8839 38.8354 96.884 38.8355 96.884C47.1892 96.8986 51.0587 97.968 52.0677 98.557C52.129 98.5928 52.1969 98.6139 52.2575 98.5767C52.8995 98.1829 54.573 94.9302 56.4903 91.2034C58.9415 86.4391 61.7914 80.8998 63.3946 79.568C66.321 77.1372 69.688 79.1019 70.8208 81.4661C71.8013 83.5124 71.0846 107.309 70.8741 114.301C70.8413 115.387 70.8208 116.068 70.8208 116.198C70.8208 116.963 74.5665 139.527 76.4928 151.033C76.5222 151.209 76.3857 151.362 76.2076 151.362H38.8354H38.6614H1.28921C1.11115 151.362 0.974598 151.209 1.004 151.033Z"/>
</mask>
<path fill-rule="evenodd" clip-rule="evenodd" d="M1.004 151.033C2.93032 139.527 6.67599 116.963 6.67599 116.198C6.67599 116.068 6.65549 115.387 6.62277 114.301C6.41223 107.309 5.69555 83.5124 6.67599 81.4661C7.8088 79.1019 11.1758 77.1372 14.1022 79.568C15.7055 80.8998 18.5553 86.4391 21.0065 91.2034C22.9239 94.9302 24.5973 98.1829 25.2393 98.5767C25.2999 98.6139 25.3678 98.5928 25.4291 98.557C26.4381 97.968 30.3077 96.8986 38.6613 96.884C38.6614 96.884 38.6614 96.8839 38.6614 96.8839V96.8839C38.6614 96.8839 38.6615 96.8838 38.6615 96.8838C38.6905 96.8838 38.7195 96.8838 38.7484 96.8839C38.7773 96.8838 38.8063 96.8838 38.8353 96.8838C38.8354 96.8838 38.8354 96.8839 38.8354 96.8839V96.8839C38.8354 96.8839 38.8354 96.884 38.8355 96.884C47.1892 96.8986 51.0587 97.968 52.0677 98.557C52.129 98.5928 52.1969 98.6139 52.2575 98.5767C52.8995 98.1829 54.573 94.9302 56.4903 91.2034C58.9415 86.4391 61.7914 80.8998 63.3946 79.568C66.321 77.1372 69.688 79.1019 70.8208 81.4661C71.8013 83.5124 71.0846 107.309 70.8741 114.301C70.8413 115.387 70.8208 116.068 70.8208 116.198C70.8208 116.963 74.5665 139.527 76.4928 151.033C76.5222 151.209 76.3857 151.362 76.2076 151.362H38.8354H38.6614H1.28921C1.11115 151.362 0.974598 151.209 1.004 151.033Z" fill="white"/>
<path d="M1.004 151.033L0.0177225 150.868L0.0177225 150.868L1.004 151.033ZM6.62277 114.301L7.62232 114.27L7.62232 114.27L6.62277 114.301ZM6.67599 81.4661L7.57781 81.8982L7.57781 81.8982L6.67599 81.4661ZM14.1022 79.568L13.4633 80.3373L13.4633 80.3373L14.1022 79.568ZM21.0065 91.2034L21.8957 90.7459L21.8957 90.7459L21.0065 91.2034ZM25.2393 98.5767L24.7165 99.4291L24.7165 99.4291L25.2393 98.5767ZM25.4291 98.557L25.9332 99.4206L25.9333 99.4206L25.4291 98.557ZM38.7484 96.8839L38.7476 97.8839L38.7493 97.8839L38.7484 96.8839ZM52.0677 98.557L51.5636 99.4206L51.5636 99.4206L52.0677 98.557ZM52.2575 98.5767L51.7346 97.7243L51.7346 97.7243L52.2575 98.5767ZM56.4903 91.2034L55.6011 90.7459L55.6011 90.7459L56.4903 91.2034ZM63.3946 79.568L64.0336 80.3373L64.0336 80.3373L63.3946 79.568ZM70.8208 81.4661L71.7227 81.034L71.7227 81.034L70.8208 81.4661ZM70.8741 114.301L71.8736 114.331L71.8736 114.331L70.8741 114.301ZM76.4928 151.033L75.5066 151.198L75.5066 151.198L76.4928 151.033ZM38.8355 96.884L38.8337 97.884L38.8355 96.884ZM38.8353 96.8838L38.8353 95.8838L38.8353 96.8838ZM38.6615 96.8838L38.6615 95.8838L38.6615 96.8838ZM38.6613 96.884L38.6631 97.884L38.6613 96.884ZM5.67599 116.198C5.67599 116.163 5.67419 116.216 5.64216 116.457C5.61528 116.659 5.57501 116.94 5.5222 117.295C5.41672 118.003 5.26346 118.988 5.07298 120.189C4.69215 122.589 4.16408 125.838 3.57556 129.425C2.39859 136.599 0.980784 145.115 0.0177225 150.868L1.99027 151.198C2.95353 145.444 4.37172 136.926 5.54917 129.749C6.13785 126.161 6.6666 122.907 7.04827 120.502C7.23905 119.3 7.39347 118.307 7.50036 117.59C7.55373 117.231 7.59581 116.938 7.62475 116.72C7.64852 116.541 7.67599 116.328 7.67599 116.198H5.67599ZM5.62322 114.331C5.65643 115.433 5.67599 116.088 5.67599 116.198H7.67599C7.67599 116.048 7.65455 115.341 7.62232 114.27L5.62322 114.331ZM5.77416 81.034C5.64775 81.2979 5.57563 81.6308 5.52538 81.9292C5.47057 82.2548 5.42533 82.6484 5.38723 83.0922C5.31091 83.9816 5.25867 85.1292 5.22477 86.451C5.15689 89.0978 5.16132 92.4974 5.20283 96.0407C5.28588 103.13 5.51797 110.836 5.62322 114.331L7.62232 114.27C7.51702 110.774 7.2855 103.086 7.20269 96.0173C7.16127 92.4817 7.1572 89.1114 7.22411 86.5023C7.25761 85.1962 7.30859 84.0943 7.37991 83.2632C7.41564 82.8469 7.45533 82.5125 7.49763 82.2613C7.54449 81.983 7.58167 81.8902 7.57781 81.8982L5.77416 81.034ZM14.7412 78.7988C12.9896 77.3438 11.041 77.1828 9.37954 77.7774C7.76952 78.3536 6.44838 79.6269 5.77416 81.034L7.57781 81.8982C8.03641 80.9411 8.96518 80.0499 10.0535 79.6604C11.0903 79.2894 12.2884 79.3614 13.4633 80.3373L14.7412 78.7988ZM21.8957 90.7459C20.6726 88.3686 19.3374 85.773 18.1059 83.6046C17.4901 82.5204 16.8921 81.5283 16.3397 80.7157C15.8016 79.9241 15.2573 79.2275 14.7412 78.7988L13.4633 80.3373C13.7488 80.5745 14.1619 81.0697 14.6857 81.8401C15.1952 82.5896 15.7634 83.5298 16.3668 84.5923C17.5739 86.7176 18.8892 89.2738 20.1173 91.6609L21.8957 90.7459ZM25.7622 97.7243C25.8273 97.7643 25.8164 97.7758 25.7218 97.6617C25.6424 97.5658 25.5388 97.4242 25.4105 97.2305C25.1548 96.8442 24.8402 96.3107 24.4752 95.6541C23.7465 94.3431 22.8571 92.6146 21.8957 90.7459L20.1173 91.6609C21.0733 93.5191 21.9793 95.2803 22.7271 96.6258C23.1005 97.2974 23.4445 97.8838 23.7429 98.3346C23.8918 98.5595 24.0393 98.7658 24.1817 98.9377C24.3091 99.0914 24.4909 99.2907 24.7165 99.4291L25.7622 97.7243ZM24.925 97.6934C24.9487 97.6796 25.0385 97.6285 25.1776 97.6065C25.3392 97.5809 25.5563 97.598 25.7622 97.7243L24.7165 99.4291C25.2813 99.7756 25.8095 99.4929 25.9332 99.4206L24.925 97.6934ZM38.6596 95.884C34.4426 95.8914 31.333 96.1649 29.1326 96.5177C26.9711 96.8644 25.5973 97.301 24.925 97.6934L25.9333 99.4206C26.27 99.2241 27.3355 98.8315 29.4493 98.4925C31.5244 98.1598 34.5264 97.8912 38.6631 97.884L38.6596 95.884ZM38.6615 97.8838C38.6902 97.8838 38.7189 97.8838 38.7476 97.8839L38.7493 95.8839C38.7201 95.8838 38.6908 95.8838 38.6615 95.8838L38.6615 97.8838ZM38.8353 95.8838C38.806 95.8838 38.7767 95.8838 38.7476 95.8839L38.7493 97.8839C38.7779 97.8838 38.8066 97.8838 38.8353 97.8838L38.8353 95.8838ZM38.8337 97.884C42.9704 97.8912 45.9724 98.1598 48.0475 98.4925C50.1614 98.8315 51.2268 99.2241 51.5636 99.4206L52.5718 97.6934C51.8996 97.301 50.5258 96.8644 48.3642 96.5177C46.1638 96.1649 43.0542 95.8914 38.8372 95.884L38.8337 97.884ZM51.5636 99.4206C51.6874 99.4929 52.2155 99.7756 52.7804 99.4291L51.7346 97.7243C51.9405 97.598 52.1576 97.5809 52.3192 97.6065C52.4583 97.6285 52.5482 97.6796 52.5718 97.6934L51.5636 99.4206ZM52.7804 99.4291C53.006 99.2907 53.1878 99.0914 53.3151 98.9377C53.4575 98.7658 53.605 98.5595 53.7539 98.3346C54.0524 97.8838 54.3964 97.2974 54.7697 96.6258C55.5176 95.2803 56.4236 93.5191 57.3795 91.6609L55.6011 90.7459C54.6397 92.6146 53.7503 94.3431 53.0216 95.6541C52.6567 96.3107 52.3421 96.8442 52.0863 97.2305C51.9581 97.4242 51.8545 97.5658 51.775 97.6617C51.6804 97.7758 51.6695 97.7643 51.7346 97.7243L52.7804 99.4291ZM57.3795 91.6609C58.6076 89.2738 59.923 86.7176 61.13 84.5923C61.7335 83.5298 62.3017 82.5896 62.8112 81.8401C63.3349 81.0697 63.748 80.5745 64.0336 80.3373L62.7556 78.7988C62.2395 79.2275 61.6953 79.9241 61.1571 80.7157C60.6048 81.5283 60.0067 82.5204 59.3909 83.6046C58.1594 85.773 56.8242 88.3686 55.6011 90.7459L57.3795 91.6609ZM64.0336 80.3373C65.2084 79.3614 66.4065 79.2894 67.4434 79.6604C68.5317 80.0499 69.4604 80.9411 69.919 81.8982L71.7227 81.034C71.0485 79.6269 69.7273 78.3536 68.1173 77.7774C66.4558 77.1828 64.5073 77.3438 62.7556 78.7988L64.0336 80.3373ZM69.919 81.8982C69.9152 81.8902 69.9523 81.983 69.9992 82.2613C70.0415 82.5125 70.0812 82.8469 70.1169 83.2632C70.1882 84.0943 70.2392 85.1962 70.2727 86.5023C70.3396 89.1114 70.3356 92.4817 70.2941 96.0173C70.2113 103.086 69.9798 110.774 69.8745 114.27L71.8736 114.331C71.9789 110.836 72.211 103.13 72.294 96.0407C72.3355 92.4974 72.3399 89.0978 72.2721 86.451C72.2382 85.1292 72.1859 83.9816 72.1096 83.0922C72.0715 82.6484 72.0263 82.2548 71.9715 81.9292C71.9212 81.6308 71.8491 81.2979 71.7227 81.034L69.919 81.8982ZM69.8745 114.27C69.8423 115.341 69.8208 116.048 69.8208 116.198H71.8208C71.8208 116.088 71.8404 115.433 71.8736 114.331L69.8745 114.27ZM69.8208 116.198C69.8208 116.328 69.8483 116.541 69.8721 116.72C69.901 116.938 69.9431 117.231 69.9965 117.59C70.1034 118.307 70.2578 119.3 70.4486 120.502C70.8302 122.907 71.359 126.161 71.9477 129.749C73.1251 136.926 74.5433 145.444 75.5066 151.198L77.4791 150.868C76.5161 145.115 75.0982 136.599 73.9213 129.425C73.3328 125.838 72.8047 122.589 72.4239 120.189C72.2334 118.988 72.0801 118.003 71.9746 117.295C71.9218 116.94 71.8815 116.659 71.8547 116.457C71.8226 116.216 71.8208 116.163 71.8208 116.198H69.8208ZM75.5066 151.198C75.4282 150.73 75.8022 150.362 76.2076 150.362V152.362C76.9692 152.362 77.6163 151.687 77.4791 150.868L75.5066 151.198ZM76.2076 150.362H38.8354V152.362H76.2076V150.362ZM38.8354 150.362H38.6614V152.362H38.8354V150.362ZM1.28921 152.362H38.6614V150.362H1.28921V152.362ZM0.0177225 150.868C-0.119399 151.687 0.527591 152.362 1.28921 152.362V150.362C1.69471 150.362 2.06859 150.73 1.99027 151.198L0.0177225 150.868ZM37.8354 96.8839C37.8354 97.4572 38.304 97.883 38.8337 97.884L38.8372 95.884C39.3669 95.8849 39.8354 96.3107 39.8354 96.8839H37.8354ZM38.8353 97.8838C38.2832 97.8838 37.8354 97.4362 37.8354 96.8839H39.8354C39.8354 96.3315 39.3876 95.8838 38.8353 95.8838L38.8353 97.8838ZM39.6614 96.8839C39.6614 97.4362 39.2137 97.8838 38.6615 97.8838L38.6615 95.8838C38.1092 95.8838 37.6614 96.3315 37.6614 96.8839H39.6614ZM38.6631 97.884C39.1928 97.883 39.6614 97.4572 39.6614 96.8839H37.6614C37.6614 96.3107 38.13 95.8849 38.6596 95.884L38.6631 97.884Z" fill="#D0D0D0" mask="url(#path-16-outside-1_240_548)"/>
<path fill-rule="evenodd" clip-rule="evenodd" d="M62.9109 151.074V142.522C62.9109 141.901 62.8106 141.285 62.6139 140.696L61.2963 136.754C61.0482 136.011 60.6516 135.328 60.1306 134.744L47.3409 120.414C46.9629 119.991 46.5245 119.625 46.0398 119.33L45.1383 118.781C44.2356 118.231 43.199 117.94 42.142 117.94H38.8353V117.94H36.3019C35.2449 117.94 34.2083 118.231 33.3056 118.781L32.4041 119.33C31.9194 119.625 31.4809 119.991 31.103 120.414L18.3133 134.744C17.7923 135.328 17.3957 136.012 17.1476 136.754L15.83 140.696C15.6333 141.285 15.533 141.902 15.533 142.522V151.074C15.533 151.233 15.6619 151.362 15.821 151.362H39.3205C39.3232 151.362 39.3258 151.362 39.3285 151.362H62.6229C62.782 151.362 62.9109 151.233 62.9109 151.074Z" fill="#CFCFCF"/>
<path fill-rule="evenodd" clip-rule="evenodd" d="M36.8224 132.475C34.8342 132.475 33.2224 134.086 33.2224 136.075V137.633C33.2224 137.766 33.3299 137.873 33.4624 137.873H43.8759C44.0085 137.873 44.1159 137.766 44.1159 137.633V136.075C44.1159 134.086 42.5042 132.475 40.5159 132.475H36.8224Z" fill="black"/>
<path fill-rule="evenodd" clip-rule="evenodd" d="M27.1544 108.633C27.4725 108.633 27.7304 108.891 27.7304 109.209V113.853C27.7304 114.171 27.4725 114.429 27.1544 114.429H19.1649C18.9868 114.429 18.8386 114.29 18.8386 114.112V114.112C18.8386 111.086 21.2914 108.633 24.317 108.633H27.1544Z" fill="black"/>
<path fill-rule="evenodd" clip-rule="evenodd" d="M39.2258 129.339C41.3074 129.325 44.5682 128.029 45.9605 125.113C47.7103 121.448 46.7859 118.081 39.1925 118.081V118.081C31.6297 118.091 30.7105 121.454 32.4578 125.113C33.8576 128.045 37.1459 129.339 39.2258 129.339V129.339Z" fill="black"/>
<ellipse opacity="0.6" cx="39.156" cy="119.849" rx="3.56028" ry="1.23836" fill="white"/>
<path fill-rule="evenodd" clip-rule="evenodd" d="M50.0994 108.633C49.7812 108.633 49.5234 108.891 49.5234 109.209V113.853C49.5234 114.171 49.7812 114.429 50.0994 114.429H58.0893C58.2673 114.429 58.4155 114.29 58.4155 114.112V114.112C58.4155 111.086 55.9628 108.633 52.9371 108.633H50.0994Z" fill="black"/>
<path d="M52.0557 162.699L48.568 129.245H77.2711L73.7835 162.699H52.0557Z" fill="white" stroke="#C9C9C9"/>
<path fill-rule="evenodd" clip-rule="evenodd" d="M62.9658 156.974C57.5113 156.974 53.0486 152.511 53.0486 147.007C53.0982 141.553 57.5113 137.09 63.0154 137.14C68.4698 137.19 72.883 141.603 72.883 147.156C72.8334 152.561 68.4202 156.974 62.9658 156.974Z" fill="white"/>
<path fill-rule="evenodd" clip-rule="evenodd" d="M64.0369 145.703L63.6985 147.508L66.9133 147.959L66.6877 148.805L63.5294 148.354C63.3038 149.087 63.191 149.877 62.909 150.554C62.627 151.343 62.345 152.133 62.0066 152.866C61.5554 153.825 60.7658 154.501 59.6942 154.671C59.0738 154.783 58.397 154.727 57.8894 154.332C57.7202 154.219 57.551 153.994 57.551 153.825C57.551 153.599 57.6638 153.317 57.833 153.204C57.9458 153.148 58.2278 153.204 58.397 153.261C58.5662 153.43 58.7354 153.655 58.8482 153.881C59.1866 154.332 59.6378 154.389 60.089 154.05C60.5966 153.599 60.8786 152.979 61.0478 152.358C61.3862 151.005 61.7246 149.708 62.0066 148.354V148.128L59.0174 147.677L59.1302 146.831L62.2322 147.282L62.627 145.534L59.4122 145.026L59.525 144.124L62.8526 144.575C62.9654 144.237 63.0218 143.955 63.1346 143.673C63.4166 142.658 63.6985 141.642 64.3753 140.74C65.0521 139.838 65.8417 139.274 67.0261 139.33C67.5337 139.33 68.0413 139.499 68.3797 139.894C68.4361 139.95 68.5489 140.063 68.5489 140.176C68.5489 140.402 68.5489 140.684 68.3797 140.853C68.1541 141.022 67.8721 140.966 67.6465 140.74C67.4773 140.571 67.3645 140.402 67.1953 140.232C66.8569 139.781 66.3493 139.725 65.9545 140.12C65.6725 140.402 65.3905 140.796 65.2213 141.191C64.8265 142.376 64.5445 143.616 64.1497 144.857L67.2517 145.308L67.0261 146.154L64.0369 145.703Z" fill="black"/>
<path d="M67.6274 124.066C67.9963 123.849 68.4164 123.735 68.8443 123.735H76.7025C76.9676 123.735 77.1825 123.95 77.1825 124.215V128.307H60.4182L67.6274 124.066Z" fill="white"/>
<path d="M47.2593 127.462C47.2897 127.332 47.4059 127.24 47.5397 127.24H78.3252C78.459 127.24 78.5752 127.332 78.6057 127.462L79.5381 131.458C79.5802 131.639 79.4431 131.812 79.2576 131.812H46.6073C46.4218 131.812 46.2847 131.639 46.3269 131.458L47.2593 127.462Z" fill="black"/>
<rect x="70.6335" y="138.782" width="13.2782" height="16.6926" rx="5.76" fill="#CFCFCF"/>
<path fill-rule="evenodd" clip-rule="evenodd" d="M334.993 151.033C336.92 139.527 340.665 116.963 340.665 116.198C340.665 116.068 340.645 115.387 340.612 114.301C340.401 107.309 339.685 83.5124 340.665 81.4661C341.798 79.1019 345.165 77.1372 348.091 79.568C349.695 80.8998 352.545 86.4391 354.996 91.2034C356.913 94.9302 358.587 98.1829 359.229 98.5767C359.289 98.6139 359.357 98.5928 359.418 98.557C360.427 97.968 364.297 96.8986 372.651 96.884C372.651 96.884 372.651 96.8839 372.651 96.8839V96.8839C372.651 96.8839 372.651 96.8838 372.651 96.8838C372.68 96.8838 372.709 96.8838 372.738 96.8839C372.767 96.8838 372.796 96.8838 372.825 96.8838C372.825 96.8838 372.825 96.8839 372.825 96.8839V96.8839C372.825 96.8839 372.825 96.884 372.825 96.884C381.178 96.8986 385.048 97.968 386.057 98.557C386.118 98.5928 386.186 98.6139 386.247 98.5767C386.889 98.1829 388.562 94.9302 390.48 91.2034C392.931 86.4391 395.781 80.8998 397.384 79.568C400.31 77.1372 403.677 79.1019 404.81 81.4661C405.791 83.5124 405.074 107.309 404.863 114.301C404.831 115.387 404.81 116.068 404.81 116.198C404.81 116.963 408.556 139.527 410.482 151.033C410.511 151.209 410.375 151.362 410.197 151.362H372.825H372.651H335.278C335.1 151.362 334.964 151.209 334.993 151.033Z" fill="#CFCFCF"/>
<path fill-rule="evenodd" clip-rule="evenodd" d="M396.901 151.074V142.522C396.901 141.901 396.8 141.285 396.604 140.696L395.286 136.754C395.038 136.011 394.641 135.328 394.12 134.744L381.331 120.414C380.953 119.991 380.514 119.625 380.029 119.33L379.128 118.781C378.225 118.231 377.189 117.94 376.132 117.94H372.825V117.94H370.291C369.234 117.94 368.198 118.231 367.295 118.781L366.394 119.33C365.909 119.625 365.47 119.991 365.093 120.414L352.303 134.744C351.782 135.328 351.385 136.012 351.137 136.754L349.819 140.696C349.623 141.285 349.522 141.902 349.522 142.522V151.074C349.522 151.233 349.651 151.362 349.81 151.362H373.31C373.313 151.362 373.315 151.362 373.318 151.362H396.613C396.772 151.362 396.901 151.233 396.901 151.074Z" fill="white"/>
<path fill-rule="evenodd" clip-rule="evenodd" d="M370.812 132.475C368.824 132.475 367.212 134.086 367.212 136.075V137.633C367.212 137.766 367.319 137.873 367.452 137.873H377.865C377.998 137.873 378.105 137.766 378.105 137.633V136.075C378.105 134.086 376.494 132.475 374.505 132.475H370.812Z" fill="black"/>
<path fill-rule="evenodd" clip-rule="evenodd" d="M361.144 108.633C361.462 108.633 361.72 108.891 361.72 109.209V113.853C361.72 114.171 361.462 114.429 361.144 114.429H353.154C352.976 114.429 352.828 114.29 352.828 114.112V114.112C352.828 111.086 355.281 108.633 358.307 108.633H361.144Z" fill="black"/>
<path fill-rule="evenodd" clip-rule="evenodd" d="M373.215 129.339C375.296 129.325 378.557 128.029 379.95 125.113C381.699 121.448 380.775 118.081 373.181 118.081V118.081C365.619 118.091 364.7 121.454 366.447 125.113C367.847 128.045 371.135 129.339 373.215 129.339V129.339Z" fill="black"/>
<ellipse opacity="0.6" cx="373.145" cy="119.849" rx="3.56028" ry="1.23836" fill="white"/>
<path fill-rule="evenodd" clip-rule="evenodd" d="M384.089 108.633C383.77 108.633 383.513 108.891 383.513 109.209V113.853C383.513 114.171 383.77 114.429 384.089 114.429H392.079C392.257 114.429 392.405 114.29 392.405 114.112V114.112C392.405 111.086 389.952 108.633 386.926 108.633H384.089Z" fill="black"/>
<path d="M382.036 129.063C382.018 128.893 382.151 128.745 382.322 128.745H411.496C411.667 128.745 411.8 128.893 411.782 129.063L408.25 162.941C408.235 163.087 408.111 163.199 407.964 163.199H385.854C385.706 163.199 385.583 163.087 385.567 162.941L382.036 129.063Z" fill="black"/>
<path fill-rule="evenodd" clip-rule="evenodd" d="M396.955 156.974C391.5 156.974 387.038 152.511 387.038 147.007C387.087 141.553 391.5 137.09 397.004 137.14C402.459 137.19 406.872 141.603 406.872 147.156C406.822 152.561 402.409 156.974 396.955 156.974Z" fill="black"/>
<path fill-rule="evenodd" clip-rule="evenodd" d="M398.026 145.703L397.688 147.508L400.902 147.959L400.677 148.805L397.518 148.354C397.293 149.087 397.18 149.877 396.898 150.554C396.616 151.343 396.334 152.133 395.996 152.866C395.544 153.825 394.755 154.501 393.683 154.671C393.063 154.783 392.386 154.727 391.878 154.332C391.709 154.219 391.54 153.994 391.54 153.825C391.54 153.599 391.653 153.317 391.822 153.204C391.935 153.148 392.217 153.204 392.386 153.261C392.555 153.43 392.724 153.655 392.837 153.881C393.176 154.332 393.627 154.389 394.078 154.05C394.586 153.599 394.868 152.979 395.037 152.358C395.375 151.005 395.714 149.708 395.996 148.354V148.128L393.006 147.677L393.119 146.831L396.221 147.282L396.616 145.534L393.401 145.026L393.514 144.124L396.842 144.575C396.954 144.237 397.011 143.955 397.124 143.673C397.406 142.658 397.688 141.642 398.364 140.74C399.041 139.838 399.831 139.274 401.015 139.33C401.523 139.33 402.03 139.499 402.369 139.894C402.425 139.95 402.538 140.063 402.538 140.176C402.538 140.402 402.538 140.684 402.369 140.853C402.143 141.022 401.861 140.966 401.636 140.74C401.466 140.571 401.354 140.402 401.184 140.232C400.846 139.781 400.338 139.725 399.944 140.12C399.662 140.402 399.38 140.796 399.21 141.191C398.816 142.376 398.534 143.616 398.139 144.857L401.241 145.308L401.015 146.154L398.026 145.703Z" fill="white"/>
<path d="M401.617 124.066C401.986 123.849 402.406 123.735 402.834 123.735H410.692C410.957 123.735 411.172 123.95 411.172 124.215V128.307H394.408L401.617 124.066Z" fill="black"/>
<path d="M381.249 127.462C381.279 127.332 381.395 127.24 381.529 127.24H412.315C412.449 127.24 412.565 127.332 412.595 127.462L413.528 131.458C413.57 131.639 413.433 131.812 413.247 131.812H380.597C380.411 131.812 380.274 131.639 380.316 131.458L381.249 127.462Z" fill="white"/>
<rect x="404.623" y="138.782" width="13.2782" height="16.6926" rx="5.76" fill="#CFCFCF"/>
</svg>
