<svg width="127" height="117" viewBox="0 0 127 117" fill="none" xmlns="http://www.w3.org/2000/svg">
<path d="M105.915 103.522C106.365 100.12 104.95 98.8626 103.481 98.5414C102.576 98.3434 101.674 97.7105 101.674 96.8314C101.674 96.0915 101.049 95.4875 100.266 95.4724L24.0321 94.001C23.0417 93.9818 22.0689 94.2502 21.2447 94.7699L20.0874 95.4996C8.37445 104.859 49.1679 114.6 62.6984 114.982C76.2289 115.364 105.107 109.634 105.915 103.522Z" fill="white"/>
<path fill-rule="evenodd" clip-rule="evenodd" d="M25.1541 92.0013C23.9356 91.9756 22.7388 92.3357 21.7247 93.0329L20.5293 93.8549L20.4775 93.9C18.8757 95.2957 17.9719 96.8795 18.0007 98.6264C18.0288 100.333 18.9451 101.855 20.2251 103.162C22.7711 105.76 27.3374 108.095 32.4857 110.062C42.8418 114.019 56.3379 116.77 63.1519 116.98C69.9548 117.19 80.5052 115.731 89.4432 113.407C93.915 112.244 98.0467 110.849 101.135 109.304C102.677 108.533 104.009 107.7 105 106.804C105.974 105.923 106.755 104.857 106.907 103.602C107.148 101.616 106.915 100.066 106.265 98.9172C105.598 97.7398 104.584 97.1414 103.597 96.906C103.323 96.8405 103.071 96.7053 102.91 96.5531C102.756 96.408 102.742 96.3111 102.742 96.2691C102.742 94.8054 101.607 93.6105 100.188 93.5807L25.1541 92.0013ZM23.0478 95.0799C23.6562 94.6615 24.3744 94.4455 25.1054 94.4609L100.14 96.0403C100.261 96.0428 100.357 96.1445 100.357 96.2691C100.357 97.1706 100.788 97.8851 101.3 98.3686C101.805 98.8451 102.443 99.1558 103.06 99.3029C103.519 99.4124 103.924 99.6609 104.204 100.157C104.501 100.682 104.742 101.632 104.541 103.297C104.494 103.683 104.213 104.244 103.428 104.954C102.661 105.648 101.538 106.369 100.095 107.09C97.2141 108.531 93.2583 109.878 88.8601 111.021C80.058 113.31 69.7376 114.722 63.223 114.521C56.7195 114.321 43.4812 111.64 33.3143 107.755C28.2012 105.801 24.0589 103.613 21.9028 101.413C20.8317 100.32 20.3986 99.3744 20.3856 98.5846C20.3734 97.8451 20.727 96.9196 21.9668 95.8231L23.0478 95.0799Z" fill="black"/>
<path d="M116 44C116 46.7614 118.239 49 121 49C123.761 49 126 46.7614 126 44C126 41.2386 123.761 39 121 39C118.239 39 116 41.2386 116 44Z" fill="white"/>
<path fill-rule="evenodd" clip-rule="evenodd" d="M121 39.4667C123.43 39.4667 125.4 41.2725 125.4 43.5C125.4 45.7275 123.43 47.5333 121 47.5333C118.57 47.5333 116.6 45.7275 116.6 43.5C116.6 41.2725 118.57 39.4667 121 39.4667ZM127 43.5C127 40.4624 124.314 38 121 38C117.686 38 115 40.4624 115 43.5C115 46.5376 117.686 49 121 49C124.314 49 127 46.5376 127 43.5Z" fill="black"/>
<path d="M11 44C11 46.7614 8.76142 49 6 49C3.23858 49 1 46.7614 1 44C1 41.2386 3.23858 39 6 39C8.76142 39 11 41.2386 11 44Z" fill="white"/>
<path fill-rule="evenodd" clip-rule="evenodd" d="M6 39.4667C3.56995 39.4667 1.6 41.2725 1.6 43.5C1.6 45.7275 3.56995 47.5333 6 47.5333C8.43005 47.5333 10.4 45.7275 10.4 43.5C10.4 41.2725 8.43005 39.4667 6 39.4667ZM0 43.5C0 40.4624 2.68629 38 6 38C9.31371 38 12 40.4624 12 43.5C12 46.5376 9.31371 49 6 49C2.68629 49 0 46.5376 0 43.5Z" fill="black"/>
<path d="M120.955 49.4208L118.751 38.8829C118.521 37.7867 117.539 37 116.4 37C114.843 37 113.698 38.4358 114.071 39.9218L116.692 50.367C116.933 51.326 117.809 52 118.814 52C120.198 52 121.233 50.7525 120.955 49.4208Z" fill="white"/>
<path fill-rule="evenodd" clip-rule="evenodd" d="M118.909 39.4412C118.624 38.02 117.403 37 115.986 37C114.048 37 112.624 38.8614 113.088 40.788L115.506 50.8292C115.813 52.1041 116.93 53 118.212 53C119.977 53 121.297 51.3416 120.942 49.5714L118.909 39.4412ZM115.986 38.5802C116.67 38.5802 117.26 39.0729 117.398 39.7592L119.43 49.8895C119.589 50.6796 119 51.4198 118.212 51.4198C117.64 51.4198 117.141 51.0199 117.004 50.4508L114.586 40.4097C114.362 39.4792 115.05 38.5802 115.986 38.5802Z" fill="black"/>
<path d="M6.0455 49.4208L8.24933 38.8829C8.47857 37.7867 9.46057 37 10.5995 37C12.1573 37 13.302 38.4358 12.9291 39.9218L10.3077 50.367C10.067 51.326 9.1914 52 8.18603 52C6.80234 52 5.767 50.7525 6.0455 49.4208Z" fill="white"/>
<path fill-rule="evenodd" clip-rule="evenodd" d="M8.09066 39.4412C8.37582 38.02 9.59733 37 11.0141 37C12.9517 37 14.3757 38.8614 13.9118 40.788L11.4941 50.8292C11.1871 52.1041 10.0703 53 8.78805 53C7.0233 53 5.70283 51.3416 6.05803 49.5714L8.09066 39.4412ZM11.0141 38.5802C10.3298 38.5802 9.73991 39.0729 9.60219 39.7592L7.56956 49.8895C7.41102 50.6796 8.00039 51.4198 8.78805 51.4198C9.36036 51.4198 9.85882 51.0199 9.99583 50.4508L12.4135 40.4097C12.6376 39.4792 11.9499 38.5802 11.0141 38.5802Z" fill="black"/>
<path d="M117.911 56.4942C119.196 74.925 106.263 92.0869 99.6355 98.3641C67.302 116.394 31.3539 101.569 22.9192 95.3591C14.4844 89.1487 8.66034 74.7246 10.267 50.6845C11.8736 26.6444 27.9399 0 64.2898 0C100.64 0 116.304 33.4558 117.911 56.4942Z" fill="white"/>
<path fill-rule="evenodd" clip-rule="evenodd" d="M104.028 21.4625C112.491 32.4499 116.726 46.2864 117.513 57.5664C118.133 66.4503 115.326 75.0892 111.501 82.323C107.721 89.4739 102.994 95.1606 99.7851 98.2267C84.0165 106.973 67.3553 107.761 53.5466 105.575C39.6673 103.379 28.8026 98.1998 24.7843 95.2411C16.8799 89.4211 11.0726 75.5862 12.6639 51.7747C13.4497 40.0174 17.7711 27.6638 26.2874 18.2677C34.7783 8.89952 47.505 2.39514 65.2885 2.39514C82.9711 2.39514 95.5931 10.5116 104.028 21.4625ZM105.932 20.0032C97.1098 8.54967 83.821 0 65.2885 0C46.857 0 33.4727 6.76866 24.5064 16.6614C15.5654 26.5261 11.0832 39.4213 10.2682 51.6153C8.65824 75.7065 14.4558 90.6132 23.3584 97.1681C27.7436 100.397 38.988 105.696 53.1704 107.941C67.3846 110.19 84.683 109.392 101.089 100.244L101.22 100.17L101.33 100.067C104.722 96.8536 109.675 90.9118 113.625 83.4403C117.574 75.9707 120.569 66.8789 119.908 57.4001C119.094 45.7267 114.726 31.4204 105.932 20.0032Z" fill="black"/>
<path fill-rule="evenodd" clip-rule="evenodd" d="M64.0502 26.7174C82.9675 26.0628 96.8833 29.995 101.405 32L102 30.4818C97.2477 28.3748 83.1081 24.4123 64 25.0735L64.0502 26.7174Z" fill="black"/>
<path fill-rule="evenodd" clip-rule="evenodd" d="M48 27H59V25H48V27Z" fill="black"/>
<path fill-rule="evenodd" clip-rule="evenodd" d="M37.2105 29L44 27.9948L43.7895 26L37 27.0052L37.2105 29Z" fill="black"/>
<path fill-rule="evenodd" clip-rule="evenodd" d="M28.4101 31L34 29.4725L33.5899 28L28 29.5275L28.4101 31Z" fill="black"/>
<path d="M22 52.2851C22 60.9665 23.5341 73.4339 24.5414 80.2499C24.743 81.6136 25.5348 82.825 26.751 83.4916C48.0366 95.1594 83.106 88.6483 100.503 83.1775C102.024 82.6992 103.17 81.4776 103.517 79.9331C104.693 74.6975 106.229 65.2083 105.971 55.5038C105.589 41.1143 105.206 29.9436 64.0813 31.0796C22.9564 32.2156 22 40.1676 22 52.2851Z" fill="black"/>
<path fill-rule="evenodd" clip-rule="evenodd" d="M20 52.8101C20 61.5888 21.5458 74.1156 22.5521 80.9204C22.82 82.732 23.8819 84.3898 25.5673 85.3131C36.5808 91.3467 51.0017 92.6167 64.6837 91.759C78.4064 90.8989 91.6205 87.8824 100.398 85.1239C102.449 84.4791 104.012 82.8226 104.484 80.7197C105.676 75.4173 107.233 65.8211 106.971 55.9771C106.969 55.8996 106.967 55.8221 106.965 55.7445C106.781 48.8026 106.594 41.743 100.753 36.8278C97.8335 34.3709 93.6346 32.5565 87.6665 31.4175C81.6965 30.2781 73.8522 29.7952 63.5365 30.08C53.2392 30.3642 45.3942 31.0759 39.4192 32.1889C33.4579 33.2994 29.2473 34.8285 26.3041 36.8213C23.3026 38.8536 21.6858 41.3241 20.8553 44.1206C20.0504 46.8314 20 49.8138 20 52.8101ZM24.1389 80.6898C23.134 73.8945 21.6037 61.465 21.6037 52.8101C21.6037 40.7295 22.5577 32.8016 63.5811 31.6691C104.604 30.5365 104.986 41.6733 105.368 56.019C105.625 65.6939 104.092 75.1543 102.919 80.374C102.573 81.9138 101.43 83.1317 99.9129 83.6084C82.5588 89.0626 47.576 95.5539 26.3429 83.9217C25.1298 83.257 24.3399 82.0493 24.1389 80.6898Z" fill="black"/>
<mask id="mask0_240_725" style="mask-type:alpha" maskUnits="userSpaceOnUse" x="22" y="31" width="84" height="59">
<path d="M22 52.2851C22 60.9665 23.5341 73.4339 24.5414 80.2499C24.743 81.6136 25.5348 82.825 26.751 83.4916C48.0366 95.1594 83.106 88.6483 100.503 83.1775C102.024 82.6992 103.17 81.4776 103.517 79.9331C104.693 74.6975 106.229 65.2083 105.971 55.5038C105.589 41.1143 105.206 29.9436 64.0813 31.0796C22.9564 32.2156 22 40.1676 22 52.2851Z" fill="black"/>
</mask>
<g mask="url(#mask0_240_725)">
<path fill-rule="evenodd" clip-rule="evenodd" d="M107.989 96.115C105.691 82.5573 101.376 56.8848 101.376 56.0037C101.376 55.8523 101.4 55.0588 101.439 53.7921C101.688 45.6416 102.534 17.8977 101.376 15.5121C100.038 12.7558 96.0621 10.4652 92.6062 13.2993C90.7129 14.8519 87.3474 21.3098 84.4527 26.8644C82.3067 30.9822 80.4195 34.6036 79.5827 35.3616C79.4416 35.4894 79.2546 35.445 79.084 35.3593C77.6938 34.6605 73.1042 33.5034 63.6021 33.487C63.6021 33.487 63.602 33.487 63.602 33.4869V33.4869C63.602 33.4869 63.602 33.4868 63.6019 33.4868C63.5679 33.4868 63.5339 33.4868 63.5 33.4869C63.4661 33.4868 63.4321 33.4868 63.3981 33.4868C63.398 33.4868 63.398 33.4869 63.398 33.4869V33.4869C63.398 33.487 63.3979 33.487 63.3979 33.487C53.8958 33.5034 49.3062 34.6605 47.916 35.3593C47.7453 35.445 47.5584 35.4894 47.4173 35.3616C46.5805 34.6036 44.6933 30.9822 42.5473 26.8644C39.6526 21.3098 36.2871 14.8519 34.3938 13.2993C30.9379 10.4652 26.9617 12.7558 25.624 15.5121C24.4661 17.8977 25.3125 45.6416 25.5611 53.7921C25.5998 55.0588 25.624 55.8523 25.624 56.0037C25.624 56.8848 21.3089 82.5573 19.0108 96.115C18.9316 96.5823 19.2979 97 19.7778 97H63.398H63.602H107.222C107.702 97 108.068 96.5823 107.989 96.115Z" fill="#FFAD06"/>
<path fill-rule="evenodd" clip-rule="evenodd" d="M91 96.233V88.087C91 86.4341 90.7294 84.7921 90.1987 83.2244L89.6613 81.6368C88.9922 79.6602 87.9222 77.839 86.5165 76.2842L72.8838 61.2048C72.2464 60.4997 71.5069 59.8915 70.6893 59.3998C69.1667 58.4843 67.4182 58 65.6354 58H63.4574H62.5426H60.3646C58.5818 58 56.8333 58.4843 55.3107 59.3998C54.4931 59.8915 53.7536 60.4997 53.1162 61.2048L39.4835 76.2842C38.0778 77.839 37.0078 79.6602 36.3387 81.6368L35.8013 83.2244C35.2706 84.7921 35 86.4341 35 88.087V96.233C35 96.6566 35.3479 97 35.777 97H62.6804C62.7943 97 62.9025 96.9758 63 96.9323C63.0975 96.9758 63.2057 97 63.3196 97H90.223C90.6521 97 91 96.6566 91 96.233Z" fill="white"/>
<path fill-rule="evenodd" clip-rule="evenodd" d="M70 82H57C57.0001 78.134 59.9419 75 63.5 75C67.0581 75 69.9999 78.134 70 82Z" fill="black"/>
<path fill-rule="evenodd" clip-rule="evenodd" d="M77.6263 47C76.7281 47 76 47.6094 76 48.361V51.639C76 52.3906 76.7281 53 77.6263 53H86.5963C86.8166 53 87 52.8561 87 52.6717V52.6717C87 49.5393 83.9658 47 80.2229 47H77.6263Z" fill="black"/>
<path fill-rule="evenodd" clip-rule="evenodd" d="M63.0197 71.9999C65.5158 71.983 69.4262 70.3714 71.096 66.7449C73.1912 62.1943 72.0889 58.0121 63.0197 58V58C63.0132 58 63.0066 58 63 58C62.9934 58 62.9868 58 62.9803 58V58C53.9111 58.0121 52.8088 62.1943 54.904 66.7449C56.5738 70.3714 60.4842 71.983 62.9803 71.9999V72C62.9868 72 62.9934 72 63 72C63.0066 72 63.0132 72 63.0197 72V71.9999Z" fill="black"/>
<path opacity="0.6" d="M59 60.5C59 61.3284 61.0147 62 63.5 62C65.9853 62 68 61.3284 68 60.5C68 59.6716 65.9853 59 63.5 59C61.0147 59 59 59.6716 59 60.5Z" fill="white"/>
<path fill-rule="evenodd" clip-rule="evenodd" d="M49.3738 47C50.2719 47 51 47.6093 51 48.361V51.639C51 52.3907 50.2719 53 49.3738 53H40.4041C40.1836 53 40 52.8559 40 52.6714V52.6714C40 49.5392 43.0341 47 46.7768 47H49.3738Z" fill="black"/>
</g>
<path opacity="0.3" d="M23 53.2851C23 61.9665 24.5158 74.4339 25.5112 81.2499C25.7103 82.6136 26.4927 83.825 27.6944 84.4916C48.7266 96.1594 83.3785 89.6483 100.568 84.1775C102.071 83.6992 103.203 82.4776 103.546 80.9331C104.708 75.6975 106.227 66.2083 105.972 56.5038C105.594 42.1143 105.216 30.9436 64.5803 32.0796C23.945 33.2156 23 41.1676 23 53.2851Z" fill="black"/>
<path opacity="0.3" fill-rule="evenodd" clip-rule="evenodd" d="M21 52.8101C21 61.5888 22.5636 74.1156 23.5815 80.9204C23.8525 82.732 24.9265 84.3898 26.6312 85.3131C37.7714 91.3467 52.3581 92.6167 66.1973 91.759C80.0777 90.8989 93.4437 87.8824 102.322 85.1239C104.397 84.4791 105.977 82.8226 106.455 80.7197C107.661 75.4173 109.235 65.8211 108.971 55.9771C108.968 55.8996 108.966 55.8221 108.964 55.7445C108.778 48.8026 108.589 41.743 102.681 36.8278C99.7281 34.3709 95.481 32.5565 89.4443 31.4175C83.4056 30.2781 75.4712 29.7952 65.0369 30.08C54.6213 30.3642 46.6861 31.0759 40.6424 32.1889C34.6126 33.2994 30.3536 34.8285 27.3766 36.8213C24.3406 38.8536 22.7052 41.3241 21.8652 44.1206C21.0509 46.8314 21 49.8138 21 52.8101ZM25.1864 80.6898C24.17 73.8945 22.6221 61.465 22.6221 52.8101C22.6221 40.7295 23.5871 32.8016 65.082 31.6691C106.577 30.5365 106.963 41.6733 107.349 56.019C107.609 65.6939 106.059 75.1543 104.872 80.374C104.522 81.9138 103.366 83.1317 101.831 83.6084C84.2779 89.0626 48.8929 95.5539 27.4158 83.9217C26.1887 83.257 25.3898 82.0493 25.1864 80.6898Z" fill="black"/>
<path opacity="0.4" d="M99.9908 43.7891C99.6665 40.2744 96.4776 39.2626 94.9238 39.1961C88.3704 38.1976 74.4529 36.4003 71.21 37.1991C67.1564 38.1976 68.7778 44.5879 75.2636 46.5849C81.7494 48.5819 83.7762 42.9903 88.6405 58.3672C93.5048 73.744 94.9238 70.9482 98.7747 70.5488C102.626 70.1494 100.396 48.1825 99.9908 43.7891Z" fill="white"/>
<path opacity="0.4" d="M35.1928 70.0616C32.9075 70.0616 34.6695 65.2173 34.0501 63.627C31.6378 61.4822 26.8512 59.7663 27.0036 70.0616C27.194 82.9307 31.3839 81.9844 43.7628 81.9844C56.1418 81.9844 51.2196 75.7963 50.0475 73.8466C48.5006 71.2733 38.0495 70.0616 35.1928 70.0616Z" fill="white"/>
</svg>
